<?xml version="1.0" encoding="utf-8"?>
<!-- Generator: Adobe Illustrator 16.0.4, SVG Export Plug-In . SVG Version: 6.00 Build 0)  -->
<!DOCTYPE svg PUBLIC "-//W3C//DTD SVG 1.1//EN" "http://www.w3.org/Graphics/SVG/1.1/DTD/svg11.dtd">
<svg version="1.1" xmlns="http://www.w3.org/2000/svg" xmlns:xlink="http://www.w3.org/1999/xlink" x="0px" y="0px"
	 width="345.077px" height="324.004px" viewBox="0 0 345.077 324.004" style="enable-background:new 0 0 345.077 324.004;"
	 xml:space="preserve">
<symbol  id="New_Symbol_1" viewBox="-2869.69 1635.391 384.073 275">
	<g id="Elements_4_">
		<g>
			<path style="fill:none;stroke:#454647;stroke-width:5;stroke-linecap:round;stroke-miterlimit:10;" d="M-2500.584,1823.523
				v-12.832h-86.4v12.832c0,2.458,0.206,4.871,0.602,7.221c1.426,8.46,5.309,16.086,10.893,22.119
				c6.46,6.979,15.192,11.818,25.021,13.346c2.176,0.339,4.413,0.515,6.686,0.515c2.273,0,4.511-0.176,6.687-0.515
				c18.323-2.849,32.842-17.213,35.912-35.465C-2500.79,1828.395-2500.584,1825.981-2500.584,1823.523z"/>
			<path style="fill:none;stroke:#454647;stroke-width:5;stroke-linecap:round;stroke-miterlimit:10;" d="M-2550.47,1866.209v6.125
				c0,3.691,2.993,6.686,6.686,6.686s6.687-2.994,6.687-6.686v-6.125"/>
			<path style="fill:none;stroke:#454647;stroke-width:5;stroke-linecap:round;stroke-miterlimit:10;" d="M-2734.672,1695.492
				c-1.476,26.48-21.861,47.916-47.869,51.037c-2.149,0.257-4.336,0.39-6.558,0.39s-4.407-0.133-6.557-0.39
				c-16.771-2.011-31.202-11.638-39.739-25.323c-4.7-7.539-7.605-16.309-8.131-25.714"/>
			<path style="fill:none;stroke:#454647;stroke-width:5;stroke-linecap:round;stroke-miterlimit:10;" d="M-2866.756,1637.892
				l7.605,47.321c0.952,5.923,6.063,10.279,12.063,10.279h115.978c5.999,0,11.111-4.356,12.062-10.279l7.605-47.321H-2866.756z"/>
			
				<line style="fill:none;stroke:#454647;stroke-width:5;stroke-linecap:round;stroke-miterlimit:10;" x1="-2770.584" y1="1721.206" x2="-2835.395" y2="1721.206"/>
			
				<line style="fill:none;stroke:#454647;stroke-width:5;stroke-linecap:round;stroke-miterlimit:10;" x1="-2805.041" y1="1670.806" x2="-2861.464" y2="1670.806"/>
			
				<line style="fill:none;stroke:#454647;stroke-width:5;stroke-linecap:round;stroke-miterlimit:10;" x1="-2805.041" y1="1663.092" x2="-2862.703" y2="1663.092"/>
			
				<line style="fill:none;stroke:#454647;stroke-width:5;stroke-linecap:round;stroke-miterlimit:10;" x1="-2805.041" y1="1655.378" x2="-2863.943" y2="1655.378"/>
			<path style="fill:none;stroke:#454647;stroke-width:5;stroke-linecap:round;stroke-miterlimit:10;" d="M-2511.641,1682.717
				c0-2.414-1.958-4.371-4.372-4.371s-4.371,1.957-4.371,4.371s1.957,4.372,4.371,4.372S-2511.641,1685.131-2511.641,1682.717z"/>
			<path style="fill:none;stroke:#454647;stroke-width:5;stroke-linecap:round;stroke-miterlimit:10;" d="M-2511.641,1652.549
				c0-2.414-1.958-4.371-4.372-4.371s-4.371,1.957-4.371,4.371s1.957,4.37,4.371,4.37S-2511.641,1654.963-2511.641,1652.549z"/>
			<path style="fill:none;stroke:#454647;stroke-width:5;stroke-linecap:round;stroke-miterlimit:10;" d="M-2535.041,1663.092
				c0-2.414-1.957-4.372-4.371-4.372s-4.372,1.958-4.372,4.372s1.958,4.371,4.372,4.371S-2535.041,1665.506-2535.041,1663.092z"/>
			<path style="fill:none;stroke:#454647;stroke-width:5;stroke-linecap:round;stroke-miterlimit:10;" d="M-2678.912,1708.092
				c0-2.414-1.958-4.372-4.372-4.372s-4.371,1.958-4.371,4.372s1.957,4.371,4.371,4.371S-2678.912,1710.506-2678.912,1708.092z"/>
			<path style="fill:none;stroke:#454647;stroke-width:5;stroke-linecap:round;stroke-miterlimit:10;" d="M-2678.912,1689.835
				c0-2.414-1.958-4.372-4.372-4.372s-4.371,1.958-4.371,4.372s1.957,4.371,4.371,4.371S-2678.912,1692.249-2678.912,1689.835z"/>
			<path style="fill:none;stroke:#454647;stroke-width:5;stroke-linecap:round;stroke-miterlimit:10;" d="M-2678.912,1671.577
				c0-2.415-1.958-4.371-4.372-4.371s-4.371,1.956-4.371,4.371s1.957,4.372,4.371,4.372S-2678.912,1673.992-2678.912,1671.577z"/>
			<path style="fill:none;stroke:#454647;stroke-width:5;stroke-linecap:round;stroke-miterlimit:10;" d="M-2782.541,1880.696
				v-134.167c-2.149,0.257-4.336,0.39-6.558,0.39s-4.407-0.133-6.557-0.39v134.167c0,2.809,2.273,5.081,5.076,5.081h2.962
				C-2784.815,1885.777-2782.541,1883.505-2782.541,1880.696z"/>
			
				<line style="fill:none;stroke:#454647;stroke-width:5;stroke-linecap:round;stroke-miterlimit:10;" x1="-2804.013" y1="1788.577" x2="-2774.184" y2="1788.577"/>
			<path style="fill:none;stroke:#454647;stroke-width:5;stroke-linecap:round;stroke-miterlimit:10;" d="M-2638.927,1816.606
				v-58.933c-3.847-2.278-7.921-4.314-12.183-6.084c-1.152-0.479-2.319-0.94-3.502-1.379c-3.163-1.177-6.424-2.217-9.771-3.095
				c-8.522-2.248-17.589-3.498-27-3.58c-3.657,0.031-7.262,0.241-10.8,0.617c-5.575,0.586-10.991,1.589-16.2,2.963
				c-3.349,0.878-6.608,1.918-9.772,3.095c-2.221,0.829-4.397,1.724-6.516,2.69c-3.178,1.44-6.238,3.04-9.17,4.772v58.933
				c4.892,2.89,10.137,5.395,15.686,7.462c3.163,1.178,6.423,2.217,9.772,3.096c6.397,1.688,13.099,2.808,20.026,3.302
				c2.299,0.165,4.629,0.258,6.974,0.278c5.985-0.052,11.828-0.576,17.485-1.533c3.24-0.545,6.413-1.229,9.515-2.047
				c3.348-0.879,6.608-1.918,9.771-3.096C-2649.064,1822.001-2643.818,1819.496-2638.927,1816.606z"/>
			<g>
				<g>
					
						<line style="fill:none;stroke:#454647;stroke-width:5;stroke-linecap:round;stroke-miterlimit:10;" x1="-2728.156" y1="1750.211" x2="-2728.156" y2="1824.068"/>
					
						<line style="fill:none;stroke:#454647;stroke-width:5;stroke-linecap:round;stroke-miterlimit:10;" x1="-2718.384" y1="1747.116" x2="-2718.384" y2="1827.164"/>
				</g>
				<g>
					
						<line style="fill:none;stroke:#454647;stroke-width:5;stroke-linecap:round;stroke-miterlimit:10;" x1="-2664.384" y1="1747.116" x2="-2664.384" y2="1827.164"/>
					
						<line style="fill:none;stroke:#454647;stroke-width:5;stroke-linecap:round;stroke-miterlimit:10;" x1="-2654.613" y1="1750.211" x2="-2654.613" y2="1824.068"/>
				</g>
			</g>
			<polyline style="fill:none;stroke:#454647;stroke-width:5;stroke-linecap:round;stroke-miterlimit:10;" points="
				-2664.384,1758.749 -2664.384,1747.116 -2664.384,1637.892 -2702.184,1637.892 -2702.184,1721.206 -2702.184,1744.153 			"/>
			<path style="fill:none;stroke:#454647;stroke-width:5;stroke-linecap:round;stroke-miterlimit:10;" d="M-2586.985,1810.691
				v-172.8h86.4v172.8H-2586.985z"/>
			<path style="fill:none;stroke:#454647;stroke-width:5;stroke-linecap:round;stroke-miterlimit:10;" d="M-2586.985,1684.666
				c5.221,3.276,11.387,5.169,18,5.169c4.758,0,9.283-0.978,13.393-2.746"/>
			<path style="fill:none;stroke:#454647;stroke-width:5;stroke-linecap:round;stroke-miterlimit:10;" d="M-2555.592,1687.089
				c0.447,10.537,9.134,18.946,19.779,18.946c5.045,0,9.652-1.888,13.145-4.994"/>
			<path style="fill:none;stroke:#454647;stroke-width:5;stroke-linecap:round;stroke-miterlimit:10;" d="M-2522.668,1701.041
				c3.369,2.493,7.54,3.965,12.056,3.965c3.646,0,7.071-0.963,10.028-2.645"/>
			
				<line style="fill:none;stroke:#454647;stroke-width:5;stroke-linecap:round;stroke-miterlimit:10;" x1="-2563.327" y1="1766.463" x2="-2576.338" y2="1753.452"/>
			
				<line style="fill:none;stroke:#454647;stroke-width:5;stroke-linecap:round;stroke-miterlimit:10;" x1="-2563.327" y1="1750.042" x2="-2576.338" y2="1737.029"/>
			
				<line style="fill:none;stroke:#454647;stroke-width:5;stroke-linecap:round;stroke-miterlimit:10;" x1="-2563.327" y1="1733.62" x2="-2576.338" y2="1720.608"/>
			
				<line style="fill:none;stroke:#454647;stroke-width:5;stroke-linecap:round;stroke-miterlimit:10;" x1="-2501.186" y1="1830.744" x2="-2586.383" y2="1830.744"/>
			<path style="fill:none;stroke:#454647;stroke-width:5;stroke-linecap:round;stroke-miterlimit:10;" d="M-2673.899,1829.211
				v23.652v45.171c0,5.444-4.413,9.857-9.857,9.857h-41.402h-54.084c-5.444,0-9.857-4.413-9.857-9.857v-12.257"/>
			<polyline style="fill:none;stroke:#454647;stroke-width:5;stroke-linecap:round;stroke-miterlimit:10;" points="
				-2673.899,1852.861 -2622.209,1852.861 -2575.489,1852.861 			"/>
			
				<line style="fill:none;stroke:#454647;stroke-width:5;stroke-linecap:round;stroke-miterlimit:10;" x1="-2622.213" y1="1852.863" x2="-2622.213" y2="1864.178"/>
			<path style="fill:none;stroke:#454647;stroke-width:5;stroke-linecap:round;stroke-miterlimit:10;" d="M-2612.698,1873.691
				c0-5.255-4.26-9.514-9.515-9.514c-5.254,0-9.514,4.259-9.514,9.514c0,5.254,4.26,9.515,9.514,9.515
				C-2616.958,1883.206-2612.698,1878.945-2612.698,1873.691z"/>
			
				<line style="fill:none;stroke:#454647;stroke-width:5;stroke-linecap:round;stroke-miterlimit:10;" x1="-2725.157" y1="1897.312" x2="-2725.157" y2="1907.892"/>
			<path style="fill:none;stroke:#454647;stroke-width:5;stroke-linecap:round;stroke-miterlimit:10;" d="M-2734.672,1887.799
				c0,5.255,4.26,9.514,9.515,9.514s9.515-4.259,9.515-9.514c0-5.256-4.26-9.514-9.515-9.514S-2734.672,1882.543-2734.672,1887.799z
				"/>
			<path style="fill:none;stroke:#454647;stroke-width:5;stroke-linecap:round;stroke-miterlimit:10;" d="M-2734.672,1752.901
				v-15.65c0-8.861,7.184-16.045,16.046-16.045h16.441"/>
			<path style="fill:none;stroke:#454647;stroke-width:5;stroke-linecap:round;stroke-miterlimit:10;" d="M-2782.541,1867.824
				c12.358,1.347,29.551-0.227,36.746-9.617c2.123-2.772,3.378-6.229,3.378-10.487c0-12.687-11.817-9.848-11.817,0
				c0,3.965,3.357,7.771,8.439,10.487c14.806,7.904,44.207,6.47,47.438-27.741"/>
			
				<line style="fill:none;stroke:#454647;stroke-width:5;stroke-linecap:round;stroke-miterlimit:10;" x1="-2709.384" y1="1802.977" x2="-2680.584" y2="1802.977"/>
			
				<line style="fill:none;stroke:#454647;stroke-width:5;stroke-linecap:round;stroke-miterlimit:10;" x1="-2702.184" y1="1788.577" x2="-2687.098" y2="1788.577"/>
			<g>
				<polyline style="fill:none;stroke:#454647;stroke-width:5;stroke-linecap:round;stroke-miterlimit:10;" points="
					-2624.985,1684.691 -2624.985,1670.291 -2624.985,1658.463 -2624.985,1637.892 				"/>
				
					<line style="fill:none;stroke:#454647;stroke-width:5;stroke-linecap:round;stroke-miterlimit:10;" x1="-2630.899" y1="1664.378" x2="-2619.071" y2="1676.206"/>
				
					<line style="fill:none;stroke:#454647;stroke-width:5;stroke-linecap:round;stroke-miterlimit:10;" x1="-2630.899" y1="1652.549" x2="-2619.071" y2="1664.378"/>
				<path style="fill:none;stroke:#454647;stroke-width:5;stroke-linecap:round;stroke-miterlimit:10;" d="M-2586.989,1721.211
					c-6.721,0-14.311,0-17.04,0c-7.651,0-14.521,0-19.151,0c-16.979,0-20.32,24.681-1.8,24.681c11.96,0,19.12-11.591,20.95-24.681
					c2.37-17-4.23-36.52-20.95-36.52c-35.09,0-29.75,46.74-28.9,66.899"/>
			</g>
			
				<line style="fill:none;stroke:#454647;stroke-width:5;stroke-linecap:round;stroke-miterlimit:10;" x1="-2599.451" y1="1810.691" x2="-2488.117" y2="1810.691"/>
		</g>
	</g>
</symbol>
<g id="Background">
	<g id="New_Symbol_8_9_">
		<g id="Elements_106_">
		</g>
	</g>
	<g id="New_Symbol_6_11_">
		<g id="Elements_105_">
		</g>
	</g>
	<g id="New_Symbol_10_">
		<g id="DoneElements_11_">
		</g>
		<g id="Elements_104_">
		</g>
	</g>
</g>
<g id="Elements">
	<g id="New_Symbol_2_">
		<g id="DoneElements_3_">
		</g>
		<g id="Elements_36_">
		</g>
	</g>
	<g id="New_Symbol_3_2_">
		<g id="Elements_35_">
		</g>
	</g>
	<g id="New_Symbol_1_2_">
		<g id="Elements_34_">
		</g>
	</g>
	<g id="New_Symbol_2_2_">
		<g id="Elements_33_">
		</g>
	</g>
	<g id="New_Symbol_5_2_">
		<g id="Elements_32_">
		</g>
	</g>
	<g id="New_Symbol_6_2_">
		<g id="Elements_31_">
		</g>
	</g>
	<g id="New_Symbol_7_2_">
		<g id="Elements_30_">
		</g>
	</g>
	<g id="New_Symbol_8_2_">
		<g id="Elements_29_">
		</g>
	</g>
	<g id="New_Symbol_9_2_">
		<g id="Elements_28_">
		</g>
	</g>
	<g id="New_Symbol_2_8_">
		<g id="Elements_99_">
		</g>
	</g>
	<g id="New_Symbol_9_">
		<g id="DoneElements_10_">
		</g>
		<g id="Elements_95_">
		</g>
	</g>
	<g id="New_Symbol_7_9_">
		<g id="Elements_94_">
		</g>
	</g>
	<g id="New_Symbol_9_10_">
		<g id="Elements_93_">
		</g>
	</g>
	<g id="New_Symbol_1_10_">
		<g id="Elements_100_">
		</g>
	</g>
	<g id="New_Symbol_9_11_">
		<g id="Elements_101_">
		</g>
	</g>
	<g id="New_Symbol_3_10_">
		<g id="Elements_102_">
		</g>
	</g>
	<g id="New_Symbol_5_10_">
		<g id="Elements_103_">
		</g>
	</g>
	<g id="New_Symbol_3_9_">
		<g id="Elements_98_">
		</g>
	</g>
	<g id="New_Symbol_1_9_">
		<g id="Elements_97_">
		</g>
	</g>
	<g id="New_Symbol_8_8_">
		<g id="Elements_96_">
		</g>
	</g>
	<g id="New_Symbol_9_9_">
		<g id="Elements_91_">
		</g>
	</g>
	<g id="New_Symbol_5_9_">
		<g id="Elements_90_">
		</g>
	</g>
	<g id="New_Symbol_6_9_">
		<g id="Elements_89_">
		</g>
	</g>
	<g id="New_Symbol_6_10_">
		<g id="Elements_92_">
		</g>
	</g>
	<g id="Weizen_1_">
		<path style="fill:#FCC24C;" d="M99.44,144.38c6.166,0.309,12.053,0.604,16.973,2.313c0.191-5.205,2.051-10.794,3.998-16.65
			c1.904-5.724,3.873-11.642,4.504-17.726c1.367-13.171-3.723-25.708-14.066-35.021c-0.061,5.917-2.152,11.679-4.496,18.13
			c-0.877,2.415-1.785,4.912-2.668,7.616c-2.48,7.589-1.666,16.028,2.418,25.084l4.617,10.233l-7.867-8.01
			c-6.959-7.086-14.529-10.903-22.504-11.348c-2.838-0.157-5.492-0.217-8.059-0.274c-6.865-0.154-12.996-0.292-18.535-2.383
			c4.928,13.013,14.768,22.304,27.541,25.806C87.19,143.768,93.419,144.08,99.44,144.38z"/>
		<path style="fill:#FCC24C;" d="M152.499,152.647c1.365-13.171-3.727-25.71-14.066-35.021c-0.061,5.916-2.152,11.679-4.496,18.13
			c-0.877,2.415-1.785,4.912-2.668,7.617c-2.479,7.588-1.666,16.027,2.416,25.083l4.613,10.23l-7.863-8.007
			c-6.959-7.087-14.529-10.903-22.504-11.346c-2.84-0.158-5.496-0.218-8.064-0.275c-6.863-0.155-12.992-0.294-18.529-2.383
			c4.93,13.014,14.77,22.305,27.541,25.807c5.896,1.616,12.127,1.928,18.15,2.229c6.164,0.309,12.047,0.603,16.967,2.312
			c0.191-5.204,2.051-10.794,4-16.65C149.899,164.649,151.866,158.731,152.499,152.647z"/>
		<path style="fill:#FCC24C;" d="M35.163,27.898c-5.201,17.031-1.598,29.432,9.992,34.144c3.219,1.31,6.316,1.875,9.311,2.422
			c2.207,0.402,4.467,0.815,6.748,1.523c0.166-2.385,0.602-4.643,1.027-6.848c0.576-2.988,1.172-6.078,1.119-9.551
			C63.173,37.08,52.923,29.226,35.163,27.898z"/>
		<path style="fill:#FCC24C;" d="M53.71,101.822c5.9,1.618,12.129,1.93,18.154,2.231c6.164,0.308,12.047,0.603,16.967,2.312
			c0.191-5.205,2.049-10.795,3.998-16.651c1.902-5.723,3.871-11.642,4.502-17.726c1.367-13.17-3.723-25.708-14.064-35.02
			c-0.061,5.916-2.152,11.678-4.496,18.129c-0.877,2.415-1.785,4.912-2.668,7.617c-2.48,7.591-1.668,16.03,2.416,25.083
			l4.617,10.232l-7.867-8.009c-6.959-7.086-14.531-10.904-22.504-11.348c-2.838-0.157-5.492-0.217-8.061-0.274
			c-6.863-0.154-12.994-0.292-18.531-2.382C31.101,89.031,40.94,98.322,53.71,101.822z"/>
		<path style="fill:#FCC24C;" d="M237.147,159.333c-7.973,0.441-15.545,4.259-22.504,11.346l-7.861,8.007l4.611-10.23
			c4.084-9.056,4.896-17.495,2.416-25.083c-0.883-2.706-1.791-5.205-2.668-7.621c-2.344-6.45-4.436-12.21-4.498-18.126
			c-10.34,9.312-15.432,21.852-14.064,35.022c0.633,6.083,2.602,12.002,4.504,17.725c1.949,5.856,3.809,11.445,3.998,16.649
			c4.922-1.709,10.805-2.003,16.969-2.312c6.023-0.301,12.252-0.612,18.15-2.229c12.771-3.503,22.611-12.794,27.539-25.807
			c-5.535,2.089-11.664,2.228-18.527,2.383C242.644,159.116,239.987,159.175,237.147,159.333z"/>
		<path style="fill:#FCC24C;" d="M264.729,119.003c-7.975,0.444-15.547,4.262-22.504,11.348l-7.863,8.01l4.613-10.233
			c4.084-9.058,4.898-17.497,2.418-25.084c-0.883-2.702-1.789-5.197-2.666-7.611c-2.344-6.453-4.439-12.217-4.5-18.135
			c-10.344,9.313-15.434,21.851-14.064,35.02c0.633,6.085,2.6,12.003,4.504,17.727c1.947,5.856,3.807,11.445,3.998,16.65
			c4.922-1.71,10.807-2.005,16.973-2.313c6.023-0.301,12.25-0.612,18.146-2.229c12.771-3.502,22.609-12.793,27.537-25.805
			c-5.537,2.089-11.668,2.228-18.533,2.382C270.222,118.787,267.567,118.846,264.729,119.003z"/>
		<path style="fill:#FCC24C;" d="M292.312,78.673c-7.973,0.444-15.543,4.262-22.502,11.348l-7.867,8.013l4.617-10.236
			c4.084-9.051,4.896-17.49,2.416-25.083c-0.883-2.706-1.791-5.204-2.668-7.62c-2.344-6.45-4.436-12.211-4.496-18.126
			c-10.342,9.312-15.434,21.85-14.066,35.019c0.633,6.084,2.602,12.002,4.504,17.725c1.949,5.857,3.809,11.447,3.998,16.653
			c4.92-1.709,10.803-2.004,16.967-2.312c6.023-0.302,12.254-0.613,18.152-2.231c12.771-3.501,22.611-12.791,27.539-25.805
			c-5.537,2.09-11.668,2.228-18.533,2.382C297.806,78.457,295.151,78.516,292.312,78.673z"/>
		<path style="fill:#FCC24C;" d="M281.718,49.588c-0.053,3.47,0.543,6.559,1.119,9.545c0.426,2.207,0.861,4.467,1.027,6.854
			c2.281-0.708,4.541-1.121,6.748-1.523c2.994-0.547,6.092-1.112,9.311-2.422c11.592-4.713,15.195-17.112,9.992-34.144
			C292.155,29.226,281.905,37.08,281.718,49.588z"/>
		<path style="fill:#2B2C2D;" d="M52.653,105.679c6.32,1.733,12.771,2.057,19.01,2.368c7.041,0.353,13.689,0.686,18.338,3.17
			l3.389,1.811l-0.461-3.813c-0.629-5.232,1.471-11.55,3.695-18.238c1.971-5.928,4.01-12.057,4.686-18.576
			c1.656-15.944-5.262-30.999-18.975-41.371l0.17,0.249c0.623,0.911,0.391,2.156-0.521,2.779c-0.346,0.236-0.738,0.35-1.127,0.35
			c-0.639,0-1.266-0.305-1.652-0.871l-0.25-0.365c1.152,6.509-1.098,12.728-3.943,20.561c-0.889,2.446-1.807,4.975-2.711,7.741
			c-2.092,6.402-2.137,13.274-0.146,20.508c-6.021-4.477-12.441-6.926-19.168-7.301c-2.902-0.16-5.592-0.221-8.191-0.279
			c-8.334-0.188-14.949-0.345-20.596-3.78l0.25,0.365c0.623,0.911,0.391,2.156-0.521,2.779c-0.346,0.236-0.738,0.35-1.127,0.35
			c-0.639,0-1.266-0.305-1.652-0.871l-0.172-0.25C25.669,89.535,37.192,101.442,52.653,105.679z M44.704,78.399
			c2.568,0.058,5.223,0.117,8.061,0.274c7.973,0.443,15.545,4.262,22.504,11.348l7.867,8.009l-4.617-10.232
			c-4.084-9.053-4.896-17.492-2.416-25.083c0.883-2.705,1.791-5.202,2.668-7.617c2.344-6.451,4.436-12.213,4.496-18.129
			c10.342,9.312,15.432,21.85,14.064,35.02c-0.631,6.084-2.6,12.003-4.502,17.726c-1.949,5.856-3.807,11.446-3.998,16.651
			c-4.92-1.709-10.803-2.004-16.967-2.312c-6.025-0.302-12.254-0.613-18.154-2.231c-12.77-3.5-22.609-12.791-27.537-25.805
			C31.71,78.107,37.841,78.245,44.704,78.399z"/>
		<path style="fill:#2B2C2D;" d="M99.241,148.375c7.041,0.353,13.691,0.686,18.342,3.171l3.387,1.811l-0.459-3.813
			c-0.629-5.232,1.473-11.55,3.697-18.238c1.971-5.927,4.01-12.056,4.686-18.575c1.668-16.058-5.354-31.219-19.262-41.596
			l-4.162-3.106l1.004,5.096c1.311,6.646-0.98,12.953-3.881,20.938c-0.889,2.445-1.807,4.974-2.711,7.739
			c-2.092,6.401-2.137,13.274-0.145,20.509c-6.02-4.476-12.441-6.926-19.168-7.301c-2.902-0.16-5.59-0.221-8.189-0.279
			c-8.496-0.191-15.207-0.342-20.928-3.975l-4.385-2.784l1.385,5.006c4.627,16.723,16.213,28.763,31.785,33.032
			C86.556,147.741,93.005,148.064,99.241,148.375z M53.755,116.346c5.539,2.091,11.67,2.229,18.535,2.383
			c2.566,0.058,5.221,0.117,8.059,0.274c7.975,0.444,15.545,4.262,22.504,11.348l7.867,8.01l-4.617-10.233
			c-4.084-9.056-4.898-17.495-2.418-25.084c0.883-2.704,1.791-5.201,2.668-7.616c2.344-6.451,4.436-12.213,4.496-18.13
			c10.344,9.312,15.434,21.85,14.066,35.021c-0.631,6.084-2.6,12.002-4.504,17.726c-1.947,5.856-3.807,11.445-3.998,16.65
			c-4.92-1.71-10.807-2.005-16.973-2.313c-6.021-0.301-12.25-0.612-18.145-2.229C68.522,138.65,58.683,129.359,53.755,116.346z"/>
		<path style="fill:#2B2C2D;" d="M144.979,188.459c0.912-0.624,2.156-0.389,2.779,0.521l0.295,0.432
			c-0.461-5.141,1.576-11.283,3.736-17.778c1.973-5.927,4.01-12.056,4.688-18.574c1.666-16.061-5.355-31.223-19.262-41.598
			l-4.162-3.106l1.004,5.096c1.311,6.646-0.98,12.953-3.881,20.938c-0.889,2.445-1.807,4.974-2.711,7.74
			c-2.092,6.4-2.137,13.273-0.145,20.509c-6.021-4.478-12.443-6.927-19.17-7.3c-2.904-0.161-5.594-0.222-8.193-0.28
			c-8.496-0.192-15.205-0.344-20.924-3.976l-4.387-2.784l1.387,5.006c4.629,16.724,16.215,28.765,31.785,33.034
			c6.32,1.732,12.77,2.055,19.008,2.366c6.85,0.342,13.314,0.683,17.941,2.986l-0.311-0.453
			C143.833,190.328,144.067,189.083,144.979,188.459z M127.028,184.71c-6.023-0.301-12.254-0.612-18.15-2.229
			c-12.771-3.502-22.611-12.793-27.541-25.807c5.537,2.089,11.666,2.228,18.529,2.383c2.568,0.058,5.225,0.117,8.064,0.275
			c7.975,0.442,15.545,4.259,22.504,11.346l7.863,8.007l-4.613-10.23c-4.082-9.056-4.895-17.495-2.416-25.083
			c0.883-2.705,1.791-5.202,2.668-7.617c2.344-6.451,4.436-12.214,4.496-18.13c10.34,9.312,15.432,21.851,14.066,35.021
			c-0.633,6.084-2.6,12.002-4.504,17.725c-1.949,5.856-3.809,11.446-4,16.65C139.075,185.313,133.192,185.019,127.028,184.71z"/>
		<path style="fill:#2B2C2D;" d="M67.36,49.528c-0.223-14.772-12.361-24.312-32.527-25.656l0.549,0.803
			c0.623,0.911,0.391,2.156-0.521,2.779c-0.346,0.236-0.738,0.35-1.127,0.35c-0.639,0-1.266-0.305-1.652-0.871l-0.549-0.803
			c-6.061,19.281-1.572,34.053,12.117,39.617c3.6,1.466,6.904,2.068,10.1,2.651c2.998,0.548,5.83,1.064,8.617,2.269l2.908,1.257
			l-0.117-3.167c-0.111-3.036,0.434-5.864,1.012-8.859C66.782,56.709,67.419,53.413,67.36,49.528z M62.241,59.139
			c-0.426,2.205-0.861,4.463-1.027,6.848c-2.281-0.708-4.541-1.121-6.748-1.523c-2.994-0.547-6.092-1.112-9.311-2.422
			c-11.59-4.712-15.193-17.112-9.992-34.144c17.76,1.328,28.01,9.182,28.197,21.69C63.413,53.061,62.817,56.151,62.241,59.139z"/>
		<path style="fill:#2B2C2D;" d="M33.733,27.803c0.389,0,0.781-0.113,1.127-0.35c0.912-0.623,1.145-1.868,0.521-2.779l-0.549-0.803
			L19.542,1.516c-0.621-0.91-1.867-1.145-2.779-0.521s-1.146,1.868-0.521,2.779l15.291,22.355l0.549,0.803
			C32.468,27.499,33.095,27.803,33.733,27.803z"/>
		<path style="fill:#2B2C2D;" d="M22.8,74.114c0.389,0,0.781-0.113,1.127-0.35c0.912-0.623,1.145-1.868,0.521-2.779l-0.25-0.365
			L3.651,40.58c-0.621-0.911-1.869-1.145-2.779-0.521c-0.912,0.623-1.146,1.868-0.521,2.779l20.625,30.155l0.172,0.25
			C21.534,73.809,22.161,74.114,22.8,74.114z"/>
		<path style="fill:#2B2C2D;" d="M80.856,34.407c0.389,0,0.781-0.113,1.127-0.35c0.912-0.623,1.145-1.868,0.521-2.779l-0.17-0.249
			L61.708,0.872c-0.623-0.91-1.867-1.146-2.779-0.521c-0.912,0.623-1.146,1.868-0.521,2.779L78.954,33.17l0.25,0.365
			C79.591,34.102,80.218,34.407,80.856,34.407z"/>
		<path style="fill:#2B2C2D;" d="M148.054,189.413l-0.295-0.432c-0.623-0.91-1.867-1.146-2.779-0.521
			c-0.912,0.623-1.146,1.868-0.521,2.779l0.311,0.453l25.348,37.062l2.422-3.542L148.054,189.413z"/>
		<path style="fill:#2B2C2D;" d="M234.667,323.133c0.387,0.566,1.014,0.871,1.652,0.871c0.389,0,0.781-0.113,1.127-0.35
			c0.912-0.623,1.145-1.868,0.521-2.779l-63.006-92.121l-2.424,3.542L234.667,323.133z"/>
		<path style="fill:#2B2C2D;" d="M322.28,74.114c-0.389,0-0.783-0.113-1.127-0.35c-0.912-0.623-1.146-1.868-0.521-2.779l0.25-0.365
			c-5.65,3.436-12.264,3.593-20.6,3.78c-2.6,0.059-5.287,0.119-8.191,0.279c-6.725,0.375-13.146,2.824-19.164,7.3
			c1.988-7.231,1.943-14.103-0.148-20.507c-0.904-2.768-1.822-5.298-2.711-7.744c-2.846-7.832-5.096-14.05-3.941-20.558l-0.25,0.365
			c-0.387,0.566-1.014,0.871-1.652,0.871c-0.389,0-0.783-0.113-1.127-0.35c-0.912-0.623-1.146-1.867-0.521-2.779l0.17-0.249
			C249.03,41.4,242.112,56.456,243.767,72.401c0.678,6.518,2.717,12.646,4.688,18.572c2.225,6.689,4.326,13.008,3.695,18.241
			l-0.459,3.813l3.387-1.811c4.65-2.484,11.299-2.817,18.336-3.17c6.24-0.312,12.689-0.635,19.01-2.368
			c15.463-4.238,26.988-16.145,31.68-32.687l-0.17,0.25C323.546,73.809,322.919,74.114,322.28,74.114z M291.366,101.822
			c-5.898,1.618-12.129,1.93-18.152,2.231c-6.164,0.308-12.047,0.603-16.967,2.312c-0.189-5.206-2.049-10.796-3.998-16.653
			c-1.902-5.723-3.871-11.641-4.504-17.725c-1.367-13.169,3.725-25.707,14.066-35.019c0.061,5.915,2.152,11.676,4.496,18.126
			c0.877,2.416,1.785,4.914,2.668,7.62c2.48,7.593,1.668,16.032-2.416,25.083l-4.617,10.236l7.867-8.013
			c6.959-7.086,14.529-10.903,22.502-11.348c2.84-0.157,5.494-0.217,8.061-0.274c6.865-0.154,12.996-0.292,18.533-2.382
			C313.978,89.031,304.138,98.321,291.366,101.822z"/>
		<path style="fill:#2B2C2D;" d="M272.698,114.73c-2.598,0.059-5.285,0.119-8.189,0.279c-6.727,0.375-13.148,2.824-19.168,7.301
			c1.992-7.236,1.947-14.109-0.145-20.509c-0.902-2.765-1.82-5.291-2.709-7.735c-2.902-7.986-5.193-14.295-3.885-20.942l1.006-5.096
			l-4.164,3.106c-13.908,10.379-20.928,25.54-19.26,41.596c0.678,6.52,2.715,12.648,4.688,18.575
			c2.225,6.688,4.324,13.006,3.695,18.238l-0.459,3.814l3.389-1.812c4.648-2.485,11.299-2.818,18.34-3.171
			c6.238-0.312,12.688-0.635,19.006-2.366c15.57-4.271,27.154-16.31,31.783-33.032l1.385-5.007l-4.385,2.785
			C287.907,114.387,281.196,114.539,272.698,114.73z M263.784,142.152c-5.896,1.616-12.123,1.928-18.146,2.229
			c-6.166,0.309-12.051,0.604-16.973,2.313c-0.191-5.205-2.051-10.794-3.998-16.65c-1.904-5.724-3.871-11.642-4.504-17.727
			c-1.369-13.169,3.721-25.706,14.064-35.02c0.061,5.918,2.156,11.682,4.5,18.135c0.877,2.414,1.783,4.909,2.666,7.611
			c2.48,7.587,1.666,16.026-2.418,25.084l-4.613,10.233l7.863-8.01c6.957-7.086,14.529-10.903,22.504-11.348
			c2.838-0.157,5.492-0.217,8.059-0.274c6.865-0.154,12.996-0.293,18.533-2.382C286.394,129.359,276.556,138.65,263.784,142.152z"/>
		<path style="fill:#2B2C2D;" d="M245.122,155.059c-2.602,0.059-5.291,0.119-8.195,0.28c-6.725,0.373-13.146,2.822-19.168,7.3
			c1.99-7.235,1.945-14.108-0.146-20.509c-0.904-2.769-1.822-5.298-2.711-7.745c-2.9-7.983-5.191-14.289-3.883-20.934l1.006-5.096
			l-4.164,3.106c-13.906,10.377-20.926,25.539-19.26,41.598c0.678,6.52,2.717,12.648,4.688,18.575
			c2.16,6.494,4.197,12.637,3.736,17.777l0.295-0.432c0.621-0.911,1.867-1.146,2.779-0.521c0.912,0.623,1.145,1.868,0.521,2.779
			l-0.311,0.454c4.627-2.305,11.092-2.646,17.941-2.987c6.238-0.312,12.688-0.634,19.008-2.366
			c15.572-4.271,27.156-16.311,31.785-33.034l1.385-5.007l-4.385,2.785C260.325,154.715,253.616,154.867,245.122,155.059z
			 M236.2,182.482c-5.898,1.616-12.127,1.928-18.15,2.229c-6.164,0.309-12.047,0.603-16.969,2.312
			c-0.189-5.204-2.049-10.793-3.998-16.649c-1.902-5.723-3.871-11.642-4.504-17.725c-1.367-13.171,3.725-25.71,14.064-35.022
			c0.062,5.916,2.154,11.676,4.498,18.126c0.877,2.416,1.785,4.915,2.668,7.621c2.48,7.588,1.668,16.027-2.416,25.083l-4.611,10.23
			l7.861-8.007c6.959-7.087,14.531-10.904,22.504-11.346c2.84-0.158,5.496-0.218,8.064-0.275c6.863-0.155,12.992-0.294,18.527-2.383
			C258.812,169.688,248.972,178.979,236.2,182.482z"/>
		<path style="fill:#2B2C2D;" d="M311.347,27.803c-0.389,0-0.783-0.113-1.127-0.35c-0.912-0.623-1.146-1.868-0.521-2.779
			l0.549-0.803c-20.168,1.344-32.309,10.883-32.529,25.656c-0.059,3.883,0.576,7.177,1.191,10.363
			c0.578,2.996,1.123,5.827,1.01,8.865l-0.117,3.167l2.91-1.257c2.787-1.204,5.619-1.721,8.617-2.268
			c3.197-0.584,6.5-1.187,10.1-2.652c13.689-5.565,18.18-20.338,12.119-39.617l-0.549,0.803
			C312.612,27.499,311.983,27.803,311.347,27.803z M299.923,62.042c-3.219,1.31-6.316,1.875-9.311,2.422
			c-2.207,0.402-4.467,0.815-6.748,1.523c-0.166-2.387-0.602-4.646-1.027-6.854c-0.576-2.986-1.172-6.075-1.119-9.545
			c0.188-12.509,10.438-20.362,28.197-21.69C315.118,44.929,311.515,57.329,299.923,62.042z"/>
		<path style="fill:#2B2C2D;" d="M328.317,0.995c-0.91-0.624-2.158-0.39-2.779,0.521l-15.291,22.355l-0.549,0.803
			c-0.625,0.911-0.391,2.156,0.521,2.779c0.344,0.236,0.738,0.35,1.127,0.35c0.637,0,1.266-0.305,1.652-0.871l0.549-0.803
			l15.291-22.355C329.462,2.863,329.229,1.618,328.317,0.995z"/>
		<path style="fill:#2B2C2D;" d="M344.206,40.058c-0.912-0.624-2.158-0.39-2.779,0.521l-20.545,30.04l-0.25,0.365
			c-0.625,0.911-0.391,2.156,0.521,2.779c0.344,0.236,0.738,0.35,1.127,0.35c0.639,0,1.266-0.305,1.652-0.871l0.17-0.25
			l20.625-30.155C345.351,41.926,345.118,40.681,344.206,40.058z"/>
		<path style="fill:#2B2C2D;" d="M263.097,34.057c0.344,0.236,0.738,0.35,1.127,0.35c0.639,0,1.266-0.305,1.652-0.871l0.25-0.365
			l20.545-30.041c0.623-0.912,0.391-2.156-0.521-2.779c-0.912-0.625-2.158-0.391-2.779,0.521l-20.625,30.157l-0.17,0.249
			C261.95,32.19,262.185,33.434,263.097,34.057z"/>
		<path style="fill:#2B2C2D;" d="M200.099,188.459c-0.912-0.625-2.158-0.39-2.779,0.521l-0.295,0.432l-24.486,35.8l-2.422,3.542
			l-63.006,92.121c-0.625,0.911-0.391,2.156,0.521,2.779c0.344,0.236,0.738,0.35,1.127,0.35c0.639,0,1.266-0.305,1.652-0.871
			l62.127-90.837l2.424-3.542l25.348-37.062l0.311-0.454C201.243,190.328,201.011,189.083,200.099,188.459z"/>
	</g>
</g>
</svg>
