<?xml version="1.0" encoding="utf-8"?>
<!-- Generator: Adobe Illustrator 16.0.4, SVG Export Plug-In . SVG Version: 6.00 Build 0)  -->
<!DOCTYPE svg PUBLIC "-//W3C//DTD SVG 1.1//EN" "http://www.w3.org/Graphics/SVG/1.1/DTD/svg11.dtd">
<svg version="1.1" xmlns="http://www.w3.org/2000/svg" xmlns:xlink="http://www.w3.org/1999/xlink" x="0px" y="0px"
	 width="226.346px" height="324.005px" viewBox="0 0 226.346 324.005" style="enable-background:new 0 0 226.346 324.005;"
	 xml:space="preserve">
<symbol  id="New_Symbol_1" viewBox="-2869.69 1635.391 384.073 275">
	<g id="Elements_4_">
		<g>
			<path style="fill:none;stroke:#454647;stroke-width:5;stroke-linecap:round;stroke-miterlimit:10;" d="M-2500.584,1823.523
				v-12.832h-86.4v12.832c0,2.458,0.206,4.871,0.602,7.221c1.426,8.46,5.309,16.086,10.893,22.119
				c6.46,6.979,15.192,11.818,25.021,13.346c2.176,0.339,4.413,0.515,6.686,0.515c2.273,0,4.511-0.176,6.687-0.515
				c18.323-2.849,32.842-17.213,35.912-35.465C-2500.79,1828.395-2500.584,1825.981-2500.584,1823.523z"/>
			<path style="fill:none;stroke:#454647;stroke-width:5;stroke-linecap:round;stroke-miterlimit:10;" d="M-2550.47,1866.209v6.125
				c0,3.691,2.993,6.686,6.686,6.686s6.687-2.994,6.687-6.686v-6.125"/>
			<path style="fill:none;stroke:#454647;stroke-width:5;stroke-linecap:round;stroke-miterlimit:10;" d="M-2734.672,1695.492
				c-1.476,26.48-21.861,47.916-47.869,51.037c-2.149,0.257-4.336,0.39-6.558,0.39s-4.407-0.133-6.557-0.39
				c-16.771-2.011-31.202-11.638-39.739-25.323c-4.7-7.539-7.605-16.309-8.131-25.714"/>
			<path style="fill:none;stroke:#454647;stroke-width:5;stroke-linecap:round;stroke-miterlimit:10;" d="M-2866.756,1637.892
				l7.605,47.321c0.952,5.923,6.063,10.279,12.063,10.279h115.978c5.999,0,11.111-4.356,12.062-10.279l7.605-47.321H-2866.756z"/>
			
				<line style="fill:none;stroke:#454647;stroke-width:5;stroke-linecap:round;stroke-miterlimit:10;" x1="-2770.584" y1="1721.206" x2="-2835.395" y2="1721.206"/>
			
				<line style="fill:none;stroke:#454647;stroke-width:5;stroke-linecap:round;stroke-miterlimit:10;" x1="-2805.041" y1="1670.806" x2="-2861.464" y2="1670.806"/>
			
				<line style="fill:none;stroke:#454647;stroke-width:5;stroke-linecap:round;stroke-miterlimit:10;" x1="-2805.041" y1="1663.092" x2="-2862.703" y2="1663.092"/>
			
				<line style="fill:none;stroke:#454647;stroke-width:5;stroke-linecap:round;stroke-miterlimit:10;" x1="-2805.041" y1="1655.378" x2="-2863.943" y2="1655.378"/>
			<path style="fill:none;stroke:#454647;stroke-width:5;stroke-linecap:round;stroke-miterlimit:10;" d="M-2511.641,1682.717
				c0-2.414-1.958-4.371-4.372-4.371s-4.371,1.957-4.371,4.371s1.957,4.372,4.371,4.372S-2511.641,1685.131-2511.641,1682.717z"/>
			<path style="fill:none;stroke:#454647;stroke-width:5;stroke-linecap:round;stroke-miterlimit:10;" d="M-2511.641,1652.549
				c0-2.414-1.958-4.371-4.372-4.371s-4.371,1.957-4.371,4.371s1.957,4.37,4.371,4.37S-2511.641,1654.963-2511.641,1652.549z"/>
			<path style="fill:none;stroke:#454647;stroke-width:5;stroke-linecap:round;stroke-miterlimit:10;" d="M-2535.041,1663.092
				c0-2.414-1.957-4.372-4.371-4.372s-4.372,1.958-4.372,4.372s1.958,4.371,4.372,4.371S-2535.041,1665.506-2535.041,1663.092z"/>
			<path style="fill:none;stroke:#454647;stroke-width:5;stroke-linecap:round;stroke-miterlimit:10;" d="M-2678.912,1708.092
				c0-2.414-1.958-4.372-4.372-4.372s-4.371,1.958-4.371,4.372s1.957,4.371,4.371,4.371S-2678.912,1710.506-2678.912,1708.092z"/>
			<path style="fill:none;stroke:#454647;stroke-width:5;stroke-linecap:round;stroke-miterlimit:10;" d="M-2678.912,1689.835
				c0-2.414-1.958-4.372-4.372-4.372s-4.371,1.958-4.371,4.372s1.957,4.371,4.371,4.371S-2678.912,1692.249-2678.912,1689.835z"/>
			<path style="fill:none;stroke:#454647;stroke-width:5;stroke-linecap:round;stroke-miterlimit:10;" d="M-2678.912,1671.577
				c0-2.415-1.958-4.371-4.372-4.371s-4.371,1.956-4.371,4.371s1.957,4.372,4.371,4.372S-2678.912,1673.992-2678.912,1671.577z"/>
			<path style="fill:none;stroke:#454647;stroke-width:5;stroke-linecap:round;stroke-miterlimit:10;" d="M-2782.541,1880.696
				v-134.167c-2.149,0.257-4.336,0.39-6.558,0.39s-4.407-0.133-6.557-0.39v134.167c0,2.809,2.273,5.081,5.076,5.081h2.962
				C-2784.815,1885.777-2782.541,1883.505-2782.541,1880.696z"/>
			
				<line style="fill:none;stroke:#454647;stroke-width:5;stroke-linecap:round;stroke-miterlimit:10;" x1="-2804.013" y1="1788.577" x2="-2774.184" y2="1788.577"/>
			<path style="fill:none;stroke:#454647;stroke-width:5;stroke-linecap:round;stroke-miterlimit:10;" d="M-2638.927,1816.606
				v-58.933c-3.847-2.278-7.921-4.314-12.183-6.084c-1.152-0.479-2.319-0.94-3.502-1.379c-3.163-1.177-6.424-2.217-9.771-3.095
				c-8.522-2.248-17.589-3.498-27-3.58c-3.657,0.031-7.262,0.241-10.8,0.617c-5.575,0.586-10.991,1.589-16.2,2.963
				c-3.349,0.878-6.608,1.918-9.772,3.095c-2.221,0.829-4.397,1.724-6.516,2.69c-3.178,1.44-6.238,3.04-9.17,4.772v58.933
				c4.892,2.89,10.137,5.395,15.686,7.462c3.163,1.178,6.423,2.217,9.772,3.096c6.397,1.688,13.099,2.808,20.026,3.302
				c2.299,0.165,4.629,0.258,6.974,0.278c5.985-0.052,11.828-0.576,17.485-1.533c3.24-0.545,6.413-1.229,9.515-2.047
				c3.348-0.879,6.608-1.918,9.771-3.096C-2649.064,1822.001-2643.818,1819.496-2638.927,1816.606z"/>
			<g>
				<g>
					
						<line style="fill:none;stroke:#454647;stroke-width:5;stroke-linecap:round;stroke-miterlimit:10;" x1="-2728.156" y1="1750.211" x2="-2728.156" y2="1824.068"/>
					
						<line style="fill:none;stroke:#454647;stroke-width:5;stroke-linecap:round;stroke-miterlimit:10;" x1="-2718.384" y1="1747.116" x2="-2718.384" y2="1827.164"/>
				</g>
				<g>
					
						<line style="fill:none;stroke:#454647;stroke-width:5;stroke-linecap:round;stroke-miterlimit:10;" x1="-2664.384" y1="1747.116" x2="-2664.384" y2="1827.164"/>
					
						<line style="fill:none;stroke:#454647;stroke-width:5;stroke-linecap:round;stroke-miterlimit:10;" x1="-2654.613" y1="1750.211" x2="-2654.613" y2="1824.068"/>
				</g>
			</g>
			<polyline style="fill:none;stroke:#454647;stroke-width:5;stroke-linecap:round;stroke-miterlimit:10;" points="
				-2664.384,1758.749 -2664.384,1747.116 -2664.384,1637.892 -2702.184,1637.892 -2702.184,1721.206 -2702.184,1744.153 			"/>
			<path style="fill:none;stroke:#454647;stroke-width:5;stroke-linecap:round;stroke-miterlimit:10;" d="M-2586.985,1810.691
				v-172.8h86.4v172.8H-2586.985z"/>
			<path style="fill:none;stroke:#454647;stroke-width:5;stroke-linecap:round;stroke-miterlimit:10;" d="M-2586.985,1684.666
				c5.221,3.276,11.387,5.169,18,5.169c4.758,0,9.283-0.978,13.393-2.746"/>
			<path style="fill:none;stroke:#454647;stroke-width:5;stroke-linecap:round;stroke-miterlimit:10;" d="M-2555.592,1687.089
				c0.447,10.537,9.134,18.946,19.779,18.946c5.045,0,9.652-1.888,13.145-4.994"/>
			<path style="fill:none;stroke:#454647;stroke-width:5;stroke-linecap:round;stroke-miterlimit:10;" d="M-2522.668,1701.041
				c3.369,2.493,7.54,3.965,12.056,3.965c3.646,0,7.071-0.963,10.028-2.645"/>
			
				<line style="fill:none;stroke:#454647;stroke-width:5;stroke-linecap:round;stroke-miterlimit:10;" x1="-2563.327" y1="1766.463" x2="-2576.338" y2="1753.452"/>
			
				<line style="fill:none;stroke:#454647;stroke-width:5;stroke-linecap:round;stroke-miterlimit:10;" x1="-2563.327" y1="1750.042" x2="-2576.338" y2="1737.029"/>
			
				<line style="fill:none;stroke:#454647;stroke-width:5;stroke-linecap:round;stroke-miterlimit:10;" x1="-2563.327" y1="1733.62" x2="-2576.338" y2="1720.608"/>
			
				<line style="fill:none;stroke:#454647;stroke-width:5;stroke-linecap:round;stroke-miterlimit:10;" x1="-2501.186" y1="1830.744" x2="-2586.383" y2="1830.744"/>
			<path style="fill:none;stroke:#454647;stroke-width:5;stroke-linecap:round;stroke-miterlimit:10;" d="M-2673.899,1829.211
				v23.652v45.171c0,5.444-4.413,9.857-9.857,9.857h-41.402h-54.084c-5.444,0-9.857-4.413-9.857-9.857v-12.257"/>
			<polyline style="fill:none;stroke:#454647;stroke-width:5;stroke-linecap:round;stroke-miterlimit:10;" points="
				-2673.899,1852.861 -2622.209,1852.861 -2575.489,1852.861 			"/>
			
				<line style="fill:none;stroke:#454647;stroke-width:5;stroke-linecap:round;stroke-miterlimit:10;" x1="-2622.213" y1="1852.863" x2="-2622.213" y2="1864.178"/>
			<path style="fill:none;stroke:#454647;stroke-width:5;stroke-linecap:round;stroke-miterlimit:10;" d="M-2612.698,1873.691
				c0-5.255-4.26-9.514-9.515-9.514c-5.254,0-9.514,4.259-9.514,9.514c0,5.254,4.26,9.515,9.514,9.515
				C-2616.958,1883.206-2612.698,1878.945-2612.698,1873.691z"/>
			
				<line style="fill:none;stroke:#454647;stroke-width:5;stroke-linecap:round;stroke-miterlimit:10;" x1="-2725.157" y1="1897.312" x2="-2725.157" y2="1907.892"/>
			<path style="fill:none;stroke:#454647;stroke-width:5;stroke-linecap:round;stroke-miterlimit:10;" d="M-2734.672,1887.799
				c0,5.255,4.26,9.514,9.515,9.514s9.515-4.259,9.515-9.514c0-5.256-4.26-9.514-9.515-9.514S-2734.672,1882.543-2734.672,1887.799z
				"/>
			<path style="fill:none;stroke:#454647;stroke-width:5;stroke-linecap:round;stroke-miterlimit:10;" d="M-2734.672,1752.901
				v-15.65c0-8.861,7.184-16.045,16.046-16.045h16.441"/>
			<path style="fill:none;stroke:#454647;stroke-width:5;stroke-linecap:round;stroke-miterlimit:10;" d="M-2782.541,1867.824
				c12.358,1.347,29.551-0.227,36.746-9.617c2.123-2.772,3.378-6.229,3.378-10.487c0-12.687-11.817-9.848-11.817,0
				c0,3.965,3.357,7.771,8.439,10.487c14.806,7.904,44.207,6.47,47.438-27.741"/>
			
				<line style="fill:none;stroke:#454647;stroke-width:5;stroke-linecap:round;stroke-miterlimit:10;" x1="-2709.384" y1="1802.977" x2="-2680.584" y2="1802.977"/>
			
				<line style="fill:none;stroke:#454647;stroke-width:5;stroke-linecap:round;stroke-miterlimit:10;" x1="-2702.184" y1="1788.577" x2="-2687.098" y2="1788.577"/>
			<g>
				<polyline style="fill:none;stroke:#454647;stroke-width:5;stroke-linecap:round;stroke-miterlimit:10;" points="
					-2624.985,1684.691 -2624.985,1670.291 -2624.985,1658.463 -2624.985,1637.892 				"/>
				
					<line style="fill:none;stroke:#454647;stroke-width:5;stroke-linecap:round;stroke-miterlimit:10;" x1="-2630.899" y1="1664.378" x2="-2619.071" y2="1676.206"/>
				
					<line style="fill:none;stroke:#454647;stroke-width:5;stroke-linecap:round;stroke-miterlimit:10;" x1="-2630.899" y1="1652.549" x2="-2619.071" y2="1664.378"/>
				<path style="fill:none;stroke:#454647;stroke-width:5;stroke-linecap:round;stroke-miterlimit:10;" d="M-2586.989,1721.211
					c-6.721,0-14.311,0-17.04,0c-7.651,0-14.521,0-19.151,0c-16.979,0-20.32,24.681-1.8,24.681c11.96,0,19.12-11.591,20.95-24.681
					c2.37-17-4.23-36.52-20.95-36.52c-35.09,0-29.75,46.74-28.9,66.899"/>
			</g>
			
				<line style="fill:none;stroke:#454647;stroke-width:5;stroke-linecap:round;stroke-miterlimit:10;" x1="-2599.451" y1="1810.691" x2="-2488.117" y2="1810.691"/>
		</g>
	</g>
</symbol>
<g id="Background">
	<g id="New_Symbol_8_9_">
		<g id="Elements_106_">
		</g>
	</g>
	<g id="New_Symbol_6_11_">
		<g id="Elements_105_">
		</g>
	</g>
	<g id="New_Symbol_10_">
		<g id="DoneElements_11_">
		</g>
		<g id="Elements_104_">
		</g>
	</g>
</g>
<g id="Elements">
	<g id="New_Symbol_2_">
		<g id="DoneElements_3_">
		</g>
		<g id="Elements_36_">
		</g>
	</g>
	<g id="New_Symbol_3_2_">
		<g id="Elements_35_">
		</g>
	</g>
	<g id="New_Symbol_1_2_">
		<g id="Elements_34_">
		</g>
	</g>
	<g id="New_Symbol_2_2_">
		<g id="Elements_33_">
		</g>
	</g>
	<g id="New_Symbol_5_2_">
		<g id="Elements_32_">
		</g>
	</g>
	<g id="New_Symbol_6_2_">
		<g id="Elements_31_">
		</g>
	</g>
	<g id="New_Symbol_7_2_">
		<g id="Elements_30_">
		</g>
	</g>
	<g id="New_Symbol_8_2_">
		<g id="Elements_29_">
		</g>
	</g>
	<g id="New_Symbol_9_2_">
		<g id="Elements_28_">
		</g>
	</g>
	<g id="New_Symbol_2_8_">
		<g id="Elements_99_">
		</g>
	</g>
	<g id="New_Symbol_9_">
		<g id="DoneElements_10_">
		</g>
		<g id="Elements_95_">
		</g>
	</g>
	<g id="New_Symbol_7_9_">
		<g id="Elements_94_">
		</g>
	</g>
	<g id="New_Symbol_9_10_">
		<g id="Elements_93_">
		</g>
	</g>
	<g id="New_Symbol_1_10_">
		<g id="Elements_100_">
		</g>
	</g>
	<g id="New_Symbol_9_11_">
		<g id="Elements_101_">
		</g>
	</g>
	<g id="New_Symbol_3_10_">
		<g id="Elements_102_">
		</g>
	</g>
	<g id="New_Symbol_5_10_">
		<g id="Elements_103_">
		</g>
	</g>
	<g id="New_Symbol_3_9_">
		<g id="Elements_98_">
		</g>
	</g>
	<g id="New_Symbol_1_9_">
		<g id="Elements_97_">
		</g>
	</g>
	<g id="New_Symbol_8_8_">
		<g id="Elements_96_">
		</g>
	</g>
	<g id="New_Symbol_9_9_">
		<g id="Elements_91_">
		</g>
	</g>
	<g id="New_Symbol_5_9_">
		<g id="Elements_90_">
		</g>
	</g>
	<g id="New_Symbol_6_9_">
		<g id="Elements_89_">
		</g>
	</g>
	<g id="New_Symbol_6_10_">
		<g id="Elements_92_">
		</g>
	</g>
	<g id="Flasche_1_1_">
		<path style="fill:#FCF5CB;" d="M170.812,174.307c5.232,3.977,10.225,7.771,13.485,12.235c3.26-4.465,8.253-8.26,13.485-12.236
			c5.076-3.858,10.326-7.848,14.513-12.784c9.122-10.758,12.151-24.859,8.585-39.266c-3.574,5.214-8.891,9.028-14.852,13.308
			c-2.205,1.582-4.484,3.218-6.867,5.049c-6.711,5.157-11.05,13.024-12.895,23.383l-1.969,11.051l-1.97-11.051
			c-1.847-10.358-6.187-18.226-12.897-23.383c-2.381-1.831-4.661-3.467-6.865-5.049c-5.963-4.279-11.279-8.094-14.854-13.308
			c-3.566,14.406-0.535,28.508,8.586,39.267C160.483,166.458,165.733,170.448,170.812,174.307z"/>
		<path style="fill:#9BD5C9;" d="M41.728,216.721c0.264-0.168,0.445-0.364,0.546-0.587c0.314-0.706,0.472-2.09,0.472-4.158
			c0-2.064-0.104-3.377-0.312-3.938c-0.208-0.559-0.485-0.958-0.831-1.198c-0.348-0.242-0.945-0.362-1.797-0.362h-1.881v10.494
			h2.248C40.947,216.972,41.465,216.888,41.728,216.721z"/>
		<path style="fill:#FCF5CB;" d="M170.812,225.92c5.233,3.977,10.225,7.77,13.485,12.234c3.26-4.465,8.251-8.259,13.485-12.235
			c5.076-3.858,10.326-7.848,14.513-12.785c9.122-10.757,12.151-24.858,8.585-39.265c-3.574,5.213-8.889,9.026-14.849,13.305
			c-2.206,1.583-4.486,3.22-6.87,5.052c-6.711,5.155-11.05,13.022-12.895,23.382l-1.969,11.052l-1.97-11.052
			c-1.847-10.36-6.187-18.227-12.896-23.382c-2.385-1.832-4.666-3.469-6.871-5.052c-5.961-4.278-11.275-8.092-14.85-13.305
			c-3.566,14.406-0.536,28.508,8.586,39.265C160.483,218.071,165.735,222.062,170.812,225.92z"/>
		<path style="fill:#FCF5CB;" d="M170.812,122.695c5.233,3.977,10.225,7.77,13.485,12.234c3.26-4.465,8.251-8.259,13.483-12.235
			c5.078-3.858,10.328-7.849,14.515-12.785c9.122-10.757,12.151-24.858,8.585-39.266c-3.574,5.215-8.891,9.03-14.854,13.31
			c-2.204,1.581-4.483,3.217-6.865,5.048c-6.711,5.155-11.05,13.021-12.895,23.382l-1.969,11.051l-1.97-11.051
			c-1.847-10.36-6.187-18.227-12.896-23.382c-2.383-1.831-4.662-3.467-6.866-5.048c-5.964-4.279-11.278-8.095-14.854-13.31
			c-3.566,14.407-0.535,28.509,8.586,39.266C160.483,114.847,165.735,118.837,170.812,122.695z"/>
		<path style="fill:#FCF5CB;" d="M47.669,121.346c-2.365,0-4.291,1.926-4.291,4.292s1.926,4.291,4.291,4.291
			c2.369,0,4.293-1.925,4.293-4.291S50.038,121.346,47.669,121.346z"/>
		<path style="fill:#FCF5CB;" d="M179.235,77.785c1.716,1.698,3.473,3.438,5.062,5.462c1.587-2.024,3.345-3.764,5.061-5.462
			c2.288-2.265,4.653-4.606,6.683-7.674c7.232-10.924,2.832-24.279-11.743-35.933c-14.577,11.652-18.978,25.009-11.745,35.932
			C174.581,73.179,176.948,75.521,179.235,77.785z"/>
		<path style="fill:#9BD5C9;" d="M113.729,182.704H5.575l3.809,69.336h100.537L113.729,182.704z M45.649,225.653
			c-0.047,2.877-0.415,4.96-1.109,6.247c-0.693,1.286-2.042,1.931-4.046,1.931h-5.071v-29.554h4.316
			c1.769,0,3.052,0.303,3.854,0.908c0.8,0.604,1.301,1.668,1.502,3.19c0.09,0.672,0.14,1.51,0.152,2.518v0.386
			c0,1.916-0.123,3.376-0.371,4.384c-0.246,1.006-0.754,1.762-1.527,2.266c0.873,0.426,1.475,1.263,1.805,2.511
			c0.329,1.249,0.496,2.813,0.496,4.693V225.653z M58.091,206.226h-5.307v11.553h4.986v2.031h-4.986v12.039h5.256v1.982h-7.757
			v-29.554h7.808V206.226z M69.997,206.226H64.69v11.553h4.986v2.031H64.69v12.039h5.254v1.982h-7.756v-29.554h7.809V206.226z
			 M81.919,231.926c-0.035-0.936-0.051-2.428-0.051-4.475v-3.259c0-2.059-0.125-3.369-0.377-3.929s-1-0.839-2.242-0.839
			l-2.653-0.168v14.574h-2.503v-29.554h5.021c2.025,0,3.38,0.426,4.064,1.276c0.515,0.639,0.842,1.42,0.982,2.344
			c0.139,0.922,0.207,2.264,0.207,4.021s-0.203,3.193-0.611,4.309c-0.408,1.113-1.111,1.803-2.106,2.073
			c0.392,0.066,0.724,0.188,0.991,0.36c0.266,0.173,0.508,0.468,0.721,0.882c0.66,1.286,0.992,4.455,0.992,9.503
			c0,2.094,0.02,3.3,0.059,3.619c0.038,0.319,0.143,0.708,0.311,1.167h-2.485C82.058,233.495,81.951,232.86,81.919,231.926z"/>
		<path style="fill:#9BD5C9;" d="M81.868,211.415c0-1.49-0.07-2.58-0.21-3.275c-0.14-0.693-0.375-1.164-0.707-1.41
			c-0.327-0.246-0.851-0.369-1.569-0.369h-2.803v11.215h2.619c0.851,0,1.431-0.145,1.738-0.435c0.308-0.292,0.539-0.775,0.696-1.452
			c0.157-0.678,0.235-2.029,0.235-4.055V211.415z"/>
		<path style="fill:#F0796F;" d="M32.704,279.528c0-1.104,0.895-2,2-2h73.817l1.181-21.488H9.604l2.35,42.758
			c0.602,11.894,10.404,21.203,22.316,21.203c6.932,0,10.078-0.733,13.93-4.854c3.635-3.888,7.479-5.859,11.422-5.859
			c0.02-0.001,0.041-0.001,0.061,0c3.938,0,7.781,1.973,11.416,5.862c3.85,4.119,6.996,4.853,13.928,4.854h0.006
			c11.91,0,21.713-9.307,22.316-21.189l0.953-17.287H34.704C33.599,281.528,32.704,280.633,32.704,279.528z M77.93,291.595h8.583
			c1.104,0,2,0.896,2,2s-0.896,2-2,2H77.93c-1.104,0-2-0.896-2-2S76.825,291.595,77.93,291.595z"/>
		<path style="fill:#9BD5C9;" d="M40.628,218.987h-2.703v12.694h2.652c0.818,0,1.417-0.268,1.797-0.806
			c0.381-0.537,0.605-1.378,0.673-2.519c0.065-1.143,0.101-2.116,0.101-2.923v-1.394c0-1.656-0.17-2.912-0.514-3.769
			C42.294,219.416,41.626,218.987,40.628,218.987z"/>
		<path style="fill:#FCF5CB;" d="M34.7,150.396c-2.365,0-4.291,1.926-4.291,4.293c0,2.366,1.926,4.292,4.291,4.292
			c2.367,0,4.294-1.926,4.294-4.292C38.994,152.322,37.067,150.396,34.7,150.396z"/>
		<path style="fill:#FCF5CB;" d="M65.345,142.368c-2.367,0-4.292,1.925-4.292,4.291c0,2.367,1.925,4.293,4.292,4.293
			s4.293-1.926,4.293-4.293C69.638,144.293,67.712,142.368,65.345,142.368z"/>
		<path style="fill:#FFFFFF;" d="M40.476,21.897c-2.081,0-3.775,1.693-3.775,3.774s1.694,3.774,3.775,3.774h38.356
			c2.081,0,3.774-1.693,3.774-3.774s-1.693-3.774-3.774-3.774H77.93H41.378H40.476z"/>
		<path style="fill:#F0796F;" d="M89.733,123.714l-4.973-37.351H45.651c-1.104,0-2-0.896-2-2s0.896-2,2-2h38.576l-6.512-48.917
			H41.593l-3.846,28.883h21.906c1.104,0,2,0.896,2,2s-0.896,2-2,2H37.214l-7.838,58.878l-1.49,0.222
			C14.269,127.45,4,139.372,4,153.158v0.116c-0.001,0.842-0.001,0.842,0.517,10.174l0.838,15.256h108.594l1.322-24.054v-0.061
			c0.024-0.475,0.037-0.953,0.037-1.432c0-13.351-9.63-24.952-22.605-27.508c-0.414-0.082-0.832-0.154-1.254-0.217l-1.49-0.222
			L89.797,124c-0.017-0.056-0.026-0.112-0.036-0.169C89.753,123.791,89.739,123.755,89.733,123.714z M62.188,96.123h7.809
			c1.104,0,2,0.896,2,2s-0.896,2-2,2h-7.809c-1.104,0-2-0.896-2-2S61.084,96.123,62.188,96.123z M34.7,162.981
			c-4.571,0-8.291-3.72-8.291-8.292c0-4.573,3.72-8.293,8.291-8.293c4.574,0,8.294,3.72,8.294,8.293
			C42.994,159.262,39.274,162.981,34.7,162.981z M47.669,133.929c-4.571,0-8.291-3.72-8.291-8.291c0-4.572,3.72-8.292,8.291-8.292
			c4.574,0,8.293,3.72,8.293,8.292C55.962,130.209,52.243,133.929,47.669,133.929z M65.345,154.952c-4.572,0-8.292-3.72-8.292-8.293
			c0-4.571,3.72-8.291,8.292-8.291c4.571,0,8.293,3.72,8.293,8.291C73.638,151.232,69.916,154.952,65.345,154.952z"/>
		<path style="fill:#FCF5CB;" d="M75.93,6.396C75.93,5.074,74.854,4,73.534,4H45.773c-1.321,0-2.396,1.074-2.396,2.396v11.502H75.93
			V6.396z"/>
		<path style="fill:#2B2C2D;" d="M153.247,112.497c4.469,5.27,9.896,9.395,15.145,13.383c5.939,4.513,11.549,8.775,14.131,13.735
			l1.774,3.406l1.774-3.406c2.582-4.96,8.191-9.223,14.129-13.736c5.25-3.988,10.676-8.112,15.146-13.382
			c10.929-12.89,13.867-30.11,8.101-47.3v0.3c0,1.104-0.896,2-2,2c-1.105,0-2-0.896-2-2v-0.441
			c-2.887,6.404-8.574,10.497-15.752,15.647c-2.23,1.601-4.537,3.256-6.971,5.126c-5.701,4.38-9.863,10.434-12.428,18.055
			c-2.564-7.622-6.726-13.675-12.428-18.055c-2.434-1.87-4.739-3.525-6.97-5.126c-7.177-5.15-12.866-9.243-15.752-15.647v0.441
			c0,1.104-0.896,2-2,2s-2-0.896-2-2v-0.3C139.38,82.387,142.317,99.607,153.247,112.497z M147.712,70.644
			c3.576,5.215,8.891,9.03,14.854,13.31c2.204,1.581,4.483,3.217,6.866,5.048c6.709,5.155,11.049,13.021,12.896,23.382l1.97,11.051
			l1.969-11.051c1.845-10.36,6.184-18.227,12.895-23.382c2.382-1.831,4.661-3.467,6.865-5.048
			c5.963-4.279,11.279-8.095,14.854-13.31c3.566,14.407,0.537,28.509-8.585,39.266c-4.187,4.937-9.437,8.927-14.515,12.785
			c-5.232,3.977-10.224,7.771-13.483,12.235c-3.261-4.465-8.252-8.258-13.485-12.234c-5.076-3.858-10.328-7.849-14.514-12.786
			C147.177,99.152,144.146,85.051,147.712,70.644z"/>
		<path style="fill:#2B2C2D;" d="M168.392,177.491c5.939,4.513,11.547,8.776,14.131,13.737l1.774,3.407l1.774-3.407
			c2.582-4.962,8.191-9.225,14.131-13.738c5.248-3.988,10.674-8.112,15.144-13.382c11.003-12.977,13.917-30.343,7.993-47.646
			l-1.684-4.915l-2.047,4.774c-2.834,6.605-8.605,10.747-15.912,15.991c-2.231,1.601-4.538,3.256-6.973,5.127
			c-5.701,4.382-9.863,10.436-12.428,18.057c-2.564-7.621-6.726-13.676-12.428-18.057c-2.434-1.871-4.74-3.526-6.971-5.127
			c-7.309-5.244-13.08-9.386-15.914-15.991l-2.047-4.774l-1.682,4.915c-5.924,17.303-3.012,34.669,7.992,47.646
			C157.716,169.379,163.144,173.503,168.392,177.491z M147.712,122.256c3.574,5.214,8.891,9.028,14.854,13.308
			c2.204,1.582,4.484,3.218,6.865,5.049c6.711,5.157,11.051,13.024,12.897,23.383l1.97,11.051l1.969-11.051
			c1.845-10.358,6.184-18.226,12.895-23.383c2.383-1.831,4.662-3.467,6.867-5.049c5.961-4.279,11.277-8.094,14.852-13.308
			c3.566,14.406,0.537,28.508-8.585,39.266c-4.187,4.937-9.437,8.926-14.513,12.784c-5.232,3.977-10.226,7.771-13.485,12.236
			c-3.261-4.465-8.253-8.259-13.485-12.235c-5.078-3.858-10.328-7.849-14.514-12.784
			C147.177,150.764,144.146,136.662,147.712,122.256z"/>
		<path style="fill:#2B2C2D;" d="M168.392,229.104c5.777,4.39,11.234,8.545,13.905,13.335v-0.522c0-1.104,0.896-2,2-2s2,0.896,2,2
			v0.522c2.671-4.79,8.128-8.945,13.903-13.335c5.25-3.989,10.676-8.113,15.146-13.383c11.003-12.977,13.917-30.343,7.993-47.646
			l-1.684-4.915l-2.047,4.774c-2.834,6.604-8.604,10.745-15.91,15.988c-2.23,1.602-4.539,3.258-6.975,5.13
			c-5.701,4.38-9.863,10.434-12.428,18.055c-2.564-7.622-6.726-13.675-12.428-18.055c-2.435-1.872-4.742-3.528-6.975-5.13
			c-7.306-5.243-13.076-9.384-15.91-15.988l-2.047-4.774l-1.682,4.915c-5.924,17.303-3.012,34.669,7.992,47.646
			C157.716,220.991,163.144,225.116,168.392,229.104z M147.712,173.869c3.574,5.213,8.889,9.026,14.85,13.305
			c2.205,1.583,4.486,3.22,6.871,5.052c6.709,5.155,11.049,13.021,12.896,23.382l1.97,11.052l1.969-11.052
			c1.845-10.359,6.184-18.227,12.895-23.382c2.384-1.832,4.664-3.469,6.87-5.052c5.96-4.278,11.274-8.092,14.849-13.305
			c3.566,14.406,0.537,28.508-8.585,39.265c-4.187,4.938-9.437,8.927-14.513,12.785c-5.234,3.977-10.226,7.771-13.485,12.235
			c-3.261-4.465-8.252-8.258-13.485-12.234c-5.076-3.858-10.328-7.849-14.514-12.786
			C147.176,202.377,144.146,188.275,147.712,173.869z"/>
		<path style="fill:#2B2C2D;" d="M176.421,80.628c2.296,2.271,4.464,4.418,6.185,7.146l1.691,2.682l1.692-2.683
			c1.719-2.727,3.887-4.873,6.182-7.145c2.432-2.408,4.947-4.897,7.205-8.31c8.586-12.97,3.686-28.485-13.079-41.65v0.973
			c0,1.104-0.896,2-2,2s-2-0.896-2-2v-0.973c-16.765,13.164-21.667,28.681-13.081,41.65
			C171.474,75.73,173.989,78.221,176.421,80.628z M184.297,34.179c14.575,11.653,18.976,25.009,11.743,35.933
			c-2.029,3.067-4.395,5.409-6.683,7.674c-1.716,1.698-3.474,3.438-5.061,5.462c-1.589-2.024-3.346-3.764-5.062-5.462
			c-2.287-2.265-4.654-4.606-6.684-7.675C165.319,59.188,169.72,45.831,184.297,34.179z"/>
		<path style="fill:#2B2C2D;" d="M184.297,33.641c1.104,0,2-0.896,2-2v-0.973V2.001c0-1.104-0.896-2-2-2s-2,0.896-2,2v28.667v0.973
			C182.297,32.745,183.192,33.641,184.297,33.641z"/>
		<path style="fill:#2B2C2D;" d="M147.146,67.497c1.104,0,2-0.896,2-2v-0.441V26.587c0-1.104-0.896-2-2-2s-2,0.896-2,2v38.61v0.3
			C145.146,66.602,146.042,67.497,147.146,67.497z"/>
		<path style="fill:#2B2C2D;" d="M221.446,67.497c1.104,0,2-0.896,2-2v-0.3v-38.61c0-1.104-0.896-2-2-2c-1.105,0-2,0.896-2,2v38.469
			v0.441C219.446,66.602,220.341,67.497,221.446,67.497z"/>
		<path style="fill:#2B2C2D;" d="M184.297,239.917c-1.104,0-2,0.896-2,2v0.522v79.565c0,1.104,0.896,2,2,2s2-0.896,2-2v-79.565
			v-0.522C186.297,240.812,185.401,239.917,184.297,239.917z"/>
		<path style="fill:#2B2C2D;" d="M75.93,19.897v-2H43.378v2c0,1.104-0.896,2-2,2H77.93C76.825,21.897,75.93,21.002,75.93,19.897z"/>
		<path style="fill:#2B2C2D;" d="M39.847,31.408l1.977,0.304l-0.005,0.038l-0.226,1.696h36.123l-0.232-1.736
			c-0.144-1.087,0.611-2.106,1.696-2.263c1.093-0.152,2.091,0.573,2.258,1.657l0.005,0.038l0.004,0.025l0.041-0.005l0.23,1.722
			c2.86-1.148,4.889-3.946,4.889-7.213c0-3.913-2.91-7.151-6.677-7.688v1.913c0,1.104-0.896,2-2,2h0.902
			c2.081,0,3.774,1.693,3.774,3.774s-1.693,3.774-3.774,3.774H40.476c-2.081,0-3.775-1.693-3.775-3.774s1.694-3.774,3.775-3.774
			h0.902c-1.104,0-2-0.896-2-2v-1.913c-3.768,0.536-6.678,3.774-6.678,7.688c0,3.282,2.048,6.089,4.931,7.228l0.228-1.717
			L39.847,31.408z"/>
		<path style="fill:#2B2C2D;" d="M115.308,153.158c0,0.479-0.013,0.957-0.037,1.432v0.061v-0.02c0.004-0.069,0.02-0.136,0.03-0.204
			c0.027-0.639,0.027-0.871,0.027-1.243c0.003-13.375-9.64-24.985-22.626-27.533C105.678,128.206,115.308,139.808,115.308,153.158z"
			/>
		<path style="fill:#2B2C2D;" d="M89.797,124l-0.003-0.02c-0.014-0.049-0.023-0.099-0.033-0.149
			C89.771,123.888,89.78,123.944,89.797,124z"/>
		<path style="fill:#2B2C2D;" d="M94.815,122.021c0.021,0.006,0.045,0.01,0.066,0.016C94.86,122.03,94.837,122.026,94.815,122.021z"
			/>
		<polygon style="fill:#2B2C2D;" points="109.921,252.04 109.927,252.04 113.748,182.704 113.729,182.704 		"/>
		<path style="fill:#2B2C2D;" d="M111.34,299.069c0.001-0.019,0.007-0.035,0.009-0.053l1.111-20.269l-1.117,20.279
			C111.343,299.041,111.341,299.055,111.34,299.069z"/>
		<rect x="109.113" y="256.024" style="fill:#2B2C2D;" width="0.001" height="21.521"/>
		<path style="fill:#2B2C2D;" d="M115.271,154.65l-1.322,24.054h0.021l0.834-15.13c0.328-5.879,0.451-8.08,0.497-9.147
			c-0.011,0.068-0.026,0.135-0.03,0.204V154.65z"/>
		<polygon style="fill:#2B2C2D;" points="9.384,252.04 9.604,256.04 109.702,256.04 109.706,256.04 109.927,252.04 109.921,252.04 
					"/>
		<polygon style="fill:#2B2C2D;" points="5.354,178.704 5.575,182.704 113.729,182.704 113.748,182.704 113.97,178.704 
			113.948,178.704 		"/>
		<path style="fill:#2B2C2D;" d="M7.958,299.009c0.711,14.015,12.27,24.992,26.312,24.992c7.539,0,11.984-0.916,16.854-6.122
			c2.848-3.046,5.707-4.591,8.509-4.591c0.013,0,0.025,0,0.04,0c2.795,0,5.655,1.545,8.503,4.594
			c4.866,5.204,9.311,6.121,16.851,6.123h0.006c14.027-0.001,25.574-10.953,26.308-24.936c0.001-0.015,0.003-0.028,0.003-0.042
			l1.117-20.279l6.338-114.951c0.53-9.51,0.53-9.51,0.53-10.628c0.003-14.777-10.323-27.682-24.446-31.133
			c-0.021-0.006-0.045-0.01-0.066-0.016c-0.426-0.103-0.854-0.198-1.284-0.284L81.718,32.885l-0.23-1.722l-0.041,0.005
			l12.252,92.019c0.146,1.095-0.623,2.101-1.719,2.246c-0.09,0.012-0.179,0.018-0.266,0.018c-0.898,0-1.682-0.605-1.92-1.47
			l0.003,0.02l0.161,1.212l1.49,0.222c0.422,0.062,0.84,0.135,1.254,0.217c12.986,2.548,22.629,14.158,22.626,27.533
			c0,0.372,0,0.604-0.027,1.243c-0.046,1.067-0.169,3.269-0.497,9.147l-0.834,15.13l-0.222,4l-3.821,69.336l-0.221,4l-1.184,21.488
			h1.891c1.104,0,2,0.896,2,2s-0.896,2-2,2h-2.111l-0.953,17.287c-0.604,11.883-10.406,21.189-22.316,21.189h-0.006
			c-6.932-0.002-10.078-0.735-13.928-4.854c-3.635-3.89-7.479-5.862-11.416-5.862c-0.02-0.001-0.041-0.001-0.061,0
			c-3.943,0-7.787,1.972-11.422,5.859c-3.852,4.12-6.998,4.854-13.93,4.854c-11.912,0-21.715-9.31-22.316-21.203l-2.35-42.758
			l-0.221-4l-3.809-69.336l-0.221-4l-0.838-15.256c-0.518-9.332-0.518-9.332-0.517-10.174v-0.116
			c0-13.786,10.269-25.708,23.886-27.729l1.49-0.222l7.838-58.878h-1.749c-1.104,0-2-0.896-2-2s0.896-2,2-2h2.282l3.846-28.883
			l0.226-1.696l0.005-0.038l-1.977-0.304l-1.988-0.226l-0.228,1.717L25.804,121.73C10.99,124.665,0,137.914,0,153.158v0.113
			c-0.001,0.954-0.001,0.954,0.522,10.398L7.958,299.009z"/>
		<path style="fill:#2B2C2D;" d="M81.438,31.104c-0.167-1.084-1.165-1.81-2.258-1.657c-1.085,0.156-1.84,1.176-1.696,2.263
			l0.232,1.736l6.512,48.917h2.285c1.104,0,2,0.896,2,2s-0.896,2-2,2h-1.752l4.973,37.351c0.006,0.041,0.02,0.077,0.027,0.117
			c0.01,0.051,0.02,0.101,0.033,0.149c0.238,0.864,1.021,1.47,1.92,1.47c0.087,0,0.176-0.006,0.266-0.018
			c1.096-0.146,1.865-1.151,1.719-2.246L81.446,31.168l-0.004-0.025L81.438,31.104z"/>
		<path style="fill:#2B2C2D;" d="M61.653,64.329c0-1.104-0.896-2-2-2H37.747h-2.282c-1.104,0-2,0.896-2,2s0.896,2,2,2h1.749h22.439
			C60.757,66.329,61.653,65.434,61.653,64.329z"/>
		<path style="fill:#2B2C2D;" d="M41.378,21.897c1.104,0,2-0.896,2-2v-2V6.396C43.378,5.074,44.452,4,45.773,4h27.761
			c1.32,0,2.396,1.074,2.396,2.396v11.502v2c0,1.104,0.896,2,2,2s2-0.896,2-2v-1.913V6.396C79.93,2.869,77.061,0,73.534,0H45.773
			c-3.526,0-6.396,2.869-6.396,6.396v11.589v1.913C39.378,21.002,40.273,21.897,41.378,21.897z"/>
		<path style="fill:#2B2C2D;" d="M47.669,117.346c-4.571,0-8.291,3.72-8.291,8.292c0,4.571,3.72,8.291,8.291,8.291
			c4.574,0,8.293-3.72,8.293-8.291C55.962,121.065,52.243,117.346,47.669,117.346z M47.669,129.929
			c-2.365,0-4.291-1.925-4.291-4.291s1.926-4.292,4.291-4.292c2.369,0,4.293,1.926,4.293,4.292S50.038,129.929,47.669,129.929z"/>
		<path style="fill:#2B2C2D;" d="M65.345,138.368c-4.572,0-8.292,3.72-8.292,8.291c0,4.573,3.72,8.293,8.292,8.293
			c4.571,0,8.293-3.72,8.293-8.293C73.638,142.088,69.916,138.368,65.345,138.368z M65.345,150.952
			c-2.367,0-4.292-1.926-4.292-4.293c0-2.366,1.925-4.291,4.292-4.291s4.293,1.925,4.293,4.291
			C69.638,149.026,67.712,150.952,65.345,150.952z"/>
		<path style="fill:#2B2C2D;" d="M34.7,146.396c-4.571,0-8.291,3.72-8.291,8.293c0,4.572,3.72,8.292,8.291,8.292
			c4.574,0,8.294-3.72,8.294-8.292C42.994,150.116,39.274,146.396,34.7,146.396z M34.7,158.981c-2.365,0-4.291-1.926-4.291-4.292
			c0-2.367,1.926-4.293,4.291-4.293c2.367,0,4.294,1.926,4.294,4.293C38.994,157.056,37.067,158.981,34.7,158.981z"/>
		<path style="fill:#2B2C2D;" d="M43.651,84.363c0,1.104,0.896,2,2,2h39.109h1.752c1.104,0,2-0.896,2-2s-0.896-2-2-2h-2.285H45.651
			C44.548,82.363,43.651,83.259,43.651,84.363z"/>
		<path style="fill:#2B2C2D;" d="M62.188,100.123h7.809c1.104,0,2-0.896,2-2s-0.896-2-2-2h-7.809c-1.104,0-2,0.896-2,2
			S61.084,100.123,62.188,100.123z"/>
		<path style="fill:#2B2C2D;" d="M34.704,277.528c-1.105,0-2,0.896-2,2s0.895,2,2,2h73.598h2.111c1.104,0,2-0.896,2-2s-0.896-2-2-2
			h-1.891h-0.001H34.704z"/>
		<path style="fill:#2B2C2D;" d="M77.93,295.595h8.583c1.104,0,2-0.896,2-2s-0.896-2-2-2H77.93c-1.104,0-2,0.896-2,2
			S76.825,295.595,77.93,295.595z"/>
		<path style="fill:#2B2C2D;" d="M43.349,217.929c0.773-0.504,1.281-1.26,1.527-2.266c0.248-1.008,0.371-2.468,0.371-4.384v-0.386
			c-0.013-1.008-0.062-1.846-0.152-2.518c-0.201-1.522-0.702-2.586-1.502-3.19c-0.802-0.605-2.085-0.908-3.854-0.908h-4.316v29.554
			h5.071c2.004,0,3.353-0.645,4.046-1.931c0.694-1.287,1.062-3.37,1.109-6.247v-0.521c0-1.88-0.167-3.444-0.496-4.693
			C44.823,219.191,44.222,218.354,43.349,217.929z M37.925,206.478h1.881c0.852,0,1.449,0.12,1.797,0.362
			c0.346,0.24,0.623,0.64,0.831,1.198c0.207,0.561,0.312,1.873,0.312,3.938c0,2.068-0.157,3.452-0.472,4.158
			c-0.101,0.223-0.282,0.419-0.546,0.587c-0.263,0.167-0.78,0.251-1.555,0.251h-2.248V206.478z M43.147,225.435
			c0,0.807-0.035,1.78-0.101,2.923c-0.067,1.141-0.292,1.981-0.673,2.519c-0.38,0.538-0.979,0.806-1.797,0.806h-2.652v-12.694h2.703
			c0.998,0,1.666,0.429,2.006,1.285c0.344,0.856,0.514,2.112,0.514,3.769V225.435z"/>
		<polygon style="fill:#2B2C2D;" points="50.283,233.831 58.04,233.831 58.04,231.849 52.784,231.849 52.784,219.81 57.771,219.81 
			57.771,217.778 52.784,217.778 52.784,206.226 58.091,206.226 58.091,204.277 50.283,204.277 		"/>
		<polygon style="fill:#2B2C2D;" points="62.188,233.831 69.944,233.831 69.944,231.849 64.69,231.849 64.69,219.81 69.677,219.81 
			69.677,217.778 64.69,217.778 64.69,206.226 69.997,206.226 69.997,204.277 62.188,204.277 		"/>
		<path style="fill:#2B2C2D;" d="M84.413,232.664c-0.039-0.319-0.059-1.525-0.059-3.619c0-5.048-0.332-8.217-0.992-9.503
			c-0.213-0.414-0.455-0.709-0.721-0.882c-0.268-0.173-0.6-0.294-0.991-0.36c0.995-0.271,1.698-0.96,2.106-2.073
			c0.408-1.115,0.611-2.552,0.611-4.309s-0.068-3.099-0.207-4.021c-0.141-0.924-0.468-1.705-0.982-2.344
			c-0.685-0.851-2.039-1.276-4.064-1.276h-5.021v29.554h2.503v-14.574l2.653,0.168c1.242,0,1.99,0.279,2.242,0.839
			s0.377,1.87,0.377,3.929v3.259c0,2.047,0.016,3.539,0.051,4.475c0.032,0.935,0.139,1.569,0.319,1.905h2.485
			C84.556,233.372,84.451,232.983,84.413,232.664z M80.937,217.141c-0.308,0.29-0.888,0.435-1.738,0.435h-2.619V206.36h2.803
			c0.719,0,1.242,0.123,1.569,0.369c0.332,0.246,0.567,0.717,0.707,1.41c0.14,0.695,0.21,1.785,0.21,3.275v0.219
			c0,2.025-0.078,3.377-0.235,4.055C81.476,216.365,81.244,216.849,80.937,217.141z"/>
	</g>
</g>
</svg>
