<?xml version="1.0" encoding="utf-8"?>
<!-- Generator: Adobe Illustrator 16.0.4, SVG Export Plug-In . SVG Version: 6.00 Build 0)  -->
<!DOCTYPE svg PUBLIC "-//W3C//DTD SVG 1.1//EN" "http://www.w3.org/Graphics/SVG/1.1/DTD/svg11.dtd">
<svg version="1.1" xmlns="http://www.w3.org/2000/svg" xmlns:xlink="http://www.w3.org/1999/xlink" x="0px" y="0px"
	 width="453.109px" height="324.004px" viewBox="0 0 453.109 324.004" style="enable-background:new 0 0 453.109 324.004;"
	 xml:space="preserve">
<symbol  id="New_Symbol_1" viewBox="-2869.69 1635.391 384.073 275">
	<g id="Elements_4_">
		<g>
			<path style="fill:none;stroke:#454647;stroke-width:5;stroke-linecap:round;stroke-miterlimit:10;" d="M-2500.584,1823.523
				v-12.832h-86.4v12.832c0,2.458,0.206,4.871,0.602,7.221c1.426,8.46,5.309,16.086,10.893,22.119
				c6.46,6.979,15.192,11.818,25.021,13.346c2.176,0.339,4.413,0.515,6.686,0.515c2.273,0,4.511-0.176,6.687-0.515
				c18.323-2.849,32.842-17.213,35.912-35.465C-2500.79,1828.395-2500.584,1825.981-2500.584,1823.523z"/>
			<path style="fill:none;stroke:#454647;stroke-width:5;stroke-linecap:round;stroke-miterlimit:10;" d="M-2550.47,1866.209v6.125
				c0,3.691,2.993,6.686,6.686,6.686s6.687-2.994,6.687-6.686v-6.125"/>
			<path style="fill:none;stroke:#454647;stroke-width:5;stroke-linecap:round;stroke-miterlimit:10;" d="M-2734.672,1695.492
				c-1.476,26.48-21.861,47.916-47.869,51.037c-2.149,0.257-4.336,0.39-6.558,0.39s-4.407-0.133-6.557-0.39
				c-16.771-2.011-31.202-11.638-39.739-25.323c-4.7-7.539-7.605-16.309-8.131-25.714"/>
			<path style="fill:none;stroke:#454647;stroke-width:5;stroke-linecap:round;stroke-miterlimit:10;" d="M-2866.756,1637.892
				l7.605,47.321c0.952,5.923,6.063,10.279,12.063,10.279h115.978c5.999,0,11.111-4.356,12.062-10.279l7.605-47.321H-2866.756z"/>
			
				<line style="fill:none;stroke:#454647;stroke-width:5;stroke-linecap:round;stroke-miterlimit:10;" x1="-2770.584" y1="1721.206" x2="-2835.395" y2="1721.206"/>
			
				<line style="fill:none;stroke:#454647;stroke-width:5;stroke-linecap:round;stroke-miterlimit:10;" x1="-2805.041" y1="1670.806" x2="-2861.464" y2="1670.806"/>
			
				<line style="fill:none;stroke:#454647;stroke-width:5;stroke-linecap:round;stroke-miterlimit:10;" x1="-2805.041" y1="1663.092" x2="-2862.703" y2="1663.092"/>
			
				<line style="fill:none;stroke:#454647;stroke-width:5;stroke-linecap:round;stroke-miterlimit:10;" x1="-2805.041" y1="1655.378" x2="-2863.943" y2="1655.378"/>
			<path style="fill:none;stroke:#454647;stroke-width:5;stroke-linecap:round;stroke-miterlimit:10;" d="M-2511.641,1682.717
				c0-2.414-1.958-4.371-4.372-4.371s-4.371,1.957-4.371,4.371s1.957,4.372,4.371,4.372S-2511.641,1685.131-2511.641,1682.717z"/>
			<path style="fill:none;stroke:#454647;stroke-width:5;stroke-linecap:round;stroke-miterlimit:10;" d="M-2511.641,1652.549
				c0-2.414-1.958-4.371-4.372-4.371s-4.371,1.957-4.371,4.371s1.957,4.37,4.371,4.37S-2511.641,1654.963-2511.641,1652.549z"/>
			<path style="fill:none;stroke:#454647;stroke-width:5;stroke-linecap:round;stroke-miterlimit:10;" d="M-2535.041,1663.092
				c0-2.414-1.957-4.372-4.371-4.372s-4.372,1.958-4.372,4.372s1.958,4.371,4.372,4.371S-2535.041,1665.506-2535.041,1663.092z"/>
			<path style="fill:none;stroke:#454647;stroke-width:5;stroke-linecap:round;stroke-miterlimit:10;" d="M-2678.912,1708.092
				c0-2.414-1.958-4.372-4.372-4.372s-4.371,1.958-4.371,4.372s1.957,4.371,4.371,4.371S-2678.912,1710.506-2678.912,1708.092z"/>
			<path style="fill:none;stroke:#454647;stroke-width:5;stroke-linecap:round;stroke-miterlimit:10;" d="M-2678.912,1689.835
				c0-2.414-1.958-4.372-4.372-4.372s-4.371,1.958-4.371,4.372s1.957,4.371,4.371,4.371S-2678.912,1692.249-2678.912,1689.835z"/>
			<path style="fill:none;stroke:#454647;stroke-width:5;stroke-linecap:round;stroke-miterlimit:10;" d="M-2678.912,1671.577
				c0-2.415-1.958-4.371-4.372-4.371s-4.371,1.956-4.371,4.371s1.957,4.372,4.371,4.372S-2678.912,1673.992-2678.912,1671.577z"/>
			<path style="fill:none;stroke:#454647;stroke-width:5;stroke-linecap:round;stroke-miterlimit:10;" d="M-2782.541,1880.696
				v-134.167c-2.149,0.257-4.336,0.39-6.558,0.39s-4.407-0.133-6.557-0.39v134.167c0,2.809,2.273,5.081,5.076,5.081h2.962
				C-2784.815,1885.777-2782.541,1883.505-2782.541,1880.696z"/>
			
				<line style="fill:none;stroke:#454647;stroke-width:5;stroke-linecap:round;stroke-miterlimit:10;" x1="-2804.013" y1="1788.577" x2="-2774.184" y2="1788.577"/>
			<path style="fill:none;stroke:#454647;stroke-width:5;stroke-linecap:round;stroke-miterlimit:10;" d="M-2638.927,1816.606
				v-58.933c-3.847-2.278-7.921-4.314-12.183-6.084c-1.152-0.479-2.319-0.94-3.502-1.379c-3.163-1.177-6.424-2.217-9.771-3.095
				c-8.522-2.248-17.589-3.498-27-3.58c-3.657,0.031-7.262,0.241-10.8,0.617c-5.575,0.586-10.991,1.589-16.2,2.963
				c-3.349,0.878-6.608,1.918-9.772,3.095c-2.221,0.829-4.397,1.724-6.516,2.69c-3.178,1.44-6.238,3.04-9.17,4.772v58.933
				c4.892,2.89,10.137,5.395,15.686,7.462c3.163,1.178,6.423,2.217,9.772,3.096c6.397,1.688,13.099,2.808,20.026,3.302
				c2.299,0.165,4.629,0.258,6.974,0.278c5.985-0.052,11.828-0.576,17.485-1.533c3.24-0.545,6.413-1.229,9.515-2.047
				c3.348-0.879,6.608-1.918,9.771-3.096C-2649.064,1822.001-2643.818,1819.496-2638.927,1816.606z"/>
			<g>
				<g>
					
						<line style="fill:none;stroke:#454647;stroke-width:5;stroke-linecap:round;stroke-miterlimit:10;" x1="-2728.156" y1="1750.211" x2="-2728.156" y2="1824.068"/>
					
						<line style="fill:none;stroke:#454647;stroke-width:5;stroke-linecap:round;stroke-miterlimit:10;" x1="-2718.384" y1="1747.116" x2="-2718.384" y2="1827.164"/>
				</g>
				<g>
					
						<line style="fill:none;stroke:#454647;stroke-width:5;stroke-linecap:round;stroke-miterlimit:10;" x1="-2664.384" y1="1747.116" x2="-2664.384" y2="1827.164"/>
					
						<line style="fill:none;stroke:#454647;stroke-width:5;stroke-linecap:round;stroke-miterlimit:10;" x1="-2654.613" y1="1750.211" x2="-2654.613" y2="1824.068"/>
				</g>
			</g>
			<polyline style="fill:none;stroke:#454647;stroke-width:5;stroke-linecap:round;stroke-miterlimit:10;" points="
				-2664.384,1758.749 -2664.384,1747.116 -2664.384,1637.892 -2702.184,1637.892 -2702.184,1721.206 -2702.184,1744.153 			"/>
			<path style="fill:none;stroke:#454647;stroke-width:5;stroke-linecap:round;stroke-miterlimit:10;" d="M-2586.985,1810.691
				v-172.8h86.4v172.8H-2586.985z"/>
			<path style="fill:none;stroke:#454647;stroke-width:5;stroke-linecap:round;stroke-miterlimit:10;" d="M-2586.985,1684.666
				c5.221,3.276,11.387,5.169,18,5.169c4.758,0,9.283-0.978,13.393-2.746"/>
			<path style="fill:none;stroke:#454647;stroke-width:5;stroke-linecap:round;stroke-miterlimit:10;" d="M-2555.592,1687.089
				c0.447,10.537,9.134,18.946,19.779,18.946c5.045,0,9.652-1.888,13.145-4.994"/>
			<path style="fill:none;stroke:#454647;stroke-width:5;stroke-linecap:round;stroke-miterlimit:10;" d="M-2522.668,1701.041
				c3.369,2.493,7.54,3.965,12.056,3.965c3.646,0,7.071-0.963,10.028-2.645"/>
			
				<line style="fill:none;stroke:#454647;stroke-width:5;stroke-linecap:round;stroke-miterlimit:10;" x1="-2563.327" y1="1766.463" x2="-2576.338" y2="1753.452"/>
			
				<line style="fill:none;stroke:#454647;stroke-width:5;stroke-linecap:round;stroke-miterlimit:10;" x1="-2563.327" y1="1750.042" x2="-2576.338" y2="1737.029"/>
			
				<line style="fill:none;stroke:#454647;stroke-width:5;stroke-linecap:round;stroke-miterlimit:10;" x1="-2563.327" y1="1733.62" x2="-2576.338" y2="1720.608"/>
			
				<line style="fill:none;stroke:#454647;stroke-width:5;stroke-linecap:round;stroke-miterlimit:10;" x1="-2501.186" y1="1830.744" x2="-2586.383" y2="1830.744"/>
			<path style="fill:none;stroke:#454647;stroke-width:5;stroke-linecap:round;stroke-miterlimit:10;" d="M-2673.899,1829.211
				v23.652v45.171c0,5.444-4.413,9.857-9.857,9.857h-41.402h-54.084c-5.444,0-9.857-4.413-9.857-9.857v-12.257"/>
			<polyline style="fill:none;stroke:#454647;stroke-width:5;stroke-linecap:round;stroke-miterlimit:10;" points="
				-2673.899,1852.861 -2622.209,1852.861 -2575.489,1852.861 			"/>
			
				<line style="fill:none;stroke:#454647;stroke-width:5;stroke-linecap:round;stroke-miterlimit:10;" x1="-2622.213" y1="1852.863" x2="-2622.213" y2="1864.178"/>
			<path style="fill:none;stroke:#454647;stroke-width:5;stroke-linecap:round;stroke-miterlimit:10;" d="M-2612.698,1873.691
				c0-5.255-4.26-9.514-9.515-9.514c-5.254,0-9.514,4.259-9.514,9.514c0,5.254,4.26,9.515,9.514,9.515
				C-2616.958,1883.206-2612.698,1878.945-2612.698,1873.691z"/>
			
				<line style="fill:none;stroke:#454647;stroke-width:5;stroke-linecap:round;stroke-miterlimit:10;" x1="-2725.157" y1="1897.312" x2="-2725.157" y2="1907.892"/>
			<path style="fill:none;stroke:#454647;stroke-width:5;stroke-linecap:round;stroke-miterlimit:10;" d="M-2734.672,1887.799
				c0,5.255,4.26,9.514,9.515,9.514s9.515-4.259,9.515-9.514c0-5.256-4.26-9.514-9.515-9.514S-2734.672,1882.543-2734.672,1887.799z
				"/>
			<path style="fill:none;stroke:#454647;stroke-width:5;stroke-linecap:round;stroke-miterlimit:10;" d="M-2734.672,1752.901
				v-15.65c0-8.861,7.184-16.045,16.046-16.045h16.441"/>
			<path style="fill:none;stroke:#454647;stroke-width:5;stroke-linecap:round;stroke-miterlimit:10;" d="M-2782.541,1867.824
				c12.358,1.347,29.551-0.227,36.746-9.617c2.123-2.772,3.378-6.229,3.378-10.487c0-12.687-11.817-9.848-11.817,0
				c0,3.965,3.357,7.771,8.439,10.487c14.806,7.904,44.207,6.47,47.438-27.741"/>
			
				<line style="fill:none;stroke:#454647;stroke-width:5;stroke-linecap:round;stroke-miterlimit:10;" x1="-2709.384" y1="1802.977" x2="-2680.584" y2="1802.977"/>
			
				<line style="fill:none;stroke:#454647;stroke-width:5;stroke-linecap:round;stroke-miterlimit:10;" x1="-2702.184" y1="1788.577" x2="-2687.098" y2="1788.577"/>
			<g>
				<polyline style="fill:none;stroke:#454647;stroke-width:5;stroke-linecap:round;stroke-miterlimit:10;" points="
					-2624.985,1684.691 -2624.985,1670.291 -2624.985,1658.463 -2624.985,1637.892 				"/>
				
					<line style="fill:none;stroke:#454647;stroke-width:5;stroke-linecap:round;stroke-miterlimit:10;" x1="-2630.899" y1="1664.378" x2="-2619.071" y2="1676.206"/>
				
					<line style="fill:none;stroke:#454647;stroke-width:5;stroke-linecap:round;stroke-miterlimit:10;" x1="-2630.899" y1="1652.549" x2="-2619.071" y2="1664.378"/>
				<path style="fill:none;stroke:#454647;stroke-width:5;stroke-linecap:round;stroke-miterlimit:10;" d="M-2586.989,1721.211
					c-6.721,0-14.311,0-17.04,0c-7.651,0-14.521,0-19.151,0c-16.979,0-20.32,24.681-1.8,24.681c11.96,0,19.12-11.591,20.95-24.681
					c2.37-17-4.23-36.52-20.95-36.52c-35.09,0-29.75,46.74-28.9,66.899"/>
			</g>
			
				<line style="fill:none;stroke:#454647;stroke-width:5;stroke-linecap:round;stroke-miterlimit:10;" x1="-2599.451" y1="1810.691" x2="-2488.117" y2="1810.691"/>
		</g>
	</g>
</symbol>
<g id="Background">
	<g id="New_Symbol_8_9_">
		<g id="Elements_106_">
		</g>
	</g>
	<g id="New_Symbol_6_11_">
		<g id="Elements_105_">
		</g>
	</g>
	<g id="New_Symbol_10_">
		<g id="DoneElements_11_">
		</g>
		<g id="Elements_104_">
		</g>
	</g>
</g>
<g id="Elements">
	<g id="New_Symbol_2_">
		<g id="DoneElements_3_">
		</g>
		<g id="Elements_36_">
		</g>
	</g>
	<g id="New_Symbol_3_2_">
		<g id="Elements_35_">
		</g>
	</g>
	<g id="New_Symbol_1_2_">
		<g id="Elements_34_">
		</g>
	</g>
	<g id="New_Symbol_2_2_">
		<g id="Elements_33_">
		</g>
	</g>
	<g id="New_Symbol_5_2_">
		<g id="Elements_32_">
		</g>
	</g>
	<g id="New_Symbol_6_2_">
		<g id="Elements_31_">
		</g>
	</g>
	<g id="New_Symbol_7_2_">
		<g id="Elements_30_">
		</g>
	</g>
	<g id="New_Symbol_8_2_">
		<g id="Elements_29_">
		</g>
	</g>
	<g id="New_Symbol_9_2_">
		<g id="Elements_28_">
		</g>
	</g>
	<g id="New_Symbol_2_8_">
		<g id="Elements_99_">
		</g>
	</g>
	<g id="New_Symbol_9_">
		<g id="DoneElements_10_">
		</g>
		<g id="Elements_95_">
		</g>
	</g>
	<g id="New_Symbol_7_9_">
		<g id="Elements_94_">
		</g>
	</g>
	<g id="New_Symbol_9_10_">
		<g id="Elements_93_">
		</g>
	</g>
	<g id="New_Symbol_1_10_">
		<g id="Elements_100_">
		</g>
	</g>
	<g id="New_Symbol_9_11_">
		<g id="Elements_101_">
		</g>
	</g>
	<g id="New_Symbol_3_10_">
		<g id="Elements_102_">
		</g>
	</g>
	<g id="New_Symbol_5_10_">
		<g id="Elements_103_">
		</g>
	</g>
	<g id="New_Symbol_3_9_">
		<g id="Elements_98_">
		</g>
	</g>
	<g id="New_Symbol_1_9_">
		<g id="Elements_97_">
		</g>
	</g>
	<g id="New_Symbol_8_8_">
		<g id="Elements_96_">
		</g>
	</g>
	<g id="New_Symbol_9_9_">
		<g id="Elements_91_">
		</g>
	</g>
	<g id="New_Symbol_5_9_">
		<g id="Elements_90_">
		</g>
	</g>
	<g id="New_Symbol_6_9_">
		<g id="Elements_89_">
		</g>
	</g>
	<g id="New_Symbol_6_10_">
		<g id="Elements_92_">
		</g>
	</g>
	<g id="Brauerei_1_">
		<path style="fill:#FCF5CB;" d="M418.049,301.451c-1.756,0-3.182,1.428-3.182,3.182c0,1.753,1.426,3.18,3.182,3.18
			c1.754,0,3.181-1.427,3.181-3.18C421.229,302.879,419.803,301.451,418.049,301.451z"/>
		<path style="fill:#FCF5CB;" d="M418.049,265.695c-1.756,0-3.182,1.428-3.182,3.182s1.426,3.181,3.182,3.181
			c1.754,0,3.181-1.427,3.181-3.181S419.803,265.695,418.049,265.695z"/>
		<path style="fill:#FCF5CB;" d="M390.314,288.956c-1.754,0-3.182,1.427-3.182,3.181s1.428,3.181,3.182,3.181
			c1.755,0,3.182-1.427,3.182-3.181S392.069,288.956,390.314,288.956z"/>
		<path style="fill:#FCF5CB;" d="M411.35,248.767c-0.002,0.002-0.005,0.002-0.009,0.004c-0.155,0.115-0.327,0.196-0.504,0.261
			c-0.036,0.013-0.069,0.027-0.106,0.038c-0.172,0.052-0.348,0.079-0.527,0.083c-0.014,0-0.027,0.007-0.041,0.007
			c-0.037,0-0.07-0.011-0.106-0.013c-0.089-0.004-0.179-0.014-0.268-0.03c-0.054-0.01-0.106-0.022-0.159-0.037
			c-0.086-0.023-0.17-0.055-0.254-0.09c-0.051-0.022-0.102-0.043-0.15-0.069c-0.082-0.043-0.158-0.096-0.232-0.15
			c-0.045-0.032-0.092-0.06-0.133-0.096c-0.01-0.008-0.02-0.013-0.028-0.021c-3.925-3.49-8.985-5.413-14.251-5.413
			c-11.535,0-20.955,9.022-21.443,20.54c-0.002,0.05-0.016,0.097-0.021,0.146c-0.008,0.07-0.014,0.14-0.028,0.209
			c-0.019,0.08-0.046,0.154-0.073,0.229c-0.014,0.041-0.021,0.082-0.039,0.122c-0.002,0.007-0.007,0.013-0.01,0.02
			c-0.035,0.079-0.08,0.152-0.125,0.226c-0.023,0.04-0.043,0.083-0.07,0.12c-0.031,0.045-0.071,0.084-0.107,0.126
			c-0.207,0.246-0.463,0.44-0.752,0.562c-0.006,0.002-0.01,0.006-0.016,0.008c-0.113,0.047-0.23,0.081-0.35,0.105
			c-0.006,0.001-0.01,0.004-0.016,0.005c-0.141,0.028-0.285,0.04-0.43,0.037c-0.016,0-0.031-0.001-0.046-0.001
			c-0.036-0.002-0.071-0.012-0.106-0.016c-0.086-0.008-0.172-0.017-0.257-0.037c-0.07-0.016-0.136-0.041-0.203-0.064
			c-0.046-0.016-0.094-0.024-0.14-0.044c-4.768-2.052-9.842-3.092-15.082-3.092c-6.83,0-13.484,1.835-19.333,5.277v52.286h98.401
			V246.8c-3.051-1.529-6.443-2.34-9.887-2.34C419.686,244.46,415.156,245.949,411.35,248.767z M390.314,299.317
			c-3.959,0-7.182-3.222-7.182-7.181s3.223-7.181,7.182-7.181c3.961,0,7.182,3.222,7.182,7.181S394.275,299.317,390.314,299.317z
			 M418.049,311.812c-3.961,0-7.182-3.221-7.182-7.18c0-3.96,3.221-7.182,7.182-7.182c3.959,0,7.181,3.222,7.181,7.182
			C425.229,308.592,422.008,311.812,418.049,311.812z M418.049,276.058c-3.961,0-7.182-3.222-7.182-7.181
			c0-3.96,3.221-7.182,7.182-7.182c3.959,0,7.181,3.222,7.181,7.182C425.229,272.836,422.008,276.058,418.049,276.058z"/>
		<path style="fill:#FCC24C;" d="M270.37,178.891V111.34c-4.626-2.669-9.526-5.018-14.591-7.049v81.312
			c0.104,0.072,0.199,0.152,0.289,0.242c0.364-0.147,0.727-0.29,1.095-0.443C261.74,183.502,266.178,181.313,270.37,178.891z"/>
		<path style="fill:#FCC24C;" d="M301.456,42.534c0-5.115-4.161-9.276-9.276-9.276c-5.114,0-9.275,4.161-9.275,9.276
			c0,5.114,4.161,9.275,9.275,9.275C297.295,51.81,301.456,47.648,301.456,42.534z"/>
		<path style="fill:#42A2B3;" d="M43.248,221.26h73.082c1.104,0,2,0.896,2,2s-0.896,2-2,2H40.646
			c-4.812,8.036-7.77,17.126-8.613,26.477H156.73c-2.619-29.355-25.33-52.947-54.771-56.499l-0.039-0.005
			c-1.244-0.148-2.496-0.261-3.754-0.335c-3.77-0.223-7.578-0.112-11.314,0.335C69.182,197.352,53.482,206.771,43.248,221.26z"/>
		<path style="fill:#9BD5C9;" d="M13.336,266.236l-2.371,14.758h64.526c1.104,0,2,0.896,2,2s-0.896,2-2,2h-65.17l-0.827,5.143
			h65.997c1.104,0,2,0.896,2,2s-0.896,2-2,2H8.852l-0.826,5.143h67.466c1.104,0,2,0.896,2,2s-0.896,2-2,2H7.383l-2.688,16.725
			h179.383l-8.641-53.768c-0.978-6.084-6.16-10.5-12.322-10.5H25.659C19.496,255.736,14.313,260.152,13.336,266.236z"/>
		<path style="fill:#FCF5CB;" d="M385.133,38.219c-3.266,0-5.924,2.657-5.924,5.924v4.981c3.916-0.432,7.934-0.432,11.849,0v-4.981
			C391.058,40.876,388.4,38.219,385.133,38.219z"/>
		<path style="fill:#42A2B3;" d="M433.894,95.436h-97.521c-0.289,2.167-0.44,4.365-0.44,6.558v13.208h98.401v-13.208
			C434.334,99.801,434.182,97.603,433.894,95.436z"/>
		<path style="fill:#FCF5CB;" d="M88.914,191.012c0.727-0.059,1.453-0.104,2.184-0.141c0.25-0.012,0.499-0.023,0.748-0.033
			c0.797-0.029,1.593-0.049,2.391-0.051c0.098,0,0.197,0,0.297,0c0.799,0.002,1.6,0.021,2.396,0.051c0.25,0.01,0.5,0.021,0.75,0.033
			c0.715,0.035,1.43,0.08,2.143,0.138c0.111,0.009,0.225,0.012,0.336,0.021v-45.619H88.615v45.62
			C88.715,191.022,88.814,191.021,88.914,191.012z"/>
		<path style="fill:#FCC24C;" d="M230.59,97.225c-6.674-1.129-13.539-1.73-20.408-1.789c-2.688,0.022-5.426,0.132-8.106,0.324
			c-7.444,0.53-14.794,1.705-21.877,3.478v91.742c5.685,1.424,11.526,2.476,17.409,3.094c4.168,0.441,8.404,0.685,12.59,0.721
			c10.23-0.092,20.311-1.382,30.001-3.81v-12.221V99.237C237.055,98.451,233.834,97.77,230.59,97.225z M215.278,145.411h-17.88
			c-1.105,0-2-0.896-2-2s0.895-2,2-2h17.88c1.104,0,2,0.896,2,2S216.383,145.411,215.278,145.411z M222.998,128.344h-34.135
			c-1.104,0-2-0.896-2-2s0.896-2,2-2h34.135c1.104,0,2,0.896,2,2S224.102,128.344,222.998,128.344z"/>
		<circle style="fill:#FCF5CB;" cx="219.799" cy="238.803" r="3.181"/>
		<path style="fill:#FCF5CB;" d="M219.799,285.261c1.754,0,3.18-1.427,3.18-3.181s-1.426-3.182-3.18-3.182
			c-1.755,0-3.182,1.428-3.182,3.182S218.044,285.261,219.799,285.261z"/>
		<path style="fill:#FCF5CB;" d="M219.799,263.623c1.754,0,3.18-1.428,3.18-3.183c0-1.754-1.426-3.181-3.18-3.181
			c-1.755,0-3.182,1.427-3.182,3.181C216.617,262.195,218.044,263.623,219.799,263.623z"/>
		<path style="fill:#42A2B3;" d="M210.199,198.794h-0.018c-3.584-0.03-7.199-0.216-10.783-0.535v121.745h40.8v-124.9
			c-9.702,2.35-19.772,3.6-29.981,3.69H210.199z M219.799,231.622c3.959,0,7.18,3.222,7.18,7.181s-3.221,7.181-7.18,7.181
			c-3.961,0-7.182-3.222-7.182-7.181S215.838,231.622,219.799,231.622z M219.799,253.26c3.959,0,7.18,3.222,7.18,7.181
			c0,3.961-3.221,7.183-7.18,7.183c-3.961,0-7.182-3.222-7.182-7.183C212.617,256.481,215.838,253.26,219.799,253.26z
			 M219.799,274.898c3.959,0,7.18,3.222,7.18,7.182c0,3.959-3.221,7.181-7.18,7.181c-3.961,0-7.182-3.222-7.182-7.181
			C212.617,278.12,215.838,274.898,219.799,274.898z"/>
		<path style="fill:#42A2B3;" d="M355.266,258.44c4.873,0,9.617,0.825,14.141,2.438c1.844-12.332,12.416-21.638,25.174-21.638
			c5.719,0,11.219,1.931,15.684,5.431c4.219-2.751,9.086-4.211,14.184-4.211c3.402,0,6.766,0.666,9.887,1.942V119.201h-98.401
			v143.941C341.889,260.066,348.5,258.44,355.266,258.44z M345.137,183.627l15.42-15.42c0.78-0.781,2.048-0.781,2.828,0
			c0.781,0.781,0.781,2.047,0,2.828l-15.42,15.42c-0.391,0.391-0.902,0.586-1.414,0.586s-1.023-0.195-1.414-0.586
			C344.355,185.674,344.355,184.408,345.137,183.627z M345.137,203.091l15.42-15.422c0.78-0.781,2.047-0.781,2.828,0
			c0.781,0.78,0.781,2.047,0,2.828l-15.42,15.422c-0.391,0.391-0.902,0.586-1.414,0.586s-1.023-0.195-1.414-0.586
			C344.355,205.139,344.355,203.872,345.137,203.091z M345.137,222.554l15.42-15.421c0.78-0.781,2.047-0.781,2.828,0
			s0.781,2.047,0,2.828l-15.42,15.421c-0.391,0.391-0.902,0.586-1.414,0.586s-1.023-0.195-1.414-0.586
			C344.355,224.601,344.355,223.335,345.137,222.554z"/>
		<path style="fill:#F0796F;" d="M392.752,53.379c-4.99-0.779-10.246-0.779-15.234,0c-10.865,1.688-20.984,7.087-28.494,15.199
			c-5.984,6.466-10.082,14.328-11.948,22.857h96.118C428.887,71.668,412.911,56.513,392.752,53.379z"/>
		<path style="fill:#FCF5CB;" d="M176.198,100.305c-2.546,0.729-5.081,1.552-7.583,2.451v84.718c2.507,0.9,5.043,1.724,7.583,2.45
			V100.305z"/>
		<path style="fill:#FCC24C;" d="M150.025,111.34v67.551c3.152,1.819,6.408,3.493,9.693,4.982c1.575,0.718,3.223,1.405,4.896,2.076
			v-81.658C159.553,106.321,154.652,108.671,150.025,111.34z"/>
		<path style="fill:#FCC24C;" d="M170.17,35.09c5.115,0,9.276-4.161,9.276-9.275c0-5.115-4.161-9.277-9.276-9.277
			c-5.116,0-9.276,4.162-9.276,9.277C160.894,30.929,165.054,35.09,170.17,35.09z"/>
		<path style="fill:#FCF5CB;" d="M88.615,34.232v107.179h11.543V34.232c0-2.218-1.801-4.022-4.016-4.022h-1.756h-1.754
			C90.416,30.21,88.615,32.015,88.615,34.232z"/>
		<path style="fill:#FCF5CB;" d="M244.198,100.305v78.459v11.16c2.542-0.727,5.077-1.55,7.581-2.449v-84.72
			C249.279,101.857,246.744,101.034,244.198,100.305z"/>
		<path style="fill:#2B2C2D;" d="M336.373,95.436h-1.728c-1.104,0-2-0.896-2-2c0-0.137,0.014-0.27,0.04-0.397
			c-0.004,0.022-0.009,0.044-0.012,0.065c-0.492,2.92-0.741,5.911-0.741,8.89v13.208h4v-13.208
			C335.933,99.801,336.084,97.603,336.373,95.436z"/>
		<path style="fill:#2B2C2D;" d="M349.558,67.222c0,1.104-0.896,2-2,2h-4.325c-5.44,6.94-9.062,15.087-10.545,23.807
			c0.188-0.909,0.993-1.593,1.958-1.593h2.43c1.866-8.529,5.964-16.392,11.948-22.857c7.51-8.112,17.629-13.511,28.494-15.199
			c4.988-0.779,10.244-0.779,15.234,0c20.159,3.134,36.135,18.289,40.441,38.057h2.428c0.965,0,1.77,0.684,1.958,1.592
			c-3.733-22-20.706-39.195-42.521-43.304v1.679c0,1.104-0.895,2-2,2c-1.104,0-2-0.896-2-2v-2.278
			c-3.915-0.432-7.933-0.432-11.849,0v2.278c0,1.104-0.895,2-2,2c-1.104,0-2-0.896-2-2v-1.676c-10.816,2.05-20.85,7.5-28.504,15.495
			h0.853C348.662,65.222,349.558,66.117,349.558,67.222z"/>
		<path style="fill:#2B2C2D;" d="M435.621,95.436h-1.728c0.288,2.167,0.44,4.365,0.44,6.558v13.208h4v-13.208
			c0-2.979-0.25-5.97-0.74-8.89c-0.004-0.021-0.01-0.043-0.014-0.064c0.027,0.128,0.041,0.261,0.041,0.396
			C437.621,94.54,436.726,95.436,435.621,95.436z"/>
		<path style="fill:#2B2C2D;" d="M377.209,53.402c1.105,0,2-0.896,2-2v-2.278v-4.981c0-3.267,2.658-5.924,5.924-5.924
			c3.268,0,5.925,2.657,5.925,5.924v4.981v2.278c0,1.104,0.896,2,2,2c1.105,0,2-0.896,2-2v-1.679v-5.581
			c0-5.472-4.452-9.924-9.925-9.924s-9.924,4.452-9.924,9.924v5.584v1.676C375.209,52.507,376.105,53.402,377.209,53.402z"/>
		<path style="fill:#2B2C2D;" d="M101.959,195.237c29.441,3.552,52.152,27.144,54.771,56.499h4.013
			c-2.586-30.822-25.981-55.73-56.585-60.225v3.988L101.959,195.237z"/>
		<path style="fill:#2B2C2D;" d="M98.166,194.897c-3.77-0.224-7.578-0.112-11.314,0.335
			C90.588,194.785,94.396,194.675,98.166,194.897z"/>
		<path style="fill:#2B2C2D;" d="M40.646,225.26h-1.131c-1.104,0-2-0.896-2-2c0-0.41,0.125-0.79,0.336-1.107
			c-0.01,0.017-0.021,0.033-0.032,0.05c-5.546,8.896-8.916,19.069-9.802,29.534h4.016C32.877,242.386,35.834,233.296,40.646,225.26z
			"/>
		<path style="fill:#2B2C2D;" d="M39.516,221.26h3.732c10.234-14.489,25.934-23.908,43.604-26.027l-2.236,0.267v-3.977
			c-19.337,2.839-36.301,13.904-46.75,30.611C38.225,221.606,38.83,221.26,39.516,221.26z"/>
		<path style="fill:#2B2C2D;" d="M99.822,191.009c-0.713-0.058-1.428-0.103-2.143-0.138
			C98.395,190.906,99.107,190.951,99.822,191.009z"/>
		<path style="fill:#2B2C2D;" d="M91.098,190.871c-0.73,0.036-1.457,0.082-2.184,0.141
			C89.641,190.953,90.369,190.907,91.098,190.871z"/>
		<path style="fill:#2B2C2D;" d="M96.93,190.838c-0.797-0.029-1.598-0.049-2.396-0.051C95.332,190.789,96.133,190.809,96.93,190.838
			z"/>
		<path style="fill:#2B2C2D;" d="M94.236,190.787c-0.798,0.002-1.594,0.021-2.391,0.051
			C92.643,190.809,93.438,190.789,94.236,190.787z"/>
		<path style="fill:#2B2C2D;" d="M32.033,251.736h-4.016h-2.358c-8.138,0-14.981,5.831-16.272,13.865L0,324.004h188.773
			l-9.387-58.402c-1.291-8.034-8.134-13.865-16.271-13.865h-2.372h-4.013H32.033z M163.115,255.736
			c6.162,0,11.345,4.416,12.322,10.5l8.641,53.768H4.695l2.688-16.725H5.682c-1.104,0-2-0.896-2-2s0.896-2,2-2h2.344l0.826-5.143
			H7.15c-1.104,0-2-0.896-2-2s0.896-2,2-2h2.344l0.827-5.143H8.619c-1.105,0-2-0.896-2-2s0.895-2,2-2h2.346l2.371-14.758
			c0.978-6.084,6.16-10.5,12.323-10.5H163.115z"/>
		<path style="fill:#2B2C2D;" d="M39.516,225.26h1.131h75.684c1.104,0,2-0.896,2-2s-0.896-2-2-2H43.248h-3.732
			c-0.686,0-1.291,0.347-1.65,0.874c-0.005,0.006-0.009,0.013-0.014,0.019c-0.211,0.317-0.336,0.697-0.336,1.107
			C37.516,224.364,38.412,225.26,39.516,225.26z"/>
		<path style="fill:#2B2C2D;" d="M77.491,282.994c0-1.104-0.896-2-2-2H10.965H8.619c-1.105,0-2,0.896-2,2s0.895,2,2,2h1.702h65.17
			C76.596,284.994,77.491,284.099,77.491,282.994z"/>
		<path style="fill:#2B2C2D;" d="M77.491,292.137c0-1.104-0.896-2-2-2H9.494H7.15c-1.104,0-2,0.896-2,2s0.896,2,2,2h1.701h66.64
			C76.596,294.137,77.491,293.241,77.491,292.137z"/>
		<path style="fill:#2B2C2D;" d="M77.491,301.279c0-1.104-0.896-2-2-2H8.025H5.682c-1.104,0-2,0.896-2,2s0.896,2,2,2h1.701h68.108
			C76.596,303.279,77.491,302.384,77.491,301.279z"/>
		<path style="fill:#2B2C2D;" d="M418.049,261.695c-3.961,0-7.182,3.222-7.182,7.182c0,3.959,3.221,7.181,7.182,7.181
			c3.959,0,7.181-3.222,7.181-7.181C425.229,264.917,422.008,261.695,418.049,261.695z M418.049,272.058
			c-1.756,0-3.182-1.427-3.182-3.181s1.426-3.182,3.182-3.182c1.754,0,3.181,1.428,3.181,3.182S419.803,272.058,418.049,272.058z"/>
		<path style="fill:#2B2C2D;" d="M418.049,297.451c-3.961,0-7.182,3.222-7.182,7.182c0,3.959,3.221,7.18,7.182,7.18
			c3.959,0,7.181-3.221,7.181-7.18C425.229,300.673,422.008,297.451,418.049,297.451z M418.049,307.812
			c-1.756,0-3.182-1.427-3.182-3.18c0-1.754,1.426-3.182,3.182-3.182c1.754,0,3.181,1.428,3.181,3.182
			C421.229,306.386,419.803,307.812,418.049,307.812z"/>
		<path style="fill:#2B2C2D;" d="M390.314,284.956c-3.959,0-7.182,3.222-7.182,7.181s3.223,7.181,7.182,7.181
			c3.961,0,7.182-3.222,7.182-7.181S394.275,284.956,390.314,284.956z M390.314,295.317c-1.754,0-3.182-1.427-3.182-3.181
			s1.428-3.181,3.182-3.181c1.755,0,3.182,1.427,3.182,3.181S392.069,295.317,390.314,295.317z"/>
		<path style="fill:#2B2C2D;" d="M219.799,245.983c3.959,0,7.18-3.222,7.18-7.181s-3.221-7.181-7.18-7.181
			c-3.961,0-7.182,3.222-7.182,7.181S215.838,245.983,219.799,245.983z M219.799,235.622c1.754,0,3.18,1.427,3.18,3.181
			s-1.426,3.181-3.18,3.181c-1.755,0-3.182-1.427-3.182-3.181S218.044,235.622,219.799,235.622z"/>
		<path style="fill:#2B2C2D;" d="M219.799,267.623c3.959,0,7.18-3.222,7.18-7.183c0-3.959-3.221-7.181-7.18-7.181
			c-3.961,0-7.182,3.222-7.182,7.181C212.617,264.401,215.838,267.623,219.799,267.623z M219.799,257.26
			c1.754,0,3.18,1.427,3.18,3.181c0,1.755-1.426,3.183-3.18,3.183c-1.755,0-3.182-1.428-3.182-3.183
			C216.617,258.687,218.044,257.26,219.799,257.26z"/>
		<path style="fill:#2B2C2D;" d="M219.799,289.261c3.959,0,7.18-3.222,7.18-7.181c0-3.96-3.221-7.182-7.18-7.182
			c-3.961,0-7.182,3.222-7.182,7.182C212.617,286.039,215.838,289.261,219.799,289.261z M219.799,278.898
			c1.754,0,3.18,1.428,3.18,3.182s-1.426,3.181-3.18,3.181c-1.755,0-3.182-1.427-3.182-3.181S218.044,278.898,219.799,278.898z"/>
		<path style="fill:#2B2C2D;" d="M88.615,34.232c0-2.218,1.801-4.022,4.018-4.022h1.754c-1.104,0-2-0.896-2-2v-1.987
			c-4.307,0.131-7.771,3.669-7.771,8.01v107.179h4V34.232z"/>
		<path style="fill:#2B2C2D;" d="M100.158,191.03c-0.111-0.01-0.225-0.013-0.336-0.021c-0.715-0.058-1.428-0.103-2.143-0.138
			c-0.25-0.012-0.5-0.023-0.75-0.033c-0.797-0.029-1.598-0.049-2.396-0.051c-0.1,0-0.199,0-0.297,0
			c-0.798,0.002-1.594,0.021-2.391,0.051c-0.249,0.01-0.498,0.021-0.748,0.033c-0.729,0.036-1.457,0.082-2.184,0.141
			c-0.1,0.009-0.199,0.011-0.299,0.02v-45.62h-4v46.111v3.977l2.236-0.267c3.736-0.447,7.545-0.559,11.314-0.335
			c1.258,0.074,2.51,0.187,3.754,0.335l0.039,0.005l2.199,0.263v-3.988v-46.101h-4V191.03z"/>
		<path style="fill:#2B2C2D;" d="M100.17,49.705c-0.119-1.098,0.674-2.085,1.771-2.205c0.756-0.082,1.479-0.131,2.217-0.194V34.232
			c0-4.342-3.465-7.879-7.771-8.01v1.987c0,1.104-0.896,2-2,2h1.756c2.215,0,4.016,1.805,4.016,4.022v107.179h4v-90.1
			c-0.6,0.052-1.202,0.102-1.783,0.165C101.277,51.599,100.29,50.804,100.17,49.705z"/>
		<path style="fill:#2B2C2D;" d="M88.615,141.411h-4H76.71c-1.104,0-2,0.896-2,2s0.896,2,2,2h7.905h4h11.543h4h7.904
			c1.105,0,2-0.896,2-2s-0.895-2-2-2h-7.904h-4H88.615z"/>
		<path style="fill:#2B2C2D;" d="M158.894,183.694c1.104,0,2,0.896,2,2v3.048c1.612,0.684,3.255,1.351,4.94,1.98
			c-0.715-0.305-1.219-1.014-1.219-1.841v-2.933c-1.674-0.671-3.321-1.358-4.896-2.076c-3.285-1.489-6.541-3.163-9.693-4.982V111.34
			c4.627-2.669,9.527-5.019,14.59-7.049v-2.943c0-0.826,0.502-1.535,1.217-1.84c-6.584,2.457-12.918,5.473-18.824,8.962l-0.982,0.58
			v72.13l0.982,0.58c3.207,1.895,6.529,3.637,9.886,5.204v-1.27C156.894,184.59,157.788,183.694,158.894,183.694z"/>
		<path style="fill:#2B2C2D;" d="M273.389,181.759l0.981-0.581V109.05l-0.983-0.58c-5.902-3.489-12.236-6.503-18.824-8.962
			c0.715,0.305,1.217,1.014,1.217,1.84v2.943c5.064,2.031,9.965,4.38,14.591,7.049v67.551c-4.192,2.423-8.63,4.611-13.207,6.512
			c-0.368,0.153-0.73,0.296-1.095,0.443c0.377,0.381,0.604,0.908,0.578,1.486c-0.035,0.842-0.077,1.727-0.123,2.643
			c0.717-0.281,1.443-0.574,2.174-0.879C263.806,186.975,268.748,184.507,273.389,181.759z"/>
		<path style="fill:#2B2C2D;" d="M197.607,194.073c-5.883-0.618-11.725-1.67-17.409-3.094v1.571c0,1.104-0.896,2-2,2s-2-0.896-2-2
			v-2.627c-2.54-0.727-5.076-1.55-7.583-2.45v1.408c0,1.104-0.895,2-2,2c-0.273,0-0.533-0.056-0.771-0.155
			c0.025,0.01,0.049,0.02,0.074,0.029c3.87,1.441,7.832,2.696,11.77,3.729c5.768,1.522,11.719,2.631,17.711,3.345v-1.767
			c0-1.104,0.895-2,2-2c1.104,0,2,0.896,2,2v2.196c3.584,0.319,7.199,0.505,10.783,0.535h0.018h0.018
			c10.209-0.091,20.279-1.341,29.981-3.69v-2.553v-1.566c-9.69,2.428-19.771,3.718-30.001,3.81
			C206.012,194.758,201.775,194.515,197.607,194.073z"/>
		<path style="fill:#2B2C2D;" d="M168.615,101.348v1.408c2.502-0.899,5.037-1.723,7.583-2.451v-2.627c0-1.104,0.896-2,2-2
			s2,0.896,2,2v1.56c7.083-1.772,14.433-2.947,21.877-3.478c2.681-0.192,5.419-0.302,8.106-0.324
			c6.869,0.059,13.734,0.66,20.408,1.789c3.244,0.545,6.465,1.227,9.608,2.013v-1.56c0-1.104,0.895-2,2-2c1.104,0,2,0.896,2,2v2.627
			c2.546,0.729,5.081,1.553,7.581,2.45v-1.407c0-1.104,0.895-2,2-2c0.273,0,0.533,0.056,0.77,0.154
			c-0.023-0.009-0.047-0.02-0.071-0.028c-3.854-1.437-7.815-2.691-11.769-3.729c-3.189-0.842-6.476-1.562-9.787-2.164v1.672
			c0,1.104-0.896,2-2,2s-2-0.896-2-2v-2.318c-6.145-0.924-12.424-1.444-18.74-1.498c-2.159,0.018-4.32,0.104-6.465,0.227
			c0.075,0.628,0.146,1.266,0.207,1.914c0.104,1.101-0.703,2.076-1.803,2.18c-0.064,0.006-0.129,0.009-0.191,0.009
			c-1.02,0-1.891-0.776-1.988-1.812c-0.064-0.682-0.149-1.345-0.232-2.01c-7.502,0.652-14.9,1.924-22.019,3.801
			c-3.952,1.038-7.913,2.293-11.772,3.73c-0.024,0.009-0.048,0.02-0.072,0.028c0.236-0.099,0.498-0.154,0.77-0.154
			C167.721,99.348,168.615,100.243,168.615,101.348z"/>
		<path style="fill:#2B2C2D;" d="M251.779,188.882v-1.407c-2.504,0.899-5.039,1.723-7.581,2.449v2.627v1.522
			c2.761-0.763,5.519-1.627,8.241-2.587c0.02-0.367,0.038-0.725,0.057-1.082C252.062,190.037,251.779,189.495,251.779,188.882z"/>
		<path style="fill:#2B2C2D;" d="M164.615,101.348v2.943v81.658v2.933c0,0.827,0.504,1.536,1.219,1.841
			c0.004,0.002,0.006,0.002,0.01,0.004c0.238,0.1,0.498,0.155,0.771,0.155c1.105,0,2-0.896,2-2v-1.408v-84.718v-1.408
			c0-1.104-0.895-2-2-2c-0.271,0-0.533,0.056-0.77,0.154c-0.004,0.002-0.008,0.004-0.014,0.006
			C165.117,99.812,164.615,100.521,164.615,101.348z"/>
		<path style="fill:#2B2C2D;" d="M176.198,192.551c0,1.104,0.896,2,2,2s2-0.896,2-2v-1.571V99.237v-1.56c0-1.104-0.896-2-2-2
			s-2,0.896-2,2v2.627v89.619V192.551z"/>
		<path style="fill:#2B2C2D;" d="M244.198,97.678c0-1.104-0.896-2-2-2c-1.105,0-2,0.896-2,2v1.56v79.526c0-1.104,0.895-2,2-2
			c1.104,0,2,0.896,2,2v-78.459V97.678z"/>
		<path style="fill:#2B2C2D;" d="M255.779,101.348c0-0.826-0.502-1.535-1.217-1.84c-0.004-0.002-0.008-0.004-0.014-0.006
			c-0.236-0.099-0.496-0.154-0.77-0.154c-1.105,0-2,0.896-2,2v1.407v84.72v1.407c0,0.613,0.282,1.155,0.717,1.522
			c0.059-1.132,0.111-2.219,0.154-3.24c0.047-1.104,0.961-1.965,2.084-1.914c0.39,0.017,0.746,0.147,1.045,0.354v-81.312V101.348z"
			/>
		<path style="fill:#2B2C2D;" d="M244.198,189.924v-11.16c0-1.104-0.896-2-2-2c-1.105,0-2,0.896-2,2v12.221v1.566v2.553v124.9h-40.8
			V198.259v-2.196c0-1.104-0.896-2-2-2c-1.105,0-2,0.896-2,2v1.767v23.431h1.999c1.104,0,2,0.896,2,2s-0.896,2-2,2h-1.999v98.744
			h48.8V194.073v-1.522V189.924z"/>
		<path style="fill:#2B2C2D;" d="M434.334,242.402c1.025,0.42,2.023,0.904,2.989,1.453c0.96,0.546,1.296,1.768,0.749,2.728
			c-0.547,0.958-1.766,1.295-2.728,0.749c-0.331-0.188-0.671-0.361-1.011-0.532v73.204h-98.401v-52.286
			c-0.312,0.183-0.63,0.351-0.937,0.543c-0.33,0.207-0.697,0.306-1.062,0.306c-0.664,0-1.315-0.332-1.695-0.937
			c-0.588-0.936-0.305-2.171,0.631-2.758c0.997-0.626,2.023-1.192,3.063-1.729V119.201h-4v102.053h1.995c1.104,0,2,0.896,2,2
			s-0.896,2-2,2h-1.995v98.75h106.401V119.201h-4V242.402z"/>
		<path style="fill:#2B2C2D;" d="M371.91,265.539c0.289-0.121,0.545-0.315,0.752-0.562
			C372.459,265.219,372.205,265.416,371.91,265.539z"/>
		<path style="fill:#2B2C2D;" d="M371.895,265.547c-0.111,0.046-0.229,0.08-0.35,0.105
			C371.664,265.628,371.781,265.594,371.895,265.547z"/>
		<path style="fill:#2B2C2D;" d="M370.947,265.678c-0.088-0.008-0.174-0.018-0.257-0.037
			C370.775,265.661,370.861,265.67,370.947,265.678z"/>
		<path style="fill:#2B2C2D;" d="M372.84,264.731c-0.025,0.04-0.043,0.083-0.07,0.12
			C372.797,264.814,372.816,264.771,372.84,264.731z"/>
		<path style="fill:#2B2C2D;" d="M372.975,264.486c0.018-0.04,0.025-0.081,0.039-0.122c-0.016,0.047-0.029,0.097-0.049,0.142
			C372.968,264.499,372.973,264.493,372.975,264.486z"/>
		<path style="fill:#2B2C2D;" d="M371.1,265.694c0.145,0.003,0.289-0.009,0.43-0.037c-0.126,0.024-0.256,0.038-0.389,0.038
			C371.127,265.695,371.113,265.694,371.1,265.694z"/>
		<path style="fill:#2B2C2D;" d="M370.348,265.532c0.046,0.02,0.094,0.028,0.14,0.044c-0.813-0.281-1.386-1.062-1.347-1.966
			c0.039-0.926,0.131-1.836,0.266-2.732c-4.523-1.612-9.268-2.438-14.141-2.438c-6.766,0-13.377,1.626-19.333,4.702
			c-1.04,0.537-2.066,1.104-3.063,1.729c-0.936,0.587-1.219,1.822-0.631,2.758c0.38,0.604,1.031,0.937,1.695,0.937
			c0.365,0,0.732-0.099,1.062-0.306c0.307-0.192,0.625-0.36,0.937-0.543c5.849-3.442,12.503-5.277,19.333-5.277
			C360.506,262.44,365.58,263.48,370.348,265.532z"/>
		<path style="fill:#2B2C2D;" d="M373.115,263.926c-0.008,0.07-0.014,0.142-0.028,0.209
			C373.102,264.065,373.107,263.996,373.115,263.926z"/>
		<path style="fill:#2B2C2D;" d="M408.992,248.77c0.074,0.055,0.15,0.107,0.232,0.15
			C409.143,248.877,409.066,248.824,408.992,248.77z"/>
		<path style="fill:#2B2C2D;" d="M409.375,248.989c0.084,0.035,0.168,0.066,0.254,0.09
			C409.543,249.055,409.459,249.024,409.375,248.989z"/>
		<path style="fill:#2B2C2D;" d="M409.788,249.116c0.089,0.017,0.179,0.026,0.268,0.03
			C409.967,249.143,409.877,249.133,409.788,249.116z"/>
		<path style="fill:#2B2C2D;" d="M410.837,249.031c0.177-0.064,0.349-0.146,0.504-0.261
			C411.184,248.887,411.012,248.968,410.837,249.031z"/>
		<path style="fill:#2B2C2D;" d="M410.73,249.069c-0.172,0.052-0.35,0.079-0.527,0.083
			C410.383,249.148,410.559,249.121,410.73,249.069z"/>
		<path style="fill:#2B2C2D;" d="M370.487,265.576c0.067,0.023,0.133,0.049,0.203,0.064c0.083,0.02,0.169,0.029,0.257,0.037
			c0.035,0.004,0.07,0.014,0.106,0.016c0.015,0,0.03,0.001,0.046,0.001c0.014,0,0.027,0.001,0.041,0.001
			c0.133,0,0.263-0.014,0.389-0.038c0.006-0.001,0.01-0.004,0.016-0.005c0.121-0.025,0.238-0.06,0.35-0.105
			c0.006-0.002,0.01-0.006,0.016-0.008c0.295-0.123,0.549-0.32,0.752-0.562c0.036-0.042,0.076-0.081,0.107-0.126
			c0.027-0.037,0.045-0.08,0.07-0.12c0.045-0.073,0.09-0.146,0.125-0.226c0.02-0.045,0.033-0.095,0.049-0.142
			c0.027-0.075,0.055-0.149,0.073-0.229c0.015-0.067,0.021-0.139,0.028-0.209c0.006-0.049,0.02-0.096,0.021-0.146
			c0.488-11.518,9.908-20.54,21.443-20.54c5.266,0,10.326,1.923,14.251,5.413c0.009,0.008,0.019,0.013,0.028,0.021
			c-0.111-0.096-0.217-0.201-0.307-0.324c-0.658-0.889-0.471-2.141,0.418-2.798c0.42-0.312,0.857-0.597,1.293-0.881
			c-4.465-3.5-9.965-5.431-15.684-5.431c-12.758,0-23.33,9.306-25.174,21.638c-0.135,0.896-0.227,1.807-0.266,2.732
			C369.102,264.514,369.674,265.295,370.487,265.576z"/>
		<path style="fill:#2B2C2D;" d="M410.264,244.671c-0.436,0.284-0.873,0.569-1.293,0.881c-0.889,0.657-1.076,1.909-0.418,2.798
			c0.09,0.123,0.195,0.229,0.307,0.324c0.041,0.036,0.088,0.063,0.133,0.096c0.074,0.055,0.15,0.107,0.232,0.15
			c0.049,0.026,0.1,0.047,0.15,0.069c0.084,0.035,0.168,0.065,0.254,0.09c0.053,0.015,0.105,0.027,0.159,0.037
			c0.089,0.017,0.179,0.026,0.268,0.03c0.036,0.002,0.069,0.013,0.106,0.013c0.014,0,0.027-0.007,0.041-0.007
			c0.178-0.004,0.355-0.031,0.527-0.083c0.037-0.011,0.07-0.025,0.106-0.038c0.175-0.063,0.347-0.145,0.504-0.261
			c0.004-0.002,0.007-0.002,0.009-0.004c3.807-2.817,8.336-4.307,13.098-4.307c3.443,0,6.836,0.811,9.887,2.34
			c0.34,0.171,0.68,0.344,1.011,0.532c0.962,0.546,2.181,0.209,2.728-0.749c0.547-0.96,0.211-2.182-0.749-2.728
			c-0.966-0.549-1.964-1.033-2.989-1.453c-3.121-1.276-6.484-1.942-9.887-1.942C419.35,240.46,414.482,241.92,410.264,244.671z"/>
		<path style="fill:#2B2C2D;" d="M346.551,187.041c0.512,0,1.023-0.195,1.414-0.586l15.42-15.42c0.781-0.781,0.781-2.047,0-2.828
			c-0.78-0.781-2.048-0.781-2.828,0l-15.42,15.42c-0.781,0.781-0.781,2.047,0,2.828
			C345.527,186.846,346.039,187.041,346.551,187.041z"/>
		<path style="fill:#2B2C2D;" d="M346.551,206.505c0.512,0,1.023-0.195,1.414-0.586l15.42-15.422c0.781-0.781,0.781-2.048,0-2.828
			c-0.781-0.781-2.048-0.781-2.828,0l-15.42,15.422c-0.781,0.781-0.781,2.048,0,2.828
			C345.527,206.31,346.039,206.505,346.551,206.505z"/>
		<path style="fill:#2B2C2D;" d="M346.551,225.968c0.512,0,1.023-0.195,1.414-0.586l15.42-15.421c0.781-0.781,0.781-2.047,0-2.828
			s-2.048-0.781-2.828,0l-15.42,15.421c-0.781,0.781-0.781,2.047,0,2.828C345.527,225.772,346.039,225.968,346.551,225.968z"/>
		<path style="fill:#2B2C2D;" d="M435.621,91.436h-2.428h-96.118h-2.43c-0.965,0-1.771,0.684-1.958,1.593
			c0,0.003-0.002,0.007-0.002,0.01c-0.026,0.128-0.04,0.261-0.04,0.397c0,1.104,0.896,2,2,2h1.728h97.521h1.728c1.104,0,2-0.896,2-2
			c0-0.136-0.014-0.269-0.041-0.396c0-0.004,0-0.008-0.001-0.012C437.391,92.119,436.586,91.436,435.621,91.436z"/>
		<path style="fill:#2B2C2D;" d="M230.922,69.222c-1.104,0-2-0.896-2-2v25.712v2.318c0,1.104,0.896,2,2,2s2-0.896,2-2V93.58V69.222
			H230.922z"/>
		<path style="fill:#2B2C2D;" d="M172.17,2v2h47.07c5.338,0,9.682,4.344,9.682,9.683v53.539c0-1.104,0.896-2,2-2h2V13.683
			C232.922,6.138,226.783,0,219.24,0h-49.07C171.274,0,172.17,0.896,172.17,2z"/>
		<path style="fill:#2B2C2D;" d="M94.387,30.21c1.104,0,2-0.896,2-2v-1.987v-12.54c0-5.339,4.344-9.683,9.682-9.683h62.102V2
			c0-1.104,0.896-2,2-2h-64.102c-7.544,0-13.682,6.138-13.682,13.683v12.54v1.987C92.387,29.314,93.282,30.21,94.387,30.21z"/>
		<path style="fill:#2B2C2D;" d="M228.922,67.222c0,1.104,0.896,2,2,2h2h110.311h4.325c1.104,0,2-0.896,2-2s-0.896-2-2-2h-0.853
			H294.18v1.998c0,1.104-0.896,2-2,2c-1.104,0-2-0.896-2-2v-1.998h-57.258h-2C229.817,65.222,228.922,66.117,228.922,67.222z"/>
		<path style="fill:#2B2C2D;" d="M292.18,69.22c1.104,0,2-0.896,2-2v-1.998v-9.579c-0.654,0.1-1.318,0.167-2,0.167
			s-1.346-0.067-2-0.167v9.579v1.998C290.18,68.324,291.075,69.22,292.18,69.22z"/>
		<path style="fill:#2B2C2D;" d="M294.18,55.643c6.373-0.97,11.276-6.47,11.276-13.108c0-7.32-5.956-13.276-13.276-13.276
			s-13.275,5.956-13.275,13.276c0,6.639,4.904,12.139,11.275,13.108c0.654,0.1,1.318,0.167,2,0.167S293.525,55.742,294.18,55.643z
			 M282.904,42.534c0-5.115,4.161-9.276,9.275-9.276c5.115,0,9.276,4.161,9.276,9.276c0,5.114-4.161,9.275-9.276,9.275
			C287.065,51.81,282.904,47.648,282.904,42.534z"/>
		<path style="fill:#2B2C2D;" d="M168.17,2v2v8.704c0.654-0.1,1.317-0.167,2-0.167c0.682,0,1.346,0.067,2,0.167V4V2
			c0-1.104-0.896-2-2-2S168.17,0.896,168.17,2z"/>
		<path style="fill:#2B2C2D;" d="M156.894,25.814c0,7.32,5.956,13.275,13.276,13.275s13.276-5.955,13.276-13.275
			c0-6.64-4.903-12.141-11.276-13.11c-0.654-0.1-1.318-0.167-2-0.167c-0.683,0-1.346,0.067-2,0.167
			C161.797,13.674,156.894,19.175,156.894,25.814z M170.17,16.537c5.115,0,9.276,4.162,9.276,9.277c0,5.114-4.161,9.275-9.276,9.275
			c-5.116,0-9.276-4.161-9.276-9.275C160.894,20.699,165.054,16.537,170.17,16.537z"/>
		<path style="fill:#2B2C2D;" d="M199.397,223.26c0-1.104-0.896-2-2-2h-1.999h-17.487c-9.384,0-17.018-7.634-17.018-17.018v-15.5
			v-3.048c0-1.104-0.896-2-2-2c-1.105,0-2,0.896-2,2v1.27v17.278c0,11.589,9.429,21.018,21.018,21.018h17.487h1.999
			C198.502,225.26,199.397,224.364,199.397,223.26z"/>
		<path style="fill:#2B2C2D;" d="M201.93,95.765c0.062,0,0.127-0.003,0.191-0.009c1.1-0.104,1.906-1.079,1.803-2.18
			c-0.061-0.648-0.132-1.286-0.207-1.914c-2.395-19.7-12.035-28.817-19.832-33.007c-12.543-6.74-27.627-5.053-37.661-0.268
			c-6.28-6.899-20.218-12.977-42.065-11.082c-0.738,0.063-1.461,0.112-2.217,0.194c-1.098,0.12-1.891,1.107-1.771,2.205
			c0.12,1.099,1.107,1.894,2.205,1.771c0.581-0.063,1.184-0.113,1.783-0.165c13.245-1.146,30.154,0.63,38.459,9.063
			c-5.693,3.611-8.909,8.239-8.909,12.939c0,7.446,5.013,12.056,9.655,12.056c3.854,0,8.352-3.157,8.352-12.056
			c0-4.348-1.028-8.254-3.06-11.646c9.075-4.09,22.316-5.41,33.337,0.511c9.842,5.29,15.934,15.562,17.717,29.764
			c0.083,0.665,0.168,1.328,0.232,2.01C200.039,94.988,200.91,95.765,201.93,95.765z M143.363,81.37
			c-2.73,0-5.655-3.237-5.655-8.056c0-3.332,2.735-6.911,7.4-9.779c1.729,2.813,2.606,6.096,2.606,9.779
			C147.715,78.208,146.006,81.37,143.363,81.37z"/>
		<path style="fill:#2B2C2D;" d="M222.998,124.344h-34.135c-1.104,0-2,0.896-2,2s0.896,2,2,2h34.135c1.104,0,2-0.896,2-2
			S224.102,124.344,222.998,124.344z"/>
		<path style="fill:#2B2C2D;" d="M215.278,141.411h-17.88c-1.105,0-2,0.896-2,2s0.895,2,2,2h17.88c1.104,0,2-0.896,2-2
			S216.383,141.411,215.278,141.411z"/>
		<path style="fill:#2B2C2D;" d="M286.895,322.004c0,1.104,0.896,2,2,2c1.104,0,2-0.896,2-2v-23.553l-4,4.001V322.004z"/>
		<path style="fill:#2B2C2D;" d="M286.895,268.492v14.283l4-4v-10.322c-0.658,0.051-1.32,0.084-1.993,0.084
			C288.223,268.537,287.555,268.521,286.895,268.492z"/>
		<polygon style="fill:#2B2C2D;" points="286.895,296.795 290.895,292.794 290.895,284.432 286.895,288.432 		"/>
		<path style="fill:#2B2C2D;" d="M280.472,289.198c-0.781,0.781-0.781,2.047,0,2.828c0.39,0.391,0.903,0.586,1.413,0.586
			c0.513,0,1.025-0.195,1.415-0.586l3.595-3.595l4-4l6.424-6.424c0.781-0.781,0.781-2.047,0-2.828s-2.048-0.781-2.828,0
			l-3.596,3.596l-4,4L280.472,289.198z"/>
		<path style="fill:#2B2C2D;" d="M280.471,303.219c-0.78,0.781-0.78,2.048,0.001,2.828c0.391,0.391,0.903,0.586,1.413,0.586
			c0.513,0,1.025-0.195,1.416-0.586l3.594-3.595l4-4.001l6.424-6.425c0.781-0.781,0.781-2.048,0-2.828
			c-0.781-0.781-2.047-0.781-2.828,0l-3.596,3.596l-4,4.001L280.471,303.219z"/>
		<path style="fill:#2B2C2D;" d="M335.928,223.254c0-1.104-0.896-2-2-2h-1.995h-16.486c-3.018-17.832-13.311-29.252-26.545-29.252
			c-5.26,0-9.627,1.583-12.63,4.578c-2.685,2.679-4.164,6.399-4.164,10.475c0,8.946,7.08,18.199,18.928,18.199h20.928
			c1.361,12.642-1.674,25.192-7.908,32.356c-4,4.596-9.098,6.927-15.153,6.927c-9.165,0-16.203-2.725-21.517-8.33
			c-13.635-14.385-12.004-44.817-11.031-62.999c0.061-1.12,0.117-2.197,0.17-3.233c0.046-0.916,0.088-1.801,0.123-2.643
			c0.025-0.578-0.201-1.105-0.578-1.486c-0.09-0.09-0.186-0.17-0.289-0.242c-0.299-0.206-0.655-0.337-1.045-0.354
			c-1.123-0.051-2.037,0.811-2.084,1.914c-0.043,1.021-0.096,2.108-0.154,3.24c-0.019,0.357-0.037,0.715-0.057,1.082
			c-0.025,0.494-0.053,0.996-0.08,1.508c-1.008,18.824-2.695,50.332,12.123,65.965c5.623,5.932,13.156,9.133,22.412,9.533
			c0.66,0.028,1.328,0.045,2.007,0.045c0.673,0,1.335-0.033,1.993-0.084c6.334-0.486,11.896-3.297,16.178-8.218
			c6.971-8.01,10.309-21.251,8.914-34.981h15.946h1.995C335.031,225.254,335.928,224.358,335.928,223.254z M291.035,221.254
			c-9.344,0-14.928-7.22-14.928-14.199c0-5.343,3.361-11.053,12.794-11.053c13.192,0,20.214,13.124,22.478,25.252H291.035z"/>
		<path style="fill:#2B2C2D;" d="M451.109,115.201h-12.775h-4h-98.401h-4h-12.776c-1.104,0-2,0.896-2,2s0.896,2,2,2h12.776h4h98.401
			h4h12.775c1.105,0,2-0.896,2-2S452.215,115.201,451.109,115.201z"/>
	</g>
</g>
</svg>
