<?xml version="1.0" encoding="utf-8"?>
<!-- Generator: Adobe Illustrator 16.0.4, SVG Export Plug-In . SVG Version: 6.00 Build 0)  -->
<!DOCTYPE svg PUBLIC "-//W3C//DTD SVG 1.1//EN" "http://www.w3.org/Graphics/SVG/1.1/DTD/svg11.dtd">
<svg version="1.1" xmlns="http://www.w3.org/2000/svg" xmlns:xlink="http://www.w3.org/1999/xlink" x="0px" y="0px"
	 width="351.204px" height="324.004px" viewBox="0 0 351.204 324.004" style="enable-background:new 0 0 351.204 324.004;"
	 xml:space="preserve">
<symbol  id="New_Symbol_1" viewBox="-2869.69 1635.391 384.073 275">
	<g id="Elements_4_">
		<g>
			<path style="fill:none;stroke:#454647;stroke-width:5;stroke-linecap:round;stroke-miterlimit:10;" d="M-2500.584,1823.523
				v-12.832h-86.4v12.832c0,2.458,0.206,4.871,0.602,7.221c1.426,8.46,5.309,16.086,10.893,22.119
				c6.46,6.979,15.192,11.818,25.021,13.346c2.176,0.339,4.413,0.515,6.686,0.515c2.273,0,4.511-0.176,6.687-0.515
				c18.323-2.849,32.842-17.213,35.912-35.465C-2500.79,1828.395-2500.584,1825.981-2500.584,1823.523z"/>
			<path style="fill:none;stroke:#454647;stroke-width:5;stroke-linecap:round;stroke-miterlimit:10;" d="M-2550.47,1866.209v6.125
				c0,3.691,2.993,6.686,6.686,6.686s6.687-2.994,6.687-6.686v-6.125"/>
			<path style="fill:none;stroke:#454647;stroke-width:5;stroke-linecap:round;stroke-miterlimit:10;" d="M-2734.672,1695.492
				c-1.476,26.48-21.861,47.916-47.869,51.037c-2.149,0.257-4.336,0.39-6.558,0.39s-4.407-0.133-6.557-0.39
				c-16.771-2.011-31.202-11.638-39.739-25.323c-4.7-7.539-7.605-16.309-8.131-25.714"/>
			<path style="fill:none;stroke:#454647;stroke-width:5;stroke-linecap:round;stroke-miterlimit:10;" d="M-2866.756,1637.892
				l7.605,47.321c0.952,5.923,6.063,10.279,12.063,10.279h115.978c5.999,0,11.111-4.356,12.062-10.279l7.605-47.321H-2866.756z"/>
			
				<line style="fill:none;stroke:#454647;stroke-width:5;stroke-linecap:round;stroke-miterlimit:10;" x1="-2770.584" y1="1721.206" x2="-2835.395" y2="1721.206"/>
			
				<line style="fill:none;stroke:#454647;stroke-width:5;stroke-linecap:round;stroke-miterlimit:10;" x1="-2805.041" y1="1670.806" x2="-2861.464" y2="1670.806"/>
			
				<line style="fill:none;stroke:#454647;stroke-width:5;stroke-linecap:round;stroke-miterlimit:10;" x1="-2805.041" y1="1663.092" x2="-2862.703" y2="1663.092"/>
			
				<line style="fill:none;stroke:#454647;stroke-width:5;stroke-linecap:round;stroke-miterlimit:10;" x1="-2805.041" y1="1655.378" x2="-2863.943" y2="1655.378"/>
			<path style="fill:none;stroke:#454647;stroke-width:5;stroke-linecap:round;stroke-miterlimit:10;" d="M-2511.641,1682.717
				c0-2.414-1.958-4.371-4.372-4.371s-4.371,1.957-4.371,4.371s1.957,4.372,4.371,4.372S-2511.641,1685.131-2511.641,1682.717z"/>
			<path style="fill:none;stroke:#454647;stroke-width:5;stroke-linecap:round;stroke-miterlimit:10;" d="M-2511.641,1652.549
				c0-2.414-1.958-4.371-4.372-4.371s-4.371,1.957-4.371,4.371s1.957,4.37,4.371,4.37S-2511.641,1654.963-2511.641,1652.549z"/>
			<path style="fill:none;stroke:#454647;stroke-width:5;stroke-linecap:round;stroke-miterlimit:10;" d="M-2535.041,1663.092
				c0-2.414-1.957-4.372-4.371-4.372s-4.372,1.958-4.372,4.372s1.958,4.371,4.372,4.371S-2535.041,1665.506-2535.041,1663.092z"/>
			<path style="fill:none;stroke:#454647;stroke-width:5;stroke-linecap:round;stroke-miterlimit:10;" d="M-2678.912,1708.092
				c0-2.414-1.958-4.372-4.372-4.372s-4.371,1.958-4.371,4.372s1.957,4.371,4.371,4.371S-2678.912,1710.506-2678.912,1708.092z"/>
			<path style="fill:none;stroke:#454647;stroke-width:5;stroke-linecap:round;stroke-miterlimit:10;" d="M-2678.912,1689.835
				c0-2.414-1.958-4.372-4.372-4.372s-4.371,1.958-4.371,4.372s1.957,4.371,4.371,4.371S-2678.912,1692.249-2678.912,1689.835z"/>
			<path style="fill:none;stroke:#454647;stroke-width:5;stroke-linecap:round;stroke-miterlimit:10;" d="M-2678.912,1671.577
				c0-2.415-1.958-4.371-4.372-4.371s-4.371,1.956-4.371,4.371s1.957,4.372,4.371,4.372S-2678.912,1673.992-2678.912,1671.577z"/>
			<path style="fill:none;stroke:#454647;stroke-width:5;stroke-linecap:round;stroke-miterlimit:10;" d="M-2782.541,1880.696
				v-134.167c-2.149,0.257-4.336,0.39-6.558,0.39s-4.407-0.133-6.557-0.39v134.167c0,2.809,2.273,5.081,5.076,5.081h2.962
				C-2784.815,1885.777-2782.541,1883.505-2782.541,1880.696z"/>
			
				<line style="fill:none;stroke:#454647;stroke-width:5;stroke-linecap:round;stroke-miterlimit:10;" x1="-2804.013" y1="1788.577" x2="-2774.184" y2="1788.577"/>
			<path style="fill:none;stroke:#454647;stroke-width:5;stroke-linecap:round;stroke-miterlimit:10;" d="M-2638.927,1816.606
				v-58.933c-3.847-2.278-7.921-4.314-12.183-6.084c-1.152-0.479-2.319-0.94-3.502-1.379c-3.163-1.177-6.424-2.217-9.771-3.095
				c-8.522-2.248-17.589-3.498-27-3.58c-3.657,0.031-7.262,0.241-10.8,0.617c-5.575,0.586-10.991,1.589-16.2,2.963
				c-3.349,0.878-6.608,1.918-9.772,3.095c-2.221,0.829-4.397,1.724-6.516,2.69c-3.178,1.44-6.238,3.04-9.17,4.772v58.933
				c4.892,2.89,10.137,5.395,15.686,7.462c3.163,1.178,6.423,2.217,9.772,3.096c6.397,1.688,13.099,2.808,20.026,3.302
				c2.299,0.165,4.629,0.258,6.974,0.278c5.985-0.052,11.828-0.576,17.485-1.533c3.24-0.545,6.413-1.229,9.515-2.047
				c3.348-0.879,6.608-1.918,9.771-3.096C-2649.064,1822.001-2643.818,1819.496-2638.927,1816.606z"/>
			<g>
				<g>
					
						<line style="fill:none;stroke:#454647;stroke-width:5;stroke-linecap:round;stroke-miterlimit:10;" x1="-2728.156" y1="1750.211" x2="-2728.156" y2="1824.068"/>
					
						<line style="fill:none;stroke:#454647;stroke-width:5;stroke-linecap:round;stroke-miterlimit:10;" x1="-2718.384" y1="1747.116" x2="-2718.384" y2="1827.164"/>
				</g>
				<g>
					
						<line style="fill:none;stroke:#454647;stroke-width:5;stroke-linecap:round;stroke-miterlimit:10;" x1="-2664.384" y1="1747.116" x2="-2664.384" y2="1827.164"/>
					
						<line style="fill:none;stroke:#454647;stroke-width:5;stroke-linecap:round;stroke-miterlimit:10;" x1="-2654.613" y1="1750.211" x2="-2654.613" y2="1824.068"/>
				</g>
			</g>
			<polyline style="fill:none;stroke:#454647;stroke-width:5;stroke-linecap:round;stroke-miterlimit:10;" points="
				-2664.384,1758.749 -2664.384,1747.116 -2664.384,1637.892 -2702.184,1637.892 -2702.184,1721.206 -2702.184,1744.153 			"/>
			<path style="fill:none;stroke:#454647;stroke-width:5;stroke-linecap:round;stroke-miterlimit:10;" d="M-2586.985,1810.691
				v-172.8h86.4v172.8H-2586.985z"/>
			<path style="fill:none;stroke:#454647;stroke-width:5;stroke-linecap:round;stroke-miterlimit:10;" d="M-2586.985,1684.666
				c5.221,3.276,11.387,5.169,18,5.169c4.758,0,9.283-0.978,13.393-2.746"/>
			<path style="fill:none;stroke:#454647;stroke-width:5;stroke-linecap:round;stroke-miterlimit:10;" d="M-2555.592,1687.089
				c0.447,10.537,9.134,18.946,19.779,18.946c5.045,0,9.652-1.888,13.145-4.994"/>
			<path style="fill:none;stroke:#454647;stroke-width:5;stroke-linecap:round;stroke-miterlimit:10;" d="M-2522.668,1701.041
				c3.369,2.493,7.54,3.965,12.056,3.965c3.646,0,7.071-0.963,10.028-2.645"/>
			
				<line style="fill:none;stroke:#454647;stroke-width:5;stroke-linecap:round;stroke-miterlimit:10;" x1="-2563.327" y1="1766.463" x2="-2576.338" y2="1753.452"/>
			
				<line style="fill:none;stroke:#454647;stroke-width:5;stroke-linecap:round;stroke-miterlimit:10;" x1="-2563.327" y1="1750.042" x2="-2576.338" y2="1737.029"/>
			
				<line style="fill:none;stroke:#454647;stroke-width:5;stroke-linecap:round;stroke-miterlimit:10;" x1="-2563.327" y1="1733.62" x2="-2576.338" y2="1720.608"/>
			
				<line style="fill:none;stroke:#454647;stroke-width:5;stroke-linecap:round;stroke-miterlimit:10;" x1="-2501.186" y1="1830.744" x2="-2586.383" y2="1830.744"/>
			<path style="fill:none;stroke:#454647;stroke-width:5;stroke-linecap:round;stroke-miterlimit:10;" d="M-2673.899,1829.211
				v23.652v45.171c0,5.444-4.413,9.857-9.857,9.857h-41.402h-54.084c-5.444,0-9.857-4.413-9.857-9.857v-12.257"/>
			<polyline style="fill:none;stroke:#454647;stroke-width:5;stroke-linecap:round;stroke-miterlimit:10;" points="
				-2673.899,1852.861 -2622.209,1852.861 -2575.489,1852.861 			"/>
			
				<line style="fill:none;stroke:#454647;stroke-width:5;stroke-linecap:round;stroke-miterlimit:10;" x1="-2622.213" y1="1852.863" x2="-2622.213" y2="1864.178"/>
			<path style="fill:none;stroke:#454647;stroke-width:5;stroke-linecap:round;stroke-miterlimit:10;" d="M-2612.698,1873.691
				c0-5.255-4.26-9.514-9.515-9.514c-5.254,0-9.514,4.259-9.514,9.514c0,5.254,4.26,9.515,9.514,9.515
				C-2616.958,1883.206-2612.698,1878.945-2612.698,1873.691z"/>
			
				<line style="fill:none;stroke:#454647;stroke-width:5;stroke-linecap:round;stroke-miterlimit:10;" x1="-2725.157" y1="1897.312" x2="-2725.157" y2="1907.892"/>
			<path style="fill:none;stroke:#454647;stroke-width:5;stroke-linecap:round;stroke-miterlimit:10;" d="M-2734.672,1887.799
				c0,5.255,4.26,9.514,9.515,9.514s9.515-4.259,9.515-9.514c0-5.256-4.26-9.514-9.515-9.514S-2734.672,1882.543-2734.672,1887.799z
				"/>
			<path style="fill:none;stroke:#454647;stroke-width:5;stroke-linecap:round;stroke-miterlimit:10;" d="M-2734.672,1752.901
				v-15.65c0-8.861,7.184-16.045,16.046-16.045h16.441"/>
			<path style="fill:none;stroke:#454647;stroke-width:5;stroke-linecap:round;stroke-miterlimit:10;" d="M-2782.541,1867.824
				c12.358,1.347,29.551-0.227,36.746-9.617c2.123-2.772,3.378-6.229,3.378-10.487c0-12.687-11.817-9.848-11.817,0
				c0,3.965,3.357,7.771,8.439,10.487c14.806,7.904,44.207,6.47,47.438-27.741"/>
			
				<line style="fill:none;stroke:#454647;stroke-width:5;stroke-linecap:round;stroke-miterlimit:10;" x1="-2709.384" y1="1802.977" x2="-2680.584" y2="1802.977"/>
			
				<line style="fill:none;stroke:#454647;stroke-width:5;stroke-linecap:round;stroke-miterlimit:10;" x1="-2702.184" y1="1788.577" x2="-2687.098" y2="1788.577"/>
			<g>
				<polyline style="fill:none;stroke:#454647;stroke-width:5;stroke-linecap:round;stroke-miterlimit:10;" points="
					-2624.985,1684.691 -2624.985,1670.291 -2624.985,1658.463 -2624.985,1637.892 				"/>
				
					<line style="fill:none;stroke:#454647;stroke-width:5;stroke-linecap:round;stroke-miterlimit:10;" x1="-2630.899" y1="1664.378" x2="-2619.071" y2="1676.206"/>
				
					<line style="fill:none;stroke:#454647;stroke-width:5;stroke-linecap:round;stroke-miterlimit:10;" x1="-2630.899" y1="1652.549" x2="-2619.071" y2="1664.378"/>
				<path style="fill:none;stroke:#454647;stroke-width:5;stroke-linecap:round;stroke-miterlimit:10;" d="M-2586.989,1721.211
					c-6.721,0-14.311,0-17.04,0c-7.651,0-14.521,0-19.151,0c-16.979,0-20.32,24.681-1.8,24.681c11.96,0,19.12-11.591,20.95-24.681
					c2.37-17-4.23-36.52-20.95-36.52c-35.09,0-29.75,46.74-28.9,66.899"/>
			</g>
			
				<line style="fill:none;stroke:#454647;stroke-width:5;stroke-linecap:round;stroke-miterlimit:10;" x1="-2599.451" y1="1810.691" x2="-2488.117" y2="1810.691"/>
		</g>
	</g>
</symbol>
<g id="Background">
	<g id="New_Symbol_8_9_">
		<g id="Elements_106_">
		</g>
	</g>
	<g id="New_Symbol_6_11_">
		<g id="Elements_105_">
		</g>
	</g>
	<g id="New_Symbol_10_">
		<g id="DoneElements_11_">
		</g>
		<g id="Elements_104_">
		</g>
	</g>
</g>
<g id="Elements">
	<g id="New_Symbol_2_">
		<g id="DoneElements_3_">
		</g>
		<g id="Elements_36_">
		</g>
	</g>
	<g id="New_Symbol_3_2_">
		<g id="Elements_35_">
		</g>
	</g>
	<g id="New_Symbol_1_2_">
		<g id="Elements_34_">
		</g>
	</g>
	<g id="New_Symbol_2_2_">
		<g id="Elements_33_">
		</g>
	</g>
	<g id="New_Symbol_5_2_">
		<g id="Elements_32_">
		</g>
	</g>
	<g id="New_Symbol_6_2_">
		<g id="Elements_31_">
		</g>
	</g>
	<g id="New_Symbol_7_2_">
		<g id="Elements_30_">
		</g>
	</g>
	<g id="New_Symbol_8_2_">
		<g id="Elements_29_">
		</g>
	</g>
	<g id="New_Symbol_9_2_">
		<g id="Elements_28_">
		</g>
	</g>
	<g id="New_Symbol_2_8_">
		<g id="Elements_99_">
		</g>
	</g>
	<g id="New_Symbol_9_">
		<g id="DoneElements_10_">
		</g>
		<g id="Elements_95_">
		</g>
	</g>
	<g id="New_Symbol_7_9_">
		<g id="Elements_94_">
		</g>
	</g>
	<g id="New_Symbol_9_10_">
		<g id="Elements_93_">
		</g>
	</g>
	<g id="New_Symbol_1_10_">
		<g id="Elements_100_">
		</g>
	</g>
	<g id="New_Symbol_9_11_">
		<g id="Elements_101_">
		</g>
	</g>
	<g id="New_Symbol_3_10_">
		<g id="Elements_102_">
		</g>
	</g>
	<g id="New_Symbol_5_10_">
		<g id="Elements_103_">
		</g>
	</g>
	<g id="New_Symbol_3_9_">
		<g id="Elements_98_">
		</g>
	</g>
	<g id="New_Symbol_1_9_">
		<g id="Elements_97_">
		</g>
	</g>
	<g id="New_Symbol_8_8_">
		<g id="Elements_96_">
		</g>
	</g>
	<g id="New_Symbol_9_9_">
		<g id="Elements_91_">
		</g>
	</g>
	<g id="New_Symbol_5_9_">
		<g id="Elements_90_">
		</g>
	</g>
	<g id="New_Symbol_6_9_">
		<g id="Elements_89_">
		</g>
	</g>
	<g id="New_Symbol_6_10_">
		<g id="Elements_92_">
		</g>
	</g>
	<g id="Fass_1_1_">
		<path style="fill:#B7E0AA;" d="M226.952,117.444V59.236c-10.185-2.978-20.646-5.338-31.155-7.033v232.008
			c10.554-1.701,21.014-4.062,31.155-7.034v-58.208V117.444z"/>
		<path style="fill:#F0796F;" d="M296.66,198.233c0,0-0.001,0-0.002,0.001l0,0c-14.348,6.327-29.898,11.57-46.389,15.711
			c-3.916,0.983-7.867,1.928-11.889,2.783c-2.453,0.521-4.938,1.004-7.429,1.478v57.761c12.019-3.736,23.821-8.38,35.103-13.837
			l0.871-0.432c13.236-6.464,25.935-14.128,37.758-22.788v-32.684v-11.71C302.068,195.783,299.382,197.028,296.66,198.233z"/>
		<path style="fill:#F0796F;" d="M234.609,118.904c0.562,0.113,1.119,0.234,1.68,0.351c1.188,0.244,2.375,0.488,3.551,0.743
			c0.675,0.146,1.342,0.302,2.014,0.451c1.055,0.236,2.11,0.47,3.157,0.715c0.722,0.168,1.435,0.345,2.153,0.518
			c0.984,0.236,1.97,0.472,2.947,0.716c0.749,0.188,1.491,0.384,2.236,0.575c0.938,0.242,1.875,0.482,2.805,0.73
			c0.76,0.203,1.512,0.414,2.266,0.621c0.904,0.25,1.812,0.498,2.711,0.755c0.762,0.218,1.52,0.441,2.277,0.664
			c0.881,0.259,1.762,0.517,2.635,0.781c0.762,0.231,1.517,0.468,2.271,0.703c0.861,0.269,1.721,0.537,2.574,0.812
			c0.758,0.243,1.512,0.492,2.264,0.741c0.841,0.278,1.682,0.558,2.515,0.843c0.753,0.257,1.501,0.517,2.247,0.778
			c0.824,0.289,1.648,0.58,2.467,0.875c0.744,0.269,1.484,0.541,2.223,0.814c0.811,0.3,1.617,0.602,2.422,0.908
			c0.734,0.28,1.465,0.562,2.194,0.848c0.796,0.311,1.587,0.625,2.376,0.942c0.727,0.292,1.451,0.587,2.173,0.884
			c0.78,0.321,1.556,0.646,2.329,0.975c0.715,0.303,1.428,0.607,2.137,0.915c0.773,0.335,1.539,0.675,2.305,1.017
			c0.698,0.311,1.396,0.623,2.088,0.939c0.765,0.35,1.522,0.704,2.279,1.059c0.682,0.32,1.362,0.641,2.04,0.965
			c0.245,0.118,0.495,0.232,0.739,0.351v-44.39c-22.297-16.332-47.09-28.782-73.731-37.056v57.749
			C232.174,118.43,233.396,118.661,234.609,118.904z"/>
		<path style="fill:#42A2B3;" d="M170.328,15.221h-31.955c0.951,7.979,7.748,14.188,15.977,14.188
			C162.58,29.408,169.377,23.199,170.328,15.221z"/>
		<rect x="138.25" y="4" style="fill:#FCF5CB;" width="32.204" height="7.221"/>
		<path style="fill:#F0796F;" d="M301.564,144.833c-0.477-0.228-0.963-0.446-1.443-0.672c-0.949-0.444-1.896-0.892-2.857-1.327
			c-0.578-0.262-1.168-0.516-1.751-0.775c-0.872-0.387-1.741-0.776-2.62-1.155c-0.633-0.272-1.273-0.535-1.91-0.803
			c-0.844-0.355-1.686-0.714-2.537-1.062c-0.668-0.273-1.347-0.537-2.02-0.806c-0.831-0.331-1.659-0.665-2.497-0.989
			c-0.696-0.271-1.402-0.531-2.104-0.797c-0.826-0.312-1.65-0.626-2.484-0.932c-0.719-0.264-1.447-0.52-2.172-0.778
			c-0.828-0.295-1.653-0.593-2.486-0.882c-0.74-0.256-1.487-0.504-2.232-0.756c-0.83-0.279-1.658-0.562-2.496-0.835
			c-0.756-0.247-1.521-0.488-2.283-0.73c-0.836-0.266-1.67-0.532-2.511-0.792c-0.772-0.238-1.552-0.469-2.331-0.702
			c-0.844-0.252-1.686-0.505-2.535-0.751c-0.787-0.229-1.579-0.45-2.371-0.672c-0.85-0.239-1.699-0.479-2.558-0.712
			c-0.8-0.218-1.606-0.429-2.411-0.642c-0.859-0.227-1.718-0.452-2.582-0.672c-0.814-0.207-1.635-0.409-2.453-0.611
			c-0.867-0.213-1.734-0.426-2.607-0.633c-0.823-0.195-1.652-0.386-2.48-0.576c-0.879-0.201-1.76-0.402-2.645-0.598
			c-0.834-0.184-1.671-0.363-2.509-0.542c-0.892-0.189-1.782-0.378-2.679-0.561c-0.842-0.173-1.688-0.341-2.533-0.507
			c-0.502-0.1-1.008-0.195-1.513-0.292v91.854c1.179-0.227,2.353-0.462,3.522-0.7c1.352-0.274,2.707-0.543,4.047-0.832
			c1.576-0.34,3.131-0.703,4.691-1.063c1.312-0.303,2.631-0.598,3.932-0.915c1.566-0.382,3.109-0.788,4.656-1.19
			c1.268-0.329,2.542-0.648,3.797-0.99c1.561-0.427,3.099-0.88,4.641-1.327c1.211-0.351,2.434-0.69,3.633-1.054
			c1.572-0.478,3.117-0.982,4.668-1.481c1.14-0.366,2.291-0.72,3.42-1.097c1.612-0.541,3.193-1.111,4.783-1.676
			c1.036-0.368,2.088-0.721,3.113-1.1c1.739-0.641,3.443-1.314,5.154-1.984c0.844-0.33,1.707-0.646,2.544-0.983
			c2.53-1.022,5.028-2.074,7.489-3.159c3.291-1.455,6.523-2.973,9.641-4.514v-8.6v-35.104
			C303.648,145.846,302.613,145.333,301.564,144.833z"/>
		<rect x="324.825" y="208.227" style="fill:#FCF5CB;" width="10.671" height="6.952"/>
		<path style="fill:#F0796F;" d="M116.904,51.591v61.98c25.041-2.495,50.211-2.724,74.893-0.675V51.59
			C167.207,48.015,141.498,48.015,116.904,51.591z"/>
		<path style="fill:#F0796F;" d="M77.75,119.381V60.455C51.129,68.713,26.334,81.16,4.004,97.508v44.562
			C26.812,132.189,51.595,124.564,77.75,119.381z"/>
		<path style="fill:#FCC24C;" d="M16.536,319.98h40.753L76.24,279.68c-11.785-3.678-23.325-8.211-34.389-13.506L16.536,319.98z"/>
		<path style="fill:#FCC24C;" d="M292.158,320.004l-25.309-53.831c-11.07,5.298-22.617,9.834-34.393,13.513l18.947,40.311
			L292.158,320.004z"/>
		<polygon style="fill:#42A2B3;" points="320.824,204.227 339.495,204.227 347.204,204.227 347.204,183.461 308.684,183.461 
			308.684,204.227 		"/>
		<path style="fill:#FCF5CB;" d="M342.066,155.662v-6.686h-23.814v6.686c0,6.565,5.342,11.907,11.906,11.907
			C336.725,167.569,342.066,162.228,342.066,155.662z"/>
		<path style="fill:#F0796F;" d="M4.004,194.346v44.561c11.83,8.659,24.533,16.327,37.771,22.801
			c11.539,5.637,23.635,10.42,35.975,14.252v-58.926C51.598,211.85,26.812,204.225,4.004,194.346z"/>
		<path style="fill:#B7E0AA;" d="M81.75,121.039c0,0.002,0,0.004,0,0.006v94.324c0,0.002,0,0.004,0,0.006v61.812
			c10.141,2.972,20.604,5.324,31.154,7.024V52.202c-10.51,1.695-20.971,4.052-31.154,7.029V121.039z"/>
		<path style="fill:#F0796F;" d="M4.004,189.982c22.759,10.004,47.551,17.725,73.746,22.971v-89.492
			c-26.197,5.246-50.988,12.967-73.746,22.971V189.982z"/>
		<path style="fill:#F0796F;" d="M116.904,117.592v101.23c25.044,2.521,50.219,2.75,74.893,0.684V116.91
			C167.121,114.843,141.947,115.071,116.904,117.592z"/>
		<path style="fill:#F0796F;" d="M116.904,222.842v61.98c11.648,1.695,23.553,2.598,35.445,2.689v-40.494c0-1.104,0.896-2,2-2
			c1.104,0,2,0.896,2,2v40.49c2.607-0.02,5.187-0.078,7.725-0.174v-40.316c0-1.104,0.896-2,2-2s2,0.896,2,2v40.137
			c2.576-0.135,5.154-0.307,7.723-0.52v-39.617c0-1.104,0.895-2,2-2c1.104,0,2,0.896,2,2v39.264c4.019-0.391,8.036-0.879,12-1.455
			v-61.318c-11.114,0.922-22.322,1.4-33.578,1.4C144.477,224.908,130.672,224.213,116.904,222.842z"/>
		<path style="fill:#FCF5CB;" d="M319.495,275.379c0,7.639,6.215,13.853,13.853,13.853c7.639,0,13.854-6.214,13.854-13.853
			c0-5.93-8.871-20.244-13.854-27.591C328.367,255.135,319.495,269.449,319.495,275.379z"/>
		<path style="fill:#2B2C2D;" d="M260.238,207.108c1.211-0.351,2.434-0.69,3.633-1.054
			C262.672,206.418,261.449,206.758,260.238,207.108z"/>
		<path style="fill:#2B2C2D;" d="M240.186,124.174c-0.834-0.184-1.671-0.363-2.509-0.542
			C238.515,123.811,239.352,123.99,240.186,124.174z"/>
		<path style="fill:#2B2C2D;" d="M245.311,125.348c-0.823-0.195-1.652-0.386-2.48-0.576
			C243.658,124.962,244.487,125.152,245.311,125.348z"/>
		<path style="fill:#2B2C2D;" d="M234.998,123.071c-0.842-0.173-1.688-0.341-2.533-0.507
			C233.311,122.73,234.156,122.898,234.998,123.071z"/>
		<path style="fill:#2B2C2D;" d="M250.371,126.592c-0.814-0.207-1.635-0.409-2.453-0.611
			C248.736,126.183,249.557,126.385,250.371,126.592z"/>
		<path style="fill:#2B2C2D;" d="M234.475,213.427c1.352-0.274,2.707-0.543,4.047-0.832
			C237.182,212.884,235.826,213.152,234.475,213.427z"/>
		<path style="fill:#2B2C2D;" d="M274.682,133.855c-0.74-0.256-1.487-0.504-2.232-0.756
			C273.194,133.352,273.941,133.6,274.682,133.855z"/>
		<path style="fill:#2B2C2D;" d="M243.213,211.531c1.312-0.303,2.631-0.598,3.932-0.915
			C245.844,210.934,244.525,211.229,243.213,211.531z"/>
		<path style="fill:#2B2C2D;" d="M255.364,127.905c-0.8-0.218-1.606-0.429-2.411-0.642
			C253.758,127.477,254.564,127.688,255.364,127.905z"/>
		<path style="fill:#2B2C2D;" d="M269.953,132.265c-0.756-0.247-1.521-0.487-2.283-0.73
			C268.432,131.776,269.197,132.018,269.953,132.265z"/>
		<path style="fill:#2B2C2D;" d="M260.293,129.289c-0.787-0.229-1.579-0.45-2.371-0.672
			C258.714,128.839,259.506,129.061,260.293,129.289z"/>
		<path style="fill:#2B2C2D;" d="M265.159,130.742c-0.772-0.238-1.552-0.469-2.331-0.702
			C263.607,130.273,264.387,130.504,265.159,130.742z"/>
		<path style="fill:#2B2C2D;" d="M230.952,118.197L230.952,118.197c1.222,0.232,2.446,0.464,3.657,0.707
			C233.396,118.661,232.174,118.43,230.952,118.197z"/>
		<path style="fill:#2B2C2D;" d="M296.658,198.234L296.658,198.234c-14.348,6.327-29.898,11.57-46.389,15.711
			C266.76,209.805,282.311,204.562,296.658,198.234z"/>
		<path style="fill:#2B2C2D;" d="M236.289,119.255c1.188,0.244,2.375,0.488,3.551,0.743
			C238.664,119.743,237.477,119.499,236.289,119.255z"/>
		<path style="fill:#2B2C2D;" d="M285.01,198.717c0.844-0.33,1.707-0.646,2.544-0.983
			C286.717,198.071,285.854,198.387,285.01,198.717z"/>
		<path style="fill:#2B2C2D;" d="M276.742,201.801c1.036-0.368,2.088-0.721,3.113-1.1
			C278.83,201.08,277.778,201.433,276.742,201.801z"/>
		<path style="fill:#2B2C2D;" d="M268.539,204.573c1.14-0.366,2.291-0.72,3.42-1.097
			C270.83,203.854,269.679,204.207,268.539,204.573z"/>
		<path style="fill:#2B2C2D;" d="M252.348,122.973c0.938,0.242,1.875,0.482,2.805,0.73
			C254.223,123.455,253.285,123.215,252.348,122.973z"/>
		<path style="fill:#2B2C2D;" d="M251.801,209.426c1.268-0.329,2.542-0.648,3.797-0.99
			C254.343,208.777,253.068,209.097,251.801,209.426z"/>
		<path style="fill:#2B2C2D;" d="M247.164,121.682c0.984,0.236,1.97,0.472,2.947,0.716
			C249.134,122.153,248.148,121.918,247.164,121.682z"/>
		<path style="fill:#2B2C2D;" d="M241.854,120.449c1.055,0.236,2.11,0.47,3.157,0.715
			C243.964,120.919,242.908,120.686,241.854,120.449z"/>
		<path style="fill:#2B2C2D;" d="M272.15,128.781c0.841,0.278,1.682,0.558,2.515,0.843
			C273.832,129.339,272.991,129.06,272.15,128.781z"/>
		<path style="fill:#2B2C2D;" d="M301.564,144.833c-0.477-0.228-0.963-0.446-1.443-0.672
			C300.602,144.387,301.088,144.605,301.564,144.833z"/>
		<path style="fill:#2B2C2D;" d="M191.797,286.561v-1.734c-3.964,0.576-7.981,1.064-12,1.455v2.209c0,1.104-0.896,2-2,2
			c-1.105,0-2-0.896-2-2v-1.855c-2.568,0.213-5.146,0.385-7.723,0.52v2.113c0,1.104-0.896,2-2,2s-2-0.896-2-2v-1.934
			c-2.538,0.096-5.117,0.154-7.725,0.174v2.02c0,1.104-0.896,2-2,2c-1.104,0-2-0.896-2-2v-2.016
			c-11.893-0.092-23.797-0.994-35.445-2.689v1.738c0,1.104-0.896,2-2,2c-0.134,0-0.264-0.015-0.391-0.039
			c0.031,0.004,0.062,0.01,0.094,0.015c13.035,1.986,26.406,2.994,39.74,2.994c4,0,7.975-0.089,11.812-0.265
			c3.928-0.172,7.902-0.438,11.813-0.789c5.394-0.479,10.817-1.132,16.12-1.94c0.031-0.005,0.062-0.011,0.092-0.015
			c-0.125,0.024-0.256,0.039-0.389,0.039C192.691,288.561,191.797,287.665,191.797,286.561z"/>
		<path style="fill:#2B2C2D;" d="M306.684,241.922c-1.104,0-2-0.896-2-2v-1.012c-11.823,8.66-24.521,16.324-37.758,22.788
			l-0.871,0.432c-11.281,5.457-23.084,10.101-35.103,13.837v0.523l0.528,1.119l0.977,2.076c11.775-3.679,23.322-8.215,34.393-13.513
			l-1.047-2.223v-0.446c0-1.104,0.896-2.004,2-2.004c0.846,0,1.568,0.521,1.861,1.261l0.779,1.655
			c13.119-6.535,25.705-14.225,37.43-22.886l0.811-0.6v-1.009C308.684,241.026,307.789,241.922,306.684,241.922z"/>
		<path style="fill:#2B2C2D;" d="M112.904,286.561v-2.35c-10.551-1.7-21.014-4.053-31.154-7.024v1.493
			c0,0.941-0.652,1.725-1.527,1.938l-0.117,0.248c11.177,3.301,22.739,5.879,34.391,7.653
			C113.588,288.33,112.904,287.525,112.904,286.561z"/>
		<path style="fill:#2B2C2D;" d="M226.952,278.68v-1.503c-10.142,2.973-20.602,5.333-31.155,7.034v2.35
			c0,0.965-0.684,1.77-1.593,1.958c11.655-1.775,23.22-4.353,34.386-7.651l-0.119-0.252
			C227.6,280.398,226.952,279.617,226.952,278.68z"/>
		<path style="fill:#2B2C2D;" d="M299.625,139.52c0.765,0.35,1.523,0.704,2.279,1.059
			C301.147,140.224,300.39,139.869,299.625,139.52z"/>
		<path style="fill:#2B2C2D;" d="M295.232,137.563c0.773,0.335,1.539,0.675,2.305,1.017
			C296.771,138.238,296.006,137.898,295.232,137.563z"/>
		<path style="fill:#2B2C2D;" d="M286.218,133.848c0.796,0.311,1.587,0.625,2.376,0.942
			C287.805,134.473,287.014,134.158,286.218,133.848z"/>
		<path style="fill:#2B2C2D;" d="M279.34,135.516c-0.719-0.264-1.447-0.52-2.172-0.778
			C277.893,134.996,278.621,135.252,279.34,135.516z"/>
		<path style="fill:#2B2C2D;" d="M41.749,261.694c0.999,0.47,1.429,1.661,0.958,2.661l-0.855,1.818
			c11.063,5.295,22.604,9.828,34.389,13.506l1.51-3.213v-0.508c-12.34-3.832-24.436-8.615-35.975-14.252
			c-13.238-6.474-25.941-14.142-37.771-22.801v1.006c0,1.104-0.896,2-2,2c-1.104,0-2-0.896-2-2V191.26c0-0.002,0-0.003,0-0.005
			V145.16c0-0.002,0-0.004,0-0.005V96.502c0-1.104,0.896-2,2-2c1.104,0,2,0.896,2,2v1.006C26.334,81.16,51.129,68.713,77.75,60.455
			v-2.72c0-1.104,0.896-2,2-2s2,0.896,2,2v1.496c10.184-2.978,20.645-5.334,31.154-7.029v-2.348c0-1.104,0.896-2,2-2
			c1.104,0,2,0.896,2,2v1.736c24.594-3.576,50.303-3.576,74.893-0.001v-1.735c0-1.104,0.895-2,2-2c1.104,0,2,0.896,2,2v2.349
			c10.51,1.695,20.971,4.056,31.155,7.033v-1.503c0-1.104,0.896-2,2-2s2,0.896,2,2v2.715c26.642,8.273,51.435,20.724,73.731,37.056
			v-1.012c0-1.104,0.896-2,2-2c1.105,0,2,0.896,2,2v-1.009l-0.811-0.6c-23.596-17.432-49.955-30.575-78.348-39.066
			c-11.553-3.452-23.473-6.123-35.432-7.94c-12.379-1.887-25.055-2.867-37.744-2.961v1.97c0,1.104-0.896,2-2,2c-1.104,0-2-0.896-2-2
			v-1.97c-12.688,0.094-25.361,1.073-37.742,2.961c-11.959,1.817-23.88,4.488-35.432,7.94l-1.427,0.434v0.005
			C49.924,64.741,24.047,77.735,0.812,94.89L0,95.489v145.436l0.812,0.6c11.731,8.66,24.323,16.347,37.446,22.891l0.83-1.763
			C39.557,261.652,40.747,261.222,41.749,261.694z"/>
		<path style="fill:#2B2C2D;" d="M304.684,141.905v-0.012c-0.244-0.118-0.494-0.232-0.739-0.351
			C304.193,141.662,304.438,141.785,304.684,141.905z"/>
		<path style="fill:#2B2C2D;" d="M297.264,142.834c-0.578-0.262-1.168-0.516-1.751-0.775
			C296.096,142.318,296.686,142.572,297.264,142.834z"/>
		<path style="fill:#2B2C2D;" d="M292.893,140.903c-0.633-0.272-1.273-0.535-1.91-0.803
			C291.619,140.368,292.26,140.631,292.893,140.903z"/>
		<path style="fill:#2B2C2D;" d="M288.445,139.039c-0.668-0.273-1.347-0.537-2.02-0.806
			C287.099,138.502,287.777,138.766,288.445,139.039z"/>
		<path style="fill:#2B2C2D;" d="M283.929,137.244c-0.696-0.271-1.402-0.531-2.104-0.797
			C282.526,136.713,283.232,136.974,283.929,137.244z"/>
		<path style="fill:#2B2C2D;" d="M281.602,132.092c0.811,0.3,1.617,0.602,2.422,0.908
			C283.219,132.693,282.412,132.392,281.602,132.092z"/>
		<path style="fill:#2B2C2D;" d="M257.418,124.324c0.904,0.25,1.812,0.498,2.711,0.755
			C259.229,124.822,258.322,124.574,257.418,124.324z"/>
		<path style="fill:#2B2C2D;" d="M276.912,130.402c0.824,0.289,1.648,0.58,2.467,0.875
			C278.561,130.982,277.736,130.691,276.912,130.402z"/>
		<path style="fill:#2B2C2D;" d="M290.767,135.674c0.78,0.321,1.556,0.646,2.329,0.975
			C292.322,136.32,291.547,135.995,290.767,135.674z"/>
		<path style="fill:#2B2C2D;" d="M262.406,125.743c0.881,0.259,1.762,0.517,2.635,0.781
			C264.168,126.26,263.287,126.002,262.406,125.743z"/>
		<path style="fill:#2B2C2D;" d="M267.312,127.228c0.861,0.269,1.721,0.537,2.574,0.812
			C269.033,127.765,268.174,127.496,267.312,127.228z"/>
		<path style="fill:#2B2C2D;" d="M301.904,140.578c-0.756-0.354-1.515-0.709-2.279-1.059c-0.691-0.316-1.39-0.629-2.088-0.939
			c-0.766-0.342-1.531-0.682-2.305-1.017c-0.709-0.308-1.422-0.612-2.137-0.915c-0.773-0.328-1.549-0.653-2.329-0.975
			c-0.722-0.297-1.446-0.592-2.173-0.884c-0.789-0.317-1.58-0.632-2.376-0.942c-0.729-0.285-1.46-0.567-2.194-0.848
			c-0.805-0.307-1.611-0.608-2.422-0.908c-0.738-0.273-1.479-0.546-2.223-0.814c-0.818-0.295-1.643-0.586-2.467-0.875
			c-0.746-0.262-1.494-0.521-2.247-0.778c-0.833-0.285-1.674-0.564-2.515-0.843c-0.752-0.249-1.506-0.498-2.264-0.741
			c-0.854-0.275-1.713-0.544-2.574-0.812c-0.755-0.235-1.51-0.472-2.271-0.703c-0.873-0.265-1.754-0.522-2.635-0.781
			c-0.758-0.223-1.516-0.446-2.277-0.664c-0.899-0.257-1.807-0.505-2.711-0.755c-0.754-0.207-1.506-0.418-2.266-0.621
			c-0.93-0.248-1.867-0.488-2.805-0.73c-0.745-0.191-1.487-0.388-2.236-0.575c-0.978-0.244-1.963-0.479-2.947-0.716
			c-0.719-0.173-1.432-0.35-2.153-0.518c-1.047-0.245-2.103-0.479-3.157-0.715c-0.672-0.149-1.339-0.305-2.014-0.451
			c-1.176-0.255-2.363-0.499-3.551-0.743c-0.561-0.116-1.117-0.237-1.68-0.351c-1.211-0.243-2.436-0.475-3.657-0.707v4.064v0.011
			c0.505,0.097,1.011,0.192,1.513,0.292c0.846,0.166,1.691,0.334,2.533,0.507c0.896,0.183,1.787,0.371,2.679,0.561
			c0.838,0.179,1.675,0.358,2.509,0.542c0.885,0.195,1.766,0.396,2.645,0.598c0.828,0.19,1.657,0.381,2.48,0.576
			c0.873,0.207,1.74,0.42,2.607,0.633c0.818,0.202,1.639,0.404,2.453,0.611c0.864,0.22,1.723,0.445,2.582,0.672
			c0.805,0.213,1.611,0.424,2.411,0.642c0.858,0.233,1.708,0.473,2.558,0.712c0.792,0.222,1.584,0.443,2.371,0.672
			c0.85,0.246,1.691,0.499,2.535,0.751c0.779,0.233,1.559,0.464,2.331,0.702c0.841,0.26,1.675,0.526,2.511,0.792
			c0.762,0.243,1.527,0.483,2.283,0.73c0.838,0.273,1.666,0.556,2.496,0.835c0.745,0.252,1.492,0.5,2.232,0.756
			c0.833,0.289,1.658,0.587,2.486,0.882c0.725,0.259,1.453,0.515,2.172,0.778c0.834,0.306,1.658,0.62,2.484,0.932
			c0.702,0.266,1.408,0.526,2.104,0.797c0.838,0.324,1.666,0.658,2.497,0.989c0.673,0.269,1.352,0.532,2.02,0.806
			c0.852,0.348,1.693,0.706,2.537,1.062c0.637,0.268,1.277,0.53,1.91,0.803c0.879,0.379,1.748,0.769,2.62,1.155
			c0.583,0.26,1.173,0.514,1.751,0.775c0.961,0.436,1.908,0.883,2.857,1.327c0.48,0.226,0.967,0.444,1.443,0.672
			c1.049,0.5,2.084,1.013,3.119,1.524v-4.452c-0.246-0.12-0.49-0.243-0.739-0.362C303.267,141.219,302.586,140.898,301.904,140.578z
			"/>
		<path style="fill:#2B2C2D;" d="M4.004,146.432c22.758-10.004,47.549-17.725,73.746-22.971v-4.08
			c-26.155,5.184-50.938,12.809-73.746,22.688V146.432z"/>
		<path style="fill:#2B2C2D;" d="M81.75,121.039v0.006C81.75,121.043,81.75,121.041,81.75,121.039z"/>
		<path style="fill:#2B2C2D;" d="M0.004,145.16v-0.005C0.004,145.156,0.004,145.158,0.004,145.16z"/>
		<path style="fill:#2B2C2D;" d="M116.904,113.571v4.021c25.043-2.521,50.217-2.749,74.893-0.682v-4.014
			C167.115,110.848,141.945,111.076,116.904,113.571z"/>
		<path style="fill:#2B2C2D;" d="M116.904,218.822v4.02c13.768,1.371,27.572,2.066,41.314,2.066c11.256,0,22.464-0.479,33.578-1.4
			v-4.002C167.123,221.572,141.948,221.343,116.904,218.822z"/>
		<path style="fill:#2B2C2D;" d="M230.952,218.206c2.491-0.474,4.976-0.956,7.429-1.478c4.021-0.855,7.973-1.8,11.889-2.783
			c16.49-4.141,32.041-9.384,46.389-15.711c0.001-0.001,0.001-0.001,0.001-0.001c2.723-1.205,5.409-2.45,8.024-3.717v-4.456
			c-3.117,1.541-6.35,3.059-9.641,4.514c-2.461,1.085-4.959,2.137-7.489,3.159c-0.837,0.338-1.7,0.653-2.544,0.983
			c-1.711,0.67-3.415,1.344-5.154,1.984c-1.025,0.379-2.077,0.731-3.113,1.1c-1.59,0.564-3.171,1.135-4.783,1.676
			c-1.129,0.377-2.28,0.73-3.42,1.097c-1.551,0.499-3.096,1.004-4.668,1.481c-1.199,0.363-2.422,0.703-3.633,1.054
			c-1.542,0.447-3.08,0.9-4.641,1.327c-1.255,0.342-2.529,0.661-3.797,0.99c-1.547,0.402-3.09,0.809-4.656,1.19
			c-1.301,0.317-2.619,0.612-3.932,0.915c-1.561,0.36-3.115,0.724-4.691,1.063c-1.34,0.289-2.695,0.558-4.047,0.832
			c-1.17,0.238-2.344,0.474-3.522,0.7v0.024V218.206z"/>
		<path style="fill:#2B2C2D;" d="M81.75,215.369v0.006C81.75,215.373,81.75,215.371,81.75,215.369z"/>
		<path style="fill:#2B2C2D;" d="M4.004,194.346c22.808,9.879,47.594,17.504,73.746,22.688v-4.08
			c-26.195-5.246-50.987-12.967-73.746-22.971V194.346z"/>
		<path style="fill:#2B2C2D;" d="M0.004,191.26v-0.005C0.004,191.257,0.004,191.258,0.004,191.26z"/>
		<path style="fill:#2B2C2D;" d="M304.684,206.227v32.684v1.012c0,1.104,0.896,2,2,2c1.105,0,2-0.896,2-2v-31.695h-2
			C305.58,208.227,304.684,207.331,304.684,206.227z"/>
		<path style="fill:#2B2C2D;" d="M306.684,94.492c-1.104,0-2,0.896-2,2v1.012v44.39v0.012v4.452v35.104c0-1.104,0.896-2,2-2h2
			V148.35V96.492C308.684,95.388,307.789,94.492,306.684,94.492z"/>
		<path style="fill:#2B2C2D;" d="M304.684,194.517v11.71c0-1.104,0.896-2,2-2h2v-20.766h-2c-1.104,0-2-0.896-2-2v8.6V194.517z"/>
		<path style="fill:#2B2C2D;" d="M4.004,189.982v-43.551v-4.362V97.508v-1.006c0-1.104-0.896-2-2-2c-1.104,0-2,0.896-2,2v48.653
			v0.005v46.095v0.005v48.652c0,1.104,0.896,2,2,2c1.104,0,2-0.896,2-2v-1.006v-44.561V189.982z"/>
		<path style="fill:#2B2C2D;" d="M230.952,214.151v-0.024v-91.854v-0.011v-4.064l0,0V60.448v-2.715c0-1.104-0.896-2-2-2
			s-2,0.896-2,2v1.503v58.208v101.524v58.208v1.503c0,0.938,0.647,1.719,1.519,1.936l-1.327-2.823
			c-0.472-0.998-0.045-2.19,0.954-2.662c1-0.471,2.191-0.045,2.663,0.955l0.191,0.405v-0.523v-57.761V214.151z"/>
		<path style="fill:#2B2C2D;" d="M195.797,286.561v-2.35V52.203v-2.349c0-1.104-0.896-2-2-2c-1.105,0-2,0.896-2,2v1.735v61.307
			v4.014v102.596v4.002v61.318v1.734c0,1.104,0.895,2,2,2c0.133,0,0.264-0.015,0.389-0.039c0.006-0.002,0.012-0.002,0.019-0.003
			C195.113,288.33,195.797,287.525,195.797,286.561z"/>
		<path style="fill:#2B2C2D;" d="M116.904,286.561v-1.738v-61.98v-4.02v-101.23v-4.021v-61.98v-1.736c0-1.104-0.896-2-2-2
			c-1.104,0-2,0.896-2,2v2.348v232.009v2.35c0,0.965,0.684,1.77,1.592,1.958c0.006,0.001,0.012,0.001,0.018,0.003
			c0.127,0.024,0.257,0.039,0.391,0.039C116.008,288.561,116.904,287.665,116.904,286.561z"/>
		<path style="fill:#2B2C2D;" d="M81.75,215.369v-94.324v-0.006V59.231v-1.496c0-1.104-0.896-2-2-2s-2,0.896-2,2v2.72v58.926v4.08
			v89.492v4.08v58.926v0.508l0.188-0.398c0.467-1.001,1.656-1.432,2.657-0.964c1.002,0.468,1.434,1.658,0.966,2.659l-0.721,1.539
			l-0.617,1.314c0.875-0.213,1.527-0.996,1.527-1.938v-1.493v-61.812V215.369z"/>
		<path style="fill:#2B2C2D;" d="M177.797,245.018c-1.105,0-2,0.896-2,2v39.617v1.855c0,1.104,0.895,2,2,2c1.104,0,2-0.896,2-2
			v-2.209v-39.264C179.797,245.913,178.9,245.018,177.797,245.018z"/>
		<path style="fill:#2B2C2D;" d="M166.074,245.018c-1.104,0-2,0.896-2,2v40.316v1.934c0,1.104,0.896,2,2,2s2-0.896,2-2v-2.113
			v-40.137C168.074,245.913,167.179,245.018,166.074,245.018z"/>
		<path style="fill:#2B2C2D;" d="M154.35,245.018c-1.104,0-2,0.896-2,2v40.494v2.016c0,1.104,0.896,2,2,2c1.104,0,2-0.896,2-2v-2.02
			v-40.49C156.35,245.913,155.453,245.018,154.35,245.018z"/>
		<path style="fill:#2B2C2D;" d="M172.453,15.221h-2.125c-0.951,7.979-7.748,14.188-15.979,14.188c1.104,0,2,0.896,2,2v1.898
			c10.148-1.007,18.104-9.591,18.104-20.001V13.23C174.447,14.33,173.555,15.221,172.453,15.221z"/>
		<path style="fill:#2B2C2D;" d="M154.35,29.408c-8.229,0-15.025-6.209-15.977-14.188h-2.124c-1.104,0-2-0.896-2-2s0.896-2,2-2h2V4
			h32.204v7.221h2c1.102,0,1.994,0.891,2,1.99V0h-40.204v13.306c0,10.409,7.952,18.993,18.101,20.001v-1.898
			C152.35,30.304,153.245,29.408,154.35,29.408z"/>
		<path style="fill:#2B2C2D;" d="M172.453,11.221h-2h-32.204h-2c-1.104,0-2,0.896-2,2s0.896,2,2,2h2.124h31.955h2.125
			c1.102,0,1.994-0.891,2-1.99c0-0.004,0-0.006,0-0.01s0-0.006,0-0.01C174.447,12.111,173.555,11.221,172.453,11.221z"/>
		<path style="fill:#2B2C2D;" d="M154.35,48.886c1.104,0,2-0.896,2-2v-1.97V33.307v-1.898c0-1.104-0.896-2-2-2c-1.104,0-2,0.896-2,2
			v1.898v11.609v1.97C152.35,47.99,153.245,48.886,154.35,48.886z"/>
		<path style="fill:#2B2C2D;" d="M330.158,167.569c-6.564,0-11.906-5.342-11.906-11.907v-6.686h23.814v6.686
			C342.066,162.228,336.725,167.569,330.158,167.569c1.104,0,2,0.896,2,2v1.86c7.829-0.988,13.908-7.675,13.908-15.768v-10.686
			h-31.814v10.686c0,8.093,6.078,14.779,13.906,15.768v-1.86C328.158,168.465,329.054,167.569,330.158,167.569z"/>
		<path style="fill:#2B2C2D;" d="M332.158,171.43v-1.86c0-1.104-0.896-2-2-2s-2,0.896-2,2v1.86v8.031h4V171.43z"/>
		<path style="fill:#2B2C2D;" d="M59.174,323.874c-0.039,0.013-0.076,0.025-0.117,0.036
			C59.098,323.899,59.135,323.887,59.174,323.874z"/>
		<path style="fill:#2B2C2D;" d="M59.638,323.66c-0.026,0.017-0.056,0.029-0.083,0.045C59.582,323.689,59.611,323.678,59.638,323.66
			z"/>
		<path style="fill:#2B2C2D;" d="M60.09,323.253c-0.025,0.03-0.049,0.063-0.076,0.092C60.041,323.316,60.064,323.283,60.09,323.253z
			"/>
		<path style="fill:#2B2C2D;" d="M80.84,279.303l0.721-1.539c0.468-1.001,0.036-2.191-0.966-2.659
			c-1.001-0.468-2.19-0.037-2.657,0.964l-0.188,0.398l-1.51,3.213L57.289,319.98h1.27c1.104,0,2,0.896,2,2
			c0,0.329-0.088,0.635-0.229,0.909c0.013-0.021,0.028-0.036,0.04-0.058l19.736-41.967l0.117-0.248L80.84,279.303z"/>
		<path style="fill:#2B2C2D;" d="M248.139,321.996c0-1.104,0.891-2,1.996-2h1.27l-18.947-40.311l-0.977-2.076l-0.528-1.119
			l-0.191-0.405c-0.472-1-1.663-1.426-2.663-0.955c-0.999,0.472-1.426,1.664-0.954,2.662l1.327,2.823l0.119,0.252l19.734,41.979
			l0.549,1.149h1.27C249.037,323.996,248.139,323.101,248.139,321.996z"/>
		<path style="fill:#2B2C2D;" d="M11.42,322.335c-0.012-0.071-0.017-0.146-0.021-0.221C11.403,322.188,11.406,322.262,11.42,322.335
			z"/>
		<path style="fill:#2B2C2D;" d="M11.525,322.705c-0.023-0.06-0.041-0.123-0.058-0.186
			C11.484,322.582,11.502,322.645,11.525,322.705z"/>
		<path style="fill:#2B2C2D;" d="M11.389,321.943c0-0.074,0.013-0.146,0.021-0.219C11.4,321.798,11.389,321.871,11.389,321.943z"/>
		<path style="fill:#2B2C2D;" d="M11.436,321.544c0.014-0.058,0.034-0.11,0.052-0.165C11.47,321.434,11.448,321.488,11.436,321.544z
			"/>
		<path style="fill:#2B2C2D;" d="M11.938,323.355c-0.046-0.049-0.087-0.103-0.129-0.156
			C11.852,323.253,11.891,323.307,11.938,323.355z"/>
		<path style="fill:#2B2C2D;" d="M13.383,323.98L13.383,323.98c-0.006,0-0.012-0.002-0.02-0.002
			C13.371,323.979,13.377,323.98,13.383,323.98z"/>
		<path style="fill:#2B2C2D;" d="M13.385,319.98h3.151l25.315-53.807l0.855-1.818c0.471-1,0.041-2.191-0.958-2.661
			c-1.002-0.473-2.192-0.042-2.661,0.958l-0.83,1.763l-26.684,56.714c-0.004,0.011-0.006,0.022-0.012,0.033
			C11.877,320.467,12.572,319.98,13.385,319.98z"/>
		<path style="fill:#2B2C2D;" d="M12.967,323.936c-0.032-0.008-0.062-0.021-0.094-0.029
			C12.904,323.914,12.936,323.929,12.967,323.936z"/>
		<path style="fill:#2B2C2D;" d="M12.533,323.79c0.01,0.005,0.021,0.007,0.031,0.011c-0.051-0.022-0.098-0.053-0.145-0.079
			C12.457,323.743,12.492,323.771,12.533,323.79z"/>
		<path style="fill:#2B2C2D;" d="M12.228,323.607c-0.052-0.038-0.101-0.082-0.15-0.125
			C12.127,323.525,12.174,323.569,12.228,323.607z"/>
		<path style="fill:#2B2C2D;" d="M11.701,323.051c-0.035-0.054-0.064-0.112-0.094-0.17
			C11.637,322.938,11.666,322.996,11.701,323.051z"/>
		<path style="fill:#2B2C2D;" d="M296.611,323.51c-0.047,0.041-0.094,0.084-0.145,0.12
			C296.518,323.593,296.564,323.551,296.611,323.51z"/>
		<path style="fill:#2B2C2D;" d="M296.881,323.227c-0.041,0.052-0.08,0.104-0.125,0.151
			C296.801,323.33,296.84,323.278,296.881,323.227z"/>
		<path style="fill:#2B2C2D;" d="M295.311,324.004c0,0,0.012-0.002,0.02-0.002c-0.008,0-0.014,0.002-0.014,0.002H295.311z"/>
		<path style="fill:#2B2C2D;" d="M295.819,323.93c-0.032,0.009-0.062,0.022-0.093,0.029
			C295.758,323.952,295.788,323.938,295.819,323.93z"/>
		<path style="fill:#2B2C2D;" d="M297.084,322.907c-0.029,0.056-0.057,0.112-0.09,0.166
			C297.027,323.02,297.055,322.964,297.084,322.907z"/>
		<path style="fill:#2B2C2D;" d="M297.225,322.544c-0.017,0.062-0.033,0.125-0.057,0.185
			C297.191,322.668,297.207,322.606,297.225,322.544z"/>
		<path style="fill:#2B2C2D;" d="M296.16,323.813c0.039-0.019,0.071-0.045,0.109-0.065c-0.047,0.025-0.092,0.054-0.141,0.076
			C296.139,323.819,296.15,323.818,296.16,323.813z"/>
		<path style="fill:#2B2C2D;" d="M297.283,321.744c0.009,0.074,0.02,0.147,0.021,0.225
			C297.303,321.894,297.293,321.819,297.283,321.744z"/>
		<path style="fill:#2B2C2D;" d="M297.205,321.4c0.018,0.057,0.04,0.11,0.053,0.168C297.245,321.512,297.223,321.457,297.205,321.4z
			"/>
		<path style="fill:#2B2C2D;" d="M297.295,322.135c-0.004,0.076-0.01,0.151-0.021,0.224
			C297.285,322.285,297.291,322.211,297.295,322.135z"/>
		<path style="fill:#2B2C2D;" d="M267.803,261.5c-1.104,0-2,0.899-2,2.004v0.446l1.047,2.223l25.309,53.831h3.15
			c0.812,0,1.508,0.486,1.822,1.183c-0.006-0.011-0.008-0.022-0.012-0.033l-26.676-56.737l-0.779-1.655
			C269.371,262.021,268.648,261.5,267.803,261.5z"/>
		<path style="fill:#2B2C2D;" d="M58.559,319.98h-1.27H16.536h-3.151c-0.812,0-1.508,0.486-1.822,1.182
			c-0.03,0.07-0.053,0.143-0.075,0.217c-0.018,0.055-0.038,0.107-0.052,0.165c-0.014,0.059-0.018,0.12-0.025,0.181
			c-0.009,0.072-0.021,0.145-0.021,0.219c0,0.013-0.004,0.024-0.004,0.037c0,0.046,0.01,0.089,0.014,0.134
			c0.005,0.074,0.01,0.149,0.021,0.221c0.012,0.063,0.031,0.123,0.048,0.185c0.017,0.062,0.034,0.126,0.058,0.186
			c0.023,0.062,0.052,0.118,0.082,0.176c0.029,0.058,0.059,0.116,0.094,0.17c0.033,0.053,0.07,0.1,0.108,0.148
			c0.042,0.054,0.083,0.107,0.129,0.156c0.044,0.046,0.09,0.086,0.139,0.127c0.05,0.043,0.099,0.087,0.15,0.125
			c0.062,0.043,0.126,0.078,0.192,0.114c0.047,0.026,0.094,0.057,0.145,0.079c0.1,0.045,0.202,0.077,0.309,0.105
			c0.031,0.008,0.062,0.021,0.094,0.029c0.128,0.027,0.261,0.041,0.396,0.043c0.008,0,0.014,0.002,0.021,0.002h0.001h45.174
			c0.174,0,0.339-0.029,0.498-0.07c0.041-0.011,0.078-0.023,0.117-0.036c0.135-0.044,0.262-0.1,0.381-0.169
			c0.027-0.016,0.057-0.028,0.083-0.045c0.139-0.09,0.264-0.195,0.376-0.315c0.027-0.028,0.051-0.062,0.076-0.092
			c0.094-0.112,0.173-0.232,0.239-0.363c0.142-0.274,0.229-0.58,0.229-0.909C60.559,320.876,59.663,319.98,58.559,319.98z"/>
		<path style="fill:#2B2C2D;" d="M295.309,320.004h-3.15l-40.754-0.008h-1.27c-1.105,0-1.996,0.896-1.996,2s0.898,2,2.004,2
			l45.166,0.008l0,0h0.001c0,0,0.013-0.002,0.021-0.002c0.135-0.002,0.268-0.016,0.396-0.043c0.031-0.007,0.061-0.021,0.093-0.029
			c0.106-0.028,0.21-0.061,0.31-0.105c0.049-0.022,0.094-0.051,0.141-0.076c0.066-0.037,0.135-0.074,0.197-0.118
			c0.051-0.036,0.098-0.079,0.145-0.12c0.049-0.043,0.1-0.084,0.145-0.132s0.084-0.1,0.125-0.151c0.039-0.05,0.078-0.1,0.113-0.153
			c0.033-0.054,0.061-0.11,0.09-0.166c0.029-0.059,0.061-0.117,0.084-0.179c0.023-0.06,0.04-0.122,0.057-0.185
			c0.018-0.062,0.037-0.122,0.049-0.186c0.012-0.072,0.018-0.147,0.021-0.224c0.004-0.044,0.014-0.086,0.014-0.131
			c0-0.012-0.004-0.023-0.004-0.035c-0.002-0.077-0.013-0.15-0.021-0.225c-0.008-0.059-0.013-0.119-0.025-0.176
			c-0.013-0.058-0.035-0.111-0.053-0.168c-0.022-0.072-0.044-0.145-0.074-0.214C296.816,320.49,296.121,320.004,295.309,320.004z"/>
		<path style="fill:#2B2C2D;" d="M333.348,240.816l-1.631,2.3c-1.66,2.341-16.222,23.133-16.222,32.263
			c0,9.844,8.009,17.853,17.853,17.853s17.854-8.009,17.854-17.853c0-9.13-14.561-29.922-16.221-32.263L333.348,240.816z
			 M333.348,289.231c-7.638,0-13.853-6.214-13.853-13.853c0-5.93,8.872-20.244,13.853-27.591
			c4.982,7.347,13.854,21.661,13.854,27.591C347.201,283.018,340.986,289.231,333.348,289.231z"/>
		<path style="fill:#2B2C2D;" d="M308.684,204.227h-2c-1.104,0-2,0.896-2,2s0.896,2,2,2h2h12.141v-4H308.684z"/>
		<path style="fill:#2B2C2D;" d="M328.158,179.461h-19.475h-2c-1.104,0-2,0.896-2,2s0.896,2,2,2h2h38.521v20.766h-7.709v4h11.709
			v-28.766h-19.046H328.158z"/>
		<path style="fill:#2B2C2D;" d="M320.824,204.227v4v10.952h18.671v-10.952v-4H320.824z M335.495,215.179h-10.671v-6.952h10.671
			V215.179z"/>
	</g>
</g>
</svg>
