<?xml version="1.0" encoding="utf-8"?>
<!-- Generator: Adobe Illustrator 16.0.4, SVG Export Plug-In . SVG Version: 6.00 Build 0)  -->
<!DOCTYPE svg PUBLIC "-//W3C//DTD SVG 1.1//EN" "http://www.w3.org/Graphics/SVG/1.1/DTD/svg11.dtd">
<svg version="1.1" xmlns="http://www.w3.org/2000/svg" xmlns:xlink="http://www.w3.org/1999/xlink" x="0px" y="0px"
	 width="235.318px" height="324.005px" viewBox="0 0 235.318 324.005" style="enable-background:new 0 0 235.318 324.005;"
	 xml:space="preserve">
<symbol  id="New_Symbol_1" viewBox="-2869.69 1635.391 384.073 275">
	<g id="Elements_4_">
		<g>
			<path style="fill:none;stroke:#454647;stroke-width:5;stroke-linecap:round;stroke-miterlimit:10;" d="M-2500.584,1823.523
				v-12.832h-86.4v12.832c0,2.458,0.206,4.871,0.602,7.221c1.426,8.46,5.309,16.086,10.893,22.119
				c6.46,6.979,15.192,11.818,25.021,13.346c2.176,0.339,4.413,0.515,6.686,0.515c2.273,0,4.511-0.176,6.687-0.515
				c18.323-2.849,32.842-17.213,35.912-35.465C-2500.79,1828.395-2500.584,1825.981-2500.584,1823.523z"/>
			<path style="fill:none;stroke:#454647;stroke-width:5;stroke-linecap:round;stroke-miterlimit:10;" d="M-2550.47,1866.209v6.125
				c0,3.691,2.993,6.686,6.686,6.686s6.687-2.994,6.687-6.686v-6.125"/>
			<path style="fill:none;stroke:#454647;stroke-width:5;stroke-linecap:round;stroke-miterlimit:10;" d="M-2734.672,1695.492
				c-1.476,26.48-21.861,47.916-47.869,51.037c-2.149,0.257-4.336,0.39-6.558,0.39s-4.407-0.133-6.557-0.39
				c-16.771-2.011-31.202-11.638-39.739-25.323c-4.7-7.539-7.605-16.309-8.131-25.714"/>
			<path style="fill:none;stroke:#454647;stroke-width:5;stroke-linecap:round;stroke-miterlimit:10;" d="M-2866.756,1637.892
				l7.605,47.321c0.952,5.923,6.063,10.279,12.063,10.279h115.978c5.999,0,11.111-4.356,12.062-10.279l7.605-47.321H-2866.756z"/>
			
				<line style="fill:none;stroke:#454647;stroke-width:5;stroke-linecap:round;stroke-miterlimit:10;" x1="-2770.584" y1="1721.206" x2="-2835.395" y2="1721.206"/>
			
				<line style="fill:none;stroke:#454647;stroke-width:5;stroke-linecap:round;stroke-miterlimit:10;" x1="-2805.041" y1="1670.806" x2="-2861.464" y2="1670.806"/>
			
				<line style="fill:none;stroke:#454647;stroke-width:5;stroke-linecap:round;stroke-miterlimit:10;" x1="-2805.041" y1="1663.092" x2="-2862.703" y2="1663.092"/>
			
				<line style="fill:none;stroke:#454647;stroke-width:5;stroke-linecap:round;stroke-miterlimit:10;" x1="-2805.041" y1="1655.378" x2="-2863.943" y2="1655.378"/>
			<path style="fill:none;stroke:#454647;stroke-width:5;stroke-linecap:round;stroke-miterlimit:10;" d="M-2511.641,1682.717
				c0-2.414-1.958-4.371-4.372-4.371s-4.371,1.957-4.371,4.371s1.957,4.372,4.371,4.372S-2511.641,1685.131-2511.641,1682.717z"/>
			<path style="fill:none;stroke:#454647;stroke-width:5;stroke-linecap:round;stroke-miterlimit:10;" d="M-2511.641,1652.549
				c0-2.414-1.958-4.371-4.372-4.371s-4.371,1.957-4.371,4.371s1.957,4.37,4.371,4.37S-2511.641,1654.963-2511.641,1652.549z"/>
			<path style="fill:none;stroke:#454647;stroke-width:5;stroke-linecap:round;stroke-miterlimit:10;" d="M-2535.041,1663.092
				c0-2.414-1.957-4.372-4.371-4.372s-4.372,1.958-4.372,4.372s1.958,4.371,4.372,4.371S-2535.041,1665.506-2535.041,1663.092z"/>
			<path style="fill:none;stroke:#454647;stroke-width:5;stroke-linecap:round;stroke-miterlimit:10;" d="M-2678.912,1708.092
				c0-2.414-1.958-4.372-4.372-4.372s-4.371,1.958-4.371,4.372s1.957,4.371,4.371,4.371S-2678.912,1710.506-2678.912,1708.092z"/>
			<path style="fill:none;stroke:#454647;stroke-width:5;stroke-linecap:round;stroke-miterlimit:10;" d="M-2678.912,1689.835
				c0-2.414-1.958-4.372-4.372-4.372s-4.371,1.958-4.371,4.372s1.957,4.371,4.371,4.371S-2678.912,1692.249-2678.912,1689.835z"/>
			<path style="fill:none;stroke:#454647;stroke-width:5;stroke-linecap:round;stroke-miterlimit:10;" d="M-2678.912,1671.577
				c0-2.415-1.958-4.371-4.372-4.371s-4.371,1.956-4.371,4.371s1.957,4.372,4.371,4.372S-2678.912,1673.992-2678.912,1671.577z"/>
			<path style="fill:none;stroke:#454647;stroke-width:5;stroke-linecap:round;stroke-miterlimit:10;" d="M-2782.541,1880.696
				v-134.167c-2.149,0.257-4.336,0.39-6.558,0.39s-4.407-0.133-6.557-0.39v134.167c0,2.809,2.273,5.081,5.076,5.081h2.962
				C-2784.815,1885.777-2782.541,1883.505-2782.541,1880.696z"/>
			
				<line style="fill:none;stroke:#454647;stroke-width:5;stroke-linecap:round;stroke-miterlimit:10;" x1="-2804.013" y1="1788.577" x2="-2774.184" y2="1788.577"/>
			<path style="fill:none;stroke:#454647;stroke-width:5;stroke-linecap:round;stroke-miterlimit:10;" d="M-2638.927,1816.606
				v-58.933c-3.847-2.278-7.921-4.314-12.183-6.084c-1.152-0.479-2.319-0.94-3.502-1.379c-3.163-1.177-6.424-2.217-9.771-3.095
				c-8.522-2.248-17.589-3.498-27-3.58c-3.657,0.031-7.262,0.241-10.8,0.617c-5.575,0.586-10.991,1.589-16.2,2.963
				c-3.349,0.878-6.608,1.918-9.772,3.095c-2.221,0.829-4.397,1.724-6.516,2.69c-3.178,1.44-6.238,3.04-9.17,4.772v58.933
				c4.892,2.89,10.137,5.395,15.686,7.462c3.163,1.178,6.423,2.217,9.772,3.096c6.397,1.688,13.099,2.808,20.026,3.302
				c2.299,0.165,4.629,0.258,6.974,0.278c5.985-0.052,11.828-0.576,17.485-1.533c3.24-0.545,6.413-1.229,9.515-2.047
				c3.348-0.879,6.608-1.918,9.771-3.096C-2649.064,1822.001-2643.818,1819.496-2638.927,1816.606z"/>
			<g>
				<g>
					
						<line style="fill:none;stroke:#454647;stroke-width:5;stroke-linecap:round;stroke-miterlimit:10;" x1="-2728.156" y1="1750.211" x2="-2728.156" y2="1824.068"/>
					
						<line style="fill:none;stroke:#454647;stroke-width:5;stroke-linecap:round;stroke-miterlimit:10;" x1="-2718.384" y1="1747.116" x2="-2718.384" y2="1827.164"/>
				</g>
				<g>
					
						<line style="fill:none;stroke:#454647;stroke-width:5;stroke-linecap:round;stroke-miterlimit:10;" x1="-2664.384" y1="1747.116" x2="-2664.384" y2="1827.164"/>
					
						<line style="fill:none;stroke:#454647;stroke-width:5;stroke-linecap:round;stroke-miterlimit:10;" x1="-2654.613" y1="1750.211" x2="-2654.613" y2="1824.068"/>
				</g>
			</g>
			<polyline style="fill:none;stroke:#454647;stroke-width:5;stroke-linecap:round;stroke-miterlimit:10;" points="
				-2664.384,1758.749 -2664.384,1747.116 -2664.384,1637.892 -2702.184,1637.892 -2702.184,1721.206 -2702.184,1744.153 			"/>
			<path style="fill:none;stroke:#454647;stroke-width:5;stroke-linecap:round;stroke-miterlimit:10;" d="M-2586.985,1810.691
				v-172.8h86.4v172.8H-2586.985z"/>
			<path style="fill:none;stroke:#454647;stroke-width:5;stroke-linecap:round;stroke-miterlimit:10;" d="M-2586.985,1684.666
				c5.221,3.276,11.387,5.169,18,5.169c4.758,0,9.283-0.978,13.393-2.746"/>
			<path style="fill:none;stroke:#454647;stroke-width:5;stroke-linecap:round;stroke-miterlimit:10;" d="M-2555.592,1687.089
				c0.447,10.537,9.134,18.946,19.779,18.946c5.045,0,9.652-1.888,13.145-4.994"/>
			<path style="fill:none;stroke:#454647;stroke-width:5;stroke-linecap:round;stroke-miterlimit:10;" d="M-2522.668,1701.041
				c3.369,2.493,7.54,3.965,12.056,3.965c3.646,0,7.071-0.963,10.028-2.645"/>
			
				<line style="fill:none;stroke:#454647;stroke-width:5;stroke-linecap:round;stroke-miterlimit:10;" x1="-2563.327" y1="1766.463" x2="-2576.338" y2="1753.452"/>
			
				<line style="fill:none;stroke:#454647;stroke-width:5;stroke-linecap:round;stroke-miterlimit:10;" x1="-2563.327" y1="1750.042" x2="-2576.338" y2="1737.029"/>
			
				<line style="fill:none;stroke:#454647;stroke-width:5;stroke-linecap:round;stroke-miterlimit:10;" x1="-2563.327" y1="1733.62" x2="-2576.338" y2="1720.608"/>
			
				<line style="fill:none;stroke:#454647;stroke-width:5;stroke-linecap:round;stroke-miterlimit:10;" x1="-2501.186" y1="1830.744" x2="-2586.383" y2="1830.744"/>
			<path style="fill:none;stroke:#454647;stroke-width:5;stroke-linecap:round;stroke-miterlimit:10;" d="M-2673.899,1829.211
				v23.652v45.171c0,5.444-4.413,9.857-9.857,9.857h-41.402h-54.084c-5.444,0-9.857-4.413-9.857-9.857v-12.257"/>
			<polyline style="fill:none;stroke:#454647;stroke-width:5;stroke-linecap:round;stroke-miterlimit:10;" points="
				-2673.899,1852.861 -2622.209,1852.861 -2575.489,1852.861 			"/>
			
				<line style="fill:none;stroke:#454647;stroke-width:5;stroke-linecap:round;stroke-miterlimit:10;" x1="-2622.213" y1="1852.863" x2="-2622.213" y2="1864.178"/>
			<path style="fill:none;stroke:#454647;stroke-width:5;stroke-linecap:round;stroke-miterlimit:10;" d="M-2612.698,1873.691
				c0-5.255-4.26-9.514-9.515-9.514c-5.254,0-9.514,4.259-9.514,9.514c0,5.254,4.26,9.515,9.514,9.515
				C-2616.958,1883.206-2612.698,1878.945-2612.698,1873.691z"/>
			
				<line style="fill:none;stroke:#454647;stroke-width:5;stroke-linecap:round;stroke-miterlimit:10;" x1="-2725.157" y1="1897.312" x2="-2725.157" y2="1907.892"/>
			<path style="fill:none;stroke:#454647;stroke-width:5;stroke-linecap:round;stroke-miterlimit:10;" d="M-2734.672,1887.799
				c0,5.255,4.26,9.514,9.515,9.514s9.515-4.259,9.515-9.514c0-5.256-4.26-9.514-9.515-9.514S-2734.672,1882.543-2734.672,1887.799z
				"/>
			<path style="fill:none;stroke:#454647;stroke-width:5;stroke-linecap:round;stroke-miterlimit:10;" d="M-2734.672,1752.901
				v-15.65c0-8.861,7.184-16.045,16.046-16.045h16.441"/>
			<path style="fill:none;stroke:#454647;stroke-width:5;stroke-linecap:round;stroke-miterlimit:10;" d="M-2782.541,1867.824
				c12.358,1.347,29.551-0.227,36.746-9.617c2.123-2.772,3.378-6.229,3.378-10.487c0-12.687-11.817-9.848-11.817,0
				c0,3.965,3.357,7.771,8.439,10.487c14.806,7.904,44.207,6.47,47.438-27.741"/>
			
				<line style="fill:none;stroke:#454647;stroke-width:5;stroke-linecap:round;stroke-miterlimit:10;" x1="-2709.384" y1="1802.977" x2="-2680.584" y2="1802.977"/>
			
				<line style="fill:none;stroke:#454647;stroke-width:5;stroke-linecap:round;stroke-miterlimit:10;" x1="-2702.184" y1="1788.577" x2="-2687.098" y2="1788.577"/>
			<g>
				<polyline style="fill:none;stroke:#454647;stroke-width:5;stroke-linecap:round;stroke-miterlimit:10;" points="
					-2624.985,1684.691 -2624.985,1670.291 -2624.985,1658.463 -2624.985,1637.892 				"/>
				
					<line style="fill:none;stroke:#454647;stroke-width:5;stroke-linecap:round;stroke-miterlimit:10;" x1="-2630.899" y1="1664.378" x2="-2619.071" y2="1676.206"/>
				
					<line style="fill:none;stroke:#454647;stroke-width:5;stroke-linecap:round;stroke-miterlimit:10;" x1="-2630.899" y1="1652.549" x2="-2619.071" y2="1664.378"/>
				<path style="fill:none;stroke:#454647;stroke-width:5;stroke-linecap:round;stroke-miterlimit:10;" d="M-2586.989,1721.211
					c-6.721,0-14.311,0-17.04,0c-7.651,0-14.521,0-19.151,0c-16.979,0-20.32,24.681-1.8,24.681c11.96,0,19.12-11.591,20.95-24.681
					c2.37-17-4.23-36.52-20.95-36.52c-35.09,0-29.75,46.74-28.9,66.899"/>
			</g>
			
				<line style="fill:none;stroke:#454647;stroke-width:5;stroke-linecap:round;stroke-miterlimit:10;" x1="-2599.451" y1="1810.691" x2="-2488.117" y2="1810.691"/>
		</g>
	</g>
</symbol>
<g id="Background">
	<g id="New_Symbol_8_9_">
		<g id="Elements_106_">
		</g>
	</g>
	<g id="New_Symbol_6_11_">
		<g id="Elements_105_">
		</g>
	</g>
	<g id="New_Symbol_10_">
		<g id="DoneElements_11_">
		</g>
		<g id="Elements_104_">
		</g>
	</g>
</g>
<g id="Elements">
	<g id="New_Symbol_2_">
		<g id="DoneElements_3_">
		</g>
		<g id="Elements_36_">
		</g>
	</g>
	<g id="New_Symbol_3_2_">
		<g id="Elements_35_">
		</g>
	</g>
	<g id="New_Symbol_1_2_">
		<g id="Elements_34_">
		</g>
	</g>
	<g id="New_Symbol_2_2_">
		<g id="Elements_33_">
		</g>
	</g>
	<g id="New_Symbol_5_2_">
		<g id="Elements_32_">
		</g>
	</g>
	<g id="New_Symbol_6_2_">
		<g id="Elements_31_">
		</g>
	</g>
	<g id="New_Symbol_7_2_">
		<g id="Elements_30_">
		</g>
	</g>
	<g id="New_Symbol_8_2_">
		<g id="Elements_29_">
		</g>
	</g>
	<g id="New_Symbol_9_2_">
		<g id="Elements_28_">
		</g>
	</g>
	<g id="New_Symbol_2_8_">
		<g id="Elements_99_">
		</g>
	</g>
	<g id="New_Symbol_9_">
		<g id="DoneElements_10_">
		</g>
		<g id="Elements_95_">
		</g>
	</g>
	<g id="New_Symbol_7_9_">
		<g id="Elements_94_">
		</g>
	</g>
	<g id="New_Symbol_9_10_">
		<g id="Elements_93_">
		</g>
	</g>
	<g id="New_Symbol_1_10_">
		<g id="Elements_100_">
		</g>
	</g>
	<g id="New_Symbol_9_11_">
		<g id="Elements_101_">
		</g>
	</g>
	<g id="New_Symbol_3_10_">
		<g id="Elements_102_">
		</g>
	</g>
	<g id="New_Symbol_5_10_">
		<g id="Elements_103_">
		</g>
	</g>
	<g id="New_Symbol_3_9_">
		<g id="Elements_98_">
		</g>
	</g>
	<g id="New_Symbol_1_9_">
		<g id="Elements_97_">
		</g>
	</g>
	<g id="New_Symbol_8_8_">
		<g id="Elements_96_">
		</g>
	</g>
	<g id="New_Symbol_9_9_">
		<g id="Elements_91_">
		</g>
	</g>
	<g id="New_Symbol_5_9_">
		<g id="Elements_90_">
		</g>
	</g>
	<g id="New_Symbol_6_9_">
		<g id="Elements_89_">
		</g>
	</g>
	<g id="New_Symbol_6_10_">
		<g id="Elements_92_">
		</g>
	</g>
	<g id="Bierkrug_1_">
		<path style="fill:#FFFFFF;" d="M170.644,121.949c-10.562,0-20.243-5.337-25.897-14.276c-0.592-0.934-0.313-2.169,0.62-2.76
			c0.935-0.592,2.169-0.312,2.759,0.621c4.918,7.774,13.337,12.415,22.519,12.415c3.112,0,6.165-0.534,9.075-1.588
			c10.504-3.803,17.562-13.87,17.562-25.051c0-12.501-8.865-23.457-21.076-26.051l-2.023-0.43l0.497-2.007
			c0.919-3.717,1.386-7.551,1.386-11.396C176.064,25.276,154.791,4,128.643,4c-16.434,0-31.465,8.333-40.211,22.29l-0.975,1.555
			l-1.632-0.836C79.65,23.849,73,22.246,66.06,22.246c-23.927,0-43.393,19.466-43.393,43.393c0,1.376,0.069,2.79,0.208,4.205
			l0.189,1.949l-1.945,0.23C11.36,73.18,4,81.471,4,91.311c0,6.129,2.804,11.77,7.693,15.475c3.402,2.583,7.457,3.947,11.729,3.947
			c5.115,0,9.942-1.974,13.592-5.556c0.028-0.027,0.06-0.046,0.089-0.071c0.068-0.06,0.135-0.119,0.211-0.17
			c0.054-0.035,0.111-0.061,0.166-0.09c0.059-0.031,0.115-0.066,0.178-0.092c0.068-0.027,0.137-0.044,0.205-0.063
			c0.057-0.017,0.111-0.037,0.169-0.048c0.09-0.018,0.183-0.023,0.274-0.028c0.037-0.002,0.072-0.011,0.109-0.011h47.826
			c1.104,0,2,0.896,2,2s-0.896,2-2,2H39.174c-4.32,3.945-9.869,6.129-15.751,6.129c-0.12,0-0.24-0.013-0.362-0.015v16.434h83.107
			c1.104,0,2,0.896,2,2s-0.896,2-2,2H23.061v149.662c0,3.849,3.139,6.724,7.113,10.363c5.816,5.329,12.99,11.899,13.664,24.816
			l114.832,0.012c0.676-12.916,7.849-19.487,13.668-24.817c3.975-3.64,7.113-6.515,7.113-10.362l0.006-32.225v-12.757l0.002-0.002
			l0.014-78.878c-0.004-0.056-0.016-0.108-0.016-0.165s0.012-0.11,0.016-0.166l0.004-14.463c-0.006-0.063-0.02-0.126-0.02-0.191
			c0-0.066,0.014-0.128,0.02-0.192l0.004-25.14C176.621,121.508,173.656,121.949,170.644,121.949z M63.413,80.096
			c-4.913,0-8.909-3.997-8.909-8.909s3.996-8.909,8.909-8.909c4.912,0,8.908,3.997,8.908,8.909S68.325,80.096,63.413,80.096z
			 M130.096,29.538c4.912,0,8.907,3.997,8.907,8.909s-3.995,8.908-8.907,8.908s-8.91-3.996-8.91-8.908
			S125.184,29.538,130.096,29.538z M113.077,232.947c4.911,0,8.907,3.996,8.907,8.908s-3.996,8.908-8.907,8.908
			c-4.913,0-8.909-3.996-8.909-8.908S108.164,232.947,113.077,232.947z M86.242,169.768c4.912,0,8.908,3.996,8.908,8.908
			s-3.996,8.908-8.908,8.908s-8.909-3.996-8.909-8.908S81.33,169.768,86.242,169.768z M79.333,208.891
			c4.913,0,8.909,3.997,8.909,8.909s-3.996,8.909-8.909,8.909s-8.907-3.997-8.907-8.909S74.42,208.891,79.333,208.891z
			 M49.428,261.631c0,1.104-0.895,2-2,2c-1.104,0-2-0.896-2-2v-89.863c0-1.104,0.896-2,2-2c1.105,0,2,0.896,2,2V261.631z
			 M134.559,312.579H51.741c-1.104,0-2-0.896-2-2s0.896-2,2-2h82.817c1.104,0,2,0.896,2,2S135.662,312.579,134.559,312.579z
			 M132.559,78.096c0-4.912,3.996-8.909,8.908-8.909s8.908,3.997,8.908,8.909s-3.996,8.908-8.908,8.908
			S132.559,83.008,132.559,78.096z"/>
		<path style="fill:#FCF5CB;" d="M29.895,109.606c1.338-0.473,2.621-1.085,3.826-1.844C32.502,108.426,31.22,109.049,29.895,109.606
			z"/>
		<path style="fill:#FCF5CB;" d="M179.48,120.646c-2.859,0.861-5.824,1.303-8.837,1.303c-10.562,0-20.243-5.337-25.897-14.276
			c-0.592-0.934-0.313-2.169,0.62-2.76c0.237-0.15,0.493-0.243,0.755-0.284c-0.125-0.212-0.246-0.424-0.358-0.641H38.959
			c-0.156,0.211-0.324,0.417-0.512,0.615h47.795c1.104,0,2,0.896,2,2s-0.896,2-2,2H39.174c-4.32,3.945-9.869,6.129-15.751,6.129
			c-0.12,0-0.24-0.013-0.362-0.015v16.434h83.107c1.104,0,2,0.896,2,2s-0.896,2-2,2H23.061v149.662
			c0,3.849,3.139,6.724,7.113,10.363c5.816,5.329,12.99,11.899,13.664,24.816l114.832,0.012
			c0.676-12.916,7.849-19.487,13.668-24.817c3.975-3.64,7.113-6.515,7.113-10.362l0.006-32.225v-12.757l0.002-0.002l0.014-78.878
			c-0.004-0.056-0.016-0.108-0.016-0.165s0.012-0.11,0.016-0.166l0.004-14.463c-0.006-0.063-0.02-0.126-0.02-0.191
			c0-0.066,0.014-0.128,0.02-0.192L179.48,120.646z M113.077,232.947c4.911,0,8.907,3.996,8.907,8.908s-3.996,8.908-8.907,8.908
			c-4.913,0-8.909-3.996-8.909-8.908S108.164,232.947,113.077,232.947z M86.242,169.768c4.912,0,8.908,3.996,8.908,8.908
			s-3.996,8.908-8.908,8.908s-8.909-3.996-8.909-8.908S81.33,169.768,86.242,169.768z M79.333,208.891
			c4.913,0,8.909,3.997,8.909,8.909s-3.996,8.909-8.909,8.909s-8.907-3.997-8.907-8.909S74.42,208.891,79.333,208.891z
			 M49.428,261.631c0,1.104-0.895,2-2,2c-1.104,0-2-0.896-2-2v-89.863c0-1.104,0.896-2,2-2c1.105,0,2,0.896,2,2V261.631z
			 M134.559,312.579H51.741c-1.104,0-2-0.896-2-2s0.896-2,2-2h82.817c1.104,0,2,0.896,2,2S135.662,312.579,134.559,312.579z"/>
		<path style="fill:#FCC24C;" d="M179.479,132.487h-71.432c0.074,0.209,0.121,0.43,0.121,0.664c0,1.104-0.896,2-2,2H23.061v149.662
			c0,3.849,3.139,6.724,7.113,10.363c5.816,5.329,12.99,11.899,13.664,24.816l114.832,0.012
			c0.676-12.916,7.849-19.487,13.668-24.817c3.975-3.64,7.113-6.515,7.113-10.362l0.006-32.225v-12.757l0.002-0.002l0.014-78.878
			c-0.004-0.056-0.016-0.108-0.016-0.165s0.012-0.11,0.016-0.166l0.004-14.463c-0.006-0.063-0.02-0.126-0.02-0.191
			c0-0.066,0.014-0.128,0.02-0.192L179.479,132.487z M113.077,232.947c4.911,0,8.907,3.996,8.907,8.908s-3.996,8.908-8.907,8.908
			c-4.913,0-8.909-3.996-8.909-8.908S108.164,232.947,113.077,232.947z M86.242,169.768c4.912,0,8.908,3.996,8.908,8.908
			s-3.996,8.908-8.908,8.908s-8.909-3.996-8.909-8.908S81.33,169.768,86.242,169.768z M79.333,208.891
			c4.913,0,8.909,3.997,8.909,8.909s-3.996,8.909-8.909,8.909s-8.907-3.997-8.907-8.909S74.42,208.891,79.333,208.891z
			 M49.428,261.631c0,1.104-0.895,2-2,2c-1.104,0-2-0.896-2-2v-89.863c0-1.104,0.896-2,2-2c1.105,0,2,0.896,2,2V261.631z
			 M134.559,312.579H51.741c-1.104,0-2-0.896-2-2s0.896-2,2-2h82.817c1.104,0,2,0.896,2,2S135.662,312.579,134.559,312.579z"/>
		<path style="fill:#FCF5CB;" d="M63.413,66.277c-2.707,0-4.909,2.202-4.909,4.909s2.202,4.909,4.909,4.909
			c2.706,0,4.908-2.202,4.908-4.909S66.119,66.277,63.413,66.277z"/>
		<path style="fill:#FCF5CB;" d="M130.096,43.355c2.707,0,4.907-2.202,4.907-4.908c0-2.707-2.2-4.909-4.907-4.909
			s-4.91,2.202-4.91,4.909C125.186,41.153,127.389,43.355,130.096,43.355z"/>
		<path style="fill:#FCF5CB;" d="M113.077,246.764c2.706,0,4.907-2.202,4.907-4.908s-2.201-4.908-4.907-4.908
			c-2.707,0-4.909,2.202-4.909,4.908S110.37,246.764,113.077,246.764z"/>
		<path style="fill:#FCF5CB;" d="M141.467,73.187c-2.707,0-4.908,2.202-4.908,4.909c0,2.706,2.201,4.908,4.908,4.908
			s4.908-2.202,4.908-4.908C146.375,75.389,144.174,73.187,141.467,73.187z"/>
		<path style="fill:#9BD5C9;" d="M214.299,158.799c3.422,0,6.205,2.783,6.205,6.205v34.609c0,3.118-1.214,6.049-3.418,8.253
			l-33.627,33.632l-0.002,11.103v4.204l45.613-45.615c1.45-1.449,2.248-3.376,2.248-5.426v-50.112c0-4.23-3.441-7.673-7.672-7.673
			h-40.17l-0.002,10.82H214.299z"/>
		<path style="fill:#FCF5CB;" d="M79.333,222.709c2.706,0,4.909-2.202,4.909-4.909s-2.203-4.909-4.909-4.909
			s-4.907,2.202-4.907,4.909S76.627,222.709,79.333,222.709z"/>
		<path style="fill:#FCF5CB;" d="M86.242,183.584c2.707,0,4.908-2.202,4.908-4.908s-2.201-4.908-4.908-4.908
			s-4.909,2.202-4.909,4.908S83.535,183.584,86.242,183.584z"/>
		<path style="fill:#2B2C2D;" d="M181.457,158.799h2.018l0.002-10.82h-2.02c-1.039,0-1.883-0.795-1.98-1.809l-0.004,14.463
			C179.56,159.607,180.409,158.799,181.457,158.799z"/>
		<path style="fill:#2B2C2D;" d="M179.48,120.646l-0.004,25.14c0.098-1.013,0.941-1.808,1.98-1.808h2.02l0.004-24.851
			c-0.781,0.361-1.58,0.698-2.4,0.995C180.551,120.314,180.018,120.485,179.48,120.646z"/>
		<polygon style="fill:#2B2C2D;" points="183.457,241.5 183.457,252.601 183.459,241.498 		"/>
		<path style="fill:#2B2C2D;" d="M183.459,235.84l0.014-73.041h-2.016c-1.048,0-1.898-0.809-1.984-1.835l-0.014,78.878
			L183.459,235.84z"/>
		<path style="fill:#2B2C2D;" d="M21.061,131.151h2v-16.434c-1.355-0.021-2.69-0.159-4-0.405v18.839
			C19.061,132.047,19.957,131.151,21.061,131.151z"/>
		<path style="fill:#2B2C2D;" d="M179.457,252.601l-0.006,32.225c0,3.848-3.139,6.723-7.113,10.362
			c-5.819,5.33-12.992,11.901-13.668,24.817l-114.832-0.012c-0.674-12.917-7.848-19.487-13.664-24.816
			c-3.975-3.64-7.113-6.515-7.113-10.363V135.151h-2c-1.104,0-2-0.896-2-2v151.662c0,5.608,4.086,9.351,8.41,13.312
			c5.82,5.332,12.418,11.376,12.418,23.867v2l122.729,0.012v-2c0-12.491,6.599-18.535,12.421-23.867
			c4.326-3.962,8.412-7.704,8.412-13.312l0.004-22.362l-3.998,3.998V252.601z"/>
		<path style="fill:#2B2C2D;" d="M37.658,104.754c0.066-0.027,0.137-0.043,0.205-0.063C37.795,104.71,37.727,104.727,37.658,104.754
			z"/>
		<path style="fill:#2B2C2D;" d="M38.032,104.643c0.089-0.018,0.182-0.023,0.274-0.028
			C38.215,104.619,38.122,104.625,38.032,104.643z"/>
		<path style="fill:#2B2C2D;" d="M37.314,104.936c0.053-0.034,0.111-0.061,0.166-0.09C37.426,104.875,37.368,104.9,37.314,104.936z"
			/>
		<path style="fill:#2B2C2D;" d="M23.423,114.732c5.882,0,11.431-2.184,15.751-6.129h-0.758c-1.104,0-2-0.896-2-2
			c0-0.6,0.27-1.131,0.688-1.498c-0.029,0.025-0.061,0.044-0.089,0.071c-3.649,3.582-8.477,5.556-13.592,5.556
			c-4.272,0-8.327-1.364-11.729-3.947C6.804,103.08,4,97.439,4,91.311c0-9.84,7.36-18.131,17.119-19.287l1.945-0.23l-0.189-1.949
			c-0.139-1.415-0.208-2.829-0.208-4.205c0-23.927,19.466-43.393,43.393-43.393c6.94,0,13.591,1.603,19.766,4.763l1.632,0.836
			l0.975-1.555C97.178,12.333,112.209,4,128.643,4c26.148,0,47.422,21.276,47.422,47.428c0,3.845-0.467,7.679-1.386,11.396
			l-0.497,2.007l2.023,0.43c12.211,2.594,21.076,13.55,21.076,26.051c0,11.181-7.059,21.248-17.562,25.051
			c-2.91,1.054-5.963,1.588-9.075,1.588c-9.182,0-17.601-4.641-22.519-12.415c-0.59-0.934-1.824-1.213-2.759-0.621
			c-0.934,0.591-1.212,1.826-0.62,2.76c5.654,8.939,15.336,14.276,25.897,14.276c3.013,0,5.978-0.441,8.837-1.303
			c0.537-0.161,1.07-0.332,1.6-0.523c0.82-0.297,1.619-0.634,2.4-0.995c10.744-4.964,17.801-15.831,17.801-27.817
			c0-13.698-9.254-25.783-22.277-29.476c0.703-3.416,1.061-6.908,1.061-10.407C180.064,23.07,156.996,0,128.643,0
			c-17.217,0-33.017,8.435-42.617,22.655c-6.283-2.927-12.99-4.409-19.966-4.409c-26.132,0-47.393,21.26-47.393,47.393
			c0,0.895,0.026,1.803,0.079,2.717C7.936,70.543,0,80.093,0,91.311c0,7.393,3.382,14.194,9.275,18.661
			c2.924,2.22,6.252,3.678,9.785,4.341c1.31,0.246,2.645,0.385,4,0.405C23.183,114.72,23.303,114.732,23.423,114.732z"/>
		<path style="fill:#2B2C2D;" d="M223.646,143.979h-40.17h-2.02c-1.039,0-1.883,0.795-1.98,1.808
			c-0.006,0.064-0.02,0.126-0.02,0.192c0,0.065,0.014,0.128,0.02,0.191c0.098,1.014,0.941,1.809,1.98,1.809h2.02h40.17
			c4.23,0,7.672,3.442,7.672,7.673v50.112c0,2.05-0.798,3.977-2.248,5.426l-45.613,45.615v-4.204V241.5l0.002-0.002l33.627-33.632
			c2.204-2.204,3.418-5.135,3.418-8.253v-34.609c0-3.422-2.783-6.205-6.205-6.205h-30.824h-2.018c-1.048,0-1.897,0.809-1.984,1.834
			c-0.004,0.056-0.016,0.109-0.016,0.166s0.012,0.109,0.016,0.165c0.086,1.026,0.937,1.835,1.984,1.835h2.016h30.826
			c1.216,0,2.205,0.989,2.205,2.205v34.609c0,2.02-0.818,3.997-2.248,5.425l-30.797,30.802l-4,4.002l-0.002,0.002v12.757v13.86
			l3.998-3.998l48.444-48.445c2.204-2.204,3.419-5.136,3.419-8.254v-50.112C235.318,149.215,230.082,143.979,223.646,143.979z"/>
		<path style="fill:#2B2C2D;" d="M21.061,135.151h2h83.107c1.104,0,2-0.896,2-2s-0.896-2-2-2H23.061h-2c-1.104,0-2,0.896-2,2
			S19.957,135.151,21.061,135.151z"/>
		<path style="fill:#2B2C2D;" d="M47.428,169.768c-1.104,0-2,0.896-2,2v89.863c0,1.104,0.896,2,2,2c1.105,0,2-0.896,2-2v-89.863
			C49.428,170.663,48.533,169.768,47.428,169.768z"/>
		<path style="fill:#2B2C2D;" d="M86.242,187.584c4.912,0,8.908-3.996,8.908-8.908s-3.996-8.908-8.908-8.908
			s-8.909,3.996-8.909,8.908S81.33,187.584,86.242,187.584z M86.242,173.768c2.707,0,4.908,2.202,4.908,4.908
			s-2.201,4.908-4.908,4.908s-4.909-2.202-4.909-4.908S83.535,173.768,86.242,173.768z"/>
		<path style="fill:#2B2C2D;" d="M63.413,62.277c-4.913,0-8.909,3.997-8.909,8.909s3.996,8.909,8.909,8.909
			c4.912,0,8.908-3.997,8.908-8.909S68.325,62.277,63.413,62.277z M63.413,76.096c-2.707,0-4.909-2.202-4.909-4.909
			s2.202-4.909,4.909-4.909c2.706,0,4.908,2.202,4.908,4.909S66.119,76.096,63.413,76.096z"/>
		<path style="fill:#2B2C2D;" d="M150.375,78.096c0-4.912-3.996-8.909-8.908-8.909s-8.908,3.997-8.908,8.909
			s3.996,8.908,8.908,8.908S150.375,83.008,150.375,78.096z M141.467,83.004c-2.707,0-4.908-2.202-4.908-4.908
			c0-2.707,2.201-4.909,4.908-4.909s4.908,2.202,4.908,4.909C146.375,80.802,144.174,83.004,141.467,83.004z"/>
		<path style="fill:#2B2C2D;" d="M113.077,250.764c4.911,0,8.907-3.996,8.907-8.908s-3.996-8.908-8.907-8.908
			c-4.913,0-8.909,3.996-8.909,8.908S108.164,250.764,113.077,250.764z M113.077,236.947c2.706,0,4.907,2.202,4.907,4.908
			s-2.201,4.908-4.907,4.908c-2.707,0-4.909-2.202-4.909-4.908S110.37,236.947,113.077,236.947z"/>
		<path style="fill:#2B2C2D;" d="M130.096,47.355c4.912,0,8.907-3.996,8.907-8.908s-3.995-8.909-8.907-8.909s-8.91,3.997-8.91,8.909
			S125.184,47.355,130.096,47.355z M130.096,33.538c2.707,0,4.907,2.202,4.907,4.909c0,2.706-2.2,4.908-4.907,4.908
			s-4.91-2.202-4.91-4.908C125.186,35.74,127.389,33.538,130.096,33.538z"/>
		<path style="fill:#2B2C2D;" d="M79.333,226.709c4.913,0,8.909-3.997,8.909-8.909s-3.996-8.909-8.909-8.909
			s-8.907,3.997-8.907,8.909S74.42,226.709,79.333,226.709z M79.333,212.891c2.706,0,4.909,2.202,4.909,4.909
			s-2.203,4.909-4.909,4.909s-4.907-2.202-4.907-4.909S76.627,212.891,79.333,212.891z"/>
		<path style="fill:#2B2C2D;" d="M134.559,308.579H51.741c-1.104,0-2,0.896-2,2s0.896,2,2,2h82.817c1.104,0,2-0.896,2-2
			S135.662,308.579,134.559,308.579z"/>
		<path style="fill:#2B2C2D;" d="M88.242,106.604c0-1.104-0.896-2-2-2H38.416c-0.037,0-0.072,0.009-0.109,0.011
			c-0.093,0.005-0.186,0.011-0.274,0.028c-0.058,0.011-0.112,0.031-0.169,0.048c-0.068,0.021-0.139,0.036-0.205,0.063
			c-0.062,0.025-0.119,0.061-0.178,0.092c-0.055,0.029-0.113,0.056-0.166,0.09c-0.076,0.051-0.143,0.11-0.211,0.17
			c-0.418,0.367-0.688,0.898-0.688,1.498c0,1.104,0.896,2,2,2h0.758h47.068C87.347,108.604,88.242,107.708,88.242,106.604z"/>
	</g>
</g>
</svg>
