<?xml version="1.0" encoding="utf-8"?>
<!-- Generator: Adobe Illustrator 16.0.4, SVG Export Plug-In . SVG Version: 6.00 Build 0)  -->
<!DOCTYPE svg PUBLIC "-//W3C//DTD SVG 1.1//EN" "http://www.w3.org/Graphics/SVG/1.1/DTD/svg11.dtd">
<svg version="1.1" xmlns="http://www.w3.org/2000/svg" xmlns:xlink="http://www.w3.org/1999/xlink" x="0px" y="0px"
	 width="251.425px" height="361.336px" viewBox="0 0 251.425 361.336" style="enable-background:new 0 0 251.425 361.336;"
	 xml:space="preserve">
<symbol  id="New_Symbol_1" viewBox="-2869.69 1635.391 384.073 275">
	<g id="Elements_4_">
		<g>
			<path style="fill:none;stroke:#454647;stroke-width:5;stroke-linecap:round;stroke-miterlimit:10;" d="M-2500.584,1823.523
				v-12.832h-86.4v12.832c0,2.458,0.206,4.871,0.602,7.221c1.426,8.46,5.309,16.086,10.893,22.119
				c6.46,6.979,15.192,11.818,25.021,13.346c2.176,0.339,4.413,0.515,6.686,0.515c2.273,0,4.511-0.176,6.687-0.515
				c18.323-2.849,32.842-17.213,35.912-35.465C-2500.79,1828.395-2500.584,1825.981-2500.584,1823.523z"/>
			<path style="fill:none;stroke:#454647;stroke-width:5;stroke-linecap:round;stroke-miterlimit:10;" d="M-2550.47,1866.209v6.125
				c0,3.691,2.993,6.686,6.686,6.686s6.687-2.994,6.687-6.686v-6.125"/>
			<path style="fill:none;stroke:#454647;stroke-width:5;stroke-linecap:round;stroke-miterlimit:10;" d="M-2734.672,1695.492
				c-1.476,26.48-21.861,47.916-47.869,51.037c-2.149,0.257-4.336,0.39-6.558,0.39s-4.407-0.133-6.557-0.39
				c-16.771-2.011-31.202-11.638-39.739-25.323c-4.7-7.539-7.605-16.309-8.131-25.714"/>
			<path style="fill:none;stroke:#454647;stroke-width:5;stroke-linecap:round;stroke-miterlimit:10;" d="M-2866.756,1637.892
				l7.605,47.321c0.952,5.923,6.063,10.279,12.063,10.279h115.978c5.999,0,11.111-4.356,12.062-10.279l7.605-47.321H-2866.756z"/>
			
				<line style="fill:none;stroke:#454647;stroke-width:5;stroke-linecap:round;stroke-miterlimit:10;" x1="-2770.584" y1="1721.206" x2="-2835.395" y2="1721.206"/>
			
				<line style="fill:none;stroke:#454647;stroke-width:5;stroke-linecap:round;stroke-miterlimit:10;" x1="-2805.041" y1="1670.806" x2="-2861.464" y2="1670.806"/>
			
				<line style="fill:none;stroke:#454647;stroke-width:5;stroke-linecap:round;stroke-miterlimit:10;" x1="-2805.041" y1="1663.092" x2="-2862.703" y2="1663.092"/>
			
				<line style="fill:none;stroke:#454647;stroke-width:5;stroke-linecap:round;stroke-miterlimit:10;" x1="-2805.041" y1="1655.378" x2="-2863.943" y2="1655.378"/>
			<path style="fill:none;stroke:#454647;stroke-width:5;stroke-linecap:round;stroke-miterlimit:10;" d="M-2511.641,1682.717
				c0-2.414-1.958-4.371-4.372-4.371s-4.371,1.957-4.371,4.371s1.957,4.372,4.371,4.372S-2511.641,1685.131-2511.641,1682.717z"/>
			<path style="fill:none;stroke:#454647;stroke-width:5;stroke-linecap:round;stroke-miterlimit:10;" d="M-2511.641,1652.549
				c0-2.414-1.958-4.371-4.372-4.371s-4.371,1.957-4.371,4.371s1.957,4.37,4.371,4.37S-2511.641,1654.963-2511.641,1652.549z"/>
			<path style="fill:none;stroke:#454647;stroke-width:5;stroke-linecap:round;stroke-miterlimit:10;" d="M-2535.041,1663.092
				c0-2.414-1.957-4.372-4.371-4.372s-4.372,1.958-4.372,4.372s1.958,4.371,4.372,4.371S-2535.041,1665.506-2535.041,1663.092z"/>
			<path style="fill:none;stroke:#454647;stroke-width:5;stroke-linecap:round;stroke-miterlimit:10;" d="M-2678.912,1708.092
				c0-2.414-1.958-4.372-4.372-4.372s-4.371,1.958-4.371,4.372s1.957,4.371,4.371,4.371S-2678.912,1710.506-2678.912,1708.092z"/>
			<path style="fill:none;stroke:#454647;stroke-width:5;stroke-linecap:round;stroke-miterlimit:10;" d="M-2678.912,1689.835
				c0-2.414-1.958-4.372-4.372-4.372s-4.371,1.958-4.371,4.372s1.957,4.371,4.371,4.371S-2678.912,1692.249-2678.912,1689.835z"/>
			<path style="fill:none;stroke:#454647;stroke-width:5;stroke-linecap:round;stroke-miterlimit:10;" d="M-2678.912,1671.577
				c0-2.415-1.958-4.371-4.372-4.371s-4.371,1.956-4.371,4.371s1.957,4.372,4.371,4.372S-2678.912,1673.992-2678.912,1671.577z"/>
			<path style="fill:none;stroke:#454647;stroke-width:5;stroke-linecap:round;stroke-miterlimit:10;" d="M-2782.541,1880.696
				v-134.167c-2.149,0.257-4.336,0.39-6.558,0.39s-4.407-0.133-6.557-0.39v134.167c0,2.809,2.273,5.081,5.076,5.081h2.962
				C-2784.815,1885.777-2782.541,1883.505-2782.541,1880.696z"/>
			
				<line style="fill:none;stroke:#454647;stroke-width:5;stroke-linecap:round;stroke-miterlimit:10;" x1="-2804.013" y1="1788.577" x2="-2774.184" y2="1788.577"/>
			<path style="fill:none;stroke:#454647;stroke-width:5;stroke-linecap:round;stroke-miterlimit:10;" d="M-2638.927,1816.606
				v-58.933c-3.847-2.278-7.921-4.314-12.183-6.084c-1.152-0.479-2.319-0.94-3.502-1.379c-3.163-1.177-6.424-2.217-9.771-3.095
				c-8.522-2.248-17.589-3.498-27-3.58c-3.657,0.031-7.262,0.241-10.8,0.617c-5.575,0.586-10.991,1.589-16.2,2.963
				c-3.349,0.878-6.608,1.918-9.772,3.095c-2.221,0.829-4.397,1.724-6.516,2.69c-3.178,1.44-6.238,3.04-9.17,4.772v58.933
				c4.892,2.89,10.137,5.395,15.686,7.462c3.163,1.178,6.423,2.217,9.772,3.096c6.397,1.688,13.099,2.808,20.026,3.302
				c2.299,0.165,4.629,0.258,6.974,0.278c5.985-0.052,11.828-0.576,17.485-1.533c3.24-0.545,6.413-1.229,9.515-2.047
				c3.348-0.879,6.608-1.918,9.771-3.096C-2649.064,1822.001-2643.818,1819.496-2638.927,1816.606z"/>
			<g>
				<g>
					
						<line style="fill:none;stroke:#454647;stroke-width:5;stroke-linecap:round;stroke-miterlimit:10;" x1="-2728.156" y1="1750.211" x2="-2728.156" y2="1824.068"/>
					
						<line style="fill:none;stroke:#454647;stroke-width:5;stroke-linecap:round;stroke-miterlimit:10;" x1="-2718.384" y1="1747.116" x2="-2718.384" y2="1827.164"/>
				</g>
				<g>
					
						<line style="fill:none;stroke:#454647;stroke-width:5;stroke-linecap:round;stroke-miterlimit:10;" x1="-2664.384" y1="1747.116" x2="-2664.384" y2="1827.164"/>
					
						<line style="fill:none;stroke:#454647;stroke-width:5;stroke-linecap:round;stroke-miterlimit:10;" x1="-2654.613" y1="1750.211" x2="-2654.613" y2="1824.068"/>
				</g>
			</g>
			<polyline style="fill:none;stroke:#454647;stroke-width:5;stroke-linecap:round;stroke-miterlimit:10;" points="
				-2664.384,1758.749 -2664.384,1747.116 -2664.384,1637.892 -2702.184,1637.892 -2702.184,1721.206 -2702.184,1744.153 			"/>
			<path style="fill:none;stroke:#454647;stroke-width:5;stroke-linecap:round;stroke-miterlimit:10;" d="M-2586.985,1810.691
				v-172.8h86.4v172.8H-2586.985z"/>
			<path style="fill:none;stroke:#454647;stroke-width:5;stroke-linecap:round;stroke-miterlimit:10;" d="M-2586.985,1684.666
				c5.221,3.276,11.387,5.169,18,5.169c4.758,0,9.283-0.978,13.393-2.746"/>
			<path style="fill:none;stroke:#454647;stroke-width:5;stroke-linecap:round;stroke-miterlimit:10;" d="M-2555.592,1687.089
				c0.447,10.537,9.134,18.946,19.779,18.946c5.045,0,9.652-1.888,13.145-4.994"/>
			<path style="fill:none;stroke:#454647;stroke-width:5;stroke-linecap:round;stroke-miterlimit:10;" d="M-2522.668,1701.041
				c3.369,2.493,7.54,3.965,12.056,3.965c3.646,0,7.071-0.963,10.028-2.645"/>
			
				<line style="fill:none;stroke:#454647;stroke-width:5;stroke-linecap:round;stroke-miterlimit:10;" x1="-2563.327" y1="1766.463" x2="-2576.338" y2="1753.452"/>
			
				<line style="fill:none;stroke:#454647;stroke-width:5;stroke-linecap:round;stroke-miterlimit:10;" x1="-2563.327" y1="1750.042" x2="-2576.338" y2="1737.029"/>
			
				<line style="fill:none;stroke:#454647;stroke-width:5;stroke-linecap:round;stroke-miterlimit:10;" x1="-2563.327" y1="1733.62" x2="-2576.338" y2="1720.608"/>
			
				<line style="fill:none;stroke:#454647;stroke-width:5;stroke-linecap:round;stroke-miterlimit:10;" x1="-2501.186" y1="1830.744" x2="-2586.383" y2="1830.744"/>
			<path style="fill:none;stroke:#454647;stroke-width:5;stroke-linecap:round;stroke-miterlimit:10;" d="M-2673.899,1829.211
				v23.652v45.171c0,5.444-4.413,9.857-9.857,9.857h-41.402h-54.084c-5.444,0-9.857-4.413-9.857-9.857v-12.257"/>
			<polyline style="fill:none;stroke:#454647;stroke-width:5;stroke-linecap:round;stroke-miterlimit:10;" points="
				-2673.899,1852.861 -2622.209,1852.861 -2575.489,1852.861 			"/>
			
				<line style="fill:none;stroke:#454647;stroke-width:5;stroke-linecap:round;stroke-miterlimit:10;" x1="-2622.213" y1="1852.863" x2="-2622.213" y2="1864.178"/>
			<path style="fill:none;stroke:#454647;stroke-width:5;stroke-linecap:round;stroke-miterlimit:10;" d="M-2612.698,1873.691
				c0-5.255-4.26-9.514-9.515-9.514c-5.254,0-9.514,4.259-9.514,9.514c0,5.254,4.26,9.515,9.514,9.515
				C-2616.958,1883.206-2612.698,1878.945-2612.698,1873.691z"/>
			
				<line style="fill:none;stroke:#454647;stroke-width:5;stroke-linecap:round;stroke-miterlimit:10;" x1="-2725.157" y1="1897.312" x2="-2725.157" y2="1907.892"/>
			<path style="fill:none;stroke:#454647;stroke-width:5;stroke-linecap:round;stroke-miterlimit:10;" d="M-2734.672,1887.799
				c0,5.255,4.26,9.514,9.515,9.514s9.515-4.259,9.515-9.514c0-5.256-4.26-9.514-9.515-9.514S-2734.672,1882.543-2734.672,1887.799z
				"/>
			<path style="fill:none;stroke:#454647;stroke-width:5;stroke-linecap:round;stroke-miterlimit:10;" d="M-2734.672,1752.901
				v-15.65c0-8.861,7.184-16.045,16.046-16.045h16.441"/>
			<path style="fill:none;stroke:#454647;stroke-width:5;stroke-linecap:round;stroke-miterlimit:10;" d="M-2782.541,1867.824
				c12.358,1.347,29.551-0.227,36.746-9.617c2.123-2.772,3.378-6.229,3.378-10.487c0-12.687-11.817-9.848-11.817,0
				c0,3.965,3.357,7.771,8.439,10.487c14.806,7.904,44.207,6.47,47.438-27.741"/>
			
				<line style="fill:none;stroke:#454647;stroke-width:5;stroke-linecap:round;stroke-miterlimit:10;" x1="-2709.384" y1="1802.977" x2="-2680.584" y2="1802.977"/>
			
				<line style="fill:none;stroke:#454647;stroke-width:5;stroke-linecap:round;stroke-miterlimit:10;" x1="-2702.184" y1="1788.577" x2="-2687.098" y2="1788.577"/>
			<g>
				<polyline style="fill:none;stroke:#454647;stroke-width:5;stroke-linecap:round;stroke-miterlimit:10;" points="
					-2624.985,1684.691 -2624.985,1670.291 -2624.985,1658.463 -2624.985,1637.892 				"/>
				
					<line style="fill:none;stroke:#454647;stroke-width:5;stroke-linecap:round;stroke-miterlimit:10;" x1="-2630.899" y1="1664.378" x2="-2619.071" y2="1676.206"/>
				
					<line style="fill:none;stroke:#454647;stroke-width:5;stroke-linecap:round;stroke-miterlimit:10;" x1="-2630.899" y1="1652.549" x2="-2619.071" y2="1664.378"/>
				<path style="fill:none;stroke:#454647;stroke-width:5;stroke-linecap:round;stroke-miterlimit:10;" d="M-2586.989,1721.211
					c-6.721,0-14.311,0-17.04,0c-7.651,0-14.521,0-19.151,0c-16.979,0-20.32,24.681-1.8,24.681c11.96,0,19.12-11.591,20.95-24.681
					c2.37-17-4.23-36.52-20.95-36.52c-35.09,0-29.75,46.74-28.9,66.899"/>
			</g>
			
				<line style="fill:none;stroke:#454647;stroke-width:5;stroke-linecap:round;stroke-miterlimit:10;" x1="-2599.451" y1="1810.691" x2="-2488.117" y2="1810.691"/>
		</g>
	</g>
</symbol>
<g id="Background">
	<g id="New_Symbol_8_9_">
		<g id="Elements_106_">
		</g>
	</g>
	<g id="New_Symbol_6_11_">
		<g id="Elements_105_">
		</g>
	</g>
	<g id="New_Symbol_10_">
		<g id="DoneElements_11_">
		</g>
		<g id="Elements_104_">
		</g>
	</g>
</g>
<g id="Elements">
	<g id="New_Symbol_2_">
		<g id="DoneElements_3_">
		</g>
		<g id="Elements_36_">
		</g>
	</g>
	<g id="New_Symbol_3_2_">
		<g id="Elements_35_">
		</g>
	</g>
	<g id="New_Symbol_1_2_">
		<g id="Elements_34_">
		</g>
	</g>
	<g id="New_Symbol_2_2_">
		<g id="Elements_33_">
		</g>
	</g>
	<g id="New_Symbol_5_2_">
		<g id="Elements_32_">
		</g>
	</g>
	<g id="New_Symbol_6_2_">
		<g id="Elements_31_">
		</g>
	</g>
	<g id="New_Symbol_7_2_">
		<g id="Elements_30_">
		</g>
	</g>
	<g id="New_Symbol_8_2_">
		<g id="Elements_29_">
		</g>
	</g>
	<g id="New_Symbol_9_2_">
		<g id="Elements_28_">
		</g>
	</g>
	<g id="New_Symbol_2_8_">
		<g id="Elements_99_">
		</g>
	</g>
	<g id="New_Symbol_9_">
		<g id="DoneElements_10_">
		</g>
		<g id="Elements_95_">
		</g>
	</g>
	<g id="New_Symbol_7_9_">
		<g id="Elements_94_">
		</g>
	</g>
	<g id="New_Symbol_9_10_">
		<g id="Elements_93_">
		</g>
	</g>
	<g id="New_Symbol_1_10_">
		<g id="Elements_100_">
		</g>
	</g>
	<g id="New_Symbol_9_11_">
		<g id="Elements_101_">
		</g>
	</g>
	<g id="New_Symbol_3_10_">
		<g id="Elements_102_">
		</g>
	</g>
	<g id="New_Symbol_5_10_">
		<g id="Elements_103_">
		</g>
	</g>
	<g id="New_Symbol_3_9_">
		<g id="Elements_98_">
		</g>
	</g>
	<g id="New_Symbol_1_9_">
		<g id="Elements_97_">
		</g>
	</g>
	<g id="New_Symbol_8_8_">
		<g id="Elements_96_">
		</g>
	</g>
	<g id="New_Symbol_9_9_">
		<g id="Elements_91_">
		</g>
	</g>
	<g id="New_Symbol_5_9_">
		<g id="Elements_90_">
		</g>
	</g>
	<g id="New_Symbol_6_9_">
		<g id="Elements_89_">
		</g>
	</g>
	<g id="New_Symbol_6_10_">
		<g id="Elements_92_">
		</g>
	</g>
	<g id="Flasche_2_1_">
		<path style="fill:#FCF5CB;" d="M153.134,227.315c2.234,0,4.055-1.819,4.055-4.056c0-2.235-1.82-4.055-4.055-4.055
			c-2.236,0-4.055,1.819-4.055,4.055C149.079,225.496,150.897,227.315,153.134,227.315z"/>
		<path style="fill:#FCC24C;" d="M122.563,252.819c8.438,22.387,17.16,45.534,17.16,59.306c0,11.483-2.857,19.452-5.154,25.856
			c-2.465,6.874-3.951,11.023-0.816,15.61c3.42,5.002,7.645,4.167,15.441,2.123c4.258-1.116,9.082-2.382,14.514-2.382
			c5.43,0,10.254,1.266,14.512,2.382c7.793,2.044,12.021,2.879,15.439-2.123c3.137-4.588,1.648-8.737-0.816-15.611
			c-2.295-6.403-5.152-14.373-5.152-25.855c0-13.772,8.725-36.923,17.162-59.312c5.051-13.403,9.82-26.062,12.527-36.13
			c3.633-13.514,5.789-28.045,6.453-43.21h-43.031c-6.43,11.208-18.535,18.745-32.168,18.745c-16.773,0-31.412-11.337-35.752-27.306
			c-2.98,1.293-6.213,1.968-9.48,1.968c0,0-0.004,0-0.008,0c0.293,17.91,2.457,34.235,6.643,49.803
			C112.741,226.753,117.513,239.414,122.563,252.819z M196.966,240.853h-8.314c-1.105,0-2-0.896-2-2s0.895-2,2-2h8.314
			c1.104,0,2,0.896,2,2S198.069,240.853,196.966,240.853z M178.776,224.525h18.189c1.104,0,2,0.896,2,2s-0.896,2-2,2h-18.189
			c-1.105,0-2-0.896-2-2S177.671,224.525,178.776,224.525z M167.216,274.919c4.441,0,8.055,3.613,8.055,8.055
			c0,4.442-3.613,8.056-8.055,8.056s-8.055-3.613-8.055-8.056C159.161,278.532,162.774,274.919,167.216,274.919z M153.134,215.205
			c4.441,0,8.055,3.613,8.055,8.055c0,4.442-3.613,8.056-8.055,8.056s-8.055-3.613-8.055-8.056
			C145.079,218.818,148.692,215.205,153.134,215.205z M149.179,250.732c4.441,0,8.057,3.613,8.057,8.056
			c0,4.441-3.615,8.055-8.057,8.055s-8.055-3.613-8.055-8.055C141.124,254.346,144.737,250.732,149.179,250.732z"/>
		<path style="fill:#FCF5CB;" d="M149.179,262.843c2.236,0,4.057-1.819,4.057-4.055c0-2.236-1.82-4.056-4.057-4.056
			s-4.055,1.819-4.055,4.056C145.124,261.023,146.942,262.843,149.179,262.843z"/>
		<path style="fill:#FCF5CB;" d="M66.505,209.113c-0.939,0.675-1.934,1.388-2.965,2.182c-2.697,2.072-4.447,5.268-5.201,9.496
			c-0.17,0.954-1,1.649-1.969,1.649c-0.971,0-1.799-0.695-1.969-1.649c-0.754-4.229-2.502-7.424-5.197-9.496
			c-1.033-0.794-2.027-1.507-2.967-2.181c-1.928-1.384-3.707-2.66-5.17-4.163c-0.703,5.129,0.648,9.935,3.957,13.834
			c1.744,2.059,3.982,3.76,6.148,5.404c1.916,1.457,3.762,2.858,5.197,4.451c1.436-1.593,3.281-2.995,5.197-4.451
			c2.166-1.646,4.404-3.347,6.15-5.404c3.309-3.9,4.658-8.705,3.957-13.835C70.212,206.453,68.433,207.729,66.505,209.113z"/>
		<path style="fill:#FCF5CB;" d="M66.503,238.098c-0.938,0.674-1.932,1.387-2.963,2.18c-2.697,2.072-4.447,5.269-5.201,9.498
			c-0.17,0.954-1,1.649-1.969,1.649c-0.971,0-1.799-0.695-1.969-1.649c-0.754-4.23-2.504-7.427-5.197-9.498
			c-1.031-0.793-2.025-1.505-2.965-2.179c-1.93-1.384-3.709-2.661-5.172-4.164c-0.703,5.129,0.648,9.934,3.957,13.836
			c1.746,2.058,3.984,3.76,6.15,5.405c1.916,1.456,3.76,2.857,5.195,4.448c1.436-1.591,3.279-2.993,5.195-4.448
			c2.166-1.646,4.406-3.348,6.152-5.406c3.309-3.901,4.658-8.707,3.957-13.836C70.212,235.437,68.433,236.714,66.503,238.098z"/>
		<path style="fill:#FCF5CB;" d="M54.952,198.221c0.473,0.467,0.951,0.94,1.418,1.45c0.467-0.508,0.943-0.98,1.414-1.446
			c1.002-0.99,1.947-1.925,2.768-3.164c2.721-4.111,1.189-9.009-4.182-13.583c-5.371,4.573-6.9,9.47-4.18,13.584
			C53.009,196.297,53.954,197.231,54.952,198.221z"/>
		<path style="fill:#B7E0AA;" d="M80.267,148.746H4.22l7.746,128.009h88.906l3.922-64.532c-3.398-14.35-5.168-29.376-5.408-45.687
			C90.026,164.94,82.513,157.871,80.267,148.746z M54.37,177.945v-11.957c0-1.104,0.895-2,2-2c1.104,0,2,0.896,2,2v11.957
			c11.037,8.937,7.043,17.019,5.518,19.323c-1.051,1.584-2.24,2.762-3.289,3.8c-0.955,0.944-1.855,1.836-2.537,2.917
			c-0.367,0.58-1.006,0.932-1.691,0.932h-0.002c-0.686,0-1.324-0.353-1.691-0.934c-0.682-1.082-1.582-1.975-2.537-2.92
			c-1.049-1.037-2.236-2.213-3.285-3.793C47.329,194.963,43.335,186.879,54.37,177.945z M70.769,250.356
			c-2.029,2.393-4.555,4.311-6.783,6.004c-2.484,1.889-4.832,3.673-5.842,5.61c-0.344,0.661-1.029,1.076-1.773,1.076
			c-0.746,0-1.43-0.415-1.775-1.077c-1.008-1.937-3.355-3.721-5.84-5.609c-2.229-1.692-4.754-3.611-6.781-6.003
			c-5.062-5.97-6.408-13.94-3.693-21.868c0.268-0.783,0.99-1.32,1.816-1.352c0.861-0.015,1.588,0.451,1.914,1.21
			c1.111,2.592,3.396,4.231,6.561,6.501c0.973,0.697,2.002,1.436,3.07,2.257c1.979,1.522,3.559,3.467,4.729,5.814
			c1.17-2.348,2.75-4.292,4.732-5.814c1.068-0.821,2.096-1.56,3.068-2.257c3.162-2.27,5.447-3.909,6.561-6.502
			c0.326-0.76,1.096-1.229,1.914-1.209c0.826,0.032,1.547,0.568,1.816,1.352C77.175,236.417,75.829,244.388,70.769,250.356z
			 M70.769,221.373c-2.029,2.391-4.553,4.309-6.779,6.001c-2.488,1.89-4.836,3.675-5.846,5.614
			c-0.344,0.661-1.027,1.076-1.773,1.076s-1.432-0.415-1.775-1.077c-1.008-1.938-3.355-3.724-5.842-5.613
			c-2.229-1.692-4.752-3.61-6.779-6.001c-4.988-5.88-6.359-13.706-3.801-21.521v-16.664c0-1.104,0.895-2,2-2c1.104,0,2,0.896,2,2
			v16.496c1.16,2.404,3.371,4.009,6.396,6.181c0.973,0.698,2.002,1.438,3.072,2.259c1.979,1.522,3.559,3.467,4.729,5.813
			c1.17-2.347,2.75-4.291,4.732-5.813c1.068-0.821,2.098-1.561,3.07-2.259c3.025-2.172,5.234-3.776,6.396-6.182v-16.495
			c0-1.104,0.895-2,2-2c1.104,0,2,0.896,2,2v16.664C77.126,207.667,75.757,215.493,70.769,221.373z"/>
		<path style="fill:#FFFFFF;" d="M226.095,144.174h1.045l0.572,0.864c0.008,0.011,0.014,0.022,0.021,0.033
			c2.002,3.018,5.35,4.818,8.959,4.818c5.918,0,10.732-4.814,10.732-10.731s-4.814-10.731-10.732-10.731
			c-0.332,0-0.652,0.018-0.975,0.048l-2.895,0.271l0.779-2.799c0.553-1.98,0.832-4.004,0.832-6.016
			c0-12.222-9.943-22.165-22.166-22.165c-0.516,0-1.027,0.024-1.539,0.062l-1.887,0.142l-0.246-1.877
			c-2.73-20.97-20.756-36.783-41.928-36.783c-19.799,0-37.189,14.033-41.348,33.368l-0.377,1.755l-1.787-0.187
			c-0.75-0.078-1.539-0.118-2.346-0.118c-13.082,0-23.725,10.643-23.725,23.724c0,1.482,0.143,2.984,0.426,4.463l0.312,1.64
			l-1.559,0.602c-7.592,2.93-12.691,10.364-12.691,18.498c0,10.933,8.893,19.826,19.826,19.826c3.457,0,6.863-0.907,9.854-2.623
			l2.418-1.388l0.539,2.734c3.045,15.422,16.68,26.614,32.422,26.614c17.174,0,31.645-13.401,32.947-30.509l0.158-2.078l1.984,0.233
			c5.545-0.026,10.215-4.344,10.656-9.852l0.148-1.84h31.508c0.01,0,0.02-0.003,0.029-0.003S226.085,144.174,226.095,144.174z"/>
		<path style="fill:#9BD5C9;" d="M79.089,24.877l0.006-16.293c0-2.526-2.057-4.582-4.582-4.582L38.366,4
			c-2.525,0-4.58,2.055-4.58,4.581v16.291c0,3.422,2.783,6.206,6.207,6.206c3.422,0,6.205-2.784,6.205-6.206c0-1.104,0.895-2,2-2
			c1.104,0,2,0.896,2,2c0,3.422,2.783,6.206,6.205,6.206c1.725,0,3.283-0.646,4.455-1.817c1.17-1.171,1.816-2.729,1.816-4.388
			c0-1.104,0.895-2,2-2c1.104,0,2,0.896,2,2c0,3.424,2.783,6.209,6.205,6.209c0.637,0,1.25-0.097,1.83-0.275
			c0-0.001,0.002-0.001,0.004-0.002C77.245,30.021,79.089,27.661,79.089,24.877z"/>
		<path style="fill:#FCC24C;" d="M16.841,357.324l79.135,0.012l1.207-19.857H43.817c-1.105,0-2-0.896-2-2s0.895-2,2-2h53.609
			l0.518-8.545H43.817c-1.105,0-2-0.896-2-2s0.895-2,2-2h54.371l0.52-8.554H43.817c-1.105,0-2-0.896-2-2s0.895-2,2-2H98.95
			l1.68-27.625H12.208L16.841,357.324z"/>
		<path style="fill:#FCC24C;" d="M79.575,143.055c0-9.229,5.463-17.707,13.75-21.589c-0.158-1.204-0.238-2.413-0.238-3.613
			c0-2.379,0.301-4.688,0.867-6.894c-4.559-4.01-10-7.094-15.834-8.928c-0.012-0.003-0.02-0.01-0.029-0.013
			c-0.104-0.034-0.203-0.077-0.299-0.128c-0.021-0.012-0.045-0.022-0.066-0.035c-0.09-0.051-0.174-0.11-0.254-0.175
			c-0.021-0.017-0.043-0.032-0.064-0.05c-0.076-0.066-0.145-0.141-0.209-0.218c-0.018-0.02-0.037-0.038-0.053-0.059
			c-0.062-0.079-0.113-0.164-0.164-0.251c-0.014-0.024-0.029-0.047-0.041-0.07c-0.041-0.08-0.072-0.163-0.102-0.248
			c-0.014-0.039-0.029-0.076-0.041-0.116c-0.02-0.065-0.027-0.133-0.039-0.2c-0.012-0.064-0.025-0.128-0.031-0.193
			c0-0.011-0.004-0.02-0.004-0.03l-1.932-32.938l-36.719-0.005l-1.936,32.938c0,0.007-0.004,0.013-0.004,0.02
			c-0.006,0.094-0.023,0.185-0.043,0.276c-0.008,0.037-0.012,0.075-0.021,0.112c-0.021,0.077-0.053,0.15-0.082,0.225
			c-0.018,0.045-0.033,0.092-0.055,0.135c-0.033,0.066-0.074,0.127-0.113,0.189c-0.027,0.044-0.053,0.089-0.086,0.131
			c-0.043,0.058-0.094,0.11-0.145,0.163c-0.035,0.038-0.07,0.078-0.109,0.113c-0.051,0.047-0.109,0.088-0.166,0.13
			c-0.047,0.034-0.092,0.068-0.143,0.098c-0.055,0.033-0.113,0.062-0.172,0.089c-0.061,0.029-0.121,0.058-0.186,0.08
			c-0.025,0.009-0.047,0.023-0.074,0.031c-7.176,2.244-13.686,6.319-18.826,11.787c-7.857,8.333-12.131,19.519-11.895,30.927h75.623
			C79.603,144.187,79.575,143.624,79.575,143.055z"/>
		<path style="fill:#FFFFFF;" d="M73.226,35.064c-0.115,0.004-0.229,0.018-0.346,0.018c-3.359,0-6.346-1.632-8.207-4.146
			c-1.859,2.511-4.844,4.142-8.201,4.142c-3.402,0-6.404-1.633-8.271-4.146c-1.861,2.514-4.848,4.146-8.207,4.146
			c-0.117,0-0.232-0.014-0.35-0.018l-1.357,28.242l36.295,0.005L73.226,35.064z"/>
		<path style="fill:#FCF5CB;" d="M167.216,287.029c2.234,0,4.055-1.819,4.055-4.056c0-2.235-1.82-4.055-4.055-4.055
			c-2.236,0-4.055,1.819-4.055,4.055C163.161,285.21,164.979,287.029,167.216,287.029z"/>
		<path style="fill:#FCF5CB;" d="M224.069,159.924l-0.004-11.75h-25.965c-1.297,6.137-6.461,10.855-12.707,11.592
			c-0.424,3.402-1.314,6.659-2.602,9.708h41.195C224.087,165.587,224.077,162.365,224.069,159.924z"/>
		<path style="fill:#2B2C2D;" d="M97.687,111.654c-0.395,0.423-0.928,0.637-1.463,0.637c-0.488,0-0.979-0.178-1.363-0.536
			c-0.295-0.273-0.604-0.53-0.906-0.796c-0.566,2.205-0.867,4.515-0.867,6.894c0,1.2,0.08,2.409,0.238,3.613
			c-8.287,3.882-13.75,12.36-13.75,21.589c0,0.569,0.027,1.132,0.066,1.691h2.244c1.104,0,2,0.896,2,2s-0.896,2-2,2h-1.619
			c2.246,9.125,9.76,16.194,19.119,17.79c-0.008-0.584-0.033-1.153-0.037-1.74c-0.01-1.104,0.879-2.007,1.984-2.016
			c1.121,0.008,2.006,0.88,2.016,1.984c0.006,0.714,0.035,1.407,0.045,2.116c0.004,0,0.006,0,0.006,0
			c3.27,0,6.502-0.675,9.482-1.968c4.34,15.969,18.979,27.306,35.752,27.306c13.633,0,25.738-7.537,32.168-18.745h-1.145
			c-1.105,0-2-0.896-2-2s0.895-2,2-2h3.135c1.287-3.049,2.178-6.306,2.602-9.708c6.246-0.736,11.41-5.455,12.707-11.592h25.965
			v-2.003c0-1.095,0.879-1.981,1.971-1.997h-31.508l-0.148,1.84c-0.441,5.508-5.111,9.825-10.656,9.852l-1.984-0.233l-0.158,2.078
			c-1.303,17.107-15.773,30.509-32.947,30.509c-15.742,0-29.377-11.192-32.422-26.614l-0.539-2.734l-2.418,1.388
			c-2.99,1.716-6.396,2.623-9.854,2.623c-10.934,0-19.826-8.894-19.826-19.826c0-8.134,5.1-15.568,12.691-18.498l1.559-0.602
			l-0.312-1.64c-0.283-1.479-0.426-2.98-0.426-4.463c0-13.081,10.643-23.724,23.725-23.724c0.807,0,1.596,0.04,2.346,0.118
			l1.787,0.187l0.377-1.755c4.158-19.335,21.549-33.368,41.348-33.368c21.172,0,39.197,15.813,41.928,36.783l0.246,1.877
			l1.887-0.142c0.512-0.038,1.023-0.062,1.539-0.062c12.223,0,22.166,9.943,22.166,22.165c0,2.012-0.279,4.035-0.832,6.016
			l-0.779,2.799l2.895-0.271c0.322-0.03,0.643-0.048,0.975-0.048c5.918,0,10.732,4.814,10.732,10.731s-4.814,10.731-10.732,10.731
			c-3.609,0-6.957-1.801-8.959-4.818c0.209,0.315,0.332,0.692,0.332,1.1l0.002,4.903c2.477,1.795,5.471,2.815,8.625,2.815
			c8.123,0,14.732-6.608,14.732-14.731c0-7.671-5.895-13.992-13.393-14.671c0.268-1.512,0.402-3.036,0.402-4.556
			c0-14.42-11.727-26.152-26.143-26.165c-3.764-22.051-23.062-38.456-45.623-38.456c-21.09,0-39.682,14.55-44.861,34.836
			c-0.33-0.012-0.662-0.018-0.996-0.018c-11.395,0-21.201,6.91-25.459,16.758c0.764,0.625,1.514,1.269,2.234,1.94
			C98.394,109.58,98.44,110.846,97.687,111.654z"/>
		<path style="fill:#2B2C2D;" d="M226.095,144.174c0.67,0.01,1.262,0.349,1.617,0.864l-0.572-0.864H226.095z"/>
		<path style="fill:#2B2C2D;" d="M223.931,171.404c0.023-0.662,0.041-1.303,0.057-1.931h-41.195h-3.135c-1.105,0-2,0.896-2,2
			s0.895,2,2,2h1.145h43.031C223.862,172.783,223.907,172.098,223.931,171.404z"/>
		<path style="fill:#2B2C2D;" d="M178.776,228.525h18.189c1.104,0,2-0.896,2-2s-0.896-2-2-2h-18.189c-1.105,0-2,0.896-2,2
			S177.671,228.525,178.776,228.525z"/>
		<path style="fill:#2B2C2D;" d="M196.966,236.853h-8.314c-1.105,0-2,0.896-2,2s0.895,2,2,2h8.314c1.104,0,2-0.896,2-2
			S198.069,236.853,196.966,236.853z"/>
		<path style="fill:#2B2C2D;" d="M153.134,231.315c4.441,0,8.055-3.613,8.055-8.056c0-4.441-3.613-8.055-8.055-8.055
			s-8.055,3.613-8.055,8.055C145.079,227.702,148.692,231.315,153.134,231.315z M153.134,219.205c2.234,0,4.055,1.819,4.055,4.055
			c0,2.236-1.82,4.056-4.055,4.056c-2.236,0-4.055-1.819-4.055-4.056C149.079,221.024,150.897,219.205,153.134,219.205z"/>
		<path style="fill:#2B2C2D;" d="M167.216,291.029c4.441,0,8.055-3.613,8.055-8.056c0-4.441-3.613-8.055-8.055-8.055
			s-8.055,3.613-8.055,8.055C159.161,287.416,162.774,291.029,167.216,291.029z M167.216,278.919c2.234,0,4.055,1.819,4.055,4.055
			c0,2.236-1.82,4.056-4.055,4.056c-2.236,0-4.055-1.819-4.055-4.056C163.161,280.738,164.979,278.919,167.216,278.919z"/>
		<path style="fill:#2B2C2D;" d="M149.179,266.843c4.441,0,8.057-3.613,8.057-8.055c0-4.442-3.615-8.056-8.057-8.056
			s-8.055,3.613-8.055,8.056C141.124,263.229,144.737,266.843,149.179,266.843z M149.179,254.732c2.236,0,4.057,1.819,4.057,4.056
			c0,2.235-1.82,4.055-4.057,4.055s-4.055-1.819-4.055-4.055C145.124,256.552,146.942,254.732,149.179,254.732z"/>
		<path style="fill:#2B2C2D;" d="M227.733,145.071c-0.008-0.011-0.014-0.022-0.021-0.033c-0.355-0.516-0.947-0.854-1.617-0.864
			c-0.01,0-0.02-0.003-0.029-0.003s-0.02,0.003-0.029,0.003c-1.092,0.016-1.971,0.902-1.971,1.997v2.003l0.004,11.75
			c0.008,2.441,0.018,5.663-0.082,9.55c-0.016,0.628-0.033,1.269-0.057,1.931c-0.023,0.693-0.068,1.379-0.098,2.069
			c-0.664,15.165-2.82,29.696-6.453,43.21c-2.707,10.067-7.477,22.727-12.527,36.13c-8.438,22.389-17.162,45.539-17.162,59.312
			c0,11.482,2.857,19.452,5.152,25.855c2.465,6.874,3.953,11.023,0.816,15.611c-3.418,5.002-7.646,4.167-15.439,2.123
			c-4.258-1.116-9.082-2.382-14.512-2.382c-5.432,0-10.256,1.266-14.514,2.382c-7.797,2.044-12.021,2.879-15.441-2.123
			c-3.135-4.587-1.648-8.736,0.816-15.61c2.297-6.404,5.154-14.373,5.154-25.856c0-13.771-8.723-36.919-17.16-59.306
			c-5.051-13.405-9.822-26.066-12.527-36.136c-4.186-15.567-6.35-31.893-6.643-49.803c-0.01-0.709-0.039-1.402-0.045-2.116
			c-0.01-1.104-0.895-1.977-2.016-1.984c-1.105,0.009-1.994,0.911-1.984,2.016c0.004,0.587,0.029,1.156,0.037,1.74
			c0.24,16.311,2.01,31.337,5.408,45.687l0.016-0.268c0.055-1.056,0.928-1.899,1.998-1.899c1.104,0,2,0.891,2,1.995l-0.004,0.132
			l-0.73,12.021c2.803,8.938,6.684,19.242,10.748,30.027c8.309,22.051,16.902,44.852,16.902,57.895
			c0,10.788-2.729,18.395-4.92,24.506c-2.592,7.232-4.641,12.945-0.354,19.219c5.172,7.562,12.258,5.701,19.758,3.734
			c4.023-1.055,8.584-2.251,13.5-2.251c4.914,0,9.475,1.196,13.496,2.251c3.363,0.882,6.641,1.742,9.701,1.742
			c3.768,0,7.205-1.305,10.057-5.477c4.289-6.273,2.24-11.986-0.354-19.219c-2.191-6.112-4.918-13.719-4.918-24.506
			c0-13.044,8.594-35.848,16.904-57.901c5.086-13.497,9.891-26.245,12.648-36.501c3.877-14.424,6.127-29.961,6.686-46.183
			c0.162-4.838,0.148-8.764,0.141-11.63l-0.002-8.836l-0.002-4.903C228.065,145.764,227.942,145.387,227.733,145.071z"/>
		<path style="fill:#2B2C2D;" d="M37.753,30.763c0.018,0,0.033,0.001,0.049,0.001c1.086,0.026,1.953,0.91,1.953,1.996v0.007
			l-0.111,2.294c0.117,0.004,0.232,0.018,0.35,0.018c3.359,0,6.346-1.633,8.207-4.146c1.867,2.514,4.869,4.146,8.271,4.146
			c3.357,0,6.342-1.631,8.201-4.142c1.861,2.514,4.848,4.146,8.207,4.146c0.117,0,0.23-0.014,0.346-0.018l-0.109-2.3
			c0-0.965,0.684-1.771,1.594-1.958c-0.58,0.179-1.193,0.275-1.83,0.275c-3.422,0-6.205-2.785-6.205-6.209c0-1.104-0.896-2-2-2
			c-1.105,0-2,0.896-2,2c0,1.658-0.646,3.217-1.816,4.388c-1.172,1.172-2.73,1.817-4.455,1.817c-3.422,0-6.205-2.784-6.205-6.206
			c0-1.104-0.896-2-2-2c-1.105,0-2,0.896-2,2c0,3.422-2.783,6.206-6.205,6.206c-3.424,0-6.207-2.784-6.207-6.206V8.581
			c0-2.526,2.055-4.581,4.58-4.581l36.146,0.002c2.525,0,4.582,2.056,4.582,4.582l-0.006,16.293c0,2.784-1.844,5.145-4.375,5.928
			c0.131-0.026,0.264-0.04,0.402-0.04c1.104,0,2,0.896,2,2v0.006l0.064,1.349c3.482-1.627,5.908-5.152,5.908-9.241l0.006-16.293
			c0-4.732-3.85-8.583-8.582-8.583L38.366,0c-4.732,0-8.58,3.85-8.58,8.581v16.291c0,4.088,2.422,7.612,5.9,9.24l0.07-1.442
			C35.808,31.603,36.69,30.763,37.753,30.763z"/>
		<path style="fill:#2B2C2D;" d="M81.886,148.746c1.104,0,2-0.896,2-2s-0.896-2-2-2h-2.244H4.019
			c0.014,0.581,0.027,1.162,0.062,1.744l0.008,0.11l0.131,2.146h76.047H81.886z"/>
		<path style="fill:#2B2C2D;" d="M8.075,278.755c0,0.025,0.006,0.049,0.008,0.074l-0.006-0.093
			C8.077,278.742,8.075,278.748,8.075,278.755z"/>
		<polygon style="fill:#2B2C2D;" points="12.208,280.755 100.63,280.755 100.872,276.755 11.966,276.755 		"/>
		<path style="fill:#2B2C2D;" d="M35.733,101.328c0.033-0.042,0.059-0.087,0.086-0.131
			C35.792,101.241,35.767,101.286,35.733,101.328z"/>
		<path style="fill:#2B2C2D;" d="M35.589,101.491c-0.035,0.038-0.07,0.078-0.109,0.113
			C35.519,101.569,35.554,101.529,35.589,101.491z"/>
		<path style="fill:#2B2C2D;" d="M35.171,101.832c0.051-0.029,0.096-0.063,0.143-0.098
			C35.267,101.769,35.222,101.803,35.171,101.832z"/>
		<path style="fill:#2B2C2D;" d="M34.813,102.001c0.064-0.022,0.125-0.051,0.186-0.08C34.938,101.95,34.878,101.978,34.813,102.001z
			"/>
		<path style="fill:#2B2C2D;" d="M35.933,101.008c0.021-0.043,0.037-0.09,0.055-0.135C35.97,100.918,35.954,100.965,35.933,101.008z
			"/>
		<path style="fill:#2B2C2D;" d="M36.069,100.648c0.01-0.037,0.014-0.075,0.021-0.112C36.083,100.573,36.079,100.611,36.069,100.648
			z"/>
		<path style="fill:#2B2C2D;" d="M36.052,99.526c0.076,0.244,0.1,0.492,0.082,0.733c0-0.007,0.004-0.013,0.004-0.02l1.936-32.938
			h-1.879c-1.105,0-2-0.896-2-2s0.895-2,2-2h2.092l1.357-28.242l0.111-2.294V32.76c0-1.086-0.867-1.97-1.953-1.996
			c-0.016,0-0.031-0.001-0.049-0.001c-1.062,0-1.945,0.84-1.996,1.907l-0.07,1.442l-1.494,31.066l-1.969,33.496
			c0.441-0.152,0.877-0.321,1.322-0.461C34.599,97.889,35.722,98.472,36.052,99.526z"/>
		<path style="fill:#2B2C2D;" d="M76.839,100.785c0.029,0.085,0.061,0.168,0.102,0.248
			C76.899,100.953,76.868,100.869,76.839,100.785z"/>
		<path style="fill:#2B2C2D;" d="M76.981,101.104c0.051,0.087,0.102,0.172,0.164,0.251C77.083,101.275,77.03,101.19,76.981,101.104z
			"/>
		<path style="fill:#2B2C2D;" d="M76.759,100.469c0.012,0.067,0.02,0.135,0.039,0.2C76.778,100.604,76.771,100.535,76.759,100.469z"
			/>
		<path style="fill:#2B2C2D;" d="M77.407,101.631c-0.076-0.067-0.145-0.141-0.209-0.218
			C77.263,101.49,77.331,101.564,77.407,101.631z"/>
		<path style="fill:#2B2C2D;" d="M77.792,101.891c0.096,0.051,0.195,0.094,0.299,0.128C77.985,101.983,77.888,101.94,77.792,101.891
			z"/>
		<path style="fill:#2B2C2D;" d="M77.472,101.681c0.08,0.064,0.164,0.124,0.254,0.175C77.636,101.805,77.552,101.744,77.472,101.681
			z"/>
		<path style="fill:#2B2C2D;" d="M77.116,32.765c0-1.104-0.896-2-2-2c-0.139,0-0.271,0.014-0.402,0.04
			c-0.002,0.001-0.004,0.001-0.004,0.002c-0.91,0.188-1.594,0.993-1.594,1.958l0.109,2.3l1.355,28.243h2.092c1.104,0,2,0.896,2,2
			s-0.896,2-2,2h-1.881l1.932,32.938c0,0.011,0.004,0.02,0.004,0.03c-0.02-0.247,0.004-0.501,0.084-0.752
			c0.332-1.055,1.459-1.638,2.508-1.309c0.443,0.14,0.879,0.303,1.318,0.455l-1.961-33.465l-1.496-31.086l-0.064-1.349V32.765z"/>
		<path style="fill:#2B2C2D;" d="M76.812,99.523c-0.08,0.251-0.104,0.505-0.084,0.752c0.006,0.065,0.02,0.129,0.031,0.193
			c0.012,0.066,0.02,0.135,0.039,0.2c0.012,0.04,0.027,0.077,0.041,0.116c0.029,0.084,0.061,0.168,0.102,0.248
			c0.012,0.023,0.027,0.046,0.041,0.07c0.049,0.087,0.102,0.172,0.164,0.251c0.016,0.021,0.035,0.039,0.053,0.059
			c0.064,0.077,0.133,0.15,0.209,0.218c0.021,0.018,0.043,0.033,0.064,0.05c0.08,0.063,0.164,0.124,0.254,0.175
			c0.021,0.013,0.045,0.023,0.066,0.035c0.096,0.05,0.193,0.093,0.299,0.128c0.01,0.003,0.018,0.01,0.029,0.013
			c5.834,1.834,11.275,4.918,15.834,8.928c0.303,0.266,0.611,0.522,0.906,0.796c0.385,0.358,0.875,0.536,1.363,0.536
			c0.535,0,1.068-0.214,1.463-0.637c0.754-0.809,0.707-2.074-0.1-2.827c-0.721-0.672-1.471-1.315-2.234-1.94
			c-4.352-3.564-9.373-6.361-14.715-8.217c-0.439-0.152-0.875-0.315-1.318-0.455C78.271,97.886,77.144,98.469,76.812,99.523z"/>
		<path style="fill:#2B2C2D;" d="M8.077,278.736l0.006,0.093l4.992,82.495l86.664,0.012l8.334-137.133l0.73-12.021l0.004-0.132
			c0-1.104-0.896-1.995-2-1.995c-1.07,0-1.943,0.844-1.998,1.899l-0.016,0.268l-3.922,64.532l-0.242,4l-1.68,27.625h1.77
			c1.104,0,2,0.896,2,2s-0.896,2-2,2h-2.012l-0.52,8.554h1.764c1.104,0,2,0.896,2,2s-0.896,2-2,2h-2.008l-0.518,8.545h1.766
			c1.104,0,2,0.896,2,2s-0.896,2-2,2h-2.01l-1.207,19.857l-79.135-0.012l-4.633-76.569l-0.242-4L4.22,148.746l-0.131-2.146
			l-0.008-0.11c-0.035-0.582-0.049-1.163-0.062-1.744c-0.236-11.408,4.037-22.594,11.895-30.927
			c5.141-5.468,11.65-9.543,18.826-11.787c0.027-0.008,0.049-0.022,0.074-0.031c0.064-0.023,0.125-0.051,0.186-0.08
			c0.059-0.027,0.117-0.056,0.172-0.089c0.051-0.029,0.096-0.063,0.143-0.098c0.057-0.042,0.115-0.083,0.166-0.13
			c0.039-0.035,0.074-0.075,0.109-0.113c0.051-0.053,0.102-0.105,0.145-0.163c0.033-0.042,0.059-0.087,0.086-0.131
			c0.039-0.062,0.08-0.123,0.113-0.189c0.021-0.043,0.037-0.09,0.055-0.135c0.029-0.074,0.061-0.147,0.082-0.225
			c0.01-0.037,0.014-0.075,0.021-0.112c0.02-0.092,0.037-0.183,0.043-0.276c0.018-0.241-0.006-0.489-0.082-0.733
			c-0.33-1.055-1.453-1.638-2.506-1.312c-0.445,0.14-0.881,0.309-1.322,0.461c-7.305,2.523-13.934,6.776-19.223,12.402
			c-9.01,9.557-13.717,22.554-12.912,35.681L8.077,278.736z"/>
		<path style="fill:#2B2C2D;" d="M76.673,67.308c1.104,0,2-0.896,2-2s-0.896-2-2-2h-2.092l-36.295-0.005h-2.092
			c-1.105,0-2,0.896-2,2s0.895,2,2,2h1.879l36.719,0.005H76.673z"/>
		<path style="fill:#2B2C2D;" d="M41.817,310.38c0,1.104,0.895,2,2,2h54.891h2.012c1.104,0,2-0.896,2-2s-0.896-2-2-2h-1.77H43.817
			C42.712,308.38,41.817,309.275,41.817,310.38z"/>
		<path style="fill:#2B2C2D;" d="M41.817,322.934c0,1.104,0.895,2,2,2h54.127h2.008c1.104,0,2-0.896,2-2s-0.896-2-2-2h-1.764H43.817
			C42.712,320.934,41.817,321.829,41.817,322.934z"/>
		<path style="fill:#2B2C2D;" d="M41.817,335.479c0,1.104,0.895,2,2,2h53.365h2.01c1.104,0,2-0.896,2-2s-0.896-2-2-2h-1.766H43.817
			C42.712,333.479,41.817,334.374,41.817,335.479z"/>
		<path style="fill:#2B2C2D;" d="M74.569,200.153c0,1.104-0.896,2-2,2c-1.105,0-2-0.896-2-2v-0.471
			c-1.162,2.405-3.371,4.01-6.396,6.182c-0.973,0.698-2.002,1.438-3.07,2.259c-1.982,1.522-3.562,3.467-4.732,5.813
			c-1.17-2.347-2.75-4.291-4.729-5.813c-1.07-0.821-2.1-1.561-3.072-2.259c-3.025-2.172-5.236-3.776-6.396-6.181v0.47
			c0,1.104-0.896,2-2,2c-1.105,0-2-0.896-2-2v-0.302c-2.559,7.815-1.188,15.642,3.801,21.521c2.027,2.391,4.551,4.309,6.779,6.001
			c2.486,1.89,4.834,3.675,5.842,5.613c0.344,0.662,1.029,1.077,1.775,1.077s1.43-0.415,1.773-1.076
			c1.01-1.939,3.357-3.725,5.846-5.614c2.227-1.692,4.75-3.61,6.779-6.001c4.988-5.88,6.357-13.706,3.801-21.521V200.153z
			 M67.718,218.785c-1.746,2.058-3.984,3.759-6.15,5.404c-1.916,1.456-3.762,2.858-5.197,4.451
			c-1.436-1.593-3.281-2.994-5.197-4.451c-2.166-1.645-4.404-3.346-6.148-5.404c-3.309-3.899-4.66-8.705-3.957-13.834
			c1.463,1.503,3.242,2.779,5.17,4.163c0.939,0.674,1.934,1.387,2.967,2.181c2.695,2.072,4.443,5.267,5.197,9.496
			c0.17,0.954,0.998,1.649,1.969,1.649c0.969,0,1.799-0.695,1.969-1.649c0.754-4.229,2.504-7.424,5.201-9.496
			c1.031-0.794,2.025-1.507,2.965-2.182c1.928-1.384,3.707-2.66,5.17-4.163C72.376,210.08,71.026,214.885,67.718,218.785z"/>
		<path style="fill:#2B2C2D;" d="M72.646,227.138c-0.818-0.02-1.588,0.449-1.914,1.209c-1.113,2.593-3.398,4.232-6.561,6.502
			c-0.973,0.697-2,1.436-3.068,2.257c-1.982,1.522-3.562,3.467-4.732,5.814c-1.17-2.348-2.75-4.292-4.729-5.814
			c-1.068-0.821-2.098-1.56-3.07-2.257c-3.164-2.27-5.449-3.909-6.561-6.501c-0.326-0.759-1.053-1.225-1.914-1.21
			c-0.826,0.031-1.549,0.568-1.816,1.352c-2.715,7.928-1.369,15.898,3.693,21.868c2.027,2.392,4.553,4.311,6.781,6.003
			c2.484,1.889,4.832,3.673,5.84,5.609c0.346,0.662,1.029,1.077,1.775,1.077c0.744,0,1.43-0.415,1.773-1.076
			c1.01-1.938,3.357-3.722,5.842-5.61c2.229-1.693,4.754-3.611,6.783-6.004c5.061-5.969,6.406-13.939,3.693-21.867
			C74.192,227.706,73.472,227.17,72.646,227.138z M67.718,247.77c-1.746,2.059-3.986,3.761-6.152,5.406
			c-1.916,1.455-3.76,2.857-5.195,4.448c-1.436-1.591-3.279-2.992-5.195-4.448c-2.166-1.646-4.404-3.348-6.15-5.405
			c-3.309-3.902-4.66-8.707-3.957-13.836c1.463,1.503,3.242,2.78,5.172,4.164c0.939,0.674,1.934,1.386,2.965,2.179
			c2.693,2.071,4.443,5.268,5.197,9.498c0.17,0.954,0.998,1.649,1.969,1.649c0.969,0,1.799-0.695,1.969-1.649
			c0.754-4.229,2.504-7.426,5.201-9.498c1.031-0.793,2.025-1.506,2.963-2.18c1.93-1.384,3.709-2.661,5.172-4.164
			C72.376,239.062,71.026,243.868,67.718,247.77z"/>
		<path style="fill:#2B2C2D;" d="M52.14,201.063c0.955,0.945,1.855,1.838,2.537,2.92c0.367,0.581,1.006,0.934,1.691,0.934h0.002
			c0.686,0,1.324-0.352,1.691-0.932c0.682-1.081,1.582-1.973,2.537-2.917c1.049-1.038,2.238-2.216,3.289-3.8
			c1.525-2.305,5.52-10.387-5.518-19.323v0.965c0,1.104-0.896,2-2,2c-1.105,0-2-0.896-2-2v-0.965
			c-11.035,8.934-7.041,17.018-5.516,19.325C49.903,198.851,51.091,200.026,52.14,201.063z M56.37,181.478
			c5.371,4.574,6.902,9.472,4.182,13.583c-0.82,1.239-1.766,2.174-2.768,3.164c-0.471,0.466-0.947,0.938-1.414,1.446
			c-0.467-0.51-0.945-0.983-1.418-1.45c-0.998-0.989-1.943-1.924-2.762-3.159C49.47,190.947,50.999,186.051,56.37,181.478z"/>
		<path style="fill:#2B2C2D;" d="M56.37,180.91c1.104,0,2-0.896,2-2v-0.965v-11.957c0-1.104-0.896-2-2-2c-1.105,0-2,0.896-2,2
			v11.957v0.965C54.37,180.015,55.265,180.91,56.37,180.91z"/>
		<path style="fill:#2B2C2D;" d="M40.173,202.153c1.104,0,2-0.896,2-2v-0.47v-16.496c0-1.104-0.896-2-2-2c-1.105,0-2,0.896-2,2
			v16.664v0.302C38.173,201.258,39.067,202.153,40.173,202.153z"/>
		<path style="fill:#2B2C2D;" d="M72.569,202.153c1.104,0,2-0.896,2-2v-0.302v-16.664c0-1.104-0.896-2-2-2c-1.105,0-2,0.896-2,2
			v16.495v0.471C70.569,201.258,71.464,202.153,72.569,202.153z"/>
	</g>
</g>
</svg>
