<?xml version="1.0" encoding="utf-8"?>
<!-- Generator: Adobe Illustrator 16.0.4, SVG Export Plug-In . SVG Version: 6.00 Build 0)  -->
<!DOCTYPE svg PUBLIC "-//W3C//DTD SVG 1.1//EN" "http://www.w3.org/Graphics/SVG/1.1/DTD/svg11.dtd">
<svg version="1.1" xmlns="http://www.w3.org/2000/svg" xmlns:xlink="http://www.w3.org/1999/xlink" x="0px" y="0px" width="295.8px"
	 height="324.005px" viewBox="0 0 295.8 324.005" style="enable-background:new 0 0 295.8 324.005;" xml:space="preserve">
<symbol  id="New_Symbol_1" viewBox="-2869.69 1635.391 384.073 275">
	<g id="Elements_4_">
		<g>
			<path style="fill:none;stroke:#454647;stroke-width:5;stroke-linecap:round;stroke-miterlimit:10;" d="M-2500.584,1823.523
				v-12.832h-86.4v12.832c0,2.458,0.206,4.871,0.602,7.221c1.426,8.46,5.309,16.086,10.893,22.119
				c6.46,6.979,15.192,11.818,25.021,13.346c2.176,0.339,4.413,0.515,6.686,0.515c2.273,0,4.511-0.176,6.687-0.515
				c18.323-2.849,32.842-17.213,35.912-35.465C-2500.79,1828.395-2500.584,1825.981-2500.584,1823.523z"/>
			<path style="fill:none;stroke:#454647;stroke-width:5;stroke-linecap:round;stroke-miterlimit:10;" d="M-2550.47,1866.209v6.125
				c0,3.691,2.993,6.686,6.686,6.686s6.687-2.994,6.687-6.686v-6.125"/>
			<path style="fill:none;stroke:#454647;stroke-width:5;stroke-linecap:round;stroke-miterlimit:10;" d="M-2734.672,1695.492
				c-1.476,26.48-21.861,47.916-47.869,51.037c-2.149,0.257-4.336,0.39-6.558,0.39s-4.407-0.133-6.557-0.39
				c-16.771-2.011-31.202-11.638-39.739-25.323c-4.7-7.539-7.605-16.309-8.131-25.714"/>
			<path style="fill:none;stroke:#454647;stroke-width:5;stroke-linecap:round;stroke-miterlimit:10;" d="M-2866.756,1637.892
				l7.605,47.321c0.952,5.923,6.063,10.279,12.063,10.279h115.978c5.999,0,11.111-4.356,12.062-10.279l7.605-47.321H-2866.756z"/>
			
				<line style="fill:none;stroke:#454647;stroke-width:5;stroke-linecap:round;stroke-miterlimit:10;" x1="-2770.584" y1="1721.206" x2="-2835.395" y2="1721.206"/>
			
				<line style="fill:none;stroke:#454647;stroke-width:5;stroke-linecap:round;stroke-miterlimit:10;" x1="-2805.041" y1="1670.806" x2="-2861.464" y2="1670.806"/>
			
				<line style="fill:none;stroke:#454647;stroke-width:5;stroke-linecap:round;stroke-miterlimit:10;" x1="-2805.041" y1="1663.092" x2="-2862.703" y2="1663.092"/>
			
				<line style="fill:none;stroke:#454647;stroke-width:5;stroke-linecap:round;stroke-miterlimit:10;" x1="-2805.041" y1="1655.378" x2="-2863.943" y2="1655.378"/>
			<path style="fill:none;stroke:#454647;stroke-width:5;stroke-linecap:round;stroke-miterlimit:10;" d="M-2511.641,1682.717
				c0-2.414-1.958-4.371-4.372-4.371s-4.371,1.957-4.371,4.371s1.957,4.372,4.371,4.372S-2511.641,1685.131-2511.641,1682.717z"/>
			<path style="fill:none;stroke:#454647;stroke-width:5;stroke-linecap:round;stroke-miterlimit:10;" d="M-2511.641,1652.549
				c0-2.414-1.958-4.371-4.372-4.371s-4.371,1.957-4.371,4.371s1.957,4.37,4.371,4.37S-2511.641,1654.963-2511.641,1652.549z"/>
			<path style="fill:none;stroke:#454647;stroke-width:5;stroke-linecap:round;stroke-miterlimit:10;" d="M-2535.041,1663.092
				c0-2.414-1.957-4.372-4.371-4.372s-4.372,1.958-4.372,4.372s1.958,4.371,4.372,4.371S-2535.041,1665.506-2535.041,1663.092z"/>
			<path style="fill:none;stroke:#454647;stroke-width:5;stroke-linecap:round;stroke-miterlimit:10;" d="M-2678.912,1708.092
				c0-2.414-1.958-4.372-4.372-4.372s-4.371,1.958-4.371,4.372s1.957,4.371,4.371,4.371S-2678.912,1710.506-2678.912,1708.092z"/>
			<path style="fill:none;stroke:#454647;stroke-width:5;stroke-linecap:round;stroke-miterlimit:10;" d="M-2678.912,1689.835
				c0-2.414-1.958-4.372-4.372-4.372s-4.371,1.958-4.371,4.372s1.957,4.371,4.371,4.371S-2678.912,1692.249-2678.912,1689.835z"/>
			<path style="fill:none;stroke:#454647;stroke-width:5;stroke-linecap:round;stroke-miterlimit:10;" d="M-2678.912,1671.577
				c0-2.415-1.958-4.371-4.372-4.371s-4.371,1.956-4.371,4.371s1.957,4.372,4.371,4.372S-2678.912,1673.992-2678.912,1671.577z"/>
			<path style="fill:none;stroke:#454647;stroke-width:5;stroke-linecap:round;stroke-miterlimit:10;" d="M-2782.541,1880.696
				v-134.167c-2.149,0.257-4.336,0.39-6.558,0.39s-4.407-0.133-6.557-0.39v134.167c0,2.809,2.273,5.081,5.076,5.081h2.962
				C-2784.815,1885.777-2782.541,1883.505-2782.541,1880.696z"/>
			
				<line style="fill:none;stroke:#454647;stroke-width:5;stroke-linecap:round;stroke-miterlimit:10;" x1="-2804.013" y1="1788.577" x2="-2774.184" y2="1788.577"/>
			<path style="fill:none;stroke:#454647;stroke-width:5;stroke-linecap:round;stroke-miterlimit:10;" d="M-2638.927,1816.606
				v-58.933c-3.847-2.278-7.921-4.314-12.183-6.084c-1.152-0.479-2.319-0.94-3.502-1.379c-3.163-1.177-6.424-2.217-9.771-3.095
				c-8.522-2.248-17.589-3.498-27-3.58c-3.657,0.031-7.262,0.241-10.8,0.617c-5.575,0.586-10.991,1.589-16.2,2.963
				c-3.349,0.878-6.608,1.918-9.772,3.095c-2.221,0.829-4.397,1.724-6.516,2.69c-3.178,1.44-6.238,3.04-9.17,4.772v58.933
				c4.892,2.89,10.137,5.395,15.686,7.462c3.163,1.178,6.423,2.217,9.772,3.096c6.397,1.688,13.099,2.808,20.026,3.302
				c2.299,0.165,4.629,0.258,6.974,0.278c5.985-0.052,11.828-0.576,17.485-1.533c3.24-0.545,6.413-1.229,9.515-2.047
				c3.348-0.879,6.608-1.918,9.771-3.096C-2649.064,1822.001-2643.818,1819.496-2638.927,1816.606z"/>
			<g>
				<g>
					
						<line style="fill:none;stroke:#454647;stroke-width:5;stroke-linecap:round;stroke-miterlimit:10;" x1="-2728.156" y1="1750.211" x2="-2728.156" y2="1824.068"/>
					
						<line style="fill:none;stroke:#454647;stroke-width:5;stroke-linecap:round;stroke-miterlimit:10;" x1="-2718.384" y1="1747.116" x2="-2718.384" y2="1827.164"/>
				</g>
				<g>
					
						<line style="fill:none;stroke:#454647;stroke-width:5;stroke-linecap:round;stroke-miterlimit:10;" x1="-2664.384" y1="1747.116" x2="-2664.384" y2="1827.164"/>
					
						<line style="fill:none;stroke:#454647;stroke-width:5;stroke-linecap:round;stroke-miterlimit:10;" x1="-2654.613" y1="1750.211" x2="-2654.613" y2="1824.068"/>
				</g>
			</g>
			<polyline style="fill:none;stroke:#454647;stroke-width:5;stroke-linecap:round;stroke-miterlimit:10;" points="
				-2664.384,1758.749 -2664.384,1747.116 -2664.384,1637.892 -2702.184,1637.892 -2702.184,1721.206 -2702.184,1744.153 			"/>
			<path style="fill:none;stroke:#454647;stroke-width:5;stroke-linecap:round;stroke-miterlimit:10;" d="M-2586.985,1810.691
				v-172.8h86.4v172.8H-2586.985z"/>
			<path style="fill:none;stroke:#454647;stroke-width:5;stroke-linecap:round;stroke-miterlimit:10;" d="M-2586.985,1684.666
				c5.221,3.276,11.387,5.169,18,5.169c4.758,0,9.283-0.978,13.393-2.746"/>
			<path style="fill:none;stroke:#454647;stroke-width:5;stroke-linecap:round;stroke-miterlimit:10;" d="M-2555.592,1687.089
				c0.447,10.537,9.134,18.946,19.779,18.946c5.045,0,9.652-1.888,13.145-4.994"/>
			<path style="fill:none;stroke:#454647;stroke-width:5;stroke-linecap:round;stroke-miterlimit:10;" d="M-2522.668,1701.041
				c3.369,2.493,7.54,3.965,12.056,3.965c3.646,0,7.071-0.963,10.028-2.645"/>
			
				<line style="fill:none;stroke:#454647;stroke-width:5;stroke-linecap:round;stroke-miterlimit:10;" x1="-2563.327" y1="1766.463" x2="-2576.338" y2="1753.452"/>
			
				<line style="fill:none;stroke:#454647;stroke-width:5;stroke-linecap:round;stroke-miterlimit:10;" x1="-2563.327" y1="1750.042" x2="-2576.338" y2="1737.029"/>
			
				<line style="fill:none;stroke:#454647;stroke-width:5;stroke-linecap:round;stroke-miterlimit:10;" x1="-2563.327" y1="1733.62" x2="-2576.338" y2="1720.608"/>
			
				<line style="fill:none;stroke:#454647;stroke-width:5;stroke-linecap:round;stroke-miterlimit:10;" x1="-2501.186" y1="1830.744" x2="-2586.383" y2="1830.744"/>
			<path style="fill:none;stroke:#454647;stroke-width:5;stroke-linecap:round;stroke-miterlimit:10;" d="M-2673.899,1829.211
				v23.652v45.171c0,5.444-4.413,9.857-9.857,9.857h-41.402h-54.084c-5.444,0-9.857-4.413-9.857-9.857v-12.257"/>
			<polyline style="fill:none;stroke:#454647;stroke-width:5;stroke-linecap:round;stroke-miterlimit:10;" points="
				-2673.899,1852.861 -2622.209,1852.861 -2575.489,1852.861 			"/>
			
				<line style="fill:none;stroke:#454647;stroke-width:5;stroke-linecap:round;stroke-miterlimit:10;" x1="-2622.213" y1="1852.863" x2="-2622.213" y2="1864.178"/>
			<path style="fill:none;stroke:#454647;stroke-width:5;stroke-linecap:round;stroke-miterlimit:10;" d="M-2612.698,1873.691
				c0-5.255-4.26-9.514-9.515-9.514c-5.254,0-9.514,4.259-9.514,9.514c0,5.254,4.26,9.515,9.514,9.515
				C-2616.958,1883.206-2612.698,1878.945-2612.698,1873.691z"/>
			
				<line style="fill:none;stroke:#454647;stroke-width:5;stroke-linecap:round;stroke-miterlimit:10;" x1="-2725.157" y1="1897.312" x2="-2725.157" y2="1907.892"/>
			<path style="fill:none;stroke:#454647;stroke-width:5;stroke-linecap:round;stroke-miterlimit:10;" d="M-2734.672,1887.799
				c0,5.255,4.26,9.514,9.515,9.514s9.515-4.259,9.515-9.514c0-5.256-4.26-9.514-9.515-9.514S-2734.672,1882.543-2734.672,1887.799z
				"/>
			<path style="fill:none;stroke:#454647;stroke-width:5;stroke-linecap:round;stroke-miterlimit:10;" d="M-2734.672,1752.901
				v-15.65c0-8.861,7.184-16.045,16.046-16.045h16.441"/>
			<path style="fill:none;stroke:#454647;stroke-width:5;stroke-linecap:round;stroke-miterlimit:10;" d="M-2782.541,1867.824
				c12.358,1.347,29.551-0.227,36.746-9.617c2.123-2.772,3.378-6.229,3.378-10.487c0-12.687-11.817-9.848-11.817,0
				c0,3.965,3.357,7.771,8.439,10.487c14.806,7.904,44.207,6.47,47.438-27.741"/>
			
				<line style="fill:none;stroke:#454647;stroke-width:5;stroke-linecap:round;stroke-miterlimit:10;" x1="-2709.384" y1="1802.977" x2="-2680.584" y2="1802.977"/>
			
				<line style="fill:none;stroke:#454647;stroke-width:5;stroke-linecap:round;stroke-miterlimit:10;" x1="-2702.184" y1="1788.577" x2="-2687.098" y2="1788.577"/>
			<g>
				<polyline style="fill:none;stroke:#454647;stroke-width:5;stroke-linecap:round;stroke-miterlimit:10;" points="
					-2624.985,1684.691 -2624.985,1670.291 -2624.985,1658.463 -2624.985,1637.892 				"/>
				
					<line style="fill:none;stroke:#454647;stroke-width:5;stroke-linecap:round;stroke-miterlimit:10;" x1="-2630.899" y1="1664.378" x2="-2619.071" y2="1676.206"/>
				
					<line style="fill:none;stroke:#454647;stroke-width:5;stroke-linecap:round;stroke-miterlimit:10;" x1="-2630.899" y1="1652.549" x2="-2619.071" y2="1664.378"/>
				<path style="fill:none;stroke:#454647;stroke-width:5;stroke-linecap:round;stroke-miterlimit:10;" d="M-2586.989,1721.211
					c-6.721,0-14.311,0-17.04,0c-7.651,0-14.521,0-19.151,0c-16.979,0-20.32,24.681-1.8,24.681c11.96,0,19.12-11.591,20.95-24.681
					c2.37-17-4.23-36.52-20.95-36.52c-35.09,0-29.75,46.74-28.9,66.899"/>
			</g>
			
				<line style="fill:none;stroke:#454647;stroke-width:5;stroke-linecap:round;stroke-miterlimit:10;" x1="-2599.451" y1="1810.691" x2="-2488.117" y2="1810.691"/>
		</g>
	</g>
</symbol>
<g id="Background">
	<g id="New_Symbol_8_9_">
		<g id="Elements_106_">
		</g>
	</g>
	<g id="New_Symbol_6_11_">
		<g id="Elements_105_">
		</g>
	</g>
	<g id="New_Symbol_10_">
		<g id="DoneElements_11_">
		</g>
		<g id="Elements_104_">
		</g>
	</g>
</g>
<g id="Elements">
	<g id="New_Symbol_2_">
		<g id="DoneElements_3_">
		</g>
		<g id="Elements_36_">
		</g>
	</g>
	<g id="New_Symbol_3_2_">
		<g id="Elements_35_">
		</g>
	</g>
	<g id="New_Symbol_1_2_">
		<g id="Elements_34_">
		</g>
	</g>
	<g id="New_Symbol_2_2_">
		<g id="Elements_33_">
		</g>
	</g>
	<g id="New_Symbol_5_2_">
		<g id="Elements_32_">
		</g>
	</g>
	<g id="New_Symbol_6_2_">
		<g id="Elements_31_">
		</g>
	</g>
	<g id="New_Symbol_7_2_">
		<g id="Elements_30_">
		</g>
	</g>
	<g id="New_Symbol_8_2_">
		<g id="Elements_29_">
		</g>
	</g>
	<g id="New_Symbol_9_2_">
		<g id="Elements_28_">
		</g>
	</g>
	<g id="New_Symbol_2_8_">
		<g id="Elements_99_">
		</g>
	</g>
	<g id="New_Symbol_9_">
		<g id="DoneElements_10_">
		</g>
		<g id="Elements_95_">
		</g>
	</g>
	<g id="New_Symbol_7_9_">
		<g id="Elements_94_">
		</g>
	</g>
	<g id="New_Symbol_9_10_">
		<g id="Elements_93_">
		</g>
	</g>
	<g id="New_Symbol_1_10_">
		<g id="Elements_100_">
		</g>
	</g>
	<g id="New_Symbol_9_11_">
		<g id="Elements_101_">
		</g>
	</g>
	<g id="New_Symbol_3_10_">
		<g id="Elements_102_">
		</g>
	</g>
	<g id="New_Symbol_5_10_">
		<g id="Elements_103_">
		</g>
	</g>
	<g id="New_Symbol_3_9_">
		<g id="Elements_98_">
		</g>
	</g>
	<g id="New_Symbol_1_9_">
		<g id="Elements_97_">
		</g>
	</g>
	<g id="New_Symbol_8_8_">
		<g id="Elements_96_">
		</g>
	</g>
	<g id="New_Symbol_9_9_">
		<g id="Elements_91_">
		</g>
	</g>
	<g id="New_Symbol_5_9_">
		<g id="Elements_90_">
		</g>
	</g>
	<g id="New_Symbol_6_9_">
		<g id="Elements_89_">
		</g>
	</g>
	<g id="New_Symbol_6_10_">
		<g id="Elements_92_">
		</g>
	</g>
	<g id="Glaeser_1_">
		<path style="fill:#FCF5CB;" d="M73.816,67.982L6.675,67.971C4.542,80.729,3.568,90.42,4.16,104.187h80.027
			c-0.358-8.528-0.13-15.82,0.69-23.521C78.715,79.663,73.976,74.388,73.816,67.982z"/>
		<path style="fill:#FCF5CB;" d="M228.435,197.826c3.497,0,6.342-2.845,6.342-6.342s-2.845-6.342-6.342-6.342
			c-3.498,0-6.342,2.845-6.342,6.342S224.937,197.826,228.435,197.826z"/>
		<path style="fill:#FCF5CB;" d="M238.297,162.354c4.173,0,7.565-3.394,7.565-7.565c0-4.173-3.393-7.567-7.565-7.567
			c-4.172,0-7.566,3.395-7.566,7.567C230.73,158.96,234.125,162.354,238.297,162.354z"/>
		<path style="fill:#FFFFFF;" d="M80.316,61.104l-0.94,1.391c-0.772,1.142-1.272,2.428-1.476,3.778c0,0.011,0,0.021-0.002,0.032
			c-0.064,0.441-0.099,0.891-0.099,1.344c0,5.076,4.129,9.205,9.203,9.205c0.988,0,1.979-0.166,2.946-0.492l1.783-0.603l0.708,1.742
			c4.618,11.333,15.503,18.655,27.734,18.655c12.246,0,23.136-7.336,27.743-18.688l1.137-2.801l2.133,2.141
			c6.019,6.041,14.027,9.367,22.552,9.367c9.956,0,19.154-4.535,25.239-12.443l1.249-1.625l1.594,1.291
			c2.069,1.676,4.569,2.562,7.229,2.562c6.338,0,11.494-5.156,11.494-11.495c0-6.338-5.156-11.494-11.494-11.494
			c-0.429,0-0.884,0.03-1.393,0.094l-2.039,0.252l-0.196-2.047c-1.57-16.396-15.19-28.759-31.683-28.759
			c-5.89,0-11.642,1.622-16.636,4.69l-2.274,1.397l-0.703-2.576C150.595,13.056,138.733,4,125.285,4
			c-16.487,0-29.899,13.413-29.899,29.9l0.004,0.19v2.633l-2.536-0.706c-1.283-0.357-2.575-0.538-3.838-0.538
			c-7.858,0-14.249,6.393-14.249,14.251c0,3.869,1.543,7.494,4.344,10.205L80.316,61.104z"/>
		<path style="fill:#F0796F;" d="M210.778,116.555c-0.276,3.104-0.696,6.277-1.219,9.491c-0.01,0.14-0.033,0.274-0.07,0.405
			c-3.337,20.196-11.024,42.056-17.466,60.237l0.433,1.223c8.229,23.274,16.001,45.259,16.001,61.416
			c0,19.596-3.778,32.947-6.813,43.676c-1.967,6.955-3.522,12.448-3.522,17.704c0,2.708,0.676,4.686,2.066,6.045
			c3.657,3.575,12.577,3.374,22.91,3.14c2.832-0.063,5.759-0.13,8.808-0.13c3.053,0,5.981,0.066,8.814,0.13
			c10.335,0.235,19.26,0.435,22.916-3.14c1.392-1.359,2.066-3.337,2.066-6.045c0-5.255-1.554-10.747-3.521-17.699
			c-3.037-10.726-6.814-24.072-6.814-43.669c0.007-16.19,7.804-38.219,16.059-61.539c7.348-20.763,14.948-42.232,18.204-62.212
			c0.524-3.208,0.927-6.366,1.196-9.387c0.073-0.826,0.136-1.612,0.199-2.409h-80.014
			C210.939,114.696,210.86,115.615,210.778,116.555z M238.297,143.221c6.378,0,11.565,5.189,11.565,11.567
			c0,6.377-5.188,11.565-11.565,11.565s-11.566-5.188-11.566-11.565C226.73,148.41,231.919,143.221,238.297,143.221z
			 M228.435,181.143c5.703,0,10.342,4.64,10.342,10.342s-4.639,10.342-10.342,10.342c-5.702,0-10.342-4.64-10.342-10.342
			S222.732,181.143,228.435,181.143z"/>
		<path style="fill:#FCF5CB;" d="M210.828,79.849c1.087,9.772,1.24,18.558,0.478,29.943h80.02c1.141-16.891,0.209-27.39-2.191-41.81
			l-65.005-0.012C222.664,74.266,217.364,79.098,210.828,79.849z"/>
		<path style="fill:#FFFFFF;" d="M172.255,127.909H123.54c-1.104,0-2-0.896-2-2s0.896-2,2-2h48.715h33.59
			c0.396-2.607,0.725-5.185,0.949-7.709c1.311-14.793,1.318-24.863,0-36.411c-2.071-0.308-4.068-1.03-5.854-2.128
			c-6.827,7.977-16.636,12.514-27.2,12.514c-8.64,0-16.81-3.036-23.296-8.604c-5.753,11.379-17.345,18.586-30.269,18.586
			c-13.276,0-25.153-7.61-30.732-19.534c-0.18,0.034-0.361,0.051-0.542,0.077c-1.204,11.025-1.168,21.153,0.103,35.489
			c1.997,22.446,11.287,48.721,18.752,69.832l0.67,1.891c8.228,23.274,16,45.259,16,61.416c0,19.596-3.778,32.947-6.813,43.676
			c-1.969,6.955-3.522,12.448-3.522,17.704c0,2.708,0.676,4.686,2.067,6.045c3.655,3.575,12.576,3.374,22.909,3.14
			c2.83-0.063,5.759-0.13,8.809-0.13c3.053,0,5.981,0.066,8.813,0.13c10.335,0.234,19.262,0.435,22.917-3.14
			c1.392-1.36,2.066-3.337,2.066-6.045c0-5.255-1.554-10.747-3.521-17.699c-3.037-10.726-6.814-24.072-6.814-43.669
			c0.012-16.141,7.763-38.077,15.969-61.301l0.713-2.017c6.207-17.525,13.662-38.603,17.162-58.112h-32.912H172.255z
			 M117.854,162.387c-0.512,0-1.023-0.195-1.414-0.586c-0.781-0.781-0.781-2.047,0-2.828l15.164-15.166
			c0.781-0.781,2.048-0.781,2.829,0s0.781,2.047,0,2.828l-15.165,15.166C118.878,162.191,118.366,162.387,117.854,162.387z
			 M153.524,184.557l-8.008,8.01c-0.391,0.391-0.902,0.586-1.414,0.586s-1.023-0.195-1.414-0.586c-0.781-0.781-0.781-2.047,0-2.828
			l8.008-8.01c0.781-0.781,2.048-0.781,2.828,0C154.307,182.51,154.307,183.775,153.524,184.557z M158.599,153.235l-34.558,34.556
			c-0.392,0.391-0.902,0.586-1.415,0.586c-0.511,0-1.022-0.195-1.413-0.586c-0.781-0.781-0.781-2.047,0-2.828l34.558-34.556
			c0.78-0.781,2.047-0.781,2.828,0S159.38,152.454,158.599,153.235z"/>
		<path style="fill:#FCF5CB;" d="M123.54,127.909c-1.104,0-2-0.896-2-2c0-0.335,0.09-0.646,0.235-0.923H90.112
			c3.241,20.297,11.135,42.627,17.643,61.034l0.67,1.891c8.228,23.274,16,45.259,16,61.416c0,19.596-3.778,32.947-6.813,43.676
			c-1.969,6.955-3.522,12.448-3.522,17.704c0,2.708,0.676,4.686,2.067,6.045c3.655,3.575,12.576,3.374,22.909,3.14
			c2.83-0.063,5.759-0.13,8.809-0.13c3.053,0,5.981,0.066,8.813,0.13c10.335,0.234,19.262,0.435,22.917-3.14
			c1.392-1.36,2.066-3.337,2.066-6.045c0-5.255-1.554-10.747-3.521-17.699c-3.037-10.726-6.814-24.072-6.814-43.669
			c0.012-16.141,7.763-38.077,15.969-61.301l0.713-2.017c6.207-17.525,13.662-38.603,17.162-58.112H123.54z M117.854,162.387
			c-0.512,0-1.023-0.195-1.414-0.586c-0.781-0.781-0.781-2.047,0-2.828l15.164-15.166c0.781-0.781,2.048-0.781,2.829,0
			s0.781,2.047,0,2.828l-15.165,15.166C118.878,162.191,118.366,162.387,117.854,162.387z M153.524,184.557l-8.008,8.01
			c-0.391,0.391-0.902,0.586-1.414,0.586s-1.023-0.195-1.414-0.586c-0.781-0.781-0.781-2.047,0-2.828l8.008-8.01
			c0.781-0.781,2.048-0.781,2.828,0C154.307,182.51,154.307,183.775,153.524,184.557z M158.599,153.235l-34.558,34.556
			c-0.392,0.391-0.902,0.586-1.415,0.586c-0.511,0-1.022-0.195-1.413-0.586c-0.781-0.781-0.781-2.047,0-2.828l34.558-34.556
			c0.78-0.781,2.047-0.781,2.828,0S159.38,152.454,158.599,153.235z"/>
		<path style="fill:#FCC24C;" d="M4.972,116.188c0.235,2.667,0.578,5.439,1.013,8.259l0.194,1.142
			c1.726,10.623,4.684,21.666,8.175,32.798h46.308c1.104,0,2,0.896,2,2s-0.896,2-2,2H15.626c2.752,8.5,5.765,17.029,8.741,25.443
			c8.241,23.306,16.026,45.319,16.026,61.497c0,19.596-3.778,32.947-6.814,43.676c-1.969,6.955-3.521,12.448-3.521,17.704
			c0,2.708,0.677,4.686,2.067,6.045c3.656,3.575,12.576,3.374,22.91,3.14c2.83-0.063,5.758-0.13,8.808-0.13
			c3.052,0,5.981,0.066,8.813,0.13c10.336,0.235,19.261,0.435,22.916-3.14c1.39-1.359,2.067-3.337,2.067-6.045
			c0-5.255-1.554-10.747-3.522-17.699c-3.035-10.726-6.813-24.072-6.813-43.669c0.012-16.143,7.765-38.083,15.972-61.312l0.474-1.34
			c-6.429-18.184-14.102-40.042-17.438-60.226c-0.041-0.142-0.066-0.287-0.075-0.438c-0.521-3.21-0.941-6.38-1.217-9.48
			c-0.26-2.945-0.469-5.715-0.628-8.356H4.367C4.521,110.704,4.72,113.351,4.972,116.188z M67.796,206.629H52.028
			c-1.104,0-2-0.896-2-2s0.896-2,2-2h15.768c1.104,0,2,0.896,2,2S68.9,206.629,67.796,206.629z M80.199,180.619c0,1.104-0.896,2-2,2
			H43.392c-1.104,0-2-0.896-2-2s0.896-2,2-2h34.808C79.304,178.619,80.199,179.515,80.199,180.619z"/>
		<path style="fill:#2B2C2D;" d="M103.984,187.354c-0.077-0.219-0.159-0.446-0.235-0.666l-0.474,1.34
			c-8.207,23.229-15.96,45.169-15.972,61.312c0,19.597,3.778,32.943,6.813,43.669c1.969,6.952,3.522,12.444,3.522,17.699
			c0,2.708-0.678,4.686-2.067,6.045c-3.655,3.574-12.58,3.375-22.916,3.14c-2.832-0.063-5.762-0.13-8.813-0.13
			c-3.05,0-5.978,0.066-8.808,0.13c-10.334,0.234-19.254,0.436-22.91-3.14c-1.391-1.359-2.067-3.337-2.067-6.045
			c0-5.256,1.553-10.749,3.521-17.704c3.036-10.729,6.814-24.08,6.814-43.676c0-16.178-7.785-38.191-16.026-61.497
			c-2.977-8.414-5.989-16.943-8.741-25.443h-2.742c-1.105,0-2-0.896-2-2s0.895-2,2-2h1.47c-3.491-11.132-6.449-22.175-8.175-32.798
			l-0.194-1.142c-0.435-2.819-0.777-5.592-1.013-8.259c-0.252-2.838-0.45-5.484-0.604-8.002h-2.12c-1.068,0-1.932-0.839-1.988-1.892
			c0.162,3.186,0.401,6.573,0.729,10.246c0.275,3.123,0.691,6.383,1.232,9.691l0.285,1.677h0.006
			c3.445,19.857,10.884,40.894,18.084,61.255c8.125,22.973,15.799,44.672,15.799,60.163c0,19.04-3.694,32.096-6.664,42.587
			c-1.969,6.966-3.672,12.982-3.672,18.793c0,3.787,1.1,6.783,3.27,8.905c4.86,4.752,14.098,4.543,25.798,4.278
			c2.809-0.063,5.713-0.129,8.718-0.129c3.007,0,5.913,0.065,8.724,0.129c2.586,0.059,5.051,0.114,7.377,0.114
			c8.194,0,14.641-0.691,18.426-4.393c2.169-2.122,3.271-5.118,3.271-8.905c0-5.811-1.703-11.825-3.672-18.789
			c-2.97-10.486-6.664-23.538-6.664-42.578c0.011-14.703,6.929-34.994,14.566-56.647c-0.402-1.146-0.811-2.294-1.218-3.448
			L103.984,187.354z"/>
		<path style="fill:#2B2C2D;" d="M77.898,66.305c0.002-0.011,0.002-0.021,0.002-0.032C77.9,66.283,77.9,66.294,77.898,66.305z"/>
		<path style="fill:#2B2C2D;" d="M2.247,104.187H4.16C3.568,90.42,4.542,80.729,6.675,67.971l67.142,0.012
			c-0.005-0.112-0.017-0.222-0.017-0.334c0-1.255,0.195-2.482,0.538-3.666L3.296,63.971l-0.283,1.663
			C0.591,79.796-0.542,90.454,0.25,106.15C0.271,105.062,1.154,104.187,2.247,104.187z"/>
		<path style="fill:#2B2C2D;" d="M2.247,108.187h2.12h80.023c-0.083-1.368-0.149-2.696-0.203-4H4.16H2.247
			c-1.093,0-1.977,0.876-1.997,1.964c0,0.012-0.003,0.023-0.003,0.036c0,0.037,0.009,0.071,0.012,0.108
			C0.315,107.348,1.179,108.187,2.247,108.187z"/>
		<path style="fill:#2B2C2D;" d="M206.794,116.2c-0.225,2.524-0.554,5.102-0.949,7.709h1.729c1.105,0,2,0.896,2,2
			c0,0.047-0.011,0.091-0.014,0.137c0.522-3.214,0.942-6.387,1.219-9.491c0.082-0.939,0.161-1.858,0.232-2.763h-1.854
			c-1.104,0-2-0.896-2-2s0.896-2,2-2h2.148c0.763-11.386,0.609-20.171-0.478-29.943c-0.584,0.067-1.176,0.11-1.778,0.11
			c-0.757,0-1.512-0.061-2.256-0.17C208.112,91.337,208.104,101.407,206.794,116.2z"/>
		<path style="fill:#2B2C2D;" d="M188.017,187.354c-0.368-1.041,0.178-2.184,1.22-2.552c1.043-0.369,2.183,0.178,2.552,1.22
			l0.235,0.667c6.441-18.182,14.129-40.041,17.466-60.237c-0.238,0.839-1.001,1.458-1.916,1.458h-2.395
			c-3.5,19.51-10.955,40.587-17.162,58.112l-0.713,2.017c-8.206,23.224-15.957,45.16-15.969,61.301
			c0,19.597,3.777,32.943,6.814,43.669c1.968,6.952,3.521,12.444,3.521,17.699c0,2.708-0.675,4.685-2.066,6.045
			c-3.655,3.574-12.582,3.374-22.917,3.14c-2.832-0.063-5.761-0.13-8.813-0.13c-3.05,0-5.979,0.066-8.809,0.13
			c-10.333,0.234-19.254,0.436-22.909-3.14c-1.392-1.359-2.067-3.337-2.067-6.045c0-5.256,1.554-10.749,3.522-17.704
			c3.035-10.729,6.813-24.08,6.813-43.676c0-16.157-7.772-38.142-16-61.416l-0.67-1.891C100.29,164.909,91,138.635,89.003,116.188
			c-1.271-14.336-1.307-24.464-0.103-35.489c-0.63,0.093-1.263,0.154-1.897,0.154c-0.725,0-1.431-0.074-2.125-0.188
			c-0.82,7.7-1.049,14.992-0.69,23.521c0.054,1.304,0.12,2.632,0.203,4c0.159,2.642,0.368,5.411,0.628,8.356
			c0.275,3.101,0.695,6.271,1.217,9.48c-0.003-0.039-0.012-0.075-0.012-0.114c0-1.104,0.896-2,2-2c1.104,0,2.006,0.896,2.006,2
			s-0.89,2-1.994,2h-0.012c-0.912,0-1.672-0.614-1.913-1.447c3.337,20.184,11.01,42.042,17.438,60.226
			c0.076,0.22,0.158,0.447,0.235,0.666l0.668,1.891c0.407,1.154,0.815,2.302,1.218,3.448c7.644,21.655,14.555,41.942,14.555,56.635
			c0,19.04-3.694,32.096-6.663,42.587c-1.972,6.966-3.673,12.982-3.673,18.793c0,3.787,1.1,6.783,3.271,8.905
			c3.784,3.701,10.228,4.393,18.42,4.393c2.325,0,4.79-0.056,7.377-0.114c2.809-0.063,5.713-0.129,8.718-0.129
			c3.007,0,5.912,0.065,8.724,0.129c11.702,0.267,20.943,0.473,25.804-4.278c2.17-2.122,3.27-5.118,3.27-8.905
			c0-5.811-1.701-11.825-3.673-18.789c-2.97-10.486-6.663-23.538-6.663-42.578c0.011-14.704,6.928-34.995,14.568-56.648
			c-0.405-1.146-0.811-2.294-1.219-3.447L188.017,187.354z"/>
		<path style="fill:#2B2C2D;" d="M88.224,127.909h0.012c1.104,0,1.994-0.896,1.994-2s-0.902-2-2.006-2c-1.104,0-2,0.896-2,2
			c0,0.039,0.009,0.075,0.012,0.114c0.009,0.151,0.034,0.297,0.075,0.438C86.552,127.295,87.312,127.909,88.224,127.909z"/>
		<path style="fill:#2B2C2D;" d="M121.54,125.909c0,1.104,0.896,2,2,2h48.715c-1.104,0-2-0.896-2-2s0.896-2,2-2H123.54
			C122.436,123.909,121.54,124.805,121.54,125.909z"/>
		<path style="fill:#2B2C2D;" d="M209.573,125.909c0-1.104-0.895-2-2-2h-1.729h-33.59c1.104,0,2.006,0.896,2.006,2s-0.891,2-1.994,2
			h32.912h2.395c0.915,0,1.678-0.619,1.916-1.458c0.037-0.131,0.061-0.266,0.07-0.405C209.562,126,209.573,125.956,209.573,125.909z
			"/>
		<path style="fill:#2B2C2D;" d="M134.434,143.807c-0.781-0.781-2.048-0.781-2.829,0l-15.164,15.166
			c-0.781,0.781-0.781,2.047,0,2.828c0.391,0.391,0.902,0.586,1.414,0.586s1.023-0.195,1.414-0.586l15.165-15.166
			C135.215,145.854,135.215,144.588,134.434,143.807z"/>
		<path style="fill:#2B2C2D;" d="M155.771,150.407l-34.558,34.556c-0.781,0.781-0.781,2.047,0,2.828
			c0.391,0.391,0.902,0.586,1.413,0.586c0.513,0,1.023-0.195,1.415-0.586l34.558-34.556c0.781-0.781,0.781-2.047,0-2.828
			S156.551,149.626,155.771,150.407z"/>
		<path style="fill:#2B2C2D;" d="M150.696,181.729l-8.008,8.01c-0.781,0.781-0.781,2.047,0,2.828
			c0.391,0.391,0.902,0.586,1.414,0.586s1.023-0.195,1.414-0.586l8.008-8.01c0.782-0.781,0.782-2.047,0-2.828
			C152.744,180.947,151.478,180.947,150.696,181.729z"/>
		<path style="fill:#2B2C2D;" d="M170.255,125.909c0,1.104,0.896,2,2,2h0.012c1.104,0,1.994-0.896,1.994-2s-0.901-2-2.006-2
			S170.255,124.805,170.255,125.909z"/>
		<path style="fill:#2B2C2D;" d="M292.511,63.982l-67.991-0.012c0.005,0.166,0.024,0.327,0.024,0.493
			c0,1.208-0.153,2.378-0.415,3.507l65.005,0.012c2.4,14.42,3.332,24.919,2.191,41.81h0.278c1.104,0,2,0.896,2,2s-0.896,2-2,2
			h-0.579c-0.063,0.797-0.126,1.583-0.199,2.409c-0.27,3.021-0.672,6.179-1.196,9.387c-3.256,19.979-10.856,41.449-18.204,62.212
			c-8.255,23.32-16.052,45.349-16.059,61.539c0,19.597,3.777,32.943,6.814,43.669c1.968,6.952,3.521,12.444,3.521,17.699
			c0,2.708-0.675,4.686-2.066,6.045c-3.656,3.574-12.581,3.375-22.916,3.14c-2.833-0.063-5.762-0.13-8.814-0.13
			c-3.049,0-5.976,0.066-8.808,0.13c-10.333,0.234-19.253,0.436-22.91-3.14c-1.391-1.359-2.066-3.337-2.066-6.045
			c0-5.256,1.556-10.749,3.522-17.704c3.035-10.729,6.813-24.08,6.813-43.676c0-16.157-7.772-38.142-16.001-61.416l-0.433-1.223
			l-0.235-0.667c-0.369-1.042-1.509-1.589-2.552-1.22c-1.042,0.368-1.588,1.511-1.22,2.552l0.668,1.891
			c0.408,1.153,0.813,2.301,1.219,3.447c7.642,21.656,14.554,41.943,14.554,56.636c0,19.04-3.694,32.096-6.663,42.587
			c-1.971,6.966-3.673,12.982-3.673,18.793c0,3.787,1.101,6.783,3.271,8.905c4.859,4.752,14.097,4.543,25.796,4.278
			c2.81-0.063,5.714-0.129,8.718-0.129c3.008,0,5.912,0.065,8.724,0.129c2.589,0.059,5.053,0.114,7.378,0.114
			c8.194,0,14.64-0.691,18.426-4.393c2.17-2.122,3.27-5.118,3.27-8.905c0-5.811-1.701-11.825-3.674-18.789
			c-2.967-10.486-6.662-23.538-6.662-42.578c0.007-15.504,7.692-37.218,15.829-60.206c7.408-20.928,15.067-42.569,18.382-62.901
			c0.541-3.303,0.956-6.559,1.232-9.678c1.943-21.855,0.896-33.829-2.014-50.908L292.511,63.982z"/>
		<path style="fill:#2B2C2D;" d="M209.157,109.792c-1.104,0-2,0.896-2,2s0.896,2,2,2h1.854h80.014h0.579c1.104,0,2-0.896,2-2
			s-0.896-2-2-2h-0.278h-80.02H209.157z"/>
		<path style="fill:#2B2C2D;" d="M62.661,160.387c0-1.104-0.896-2-2-2H14.354h-1.47c-1.105,0-2,0.896-2,2s0.895,2,2,2h2.742h45.035
			C61.766,162.387,62.661,161.491,62.661,160.387z"/>
		<path style="fill:#2B2C2D;" d="M41.392,180.619c0,1.104,0.896,2,2,2h34.808c1.104,0,2-0.896,2-2s-0.896-2-2-2H43.392
			C42.288,178.619,41.392,179.515,41.392,180.619z"/>
		<path style="fill:#2B2C2D;" d="M67.796,202.629H52.028c-1.104,0-2,0.896-2,2s0.896,2,2,2h15.768c1.104,0,2-0.896,2-2
			S68.9,202.629,67.796,202.629z"/>
		<path style="fill:#2B2C2D;" d="M228.435,201.826c5.703,0,10.342-4.64,10.342-10.342s-4.639-10.342-10.342-10.342
			c-5.702,0-10.342,4.64-10.342,10.342S222.732,201.826,228.435,201.826z M228.435,185.143c3.497,0,6.342,2.845,6.342,6.342
			s-2.845,6.342-6.342,6.342c-3.498,0-6.342-2.845-6.342-6.342S224.937,185.143,228.435,185.143z"/>
		<path style="fill:#2B2C2D;" d="M238.297,166.354c6.378,0,11.565-5.188,11.565-11.565c0-6.378-5.188-11.567-11.565-11.567
			s-11.566,5.189-11.566,11.567C226.73,161.165,231.919,166.354,238.297,166.354z M238.297,147.221c4.173,0,7.565,3.395,7.565,7.567
			c0,4.172-3.393,7.565-7.565,7.565c-4.172,0-7.566-3.394-7.566-7.565C230.73,150.615,234.125,147.221,238.297,147.221z"/>
		<path style="fill:#2B2C2D;" d="M73.816,67.982c0.159,6.405,4.898,11.681,11.062,12.684c0.694,0.113,1.4,0.188,2.125,0.188
			c0.635,0,1.268-0.062,1.897-0.154c0.181-0.026,0.362-0.043,0.542-0.077c5.579,11.924,17.456,19.534,30.732,19.534
			c12.924,0,24.516-7.207,30.269-18.586c6.486,5.568,14.656,8.604,23.296,8.604c10.564,0,20.373-4.537,27.2-12.514
			c1.786,1.098,3.783,1.82,5.854,2.128c0.744,0.109,1.499,0.17,2.256,0.17c0.603,0,1.194-0.043,1.778-0.11
			c6.536-0.751,11.836-5.583,13.301-11.878c0.262-1.129,0.415-2.299,0.415-3.507c0-0.166-0.02-0.327-0.024-0.493
			c-0.263-8.273-7.027-14.937-15.35-15.001c-2.608-17.496-17.514-30.46-35.431-30.46c-5.774,0-11.436,1.386-16.516,4.028
			C152.465,9.147,139.679,0,125.285,0c-17.937,0-32.664,14.003-33.827,31.65c-0.816-0.113-1.633-0.171-2.442-0.171
			c-10.062,0-18.249,8.188-18.249,18.251c0,4.432,1.576,8.61,4.466,11.927c-0.379,0.744-0.664,1.526-0.895,2.325
			c-0.343,1.184-0.538,2.411-0.538,3.666C73.8,67.761,73.812,67.87,73.816,67.982z M74.767,49.73
			c0-7.858,6.391-14.251,14.249-14.251c1.263,0,2.555,0.181,3.838,0.538l2.536,0.706v-2.633l-0.004-0.19
			c0-16.487,13.412-29.9,29.899-29.9c13.448,0,25.31,9.056,28.841,22.021l0.703,2.576l2.274-1.397
			c4.994-3.068,10.746-4.69,16.636-4.69c16.492,0,30.112,12.363,31.683,28.759l0.196,2.047l2.039-0.252
			c0.509-0.063,0.964-0.094,1.393-0.094c6.338,0,11.494,5.156,11.494,11.494c0,6.339-5.156,11.495-11.494,11.495
			c-2.659,0-5.159-0.886-7.229-2.562l-1.594-1.291l-1.249,1.625c-6.085,7.908-15.283,12.443-25.239,12.443
			c-8.524,0-16.533-3.326-22.552-9.367l-2.133-2.141l-1.137,2.801c-4.607,11.353-15.497,18.688-27.743,18.688
			c-12.231,0-23.116-7.322-27.734-18.655l-0.708-1.742l-1.783,0.603c-0.967,0.326-1.958,0.492-2.946,0.492
			c-5.074,0-9.203-4.129-9.203-9.205c0-0.453,0.034-0.902,0.099-1.344c0.002-0.011,0.002-0.021,0.002-0.032
			c0.203-1.351,0.703-2.637,1.476-3.778l0.94-1.391l-1.206-1.168C76.31,57.225,74.767,53.6,74.767,49.73z"/>
	</g>
</g>
</svg>
