<?xml version="1.0" encoding="utf-8"?>
<!-- Generator: Adobe Illustrator 16.0.4, SVG Export Plug-In . SVG Version: 6.00 Build 0)  -->
<!DOCTYPE svg PUBLIC "-//W3C//DTD SVG 1.1//EN" "http://www.w3.org/Graphics/SVG/1.1/DTD/svg11.dtd">
<svg version="1.1" xmlns="http://www.w3.org/2000/svg" xmlns:xlink="http://www.w3.org/1999/xlink" x="0px" y="0px"
	 width="416.344px" height="385.768px" viewBox="0 0 416.344 385.768" style="enable-background:new 0 0 416.344 385.768;"
	 xml:space="preserve">
<symbol  id="New_Symbol_1" viewBox="-2869.69 1635.391 384.073 275">
	<g id="Elements_4_">
		<g>
			<path style="fill:none;stroke:#454647;stroke-width:5;stroke-linecap:round;stroke-miterlimit:10;" d="M-2500.584,1823.523
				v-12.832h-86.4v12.832c0,2.458,0.206,4.871,0.602,7.221c1.426,8.46,5.309,16.086,10.893,22.119
				c6.46,6.979,15.192,11.818,25.021,13.346c2.176,0.339,4.413,0.515,6.686,0.515c2.273,0,4.511-0.176,6.687-0.515
				c18.323-2.849,32.842-17.213,35.912-35.465C-2500.79,1828.395-2500.584,1825.981-2500.584,1823.523z"/>
			<path style="fill:none;stroke:#454647;stroke-width:5;stroke-linecap:round;stroke-miterlimit:10;" d="M-2550.47,1866.209v6.125
				c0,3.691,2.993,6.686,6.686,6.686s6.687-2.994,6.687-6.686v-6.125"/>
			<path style="fill:none;stroke:#454647;stroke-width:5;stroke-linecap:round;stroke-miterlimit:10;" d="M-2734.672,1695.492
				c-1.476,26.48-21.861,47.916-47.869,51.037c-2.149,0.257-4.336,0.39-6.558,0.39s-4.407-0.133-6.557-0.39
				c-16.771-2.011-31.202-11.638-39.739-25.323c-4.7-7.539-7.605-16.309-8.131-25.714"/>
			<path style="fill:none;stroke:#454647;stroke-width:5;stroke-linecap:round;stroke-miterlimit:10;" d="M-2866.756,1637.892
				l7.605,47.321c0.952,5.923,6.063,10.279,12.063,10.279h115.978c5.999,0,11.111-4.356,12.062-10.279l7.605-47.321H-2866.756z"/>
			
				<line style="fill:none;stroke:#454647;stroke-width:5;stroke-linecap:round;stroke-miterlimit:10;" x1="-2770.584" y1="1721.206" x2="-2835.395" y2="1721.206"/>
			
				<line style="fill:none;stroke:#454647;stroke-width:5;stroke-linecap:round;stroke-miterlimit:10;" x1="-2805.041" y1="1670.806" x2="-2861.464" y2="1670.806"/>
			
				<line style="fill:none;stroke:#454647;stroke-width:5;stroke-linecap:round;stroke-miterlimit:10;" x1="-2805.041" y1="1663.092" x2="-2862.703" y2="1663.092"/>
			
				<line style="fill:none;stroke:#454647;stroke-width:5;stroke-linecap:round;stroke-miterlimit:10;" x1="-2805.041" y1="1655.378" x2="-2863.943" y2="1655.378"/>
			<path style="fill:none;stroke:#454647;stroke-width:5;stroke-linecap:round;stroke-miterlimit:10;" d="M-2511.641,1682.717
				c0-2.414-1.958-4.371-4.372-4.371s-4.371,1.957-4.371,4.371s1.957,4.372,4.371,4.372S-2511.641,1685.131-2511.641,1682.717z"/>
			<path style="fill:none;stroke:#454647;stroke-width:5;stroke-linecap:round;stroke-miterlimit:10;" d="M-2511.641,1652.549
				c0-2.414-1.958-4.371-4.372-4.371s-4.371,1.957-4.371,4.371s1.957,4.37,4.371,4.37S-2511.641,1654.963-2511.641,1652.549z"/>
			<path style="fill:none;stroke:#454647;stroke-width:5;stroke-linecap:round;stroke-miterlimit:10;" d="M-2535.041,1663.092
				c0-2.414-1.957-4.372-4.371-4.372s-4.372,1.958-4.372,4.372s1.958,4.371,4.372,4.371S-2535.041,1665.506-2535.041,1663.092z"/>
			<path style="fill:none;stroke:#454647;stroke-width:5;stroke-linecap:round;stroke-miterlimit:10;" d="M-2678.912,1708.092
				c0-2.414-1.958-4.372-4.372-4.372s-4.371,1.958-4.371,4.372s1.957,4.371,4.371,4.371S-2678.912,1710.506-2678.912,1708.092z"/>
			<path style="fill:none;stroke:#454647;stroke-width:5;stroke-linecap:round;stroke-miterlimit:10;" d="M-2678.912,1689.835
				c0-2.414-1.958-4.372-4.372-4.372s-4.371,1.958-4.371,4.372s1.957,4.371,4.371,4.371S-2678.912,1692.249-2678.912,1689.835z"/>
			<path style="fill:none;stroke:#454647;stroke-width:5;stroke-linecap:round;stroke-miterlimit:10;" d="M-2678.912,1671.577
				c0-2.415-1.958-4.371-4.372-4.371s-4.371,1.956-4.371,4.371s1.957,4.372,4.371,4.372S-2678.912,1673.992-2678.912,1671.577z"/>
			<path style="fill:none;stroke:#454647;stroke-width:5;stroke-linecap:round;stroke-miterlimit:10;" d="M-2782.541,1880.696
				v-134.167c-2.149,0.257-4.336,0.39-6.558,0.39s-4.407-0.133-6.557-0.39v134.167c0,2.809,2.273,5.081,5.076,5.081h2.962
				C-2784.815,1885.777-2782.541,1883.505-2782.541,1880.696z"/>
			
				<line style="fill:none;stroke:#454647;stroke-width:5;stroke-linecap:round;stroke-miterlimit:10;" x1="-2804.013" y1="1788.577" x2="-2774.184" y2="1788.577"/>
			<path style="fill:none;stroke:#454647;stroke-width:5;stroke-linecap:round;stroke-miterlimit:10;" d="M-2638.927,1816.606
				v-58.933c-3.847-2.278-7.921-4.314-12.183-6.084c-1.152-0.479-2.319-0.94-3.502-1.379c-3.163-1.177-6.424-2.217-9.771-3.095
				c-8.522-2.248-17.589-3.498-27-3.58c-3.657,0.031-7.262,0.241-10.8,0.617c-5.575,0.586-10.991,1.589-16.2,2.963
				c-3.349,0.878-6.608,1.918-9.772,3.095c-2.221,0.829-4.397,1.724-6.516,2.69c-3.178,1.44-6.238,3.04-9.17,4.772v58.933
				c4.892,2.89,10.137,5.395,15.686,7.462c3.163,1.178,6.423,2.217,9.772,3.096c6.397,1.688,13.099,2.808,20.026,3.302
				c2.299,0.165,4.629,0.258,6.974,0.278c5.985-0.052,11.828-0.576,17.485-1.533c3.24-0.545,6.413-1.229,9.515-2.047
				c3.348-0.879,6.608-1.918,9.771-3.096C-2649.064,1822.001-2643.818,1819.496-2638.927,1816.606z"/>
			<g>
				<g>
					
						<line style="fill:none;stroke:#454647;stroke-width:5;stroke-linecap:round;stroke-miterlimit:10;" x1="-2728.156" y1="1750.211" x2="-2728.156" y2="1824.068"/>
					
						<line style="fill:none;stroke:#454647;stroke-width:5;stroke-linecap:round;stroke-miterlimit:10;" x1="-2718.384" y1="1747.116" x2="-2718.384" y2="1827.164"/>
				</g>
				<g>
					
						<line style="fill:none;stroke:#454647;stroke-width:5;stroke-linecap:round;stroke-miterlimit:10;" x1="-2664.384" y1="1747.116" x2="-2664.384" y2="1827.164"/>
					
						<line style="fill:none;stroke:#454647;stroke-width:5;stroke-linecap:round;stroke-miterlimit:10;" x1="-2654.613" y1="1750.211" x2="-2654.613" y2="1824.068"/>
				</g>
			</g>
			<polyline style="fill:none;stroke:#454647;stroke-width:5;stroke-linecap:round;stroke-miterlimit:10;" points="
				-2664.384,1758.749 -2664.384,1747.116 -2664.384,1637.892 -2702.184,1637.892 -2702.184,1721.206 -2702.184,1744.153 			"/>
			<path style="fill:none;stroke:#454647;stroke-width:5;stroke-linecap:round;stroke-miterlimit:10;" d="M-2586.985,1810.691
				v-172.8h86.4v172.8H-2586.985z"/>
			<path style="fill:none;stroke:#454647;stroke-width:5;stroke-linecap:round;stroke-miterlimit:10;" d="M-2586.985,1684.666
				c5.221,3.276,11.387,5.169,18,5.169c4.758,0,9.283-0.978,13.393-2.746"/>
			<path style="fill:none;stroke:#454647;stroke-width:5;stroke-linecap:round;stroke-miterlimit:10;" d="M-2555.592,1687.089
				c0.447,10.537,9.134,18.946,19.779,18.946c5.045,0,9.652-1.888,13.145-4.994"/>
			<path style="fill:none;stroke:#454647;stroke-width:5;stroke-linecap:round;stroke-miterlimit:10;" d="M-2522.668,1701.041
				c3.369,2.493,7.54,3.965,12.056,3.965c3.646,0,7.071-0.963,10.028-2.645"/>
			
				<line style="fill:none;stroke:#454647;stroke-width:5;stroke-linecap:round;stroke-miterlimit:10;" x1="-2563.327" y1="1766.463" x2="-2576.338" y2="1753.452"/>
			
				<line style="fill:none;stroke:#454647;stroke-width:5;stroke-linecap:round;stroke-miterlimit:10;" x1="-2563.327" y1="1750.042" x2="-2576.338" y2="1737.029"/>
			
				<line style="fill:none;stroke:#454647;stroke-width:5;stroke-linecap:round;stroke-miterlimit:10;" x1="-2563.327" y1="1733.62" x2="-2576.338" y2="1720.608"/>
			
				<line style="fill:none;stroke:#454647;stroke-width:5;stroke-linecap:round;stroke-miterlimit:10;" x1="-2501.186" y1="1830.744" x2="-2586.383" y2="1830.744"/>
			<path style="fill:none;stroke:#454647;stroke-width:5;stroke-linecap:round;stroke-miterlimit:10;" d="M-2673.899,1829.211
				v23.652v45.171c0,5.444-4.413,9.857-9.857,9.857h-41.402h-54.084c-5.444,0-9.857-4.413-9.857-9.857v-12.257"/>
			<polyline style="fill:none;stroke:#454647;stroke-width:5;stroke-linecap:round;stroke-miterlimit:10;" points="
				-2673.899,1852.861 -2622.209,1852.861 -2575.489,1852.861 			"/>
			
				<line style="fill:none;stroke:#454647;stroke-width:5;stroke-linecap:round;stroke-miterlimit:10;" x1="-2622.213" y1="1852.863" x2="-2622.213" y2="1864.178"/>
			<path style="fill:none;stroke:#454647;stroke-width:5;stroke-linecap:round;stroke-miterlimit:10;" d="M-2612.698,1873.691
				c0-5.255-4.26-9.514-9.515-9.514c-5.254,0-9.514,4.259-9.514,9.514c0,5.254,4.26,9.515,9.514,9.515
				C-2616.958,1883.206-2612.698,1878.945-2612.698,1873.691z"/>
			
				<line style="fill:none;stroke:#454647;stroke-width:5;stroke-linecap:round;stroke-miterlimit:10;" x1="-2725.157" y1="1897.312" x2="-2725.157" y2="1907.892"/>
			<path style="fill:none;stroke:#454647;stroke-width:5;stroke-linecap:round;stroke-miterlimit:10;" d="M-2734.672,1887.799
				c0,5.255,4.26,9.514,9.515,9.514s9.515-4.259,9.515-9.514c0-5.256-4.26-9.514-9.515-9.514S-2734.672,1882.543-2734.672,1887.799z
				"/>
			<path style="fill:none;stroke:#454647;stroke-width:5;stroke-linecap:round;stroke-miterlimit:10;" d="M-2734.672,1752.901
				v-15.65c0-8.861,7.184-16.045,16.046-16.045h16.441"/>
			<path style="fill:none;stroke:#454647;stroke-width:5;stroke-linecap:round;stroke-miterlimit:10;" d="M-2782.541,1867.824
				c12.358,1.347,29.551-0.227,36.746-9.617c2.123-2.772,3.378-6.229,3.378-10.487c0-12.687-11.817-9.848-11.817,0
				c0,3.965,3.357,7.771,8.439,10.487c14.806,7.904,44.207,6.47,47.438-27.741"/>
			
				<line style="fill:none;stroke:#454647;stroke-width:5;stroke-linecap:round;stroke-miterlimit:10;" x1="-2709.384" y1="1802.977" x2="-2680.584" y2="1802.977"/>
			
				<line style="fill:none;stroke:#454647;stroke-width:5;stroke-linecap:round;stroke-miterlimit:10;" x1="-2702.184" y1="1788.577" x2="-2687.098" y2="1788.577"/>
			<g>
				<polyline style="fill:none;stroke:#454647;stroke-width:5;stroke-linecap:round;stroke-miterlimit:10;" points="
					-2624.985,1684.691 -2624.985,1670.291 -2624.985,1658.463 -2624.985,1637.892 				"/>
				
					<line style="fill:none;stroke:#454647;stroke-width:5;stroke-linecap:round;stroke-miterlimit:10;" x1="-2630.899" y1="1664.378" x2="-2619.071" y2="1676.206"/>
				
					<line style="fill:none;stroke:#454647;stroke-width:5;stroke-linecap:round;stroke-miterlimit:10;" x1="-2630.899" y1="1652.549" x2="-2619.071" y2="1664.378"/>
				<path style="fill:none;stroke:#454647;stroke-width:5;stroke-linecap:round;stroke-miterlimit:10;" d="M-2586.989,1721.211
					c-6.721,0-14.311,0-17.04,0c-7.651,0-14.521,0-19.151,0c-16.979,0-20.32,24.681-1.8,24.681c11.96,0,19.12-11.591,20.95-24.681
					c2.37-17-4.23-36.52-20.95-36.52c-35.09,0-29.75,46.74-28.9,66.899"/>
			</g>
			
				<line style="fill:none;stroke:#454647;stroke-width:5;stroke-linecap:round;stroke-miterlimit:10;" x1="-2599.451" y1="1810.691" x2="-2488.117" y2="1810.691"/>
		</g>
	</g>
</symbol>
<g id="Background">
	<g id="New_Symbol_8_9_">
		<g id="Elements_106_">
		</g>
	</g>
	<g id="New_Symbol_6_11_">
		<g id="Elements_105_">
		</g>
	</g>
	<g id="New_Symbol_10_">
		<g id="DoneElements_11_">
		</g>
		<g id="Elements_104_">
		</g>
	</g>
</g>
<g id="Elements">
	<g id="New_Symbol_2_">
		<g id="DoneElements_3_">
		</g>
		<g id="Elements_36_">
		</g>
	</g>
	<g id="New_Symbol_3_2_">
		<g id="Elements_35_">
		</g>
	</g>
	<g id="New_Symbol_1_2_">
		<g id="Elements_34_">
		</g>
	</g>
	<g id="New_Symbol_2_2_">
		<g id="Elements_33_">
		</g>
	</g>
	<g id="New_Symbol_5_2_">
		<g id="Elements_32_">
		</g>
	</g>
	<g id="New_Symbol_6_2_">
		<g id="Elements_31_">
		</g>
	</g>
	<g id="New_Symbol_7_2_">
		<g id="Elements_30_">
		</g>
	</g>
	<g id="New_Symbol_8_2_">
		<g id="Elements_29_">
		</g>
	</g>
	<g id="New_Symbol_9_2_">
		<g id="Elements_28_">
		</g>
	</g>
	<g id="New_Symbol_2_8_">
		<g id="Elements_99_">
		</g>
	</g>
	<g id="New_Symbol_9_">
		<g id="DoneElements_10_">
		</g>
		<g id="Elements_95_">
		</g>
	</g>
	<g id="New_Symbol_7_9_">
		<g id="Elements_94_">
		</g>
	</g>
	<g id="New_Symbol_9_10_">
		<g id="Elements_93_">
		</g>
	</g>
	<g id="New_Symbol_1_10_">
		<g id="Elements_100_">
		</g>
	</g>
	<g id="New_Symbol_9_11_">
		<g id="Elements_101_">
		</g>
	</g>
	<g id="New_Symbol_3_10_">
		<g id="Elements_102_">
		</g>
	</g>
	<g id="New_Symbol_5_10_">
		<g id="Elements_103_">
		</g>
	</g>
	<g id="New_Symbol_3_9_">
		<g id="Elements_98_">
		</g>
	</g>
	<g id="New_Symbol_1_9_">
		<g id="Elements_97_">
		</g>
	</g>
	<g id="New_Symbol_8_8_">
		<g id="Elements_96_">
		</g>
	</g>
	<g id="New_Symbol_9_9_">
		<g id="Elements_91_">
		</g>
	</g>
	<g id="New_Symbol_5_9_">
		<g id="Elements_90_">
		</g>
	</g>
	<g id="New_Symbol_6_9_">
		<g id="Elements_89_">
		</g>
	</g>
	<g id="New_Symbol_6_10_">
		<g id="Elements_92_">
		</g>
	</g>
	<g id="Fass_2_1_">
		<path style="fill:#FCF5CB;" d="M144.004,370.798c0-4.702-6.82-18.689-10.971-26.604c-4.152,7.915-10.971,21.903-10.971,26.604
			c0,6.049,4.922,10.97,10.971,10.97S144.004,376.847,144.004,370.798z"/>
		<path style="fill:#B7E0AA;" d="M131.85,282.243c-4.979,0-9.027,4.05-9.027,9.027v28.733h18.055v-28.733
			C140.877,286.293,136.826,282.243,131.85,282.243z"/>
		<path style="fill:#FCF5CB;" d="M113.898,268.269c-2.717,0-4.926,2.209-4.926,4.925c0,2.715,2.209,4.923,4.926,4.923
			c2.715,0,4.924-2.208,4.924-4.923C118.822,270.478,116.613,268.269,113.898,268.269z"/>
		<path style="fill:#9BD5C9;" d="M243.957,169.261c0-61.817-50.293-112.109-112.109-112.109
			c-61.818,0-112.109,50.292-112.109,112.109c0,46.938,29.273,88.799,73.131,105.1c0.197-21.331,17.602-38.627,38.979-38.627
			s38.783,17.295,38.979,38.627C214.684,258.059,243.957,216.198,243.957,169.261z M65.383,193.868c0,1.104-0.896,2-2,2
			c-1.105,0-2-0.896-2-2v-51.15c0-1.104,0.895-2,2-2c1.104,0,2,0.896,2,2V193.868z M88.205,219.058c0,1.104-0.896,2-2,2
			c-1.105,0-2-0.896-2-2V102.582c0-1.104,0.895-2,2-2c1.104,0,2,0.896,2,2V219.058z M111.027,182.964c0,1.104-0.896,2-2,2
			c-1.105,0-2-0.896-2-2v-28.663c0-1.104,0.895-2,2-2c1.104,0,2,0.896,2,2V182.964z M133.85,206.348c0,1.104-0.896,2-2,2
			c-1.105,0-2-0.896-2-2V97.074c0-1.104,0.895-2,2-2c1.104,0,2,0.896,2,2V206.348z M156.67,177.105c0,1.104-0.896,2-2,2
			c-1.105,0-2-0.896-2-2v-34.388c0-1.104,0.895-2,2-2c1.104,0,2,0.896,2,2V177.105z M179.492,211.967c0,1.104-0.896,2-2,2
			c-1.105,0-2-0.896-2-2v-93.46c0-1.104,0.895-2,2-2c1.104,0,2,0.896,2,2V211.967z M202.314,189.933c0,1.104-0.896,2-2,2
			c-1.105,0-2-0.896-2-2v-20.672c0-1.104,0.895-2,2-2c1.104,0,2,0.896,2,2V189.933z"/>
		<path style="fill:#FCC24C;" d="M346.869,112.679h-95.947c8.186,17.155,12.775,36.342,12.775,56.582
			c0,5.178-0.299,10.302-0.879,15.359h83.395C348.629,160.564,348.85,136.383,346.869,112.679z"/>
		<path style="fill:#FCF5CB;" d="M149.801,268.269c-2.715,0-4.924,2.209-4.924,4.925c0,2.715,2.209,4.923,4.924,4.923
			s4.924-2.208,4.924-4.923C154.725,270.478,152.516,268.269,149.801,268.269z"/>
		<path style="fill:#FCC24C;" d="M322.834,293.292h42.738c15.699-21.438,27.66-45.254,35.605-70.832h-56.561
			C339.637,247.573,332.316,271.377,322.834,293.292z"/>
		<path style="fill:#FCC24C;" d="M373.422,139.36c-1.105,0-2-0.896-2-2s0.895-2,2-2h38.564c-0.129-2.433-0.295-4.861-0.494-7.285
			h-38.07c-1.105,0-2-0.896-2-2s0.895-2,2-2h37.715c-0.375-3.82-0.84-7.621-1.387-11.396h-58.867
			c1.961,23.709,1.742,47.887-0.65,71.941h59.518c1.619-11.174,2.484-22.582,2.574-33.975h-38.902c-1.105,0-2-0.896-2-2s0.895-2,2-2
			h38.902c-0.02-2.429-0.064-4.857-0.154-7.285H373.422z"/>
		<path style="fill:#B7E0AA;" d="M254.26,218.46h88.678c0.016,0,0.029,0,0.045,0h59.424c2.842-9.717,5.098-19.737,6.732-29.84
			H262.305C260.809,198.915,258.109,208.905,254.26,218.46z"/>
		<path style="fill:#FCF5CB;" d="M258.568,186.337c0.008-0.051,0.012-0.104,0.023-0.153c0.727-5.562,1.105-11.208,1.105-16.923
			c0-70.496-57.354-127.85-127.85-127.85S4,98.765,4,169.261c0,29.268,9.623,56.809,27.83,79.644
			c16.664,20.902,39.686,36.181,65.223,43.403c-2.15-4.246-3.488-8.864-3.969-13.612c-46.312-16.447-77.346-60.251-77.346-109.435
			c0-64.022,52.086-116.109,116.109-116.109c64.021,0,116.109,52.087,116.109,116.109c0,49.184-31.033,92.987-77.346,109.435
			c-0.479,4.745-1.818,9.362-3.967,13.61c25.535-7.223,48.555-22.5,65.221-43.401c7.178-9.003,13-18.745,17.445-29.027
			c0.041-0.133,0.094-0.259,0.16-0.378C253.99,208.951,257.053,197.836,258.568,186.337z"/>
		<path style="fill:#FFFFFF;" d="M166.752,277.104c0.055-0.813,0.084-1.614,0.084-2.382c0-19.293-15.695-34.988-34.988-34.988
			s-34.986,15.695-34.986,34.988c0,0.772,0.025,1.556,0.082,2.395c0.41,6.162,2.467,12.124,5.945,17.239
			c3.926,5.771,9.516,10.258,15.934,12.845v-15.93c0-7.184,5.844-13.027,13.027-13.027s13.027,5.844,13.027,13.027v15.928
			c6.418-2.588,12.004-7.072,15.922-12.841l0.395-0.581c3.246-4.986,5.164-10.73,5.559-16.66
			C166.752,277.112,166.752,277.107,166.752,277.104z M113.898,282.116c-4.922,0-8.926-4.003-8.926-8.923
			c0-4.921,4.004-8.925,8.926-8.925c4.92,0,8.924,4.004,8.924,8.925C122.822,278.113,118.818,282.116,113.898,282.116z
			 M149.801,282.116c-4.922,0-8.924-4.003-8.924-8.923c0-4.921,4.002-8.925,8.924-8.925c4.92,0,8.924,4.004,8.924,8.925
			C158.725,278.113,154.721,282.116,149.801,282.116z"/>
		<path style="fill:#B7E0AA;" d="M402.396,78.839H227.713c8.379,8.877,15.539,18.913,21.217,29.84h160.209
			C407.502,98.563,405.238,88.546,402.396,78.839z"/>
		<path style="fill:#FCC24C;" d="M318.473,293.292c9.605-21.865,17.021-45.676,22.064-70.832h-85.961
			c5.045,25.156,12.461,48.968,22.066,70.832H318.473z"/>
		<path style="fill:#FCC24C;" d="M234.994,251.397c-5.863,7.353-12.496,14.021-19.727,19.926
			c4.336,7.541,9.119,14.925,14.277,21.969h42.734c-9.082-20.997-16.189-43.725-21.15-67.68
			C246.818,234.694,241.426,243.331,234.994,251.397z"/>
		<path style="fill:#FCC24C;" d="M276.576,4.003c-10.334,20.881-18.111,44.693-23.145,70.836h88.252
			c-5.035-26.147-12.812-49.961-23.143-70.836H276.576z"/>
		<path style="fill:#FCC24C;" d="M272.123,4.003h-42.588c-11.859,16.202-21.654,33.91-29.148,52.662
			c8.471,5.176,16.311,11.283,23.385,18.174h25.586C254.312,48.783,261.963,24.979,272.123,4.003z"/>
		<path style="fill:#FCC24C;" d="M345.758,74.839h55.428c-7.955-25.588-19.918-49.404-35.605-70.836h-42.586
			C333.15,24.974,340.801,48.778,345.758,74.839z"/>
		<path style="fill:#2B2C2D;" d="M142.871,312.041c-0.852,0-1.641-0.549-1.908-1.404c-0.328-1.054,0.258-2.176,1.312-2.506
			c0.881-0.275,1.748-0.589,2.602-0.933v-15.928c0-7.184-5.844-13.027-13.027-13.027s-13.027,5.844-13.027,13.027v15.93
			c0.852,0.343,1.717,0.656,2.596,0.931c1.055,0.33,1.643,1.452,1.312,2.506c-0.33,1.055-1.457,1.638-2.506,1.312
			c-0.471-0.147-0.938-0.307-1.402-0.472v12.526h26.055v-12.526c-0.467,0.166-0.936,0.324-1.408,0.472
			C143.271,312.011,143.07,312.041,142.871,312.041z M140.877,320.004h-18.055v-28.733c0-4.978,4.049-9.027,9.027-9.027
			c4.977,0,9.027,4.05,9.027,9.027V320.004z"/>
		<path style="fill:#2B2C2D;" d="M162.699,297.48h-0.238c-1.105,0-2.004-0.896-2.004-2c0-0.975,0.693-1.787,1.615-1.964
			c1.533-0.371,3.055-0.781,4.572-1.211c2.148-4.248,3.488-8.865,3.967-13.61c-0.406,0.145-0.807,0.303-1.215,0.443
			c-0.215,0.074-0.434,0.109-0.648,0.109c-0.832,0-1.607-0.522-1.893-1.353c-0.088-0.259-0.119-0.523-0.104-0.779
			c-0.395,5.93-2.312,11.674-5.559,16.66l-0.395,0.581c-3.918,5.769-9.504,10.253-15.922,12.841
			c-0.854,0.344-1.721,0.657-2.602,0.933c-1.055,0.33-1.641,1.452-1.312,2.506c0.268,0.855,1.057,1.404,1.908,1.404
			c0.199,0,0.4-0.03,0.598-0.092c0.473-0.147,0.941-0.306,1.408-0.472c7.445-2.648,13.982-7.559,18.617-13.997l0.18-0.252
			c-0.25,0.062-0.494,0.136-0.744,0.196L162.699,297.48z"/>
		<path style="fill:#2B2C2D;" d="M122.73,310.637c0.33-1.054-0.258-2.176-1.312-2.506c-0.879-0.274-1.744-0.588-2.596-0.931
			c-6.418-2.587-12.008-7.073-15.934-12.845c-3.479-5.115-5.535-11.077-5.945-17.239c-0.057-0.839-0.082-1.622-0.082-2.395
			c0-19.293,15.693-34.988,34.986-34.988s34.988,15.695,34.988,34.988c0,0.768-0.029,1.568-0.084,2.382
			c0.057-0.775,0.564-1.48,1.348-1.748c0.918-0.315,1.82-0.659,2.727-0.995c-0.195-21.332-17.602-38.627-38.979-38.627
			s-38.781,17.296-38.979,38.627c0.906,0.337,1.809,0.681,2.727,0.995c1.045,0.357,1.602,1.495,1.242,2.54
			c-0.357,1.045-1.494,1.604-2.539,1.243c-0.41-0.14-0.809-0.299-1.215-0.443c0.48,4.748,1.818,9.366,3.969,13.612
			c1.541,0.436,3.092,0.852,4.65,1.229c1.074,0.26,1.734,1.341,1.475,2.414c-0.221,0.916-1.039,1.53-1.941,1.53
			c-0.156,0-0.314-0.018-0.473-0.056c-0.248-0.061-0.492-0.134-0.738-0.195c4.654,6.561,11.262,11.567,18.797,14.248
			c0.465,0.165,0.932,0.324,1.402,0.472C121.273,312.274,122.4,311.691,122.73,310.637z"/>
		<path style="fill:#2B2C2D;" d="M113.898,264.269c-4.922,0-8.926,4.004-8.926,8.925c0,4.92,4.004,8.923,8.926,8.923
			c4.92,0,8.924-4.003,8.924-8.923C122.822,268.272,118.818,264.269,113.898,264.269z M113.898,278.116
			c-2.717,0-4.926-2.208-4.926-4.923c0-2.716,2.209-4.925,4.926-4.925c2.715,0,4.924,2.209,4.924,4.925
			C118.822,275.908,116.613,278.116,113.898,278.116z"/>
		<path style="fill:#2B2C2D;" d="M149.801,264.269c-4.922,0-8.924,4.004-8.924,8.925c0,4.92,4.002,8.923,8.924,8.923
			c4.92,0,8.924-4.003,8.924-8.923C158.725,268.272,154.721,264.269,149.801,264.269z M149.801,278.116
			c-2.715,0-4.924-2.208-4.924-4.923c0-2.716,2.209-4.925,4.924-4.925s4.924,2.209,4.924,4.925
			C154.725,275.908,152.516,278.116,149.801,278.116z"/>
		<path style="fill:#2B2C2D;" d="M251.215,218.46h0.898c0.027,0,0.055-0.001,0.08,0h2.066c3.85-9.555,6.549-19.545,8.045-29.84
			h-1.764c-1.105,0-2-0.896-2-2c0-0.098,0.016-0.189,0.027-0.283c-1.516,11.499-4.578,22.614-9.098,33.162
			C249.811,218.883,250.461,218.46,251.215,218.46z"/>
		<path style="fill:#2B2C2D;" d="M211.707,269.14c0.961-0.543,2.182-0.204,2.725,0.757c0.271,0.479,0.561,0.949,0.836,1.427
			c7.23-5.905,13.863-12.573,19.727-19.926c6.432-8.066,11.824-16.703,16.135-25.785c-0.227-1.097-0.443-2.198-0.662-3.3
			c-0.734-0.297-1.252-1.013-1.252-1.853c0-0.204,0.039-0.397,0.096-0.583c-4.445,10.282-10.268,20.024-17.445,29.027
			c-16.666,20.901-39.686,36.179-65.221,43.401c-1.518,0.43-3.039,0.84-4.572,1.211c-0.922,0.177-1.615,0.989-1.615,1.964
			c0,1.104,0.898,2,2.004,2h0.238l0.23-0.056c0.25-0.061,0.494-0.135,0.744-0.196c17.57-4.357,34.092-12.396,48.428-23.396
			c-0.379-0.657-0.779-1.308-1.152-1.967C210.406,270.904,210.744,269.684,211.707,269.14z"/>
		<path style="fill:#2B2C2D;" d="M101.236,297.48c0.902,0,1.721-0.614,1.941-1.53c0.26-1.073-0.4-2.154-1.475-2.414
			c-1.559-0.377-3.109-0.793-4.65-1.229c-25.537-7.223-48.559-22.501-65.223-43.403C13.623,226.069,4,198.528,4,169.261
			c0-70.496,57.352-127.85,127.848-127.85s127.85,57.354,127.85,127.85c0,5.715-0.379,11.361-1.105,16.923
			c0.199-0.894,0.994-1.563,1.949-1.563h2.277c0.58-5.058,0.879-10.182,0.879-15.359c0-20.24-4.59-39.427-12.775-56.582h-3.162
			c-1.105,0-2-0.896-2-2s0.895-2,2-2h1.17c-5.678-10.927-12.838-20.963-21.217-29.84h-4.664c-1.105,0-2-0.896-2-2s0.895-2,2-2h0.723
			c-7.074-6.891-14.914-12.998-23.385-18.174c-0.203,0.508-0.412,1.013-0.611,1.521c-0.402,1.028-1.561,1.536-2.592,1.133
			c-1.027-0.403-1.535-1.563-1.133-2.592c0.277-0.708,0.566-1.411,0.85-2.115c-19.207-10.941-41.412-17.201-65.053-17.201
			C59.146,37.411,0,96.559,0,169.261c0,30.184,9.924,58.586,28.701,82.137c18.064,22.656,43.371,38.901,71.324,45.832
			c0.246,0.062,0.49,0.135,0.738,0.195C100.922,297.463,101.08,297.48,101.236,297.48z"/>
		<path style="fill:#2B2C2D;" d="M247.957,169.261c0-64.022-52.088-116.109-116.109-116.109
			c-64.023,0-116.109,52.087-116.109,116.109c0,49.184,31.033,92.987,77.346,109.435c0.406,0.145,0.805,0.304,1.215,0.443
			c1.045,0.36,2.182-0.198,2.539-1.243c0.359-1.045-0.197-2.183-1.242-2.54c-0.918-0.314-1.82-0.658-2.727-0.995
			c-43.857-16.301-73.131-58.162-73.131-105.1c0-61.817,50.291-112.109,112.109-112.109c61.816,0,112.109,50.292,112.109,112.109
			c0,46.938-29.273,88.798-73.131,105.1c-0.906,0.336-1.809,0.68-2.727,0.995c-0.783,0.268-1.291,0.973-1.348,1.748
			c0,0.004,0,0.009,0,0.013c-0.016,0.256,0.016,0.521,0.104,0.779c0.285,0.83,1.061,1.353,1.893,1.353
			c0.215,0,0.434-0.035,0.648-0.109c0.408-0.141,0.809-0.299,1.215-0.443C216.924,262.248,247.957,218.444,247.957,169.261z"/>
		<path style="fill:#2B2C2D;" d="M63.383,140.718c-1.105,0-2,0.896-2,2v51.15c0,1.104,0.895,2,2,2c1.104,0,2-0.896,2-2v-51.15
			C65.383,141.613,64.486,140.718,63.383,140.718z"/>
		<path style="fill:#2B2C2D;" d="M86.205,100.582c-1.105,0-2,0.896-2,2v116.476c0,1.104,0.895,2,2,2c1.104,0,2-0.896,2-2V102.582
			C88.205,101.478,87.309,100.582,86.205,100.582z"/>
		<path style="fill:#2B2C2D;" d="M109.027,152.301c-1.105,0-2,0.896-2,2v28.663c0,1.104,0.895,2,2,2c1.104,0,2-0.896,2-2v-28.663
			C111.027,153.196,110.131,152.301,109.027,152.301z"/>
		<path style="fill:#2B2C2D;" d="M131.85,95.074c-1.105,0-2,0.896-2,2v109.273c0,1.104,0.895,2,2,2c1.104,0,2-0.896,2-2V97.074
			C133.85,95.97,132.953,95.074,131.85,95.074z"/>
		<path style="fill:#2B2C2D;" d="M154.67,140.718c-1.105,0-2,0.896-2,2v34.388c0,1.104,0.895,2,2,2c1.104,0,2-0.896,2-2v-34.388
			C156.67,141.613,155.773,140.718,154.67,140.718z"/>
		<path style="fill:#2B2C2D;" d="M177.492,116.507c-1.105,0-2,0.896-2,2v93.46c0,1.104,0.895,2,2,2c1.104,0,2-0.896,2-2v-93.46
			C179.492,117.402,178.596,116.507,177.492,116.507z"/>
		<path style="fill:#2B2C2D;" d="M200.314,167.261c-1.105,0-2,0.896-2,2v20.672c0,1.104,0.895,2,2,2c1.104,0,2-0.896,2-2v-20.672
			C202.314,168.156,201.418,167.261,200.314,167.261z"/>
		<path style="fill:#2B2C2D;" d="M414.092,139.36h-1.922c0.09,2.428,0.135,4.856,0.154,7.285h2.02c1.104,0,2,0.896,2,2
			c0-3.745-0.094-7.492-0.258-11.235C416.059,138.491,415.18,139.36,414.092,139.36z"/>
		<path style="fill:#2B2C2D;" d="M413.344,128.075h-1.852c0.199,2.424,0.365,4.853,0.494,7.285h2.105
			c1.057,0,1.914,0.823,1.986,1.863c-0.166-3.714-0.412-7.422-0.738-11.116C415.322,127.196,414.438,128.075,413.344,128.075z"/>
		<rect x="297.554" y="272.381" style="fill:#2B2C2D;" width="0.004" height="41.826"/>
		<path style="fill:#2B2C2D;" d="M228.533,293.296h43.748c0-0.001,0-0.003-0.002-0.004h-42.734
			c-5.158-7.044-9.941-14.428-14.277-21.969c-0.275-0.478-0.564-0.948-0.836-1.427c-0.543-0.961-1.764-1.3-2.725-0.757
			c-0.963,0.544-1.301,1.765-0.758,2.726c0.373,0.659,0.773,1.31,1.152,1.967c4.486,7.755,9.432,15.342,14.766,22.567
			c-0.211-0.316-0.334-0.695-0.334-1.104C226.533,294.191,227.428,293.296,228.533,293.296z"/>
		<path style="fill:#2B2C2D;" d="M366.623,297.292h0.969l0.6-0.812c0.012-0.016,0.023-0.031,0.035-0.047
			C367.871,296.944,367.287,297.279,366.623,297.292z"/>
		<path style="fill:#2B2C2D;" d="M226.893,296.437c0.012,0.015,0.021,0.029,0.031,0.044l0.6,0.812h0.971
			C227.83,297.279,227.248,296.944,226.893,296.437z"/>
		<path style="fill:#2B2C2D;" d="M414.344,150.646h-2.02c-0.09,11.393-0.955,22.801-2.574,33.975h1.736c1.104,0,2,0.896,2,2
			s-0.896,2-2,2h-2.348c-1.635,10.103-3.891,20.123-6.732,29.84h1.486c1.104,0,2.004,0.896,2.004,2s-0.893,2-1.996,2h-2.723
			c-7.945,25.578-19.906,49.395-35.605,70.832h-42.738c0,0-0.002,0.003-0.002,0.004h43.752c1.104,0,2,0.896,2,2
			c0,0.41-0.125,0.79-0.336,1.107c16.477-22.321,28.965-47.191,37.129-73.943l0.439-1.427c3.314-11.074,5.887-22.551,7.646-34.112
			c1.912-12.562,2.881-25.438,2.881-38.271c0-0.001,0-0.002,0-0.004C416.344,149.75,415.447,150.646,414.344,150.646z"/>
		<path style="fill:#2B2C2D;" d="M197.184,59.319c1.031,0.403,2.189-0.104,2.592-1.133c0.199-0.509,0.408-1.014,0.611-1.521
			c7.494-18.752,17.289-36.46,29.148-52.662h-1.01c-1.105,0-2-0.896-2-2s0.895-2,2-2H366.59c1.104,0,2,0.896,2,2s-0.896,2-2,2h-1.01
			c15.688,21.432,27.65,45.248,35.605,70.836h2.715c1.104,0,2,0.896,2,2s-0.896,2-2,2h-1.504c2.842,9.707,5.105,19.725,6.742,29.84
			h2.348c1.104,0,2,0.896,2,2s-0.896,2-2,2h-1.736c0.547,3.775,1.012,7.576,1.387,11.396h2.207c0.979,0,1.789,0.704,1.963,1.633
			c-0.463-5.146-1.072-10.264-1.844-15.33c-1.762-11.575-4.334-23.053-7.646-34.112c-8.174-27.337-20.83-52.723-37.619-75.454
			L367.598,0H227.516l-0.6,0.812c-12.209,16.535-22.295,34.627-30.016,53.801c-0.283,0.704-0.572,1.407-0.85,2.115
			C195.648,57.756,196.156,58.916,197.184,59.319z"/>
		<path style="fill:#2B2C2D;" d="M272.123,4.003c-10.16,20.977-17.811,44.78-22.766,70.836h4.074
			c5.033-26.143,12.811-49.955,23.145-70.836H272.123z"/>
		<path style="fill:#2B2C2D;" d="M254.576,222.46h-3.361c-0.266,0-0.518-0.055-0.748-0.147c0.219,1.102,0.436,2.203,0.662,3.3
			c4.961,23.955,12.068,46.683,21.15,67.68c0.002,0.001,0.002,0.003,0.002,0.004h4.363c0-0.002,0-0.002-0.002-0.004
			C267.037,271.428,259.621,247.616,254.576,222.46z"/>
		<polygon style="fill:#2B2C2D;" points="275.334,297.297 275.342,297.296 275.328,297.296 		"/>
		<path style="fill:#2B2C2D;" d="M252.113,218.46h0.08C252.168,218.459,252.141,218.46,252.113,218.46z"/>
		<path style="fill:#2B2C2D;" d="M346.213,184.62h4.02c2.393-24.055,2.611-48.232,0.65-71.941h-4.014
			C348.85,136.383,348.629,160.564,346.213,184.62z"/>
		<path style="fill:#2B2C2D;" d="M318.541,4.003c10.33,20.875,18.107,44.688,23.143,70.836h4.074
			c-4.957-26.061-12.607-49.865-22.764-70.836H318.541z"/>
		<path style="fill:#2B2C2D;" d="M342.938,218.46h0.045C342.967,218.46,342.953,218.46,342.938,218.46z"/>
		<path style="fill:#2B2C2D;" d="M340.537,222.46c-5.043,25.156-12.459,48.967-22.064,70.832c0,0-0.002,0.002-0.002,0.004h4.361
			c0-0.001,0.002-0.003,0.002-0.003c9.482-21.916,16.803-45.72,21.783-70.833H340.537z"/>
		<polygon style="fill:#2B2C2D;" points="319.779,297.297 319.787,297.296 319.771,297.296 		"/>
		<path style="fill:#2B2C2D;" d="M276.576,4.003h41.965h4.453h42.586h1.01c1.104,0,2-0.896,2-2s-0.896-2-2-2H228.525
			c-1.105,0-2,0.896-2,2s0.895,2,2,2h1.01h42.588H276.576z"/>
		<path style="fill:#2B2C2D;" d="M366.584,293.296h-43.752h-4.361h-41.826h-4.363h-43.748c-1.105,0-2,0.896-2,2
			c0,0.408,0.123,0.787,0.334,1.104c0.008,0.013,0.018,0.025,0.025,0.037c0.355,0.508,0.938,0.843,1.602,0.855
			c0.014,0,0.025,0.004,0.039,0.004h46.795h0.016h44.428h0.016h46.797c0.014,0,0.025-0.004,0.039-0.004
			c0.664-0.013,1.248-0.348,1.604-0.858c0.006-0.011,0.014-0.021,0.021-0.03c0.211-0.317,0.336-0.697,0.336-1.107
			C368.584,294.191,367.688,293.296,366.584,293.296z"/>
		<path style="fill:#2B2C2D;" d="M403.9,78.839c1.104,0,2-0.896,2-2s-0.896-2-2-2h-2.715h-55.428h-4.074h-88.252h-4.074h-25.586
			h-0.723c-1.105,0-2,0.896-2,2s0.895,2,2,2h4.664h174.684H403.9z"/>
		<path style="fill:#2B2C2D;" d="M350.883,112.679h58.867h1.736c1.104,0,2-0.896,2-2s-0.896-2-2-2h-2.348H248.93h-1.17
			c-1.105,0-2,0.896-2,2s0.895,2,2,2h3.162h95.947H350.883z"/>
		<path style="fill:#2B2C2D;" d="M346.213,184.62h-83.395h-2.277c-0.955,0-1.75,0.67-1.949,1.563
			c-0.012,0.05-0.016,0.103-0.023,0.153c-0.012,0.094-0.027,0.186-0.027,0.283c0,1.104,0.895,2,2,2h1.764h146.834h2.348
			c1.104,0,2-0.896,2-2s-0.896-2-2-2h-1.736h-59.518H346.213z"/>
		<path style="fill:#2B2C2D;" d="M342.938,218.46H254.26h-2.066h-0.08h-0.898c-0.754,0-1.404,0.423-1.744,1.039
			c-0.066,0.119-0.119,0.245-0.16,0.378c-0.057,0.186-0.096,0.379-0.096,0.583c0,0.84,0.518,1.556,1.252,1.853
			c0.23,0.093,0.482,0.147,0.748,0.147h3.361h85.961h4.08h56.561h2.723c1.104,0,1.996-0.896,1.996-2s-0.9-2-2.004-2h-1.486h-59.424
			H342.938z"/>
		<path style="fill:#2B2C2D;" d="M413.344,124.075h-2.207h-37.715c-1.105,0-2,0.896-2,2s0.895,2,2,2h38.07h1.852
			c1.094,0,1.979-0.879,1.996-1.968c0-0.011,0.004-0.021,0.004-0.032c0-0.126-0.016-0.248-0.037-0.367
			C415.133,124.779,414.322,124.075,413.344,124.075z"/>
		<path style="fill:#2B2C2D;" d="M414.092,135.36h-2.105h-38.564c-1.105,0-2,0.896-2,2s0.895,2,2,2h38.748h1.922
			c1.088,0,1.967-0.869,1.994-1.95c0-0.017,0.006-0.032,0.006-0.05c0-0.047-0.012-0.091-0.014-0.137
			C416.006,136.184,415.148,135.36,414.092,135.36z"/>
		<path style="fill:#2B2C2D;" d="M416.344,148.646c0-1.104-0.896-2-2-2h-2.02h-38.902c-1.105,0-2,0.896-2,2s0.895,2,2,2h38.902h2.02
			C415.447,150.646,416.344,149.75,416.344,148.646L416.344,148.646L416.344,148.646z"/>
		<path style="fill:#2B2C2D;" d="M148.004,370.798c0-7.461-11.865-29.335-13.217-31.805l-1.754-3.202l-1.754,3.202
			c-1.354,2.47-13.217,24.344-13.217,31.805c0,8.254,6.715,14.97,14.971,14.97C141.287,385.768,148.004,379.052,148.004,370.798z
			 M122.062,370.798c0-4.7,6.818-18.688,10.971-26.604c4.15,7.914,10.971,21.901,10.971,26.604c0,6.049-4.922,10.97-10.971,10.97
			S122.062,376.847,122.062,370.798z"/>
	</g>
</g>
</svg>
