<?xml version="1.0" encoding="utf-8"?>
<!-- Generator: Adobe Illustrator 16.0.4, SVG Export Plug-In . SVG Version: 6.00 Build 0)  -->
<!DOCTYPE svg PUBLIC "-//W3C//DTD SVG 1.1//EN" "http://www.w3.org/Graphics/SVG/1.1/DTD/svg11.dtd">
<svg version="1.1" xmlns="http://www.w3.org/2000/svg" xmlns:xlink="http://www.w3.org/1999/xlink" x="0px" y="0px"
	 width="269.126px" height="324.313px" viewBox="0 0 269.126 324.313" style="enable-background:new 0 0 269.126 324.313;"
	 xml:space="preserve">
<symbol  id="New_Symbol_1" viewBox="-2869.69 1635.391 384.073 275">
	<g id="Elements_4_">
		<g>
			<path style="fill:none;stroke:#454647;stroke-width:5;stroke-linecap:round;stroke-miterlimit:10;" d="M-2500.584,1823.523
				v-12.832h-86.4v12.832c0,2.458,0.206,4.871,0.602,7.221c1.426,8.46,5.309,16.086,10.893,22.119
				c6.46,6.979,15.192,11.818,25.021,13.346c2.176,0.339,4.413,0.515,6.686,0.515c2.273,0,4.511-0.176,6.687-0.515
				c18.323-2.849,32.842-17.213,35.912-35.465C-2500.79,1828.395-2500.584,1825.981-2500.584,1823.523z"/>
			<path style="fill:none;stroke:#454647;stroke-width:5;stroke-linecap:round;stroke-miterlimit:10;" d="M-2550.47,1866.209v6.125
				c0,3.691,2.993,6.686,6.686,6.686s6.687-2.994,6.687-6.686v-6.125"/>
			<path style="fill:none;stroke:#454647;stroke-width:5;stroke-linecap:round;stroke-miterlimit:10;" d="M-2734.672,1695.492
				c-1.476,26.48-21.861,47.916-47.869,51.037c-2.149,0.257-4.336,0.39-6.558,0.39s-4.407-0.133-6.557-0.39
				c-16.771-2.011-31.202-11.638-39.739-25.323c-4.7-7.539-7.605-16.309-8.131-25.714"/>
			<path style="fill:none;stroke:#454647;stroke-width:5;stroke-linecap:round;stroke-miterlimit:10;" d="M-2866.756,1637.892
				l7.605,47.321c0.952,5.923,6.063,10.279,12.063,10.279h115.978c5.999,0,11.111-4.356,12.062-10.279l7.605-47.321H-2866.756z"/>
			
				<line style="fill:none;stroke:#454647;stroke-width:5;stroke-linecap:round;stroke-miterlimit:10;" x1="-2770.584" y1="1721.206" x2="-2835.395" y2="1721.206"/>
			
				<line style="fill:none;stroke:#454647;stroke-width:5;stroke-linecap:round;stroke-miterlimit:10;" x1="-2805.041" y1="1670.806" x2="-2861.464" y2="1670.806"/>
			
				<line style="fill:none;stroke:#454647;stroke-width:5;stroke-linecap:round;stroke-miterlimit:10;" x1="-2805.041" y1="1663.092" x2="-2862.703" y2="1663.092"/>
			
				<line style="fill:none;stroke:#454647;stroke-width:5;stroke-linecap:round;stroke-miterlimit:10;" x1="-2805.041" y1="1655.378" x2="-2863.943" y2="1655.378"/>
			<path style="fill:none;stroke:#454647;stroke-width:5;stroke-linecap:round;stroke-miterlimit:10;" d="M-2511.641,1682.717
				c0-2.414-1.958-4.371-4.372-4.371s-4.371,1.957-4.371,4.371s1.957,4.372,4.371,4.372S-2511.641,1685.131-2511.641,1682.717z"/>
			<path style="fill:none;stroke:#454647;stroke-width:5;stroke-linecap:round;stroke-miterlimit:10;" d="M-2511.641,1652.549
				c0-2.414-1.958-4.371-4.372-4.371s-4.371,1.957-4.371,4.371s1.957,4.37,4.371,4.37S-2511.641,1654.963-2511.641,1652.549z"/>
			<path style="fill:none;stroke:#454647;stroke-width:5;stroke-linecap:round;stroke-miterlimit:10;" d="M-2535.041,1663.092
				c0-2.414-1.957-4.372-4.371-4.372s-4.372,1.958-4.372,4.372s1.958,4.371,4.372,4.371S-2535.041,1665.506-2535.041,1663.092z"/>
			<path style="fill:none;stroke:#454647;stroke-width:5;stroke-linecap:round;stroke-miterlimit:10;" d="M-2678.912,1708.092
				c0-2.414-1.958-4.372-4.372-4.372s-4.371,1.958-4.371,4.372s1.957,4.371,4.371,4.371S-2678.912,1710.506-2678.912,1708.092z"/>
			<path style="fill:none;stroke:#454647;stroke-width:5;stroke-linecap:round;stroke-miterlimit:10;" d="M-2678.912,1689.835
				c0-2.414-1.958-4.372-4.372-4.372s-4.371,1.958-4.371,4.372s1.957,4.371,4.371,4.371S-2678.912,1692.249-2678.912,1689.835z"/>
			<path style="fill:none;stroke:#454647;stroke-width:5;stroke-linecap:round;stroke-miterlimit:10;" d="M-2678.912,1671.577
				c0-2.415-1.958-4.371-4.372-4.371s-4.371,1.956-4.371,4.371s1.957,4.372,4.371,4.372S-2678.912,1673.992-2678.912,1671.577z"/>
			<path style="fill:none;stroke:#454647;stroke-width:5;stroke-linecap:round;stroke-miterlimit:10;" d="M-2782.541,1880.696
				v-134.167c-2.149,0.257-4.336,0.39-6.558,0.39s-4.407-0.133-6.557-0.39v134.167c0,2.809,2.273,5.081,5.076,5.081h2.962
				C-2784.815,1885.777-2782.541,1883.505-2782.541,1880.696z"/>
			
				<line style="fill:none;stroke:#454647;stroke-width:5;stroke-linecap:round;stroke-miterlimit:10;" x1="-2804.013" y1="1788.577" x2="-2774.184" y2="1788.577"/>
			<path style="fill:none;stroke:#454647;stroke-width:5;stroke-linecap:round;stroke-miterlimit:10;" d="M-2638.927,1816.606
				v-58.933c-3.847-2.278-7.921-4.314-12.183-6.084c-1.152-0.479-2.319-0.94-3.502-1.379c-3.163-1.177-6.424-2.217-9.771-3.095
				c-8.522-2.248-17.589-3.498-27-3.58c-3.657,0.031-7.262,0.241-10.8,0.617c-5.575,0.586-10.991,1.589-16.2,2.963
				c-3.349,0.878-6.608,1.918-9.772,3.095c-2.221,0.829-4.397,1.724-6.516,2.69c-3.178,1.44-6.238,3.04-9.17,4.772v58.933
				c4.892,2.89,10.137,5.395,15.686,7.462c3.163,1.178,6.423,2.217,9.772,3.096c6.397,1.688,13.099,2.808,20.026,3.302
				c2.299,0.165,4.629,0.258,6.974,0.278c5.985-0.052,11.828-0.576,17.485-1.533c3.24-0.545,6.413-1.229,9.515-2.047
				c3.348-0.879,6.608-1.918,9.771-3.096C-2649.064,1822.001-2643.818,1819.496-2638.927,1816.606z"/>
			<g>
				<g>
					
						<line style="fill:none;stroke:#454647;stroke-width:5;stroke-linecap:round;stroke-miterlimit:10;" x1="-2728.156" y1="1750.211" x2="-2728.156" y2="1824.068"/>
					
						<line style="fill:none;stroke:#454647;stroke-width:5;stroke-linecap:round;stroke-miterlimit:10;" x1="-2718.384" y1="1747.116" x2="-2718.384" y2="1827.164"/>
				</g>
				<g>
					
						<line style="fill:none;stroke:#454647;stroke-width:5;stroke-linecap:round;stroke-miterlimit:10;" x1="-2664.384" y1="1747.116" x2="-2664.384" y2="1827.164"/>
					
						<line style="fill:none;stroke:#454647;stroke-width:5;stroke-linecap:round;stroke-miterlimit:10;" x1="-2654.613" y1="1750.211" x2="-2654.613" y2="1824.068"/>
				</g>
			</g>
			<polyline style="fill:none;stroke:#454647;stroke-width:5;stroke-linecap:round;stroke-miterlimit:10;" points="
				-2664.384,1758.749 -2664.384,1747.116 -2664.384,1637.892 -2702.184,1637.892 -2702.184,1721.206 -2702.184,1744.153 			"/>
			<path style="fill:none;stroke:#454647;stroke-width:5;stroke-linecap:round;stroke-miterlimit:10;" d="M-2586.985,1810.691
				v-172.8h86.4v172.8H-2586.985z"/>
			<path style="fill:none;stroke:#454647;stroke-width:5;stroke-linecap:round;stroke-miterlimit:10;" d="M-2586.985,1684.666
				c5.221,3.276,11.387,5.169,18,5.169c4.758,0,9.283-0.978,13.393-2.746"/>
			<path style="fill:none;stroke:#454647;stroke-width:5;stroke-linecap:round;stroke-miterlimit:10;" d="M-2555.592,1687.089
				c0.447,10.537,9.134,18.946,19.779,18.946c5.045,0,9.652-1.888,13.145-4.994"/>
			<path style="fill:none;stroke:#454647;stroke-width:5;stroke-linecap:round;stroke-miterlimit:10;" d="M-2522.668,1701.041
				c3.369,2.493,7.54,3.965,12.056,3.965c3.646,0,7.071-0.963,10.028-2.645"/>
			
				<line style="fill:none;stroke:#454647;stroke-width:5;stroke-linecap:round;stroke-miterlimit:10;" x1="-2563.327" y1="1766.463" x2="-2576.338" y2="1753.452"/>
			
				<line style="fill:none;stroke:#454647;stroke-width:5;stroke-linecap:round;stroke-miterlimit:10;" x1="-2563.327" y1="1750.042" x2="-2576.338" y2="1737.029"/>
			
				<line style="fill:none;stroke:#454647;stroke-width:5;stroke-linecap:round;stroke-miterlimit:10;" x1="-2563.327" y1="1733.62" x2="-2576.338" y2="1720.608"/>
			
				<line style="fill:none;stroke:#454647;stroke-width:5;stroke-linecap:round;stroke-miterlimit:10;" x1="-2501.186" y1="1830.744" x2="-2586.383" y2="1830.744"/>
			<path style="fill:none;stroke:#454647;stroke-width:5;stroke-linecap:round;stroke-miterlimit:10;" d="M-2673.899,1829.211
				v23.652v45.171c0,5.444-4.413,9.857-9.857,9.857h-41.402h-54.084c-5.444,0-9.857-4.413-9.857-9.857v-12.257"/>
			<polyline style="fill:none;stroke:#454647;stroke-width:5;stroke-linecap:round;stroke-miterlimit:10;" points="
				-2673.899,1852.861 -2622.209,1852.861 -2575.489,1852.861 			"/>
			
				<line style="fill:none;stroke:#454647;stroke-width:5;stroke-linecap:round;stroke-miterlimit:10;" x1="-2622.213" y1="1852.863" x2="-2622.213" y2="1864.178"/>
			<path style="fill:none;stroke:#454647;stroke-width:5;stroke-linecap:round;stroke-miterlimit:10;" d="M-2612.698,1873.691
				c0-5.255-4.26-9.514-9.515-9.514c-5.254,0-9.514,4.259-9.514,9.514c0,5.254,4.26,9.515,9.514,9.515
				C-2616.958,1883.206-2612.698,1878.945-2612.698,1873.691z"/>
			
				<line style="fill:none;stroke:#454647;stroke-width:5;stroke-linecap:round;stroke-miterlimit:10;" x1="-2725.157" y1="1897.312" x2="-2725.157" y2="1907.892"/>
			<path style="fill:none;stroke:#454647;stroke-width:5;stroke-linecap:round;stroke-miterlimit:10;" d="M-2734.672,1887.799
				c0,5.255,4.26,9.514,9.515,9.514s9.515-4.259,9.515-9.514c0-5.256-4.26-9.514-9.515-9.514S-2734.672,1882.543-2734.672,1887.799z
				"/>
			<path style="fill:none;stroke:#454647;stroke-width:5;stroke-linecap:round;stroke-miterlimit:10;" d="M-2734.672,1752.901
				v-15.65c0-8.861,7.184-16.045,16.046-16.045h16.441"/>
			<path style="fill:none;stroke:#454647;stroke-width:5;stroke-linecap:round;stroke-miterlimit:10;" d="M-2782.541,1867.824
				c12.358,1.347,29.551-0.227,36.746-9.617c2.123-2.772,3.378-6.229,3.378-10.487c0-12.687-11.817-9.848-11.817,0
				c0,3.965,3.357,7.771,8.439,10.487c14.806,7.904,44.207,6.47,47.438-27.741"/>
			
				<line style="fill:none;stroke:#454647;stroke-width:5;stroke-linecap:round;stroke-miterlimit:10;" x1="-2709.384" y1="1802.977" x2="-2680.584" y2="1802.977"/>
			
				<line style="fill:none;stroke:#454647;stroke-width:5;stroke-linecap:round;stroke-miterlimit:10;" x1="-2702.184" y1="1788.577" x2="-2687.098" y2="1788.577"/>
			<g>
				<polyline style="fill:none;stroke:#454647;stroke-width:5;stroke-linecap:round;stroke-miterlimit:10;" points="
					-2624.985,1684.691 -2624.985,1670.291 -2624.985,1658.463 -2624.985,1637.892 				"/>
				
					<line style="fill:none;stroke:#454647;stroke-width:5;stroke-linecap:round;stroke-miterlimit:10;" x1="-2630.899" y1="1664.378" x2="-2619.071" y2="1676.206"/>
				
					<line style="fill:none;stroke:#454647;stroke-width:5;stroke-linecap:round;stroke-miterlimit:10;" x1="-2630.899" y1="1652.549" x2="-2619.071" y2="1664.378"/>
				<path style="fill:none;stroke:#454647;stroke-width:5;stroke-linecap:round;stroke-miterlimit:10;" d="M-2586.989,1721.211
					c-6.721,0-14.311,0-17.04,0c-7.651,0-14.521,0-19.151,0c-16.979,0-20.32,24.681-1.8,24.681c11.96,0,19.12-11.591,20.95-24.681
					c2.37-17-4.23-36.52-20.95-36.52c-35.09,0-29.75,46.74-28.9,66.899"/>
			</g>
			
				<line style="fill:none;stroke:#454647;stroke-width:5;stroke-linecap:round;stroke-miterlimit:10;" x1="-2599.451" y1="1810.691" x2="-2488.117" y2="1810.691"/>
		</g>
	</g>
</symbol>
<g id="Background">
	<g id="New_Symbol_8_9_">
		<g id="Elements_106_">
		</g>
	</g>
	<g id="New_Symbol_6_11_">
		<g id="Elements_105_">
		</g>
	</g>
	<g id="New_Symbol_10_">
		<g id="DoneElements_11_">
		</g>
		<g id="Elements_104_">
		</g>
	</g>
</g>
<g id="Elements">
	<g id="New_Symbol_2_">
		<g id="DoneElements_3_">
		</g>
		<g id="Elements_36_">
		</g>
	</g>
	<g id="New_Symbol_3_2_">
		<g id="Elements_35_">
		</g>
	</g>
	<g id="New_Symbol_1_2_">
		<g id="Elements_34_">
		</g>
	</g>
	<g id="New_Symbol_2_2_">
		<g id="Elements_33_">
		</g>
	</g>
	<g id="New_Symbol_5_2_">
		<g id="Elements_32_">
		</g>
	</g>
	<g id="New_Symbol_6_2_">
		<g id="Elements_31_">
		</g>
	</g>
	<g id="New_Symbol_7_2_">
		<g id="Elements_30_">
		</g>
	</g>
	<g id="New_Symbol_8_2_">
		<g id="Elements_29_">
		</g>
	</g>
	<g id="New_Symbol_9_2_">
		<g id="Elements_28_">
		</g>
	</g>
	<g id="New_Symbol_2_8_">
		<g id="Elements_99_">
		</g>
	</g>
	<g id="New_Symbol_9_">
		<g id="DoneElements_10_">
		</g>
		<g id="Elements_95_">
		</g>
	</g>
	<g id="New_Symbol_7_9_">
		<g id="Elements_94_">
		</g>
	</g>
	<g id="New_Symbol_9_10_">
		<g id="Elements_93_">
		</g>
	</g>
	<g id="New_Symbol_1_10_">
		<g id="Elements_100_">
		</g>
	</g>
	<g id="New_Symbol_9_11_">
		<g id="Elements_101_">
		</g>
	</g>
	<g id="New_Symbol_3_10_">
		<g id="Elements_102_">
		</g>
	</g>
	<g id="New_Symbol_5_10_">
		<g id="Elements_103_">
		</g>
	</g>
	<g id="New_Symbol_3_9_">
		<g id="Elements_98_">
		</g>
	</g>
	<g id="New_Symbol_1_9_">
		<g id="Elements_97_">
		</g>
	</g>
	<g id="New_Symbol_8_8_">
		<g id="Elements_96_">
		</g>
	</g>
	<g id="New_Symbol_9_9_">
		<g id="Elements_91_">
		</g>
	</g>
	<g id="New_Symbol_5_9_">
		<g id="Elements_90_">
		</g>
	</g>
	<g id="New_Symbol_6_9_">
		<g id="Elements_89_">
		</g>
	</g>
	<g id="New_Symbol_6_10_">
		<g id="Elements_92_">
		</g>
	</g>
	<g id="Hopfen_1_">
		<path style="fill:#B7E0AA;" d="M134.564,280.337l-1.106-0.735c-4.264-2.832-8.461-5.891-12.529-9.098
			c-3.176,9.455-7.119,18.719-11.756,27.576c-0.631,1.209-1.287,2.412-1.945,3.612c8.133,6.015,16.635,11.656,25.337,16.815v-20.695
			c0-1.104,0.895-2,2-2c1.104,0,2,0.896,2,2v20.695c8.7-5.159,17.202-10.801,25.335-16.815c-0.658-1.199-1.314-2.403-1.946-3.615
			c-4.636-8.854-8.579-18.118-11.755-27.572c-4.062,3.202-8.26,6.261-12.527,9.097L134.564,280.337z"/>
		<path style="fill:#B7E0AA;" d="M78.843,224.464c-6.163,9.447-13.182,18.381-20.908,26.609
			c11.125,19.997,25.656,37.641,43.224,52.447c0.102,0.085,0.203,0.171,0.304,0.256c1.445-2.479,2.84-5.008,4.165-7.549
			c4.771-9.111,8.79-18.66,11.976-28.401C102.526,255.388,89.503,240.817,78.843,224.464z"/>
		<path style="fill:#B7E0AA;" d="M151.522,267.826c3.188,9.741,7.207,19.29,11.977,28.398c1.33,2.55,2.727,5.085,4.166,7.552
			c0.1-0.085,0.2-0.169,0.301-0.254c17.572-14.808,32.102-32.452,43.225-52.449c-7.725-8.228-14.744-17.161-20.906-26.609
			C179.624,240.818,166.6,255.388,151.522,267.826z"/>
		<path style="fill:#B7E0AA;" d="M134.556,43.876C92.554,43.878,57.919,59.039,34.397,87.72
			C10.158,117.276-0.823,161.043,6.036,200.004c2.672-1.663,5.339-3.416,7.954-5.232c0.003-0.002,0.007-0.003,0.009-0.004
			c0.002-0.003,0.006-0.006,0.009-0.008c6.325-4.401,12.464-9.268,18.245-14.461c7.297-6.547,14.135-13.729,20.328-21.346
			c7.111-8.749,13.462-18.178,18.875-28.025c0.021-0.041,0.053-0.074,0.078-0.113c0.04-0.064,0.08-0.131,0.131-0.19
			c0.042-0.052,0.09-0.096,0.137-0.142c0.045-0.046,0.088-0.093,0.139-0.134c0.061-0.05,0.127-0.091,0.191-0.133
			c0.039-0.024,0.072-0.055,0.113-0.077c0.008-0.004,0.016-0.006,0.023-0.01c0.072-0.039,0.148-0.066,0.225-0.096
			c0.047-0.018,0.094-0.042,0.143-0.057c0.066-0.02,0.135-0.028,0.203-0.041c0.059-0.012,0.117-0.028,0.178-0.034
			c0.064-0.006,0.127-0.001,0.191-0.001s0.129-0.005,0.192,0.001c0.059,0.006,0.116,0.022,0.174,0.033
			c0.07,0.013,0.14,0.022,0.208,0.042c0.047,0.015,0.091,0.037,0.137,0.055c0.078,0.03,0.156,0.059,0.23,0.098
			c0.008,0.004,0.016,0.006,0.021,0.01c0.039,0.021,0.07,0.05,0.105,0.072c0.068,0.044,0.139,0.086,0.201,0.139
			c0.049,0.039,0.088,0.085,0.132,0.128c0.05,0.048,0.098,0.094,0.142,0.147c0.049,0.06,0.089,0.124,0.131,0.188
			c0.025,0.039,0.056,0.073,0.078,0.114c14.334,26.076,34.926,48.629,59.604,65.297c24.678-16.669,45.269-39.222,59.603-65.297
			c0.021-0.041,0.053-0.074,0.078-0.113c0.041-0.064,0.081-0.131,0.131-0.19c0.041-0.052,0.09-0.095,0.137-0.142
			c0.045-0.045,0.088-0.093,0.139-0.135c0.061-0.049,0.125-0.088,0.189-0.13c0.039-0.025,0.072-0.056,0.115-0.079
			c0.008-0.004,0.017-0.006,0.024-0.011c0.069-0.036,0.142-0.062,0.214-0.091c0.053-0.02,0.102-0.045,0.152-0.061
			c0.063-0.019,0.129-0.027,0.193-0.039c0.062-0.013,0.125-0.029,0.188-0.036c0.064-0.006,0.128-0.001,0.191-0.001
			c0.064,0,0.129-0.005,0.191,0.001c0.062,0.007,0.125,0.023,0.188,0.036c0.064,0.012,0.131,0.021,0.193,0.039
			c0.051,0.016,0.1,0.039,0.148,0.059c0.074,0.029,0.148,0.056,0.219,0.094c0.008,0.004,0.016,0.006,0.023,0.01
			c0.041,0.022,0.074,0.052,0.111,0.076c0.066,0.043,0.133,0.084,0.193,0.134c0.051,0.041,0.094,0.088,0.139,0.133
			c0.047,0.047,0.095,0.091,0.137,0.143c0.05,0.061,0.09,0.126,0.131,0.19c0.025,0.039,0.057,0.072,0.078,0.113
			c5.412,9.848,11.764,19.276,18.875,28.025c6.193,7.617,13.031,14.799,20.326,21.345c5.783,5.194,11.922,10.061,18.248,14.463
			c0.004,0.003,0.008,0.005,0.012,0.008v0.001c2.617,1.816,5.285,3.57,7.959,5.234c6.858-38.961-4.123-82.728-28.362-112.284
			c-23.521-28.681-58.154-43.842-100.155-43.844l-0.009,0.001C134.564,43.877,134.558,43.876,134.556,43.876z"/>
		<path style="fill:#B7E0AA;" d="M135.672,200.297l-1.107,0.737l-1.108-0.737c-11.365-7.559-21.895-16.34-31.393-26.115
			c-4.822,16.375-11.832,32.018-20.854,46.571c10.861,17.017,24.303,32.104,39.982,44.854c4.312,3.506,8.805,6.839,13.372,9.921
			c4.573-3.087,9.065-6.42,13.37-9.921c15.68-12.75,29.121-27.839,39.98-44.855c-9.02-14.553-16.029-30.195-20.852-46.57
			C157.565,183.957,147.038,192.738,135.672,200.297z M136.564,244.963c0,1.104-0.896,2-2,2c-1.105,0-2-0.896-2-2V220.77
			c0-1.104,0.895-2,2-2c1.104,0,2,0.896,2,2V244.963z"/>
		<path style="fill:#B7E0AA;" d="M191.97,219.704c6.679,10.616,14.459,20.606,23.127,29.696c1.968,2.071,4.049,4.134,6.175,6.169
			c14.974-16.571,25.47-36.667,30.451-58.326c-6.067-4.288-11.96-8.973-17.522-13.97c-7.449-6.684-14.434-14.018-20.758-21.797
			c-6.515-8.016-12.398-16.592-17.531-25.531c-7.205,12.542-15.826,24.252-25.65,34.86
			C175.106,188.049,182.402,204.497,191.97,219.704z M224.876,203.231c0-1.104,0.896-2,2-2c1.105,0,2,0.896,2,2v24.192
			c0,1.104-0.895,2-2,2c-1.104,0-2-0.896-2-2V203.231z"/>
		<path style="fill:#B7E0AA;" d="M55.685,161.477c-6.324,7.779-13.309,15.113-20.76,21.798c-5.561,4.997-11.455,9.683-17.521,13.97
			c4.983,21.664,15.483,41.764,30.461,58.336c2.128-2.037,4.196-4.107,6.16-6.177c8.671-9.092,16.452-19.082,23.132-29.699
			c9.567-15.207,16.863-31.655,21.708-48.899c-9.823-10.607-18.444-22.317-25.649-34.859
			C68.082,144.884,62.198,153.461,55.685,161.477z M44.249,227.424c0,1.104-0.896,2-2,2s-2-0.896-2-2v-24.192c0-1.104,0.896-2,2-2
			s2,0.896,2,2V227.424z"/>
		<path style="fill:#2B2C2D;" d="M48.812,260.143c-0.044,0.027-0.093,0.045-0.138,0.068C48.72,260.188,48.769,260.17,48.812,260.143
			z"/>
		<path style="fill:#2B2C2D;" d="M48.12,260.411c-0.121,0.022-0.242,0.033-0.365,0.033C47.878,260.444,47.999,260.434,48.12,260.411
			z"/>
		<path style="fill:#2B2C2D;" d="M48.476,260.311c-0.061,0.023-0.125,0.036-0.188,0.053
			C48.351,260.347,48.415,260.334,48.476,260.311z"/>
		<path style="fill:#2B2C2D;" d="M49.118,259.907l0.002-0.001c-0.034,0.031-0.072,0.054-0.107,0.082
			C49.048,259.961,49.085,259.938,49.118,259.907z"/>
		<path style="fill:#2B2C2D;" d="M13.999,194.768c-0.002,0.001-0.006,0.002-0.009,0.004
			C13.993,194.77,13.997,194.769,13.999,194.768z"/>
		<path style="fill:#2B2C2D;" d="M46.388,256.984c0.496-0.465,0.986-0.935,1.478-1.404c-14.978-16.572-25.478-36.672-30.461-58.336
			c-0.372,0.263-0.739,0.54-1.113,0.8c-0.8,0.557-1.606,1.105-2.417,1.649c5.438,22.408,16.598,43.142,32.417,60.114
			c0,0.001,0.001,0.001,0.001,0.001C45.54,259.003,45.583,257.739,46.388,256.984z"/>
		<path style="fill:#2B2C2D;" d="M47.356,260.404c-0.008-0.002-0.014-0.005-0.021-0.007
			C47.343,260.399,47.349,260.402,47.356,260.404z"/>
		<path style="fill:#2B2C2D;" d="M46.612,260.086c-0.012-0.008-0.021-0.019-0.03-0.026
			C46.592,260.067,46.601,260.078,46.612,260.086z"/>
		<path style="fill:#2B2C2D;" d="M46.971,260.285c-0.004-0.002-0.007-0.005-0.011-0.007
			C46.964,260.28,46.967,260.283,46.971,260.285z"/>
		<path style="fill:#2B2C2D;" d="M220.366,260.168c-0.016-0.01-0.035-0.016-0.051-0.025
			C220.331,260.152,220.351,260.158,220.366,260.168z"/>
		<path style="fill:#2B2C2D;" d="M222.595,260.018c-0.027,0.021-0.052,0.049-0.08,0.068
			C222.543,260.066,222.567,260.039,222.595,260.018z"/>
		<path style="fill:#2B2C2D;" d="M251.723,197.243c-4.981,21.659-15.478,41.755-30.451,58.326c0.491,0.471,0.97,0.948,1.468,1.415
			c0.805,0.755,0.848,2.019,0.094,2.824c0,0,0.002,0,0.002-0.001c15.82-16.974,26.98-37.708,32.418-60.114
			c-0.809-0.544-1.615-1.093-2.416-1.648C252.462,197.784,252.096,197.507,251.723,197.243z"/>
		<path style="fill:#2B2C2D;" d="M220.009,259.907c0.027,0.025,0.059,0.043,0.086,0.066c-0.027-0.023-0.061-0.042-0.088-0.067
			C220.008,259.906,220.008,259.907,220.009,259.907z"/>
		<path style="fill:#2B2C2D;" d="M221.372,260.444c-0.123,0-0.244-0.011-0.365-0.033
			C221.128,260.434,221.249,260.444,221.372,260.444z"/>
		<path style="fill:#2B2C2D;" d="M255.134,194.77l-0.002-0.001C255.132,194.769,255.132,194.77,255.134,194.77z"/>
		<path style="fill:#2B2C2D;" d="M221.808,260.393c-0.013,0.003-0.025,0.01-0.037,0.012
			C221.782,260.402,221.795,260.396,221.808,260.393z"/>
		<path style="fill:#2B2C2D;" d="M222.212,260.254c-0.02,0.009-0.036,0.022-0.057,0.031
			C222.176,260.276,222.192,260.263,222.212,260.254z"/>
		<path style="fill:#2B2C2D;" d="M220.712,260.328c-0.02-0.008-0.041-0.01-0.061-0.018
			C220.671,260.318,220.692,260.32,220.712,260.328z"/>
		<path style="fill:#2B2C2D;" d="M2.831,204.15c-0.035-0.066-0.07-0.133-0.096-0.201C2.763,204.02,2.796,204.085,2.831,204.15z"/>
		<path style="fill:#2B2C2D;" d="M4.015,205.135c-0.108-0.033-0.213-0.074-0.314-0.125C3.802,205.061,3.905,205.102,4.015,205.135z"
			/>
		<path style="fill:#2B2C2D;" d="M4.589,205.23c-0.152-0.001-0.305-0.022-0.452-0.058C4.284,205.207,4.435,205.229,4.589,205.23z"/>
		<path style="fill:#2B2C2D;" d="M4.988,205.192c0.026-0.005,0.05-0.017,0.075-0.022c-0.136,0.032-0.273,0.051-0.41,0.055
			C4.765,205.221,4.875,205.215,4.988,205.192z"/>
		<path style="fill:#2B2C2D;" d="M3.204,204.666c-0.111-0.109-0.211-0.235-0.297-0.373C2.993,204.43,3.091,204.556,3.204,204.666z"
			/>
		<path style="fill:#2B2C2D;" d="M3.574,204.942c-0.11-0.066-0.216-0.144-0.314-0.231C3.356,204.799,3.462,204.875,3.574,204.942z"
			/>
		<path style="fill:#2B2C2D;" d="M3.567,201.517c0.822-0.494,1.646-1,2.469-1.513c-6.859-38.961,4.122-82.728,28.361-112.284
			c23.521-28.681,58.156-43.842,100.158-43.844c-1.1-0.005-1.991-0.897-1.991-1.999v-1.979
			C90.222,40.377,55.236,56.002,31.306,85.184c-13.193,16.086-22.74,36.119-27.607,57.935c-4.54,20.332-4.906,41.255-1.062,60.505
			c0.008,0.044,0.027,0.083,0.037,0.126C2.448,202.908,2.782,201.987,3.567,201.517z"/>
		<path style="fill:#2B2C2D;" d="M5.55,204.979c-0.111,0.061-0.225,0.109-0.342,0.146C5.329,205.086,5.441,205.038,5.55,204.979z"/>
		<path style="fill:#2B2C2D;" d="M266.403,203.926c-0.039,0.103-0.086,0.203-0.143,0.301
			C266.315,204.131,266.364,204.031,266.403,203.926z"/>
		<path style="fill:#2B2C2D;" d="M265.866,204.711c-0.111,0.102-0.23,0.193-0.359,0.266
			C265.638,204.902,265.756,204.812,265.866,204.711z"/>
		<path style="fill:#2B2C2D;" d="M266.242,204.265c-0.083,0.138-0.185,0.257-0.292,0.366
			C266.06,204.521,266.159,204.4,266.242,204.265z"/>
		<path style="fill:#2B2C2D;" d="M265.472,204.992c-0.123,0.065-0.254,0.115-0.389,0.154
			C265.219,205.107,265.349,205.058,265.472,204.992z"/>
		<path style="fill:#2B2C2D;" d="M237.821,85.184c-23.932-29.182-58.915-44.807-101.257-45.285v1.979
			c0,1.102-0.892,1.994-1.991,1.999c42.001,0.002,76.634,15.163,100.155,43.844c24.239,29.557,35.221,73.323,28.362,112.284
			c0.822,0.513,1.646,1.019,2.469,1.513c0.795,0.478,1.13,1.416,0.885,2.266c0.016-0.054,0.036-0.104,0.047-0.159
			c3.844-19.25,3.476-40.173-1.062-60.506C260.56,121.303,251.013,101.27,237.821,85.184z"/>
		<path style="fill:#2B2C2D;" d="M264.139,205.192c0.128,0.025,0.254,0.036,0.378,0.038c-0.151-0.002-0.303-0.025-0.453-0.061
			C264.089,205.176,264.112,205.188,264.139,205.192z"/>
		<path style="fill:#2B2C2D;" d="M263.919,205.125c-0.117-0.037-0.23-0.086-0.342-0.146
			C263.685,205.038,263.798,205.086,263.919,205.125z"/>
		<path style="fill:#2B2C2D;" d="M264.532,205.231c0.152,0,0.301-0.023,0.447-0.058c-0.148,0.034-0.297,0.057-0.449,0.058H264.532z"
			/>
		<path style="fill:#2B2C2D;" d="M72.636,129.977c0.066-0.02,0.135-0.028,0.203-0.041C72.771,129.948,72.702,129.957,72.636,129.977
			z"/>
		<path style="fill:#2B2C2D;" d="M73.017,129.901c0.064-0.006,0.128-0.001,0.191-0.001C73.144,129.9,73.081,129.896,73.017,129.901z
			"/>
		<path style="fill:#2B2C2D;" d="M73.4,129.901c0.059,0.006,0.116,0.022,0.174,0.033C73.517,129.924,73.459,129.907,73.4,129.901z"
			/>
		<path style="fill:#2B2C2D;" d="M71.665,130.624c0.041-0.051,0.09-0.096,0.137-0.142C71.755,130.528,71.707,130.572,71.665,130.624
			z"/>
		<path style="fill:#2B2C2D;" d="M72.269,130.129c0.072-0.039,0.148-0.066,0.225-0.096C72.417,130.062,72.341,130.09,72.269,130.129
			z"/>
		<path style="fill:#2B2C2D;" d="M74.478,130.35c0.047,0.039,0.088,0.085,0.132,0.128C74.565,130.435,74.526,130.389,74.478,130.35z
			"/>
		<path style="fill:#2B2C2D;" d="M74.751,130.625c0.049,0.059,0.089,0.123,0.131,0.188C74.84,130.749,74.8,130.685,74.751,130.625z"
			/>
		<path style="fill:#2B2C2D;" d="M74.171,130.139c-0.006-0.004-0.014-0.006-0.021-0.01c0.044,0.023,0.084,0.055,0.127,0.082
			C74.241,130.188,74.21,130.16,74.171,130.139z"/>
		<path style="fill:#2B2C2D;" d="M73.782,129.977c0.047,0.015,0.091,0.037,0.137,0.055
			C73.873,130.014,73.829,129.991,73.782,129.977z"/>
		<path style="fill:#2B2C2D;" d="M71.94,130.349c0.059-0.049,0.125-0.091,0.191-0.133C72.067,130.258,72.001,130.299,71.94,130.349z
			"/>
		<path style="fill:#2B2C2D;" d="M17.404,197.244c6.065-4.287,11.96-8.973,17.521-13.97c7.451-6.685,14.436-14.019,20.76-21.798
			c6.514-8.016,12.397-16.593,17.531-25.531c-0.59-1.027-1.19-2.051-1.76-3.09c-0.367-0.666-0.305-1.443,0.078-2.041
			c-0.025,0.039-0.057,0.072-0.078,0.113c-5.413,9.848-11.764,19.276-18.875,28.025c-6.193,7.617-13.031,14.799-20.328,21.346
			c-5.781,5.193-11.92,10.06-18.245,14.461c-0.003,0.002-0.007,0.005-0.009,0.008c-0.002,0.001-0.006,0.002-0.009,0.004
			c-2.615,1.816-5.282,3.569-7.954,5.232c-0.822,0.513-1.646,1.019-2.469,1.513c-0.785,0.471-1.119,1.392-0.895,2.232
			c0.02,0.067,0.037,0.134,0.062,0.2c0.025,0.068,0.061,0.135,0.096,0.201c0.018,0.037,0.029,0.075,0.051,0.111
			c0.008,0.012,0.018,0.02,0.025,0.031c0.086,0.138,0.186,0.264,0.297,0.373c0.018,0.017,0.038,0.029,0.056,0.045
			c0.099,0.088,0.204,0.165,0.314,0.231c0.042,0.024,0.083,0.046,0.126,0.067c0.102,0.051,0.206,0.092,0.314,0.125
			c0.041,0.013,0.08,0.028,0.122,0.038c0.147,0.035,0.3,0.057,0.452,0.058c0,0,0.006,0.001,0.01,0.001
			c0.018,0,0.037-0.007,0.055-0.007c0.137-0.004,0.274-0.022,0.41-0.055c0.049-0.013,0.095-0.029,0.145-0.045
			c0.117-0.037,0.23-0.086,0.342-0.146c0.024-0.013,0.053-0.018,0.076-0.032c2.758-1.657,5.522-3.419,8.248-5.253
			c0.811-0.544,1.617-1.093,2.417-1.649C16.665,197.784,17.032,197.507,17.404,197.244z"/>
		<path style="fill:#2B2C2D;" d="M195.919,129.9c0.064,0,0.128-0.005,0.191,0.001C196.048,129.896,195.983,129.9,195.919,129.9z"/>
		<path style="fill:#2B2C2D;" d="M196.298,129.938c0.064,0.012,0.129,0.02,0.193,0.039
			C196.429,129.958,196.362,129.949,196.298,129.938z"/>
		<path style="fill:#2B2C2D;" d="M196.64,130.035c0.074,0.029,0.148,0.056,0.219,0.094
			C196.788,130.091,196.714,130.064,196.64,130.035z"/>
		<path style="fill:#2B2C2D;" d="M196.993,130.215c0.066,0.043,0.135,0.084,0.193,0.134
			C197.126,130.299,197.06,130.258,196.993,130.215z"/>
		<path style="fill:#2B2C2D;" d="M197.325,130.481c0.047,0.047,0.096,0.092,0.137,0.143
			C197.42,130.572,197.372,130.528,197.325,130.481z"/>
		<path style="fill:#2B2C2D;" d="M194.956,130.139c-0.043,0.023-0.076,0.054-0.115,0.079c0.047-0.03,0.091-0.063,0.14-0.09
			C194.973,130.133,194.964,130.135,194.956,130.139z"/>
		<path style="fill:#2B2C2D;" d="M194.245,130.814c0.041-0.065,0.082-0.132,0.131-0.19
			C194.326,130.684,194.286,130.75,194.245,130.814z"/>
		<path style="fill:#2B2C2D;" d="M195.194,130.037c0.053-0.02,0.101-0.045,0.152-0.061
			C195.296,129.992,195.247,130.018,195.194,130.037z"/>
		<path style="fill:#2B2C2D;" d="M194.513,130.482c0.045-0.046,0.09-0.094,0.139-0.135
			C194.601,130.39,194.558,130.438,194.513,130.482z"/>
		<path style="fill:#2B2C2D;" d="M195.54,129.938c0.062-0.013,0.125-0.029,0.188-0.036
			C195.665,129.908,195.603,129.925,195.54,129.938z"/>
		<path style="fill:#2B2C2D;" d="M265.56,201.517c-0.822-0.494-1.646-1-2.469-1.513c-2.674-1.664-5.342-3.418-7.957-5.234
			l-0.002-0.001c-0.004-0.003-0.008-0.005-0.012-0.008c-6.326-4.402-12.465-9.269-18.248-14.463
			c-7.295-6.546-14.133-13.728-20.326-21.345c-7.111-8.749-13.463-18.178-18.875-28.025c-0.021-0.041-0.053-0.074-0.078-0.113
			c0.384,0.598,0.445,1.375,0.078,2.041c-0.57,1.039-1.17,2.062-1.76,3.09c5.133,8.939,11.017,17.516,17.531,25.531
			c6.324,7.779,13.309,15.113,20.758,21.797c5.562,4.997,11.455,9.682,17.522,13.97c0.373,0.264,0.739,0.541,1.114,0.802
			c0.801,0.556,1.607,1.104,2.416,1.648c2.725,1.833,5.488,3.596,8.248,5.253c0.023,0.015,0.051,0.02,0.076,0.032
			c0.111,0.061,0.225,0.109,0.342,0.146c0.049,0.016,0.096,0.032,0.145,0.045c0.15,0.035,0.302,0.059,0.453,0.061
			c0.004,0,0.008,0.001,0.012,0.001h0.002c0.152-0.001,0.301-0.023,0.449-0.058c0.035-0.008,0.068-0.018,0.104-0.027
			c0.135-0.039,0.266-0.089,0.389-0.154c0.012-0.006,0.023-0.01,0.035-0.016c0.129-0.072,0.248-0.164,0.359-0.266
			c0.029-0.025,0.057-0.052,0.084-0.08c0.107-0.109,0.209-0.229,0.292-0.366c0.001-0.001,0.001-0.002,0.003-0.003
			c0.006-0.012,0.01-0.023,0.016-0.035c0.057-0.098,0.104-0.198,0.143-0.301c0.018-0.047,0.027-0.096,0.041-0.144
			C266.689,202.933,266.354,201.994,265.56,201.517z"/>
		<path style="fill:#2B2C2D;" d="M197.325,130.481c-0.045-0.045-0.088-0.092-0.139-0.133c-0.059-0.05-0.127-0.091-0.193-0.134
			c-0.037-0.024-0.07-0.054-0.111-0.076c-0.008-0.004-0.016-0.006-0.023-0.01c-0.07-0.038-0.145-0.064-0.219-0.094
			c-0.049-0.02-0.098-0.043-0.148-0.059c-0.064-0.02-0.129-0.027-0.193-0.039c-0.062-0.013-0.125-0.029-0.188-0.036
			c-0.063-0.006-0.127-0.001-0.191-0.001c-0.063,0-0.127-0.005-0.191,0.001c-0.062,0.007-0.125,0.023-0.188,0.036
			c-0.064,0.012-0.13,0.021-0.193,0.039c-0.052,0.016-0.1,0.041-0.152,0.061c-0.072,0.028-0.145,0.055-0.214,0.091
			c-0.049,0.026-0.093,0.06-0.14,0.09c-0.064,0.042-0.129,0.081-0.189,0.13c-0.049,0.041-0.094,0.089-0.139,0.135
			c-0.047,0.047-0.096,0.09-0.137,0.142c-0.049,0.059-0.09,0.125-0.131,0.19c-0.025,0.039-0.057,0.072-0.078,0.113
			c-14.334,26.075-34.925,48.628-59.603,65.297c-24.679-16.668-45.271-39.221-59.604-65.297c-0.022-0.041-0.053-0.075-0.078-0.114
			c-0.042-0.065-0.082-0.13-0.131-0.188c-0.044-0.054-0.092-0.1-0.142-0.147c-0.044-0.043-0.085-0.089-0.132-0.128
			c-0.062-0.053-0.133-0.095-0.201-0.139c-0.043-0.027-0.083-0.059-0.127-0.082c-0.074-0.039-0.152-0.067-0.23-0.098
			c-0.046-0.018-0.09-0.04-0.137-0.055c-0.068-0.02-0.138-0.029-0.208-0.042c-0.058-0.011-0.115-0.027-0.174-0.033
			c-0.063-0.006-0.128-0.001-0.192-0.001c-0.063,0-0.127-0.005-0.191,0.001c-0.061,0.006-0.119,0.022-0.178,0.034
			c-0.068,0.013-0.137,0.021-0.203,0.041c-0.049,0.015-0.096,0.039-0.143,0.057c-0.076,0.029-0.152,0.057-0.225,0.096
			c-0.008,0.004-0.016,0.006-0.023,0.01c-0.041,0.022-0.074,0.053-0.113,0.077c-0.066,0.042-0.133,0.084-0.191,0.133
			c-0.051,0.041-0.094,0.088-0.139,0.134c-0.047,0.046-0.096,0.091-0.137,0.142c-0.051,0.06-0.091,0.126-0.131,0.19
			c-0.383,0.598-0.445,1.375-0.078,2.041c0.569,1.039,1.17,2.062,1.76,3.09c7.205,12.542,15.826,24.252,25.649,34.859
			c0.097-0.346,0.2-0.689,0.294-1.035c0.294-1.066,1.395-1.692,2.459-1.399c1.065,0.293,1.691,1.394,1.398,2.458
			c-0.307,1.121-0.625,2.238-0.953,3.354c9.498,9.775,20.027,18.557,31.393,26.115l1.108,0.737l1.107-0.737
			c11.366-7.559,21.894-16.34,31.392-26.115c-0.328-1.114-0.646-2.232-0.954-3.354c-0.292-1.064,0.333-2.165,1.399-2.458
			c1.064-0.292,2.164,0.334,2.458,1.399c0.095,0.347,0.198,0.69,0.294,1.036c9.824-10.608,18.445-22.318,25.65-34.86
			c0.59-1.027,1.189-2.051,1.76-3.09c0.367-0.666,0.306-1.443-0.078-2.041c-0.041-0.064-0.081-0.13-0.131-0.19
			C197.421,130.573,197.372,130.528,197.325,130.481z"/>
		<path style="fill:#2B2C2D;" d="M54.517,249.025c0.97-0.533,2.186-0.173,2.715,0.796c0.23,0.421,0.471,0.834,0.703,1.252
			c7.727-8.229,14.745-17.162,20.908-26.609c-0.566-0.869-1.132-1.739-1.686-2.619l-0.307-0.488v-0.577c0-1.104,0.896-2.005,2-2.005
			c0.764,0,1.427,0.426,1.764,1.053c0.195,0.311,0.398,0.616,0.596,0.926c9.021-14.554,16.031-30.196,20.854-46.571
			c0.328-1.115,0.646-2.232,0.953-3.354c0.293-1.064-0.333-2.165-1.398-2.458c-1.064-0.293-2.165,0.333-2.459,1.399
			c-0.094,0.346-0.197,0.689-0.294,1.035c-4.845,17.244-12.141,33.692-21.708,48.899c-6.68,10.617-14.461,20.607-23.132,29.699
			c-1.964,2.069-4.032,4.14-6.16,6.177c-0.491,0.47-0.981,0.939-1.478,1.404c-0.805,0.755-0.848,2.019-0.094,2.824
			c0,0,0,0.002,0.002,0.003c0.088,0.095,0.186,0.175,0.286,0.248c0.01,0.008,0.019,0.019,0.03,0.026
			c0.109,0.076,0.227,0.141,0.348,0.192c0.004,0.002,0.007,0.005,0.011,0.007c0.118,0.05,0.24,0.086,0.364,0.112
			c0.008,0.002,0.014,0.005,0.021,0.007c0.131,0.026,0.266,0.04,0.398,0.04c0.123,0,0.244-0.011,0.365-0.033
			c0.056-0.011,0.111-0.032,0.168-0.048c0.062-0.017,0.127-0.029,0.188-0.053c0.068-0.026,0.133-0.065,0.199-0.1
			c0.045-0.023,0.094-0.041,0.138-0.068c0.07-0.044,0.134-0.101,0.2-0.154c0.035-0.028,0.073-0.051,0.107-0.082
			c0-0.001,0.002-0.001,0.002-0.002c2.033-1.906,4.02-3.85,5.928-5.8c-0.444-0.787-0.895-1.571-1.328-2.365
			C53.192,250.771,53.548,249.555,54.517,249.025z"/>
		<path style="fill:#2B2C2D;" d="M222.739,256.984c-0.498-0.467-0.977-0.944-1.468-1.415c-2.126-2.035-4.207-4.098-6.175-6.169
			c-8.668-9.09-16.448-19.08-23.127-29.696c-9.567-15.207-16.863-31.655-21.709-48.898c-0.096-0.346-0.199-0.689-0.294-1.036
			c-0.294-1.065-1.394-1.691-2.458-1.399c-1.066,0.293-1.691,1.394-1.399,2.458c0.308,1.121,0.626,2.239,0.954,3.354
			c4.822,16.375,11.832,32.018,20.852,46.57c0.211-0.329,0.428-0.654,0.636-0.985c0.347-0.593,0.989-0.992,1.726-0.992
			c1.104,0,2,0.891,2,1.995v0.577l-0.307,0.498c-0.555,0.88-1.119,1.75-1.686,2.619c6.162,9.448,13.182,18.382,20.906,26.609
			c0.234-0.418,0.475-0.831,0.703-1.252c0.53-0.97,1.744-1.327,2.715-0.796c0.969,0.529,1.326,1.744,0.796,2.714
			c-0.435,0.794-0.884,1.578-1.329,2.365c1.911,1.952,3.898,3.896,5.93,5.8c0.001,0.001,0.002,0.001,0.002,0.002
			c0.027,0.025,0.061,0.044,0.088,0.067c0.072,0.06,0.143,0.121,0.221,0.169c0.016,0.01,0.035,0.016,0.051,0.025
			c0.094,0.055,0.188,0.104,0.285,0.143c0.02,0.008,0.041,0.01,0.061,0.018c0.098,0.033,0.195,0.064,0.295,0.083
			c0.121,0.022,0.242,0.033,0.365,0.033c0.133,0,0.268-0.014,0.398-0.04c0.012-0.002,0.024-0.009,0.037-0.012
			c0.117-0.025,0.235-0.06,0.348-0.107c0.021-0.009,0.037-0.022,0.057-0.031c0.104-0.049,0.207-0.102,0.303-0.168
			c0.028-0.02,0.053-0.047,0.08-0.068c0.082-0.064,0.164-0.128,0.236-0.206c0.002-0.001,0.002-0.002,0.002-0.002
			C223.587,259.003,223.544,257.739,222.739,256.984z"/>
		<path style="fill:#2B2C2D;" d="M103.028,301.063c0.662-0.886,1.914-1.062,2.799-0.403c0.464,0.347,0.934,0.688,1.4,1.032
			c0.658-1.2,1.314-2.403,1.945-3.612c4.637-8.857,8.58-18.121,11.756-27.576c-0.756-0.596-1.514-1.187-2.26-1.793
			c-0.359-0.291-0.709-0.591-1.066-0.885c-3.186,9.741-7.205,19.29-11.976,28.401c-1.325,2.541-2.72,5.069-4.165,7.549
			c-0.101-0.085-0.202-0.171-0.304-0.256c-17.567-14.807-32.099-32.45-43.224-52.447c-0.232-0.418-0.473-0.831-0.703-1.252
			c-0.529-0.969-1.745-1.329-2.715-0.796c-0.969,0.529-1.324,1.745-0.795,2.714c0.434,0.794,0.884,1.578,1.328,2.365
			c11.281,19.976,25.91,37.623,43.529,52.473c0.711,0.602,1.432,1.203,2.153,1.787l1.765,1.431l1.195-1.933
			c0.229-0.37,0.449-0.74,0.646-1.085c0.307-0.519,0.602-1.054,0.904-1.578c-0.604-0.445-1.213-0.887-1.812-1.336
			C102.546,303.201,102.366,301.947,103.028,301.063z"/>
		<path style="fill:#2B2C2D;" d="M214.608,249.025c-0.971-0.531-2.185-0.174-2.715,0.796c-0.229,0.421-0.469,0.834-0.703,1.252
			c-11.123,19.997-25.652,37.642-43.225,52.449c-0.101,0.085-0.201,0.169-0.301,0.254c-1.439-2.467-2.836-5.002-4.166-7.552
			c-4.77-9.108-8.789-18.657-11.977-28.398c-0.355,0.294-0.706,0.594-1.064,0.885c-0.746,0.605-1.505,1.197-2.26,1.794
			c3.176,9.454,7.119,18.718,11.755,27.572c0.632,1.212,1.288,2.416,1.946,3.615c0.467-0.345,0.937-0.686,1.4-1.032
			c0.884-0.661,2.137-0.483,2.799,0.403c0.662,0.884,0.482,2.138-0.402,2.8c-0.6,0.449-1.209,0.891-1.812,1.336
			c0.297,0.516,0.589,1.045,0.889,1.553c0.213,0.37,0.434,0.74,0.662,1.11l1.195,1.933l1.764-1.431
			c0.721-0.584,1.443-1.186,2.152-1.785c17.623-14.852,32.25-32.5,43.529-52.475c0.445-0.787,0.895-1.571,1.329-2.365
			C215.935,250.77,215.577,249.555,214.608,249.025z"/>
		<path style="fill:#2B2C2D;" d="M166.099,301.063c-0.662-0.887-1.915-1.064-2.799-0.403c-0.464,0.347-0.934,0.688-1.4,1.032
			c-8.133,6.015-16.635,11.656-25.335,16.815v3.496c0,1.104-0.896,2-2,2c-1.105,0-2-0.896-2-2v-3.496
			c-8.702-5.159-17.204-10.801-25.337-16.815c-0.467-0.345-0.937-0.686-1.4-1.032c-0.885-0.659-2.137-0.482-2.799,0.403
			c-0.662,0.884-0.482,2.138,0.402,2.8c0.6,0.449,1.209,0.891,1.812,1.336c9.07,6.684,18.584,12.916,28.322,18.537l0.999,0.577
			l1-0.577c9.735-5.619,19.249-11.854,28.319-18.537c0.604-0.445,1.213-0.887,1.812-1.336
			C166.581,303.201,166.761,301.947,166.099,301.063z"/>
		<path style="fill:#2B2C2D;" d="M147.935,265.607c-4.305,3.501-8.797,6.834-13.37,9.921c-4.567-3.082-9.061-6.415-13.372-9.921
			c-15.68-12.75-29.121-27.838-39.982-44.854c-0.197-0.31-0.4-0.615-0.596-0.926c-0.337-0.627-1-1.053-1.764-1.053
			c-1.104,0-2,0.9-2,2.005v0.577l0.307,0.488c0.554,0.88,1.119,1.75,1.686,2.619c10.66,16.354,23.684,30.924,38.76,43.362
			c0.357,0.294,0.707,0.594,1.066,0.885c0.746,0.606,1.504,1.197,2.26,1.793c4.068,3.207,8.266,6.266,12.529,9.098l1.106,0.735
			l1.106-0.735c4.268-2.836,8.465-5.895,12.527-9.097c0.755-0.597,1.514-1.188,2.26-1.794c0.358-0.291,0.709-0.591,1.064-0.885
			c15.077-12.438,28.102-27.008,38.762-43.362c0.566-0.869,1.131-1.739,1.686-2.619l0.307-0.498v-0.577c0-1.104-0.896-1.995-2-1.995
			c-0.736,0-1.379,0.399-1.726,0.992c-0.208,0.331-0.425,0.656-0.636,0.985C177.056,237.769,163.614,252.857,147.935,265.607z"/>
		<path style="fill:#2B2C2D;" d="M134.556,43.876c0.002,0,0.006,0.001,0.006,0.001l0.012-0.001c1.1-0.005,1.991-0.897,1.991-1.999
			v-1.979V2c0-1.104-0.896-2-2-2c-1.105,0-2,0.896-2,2v37.898v1.979C132.564,42.979,133.456,43.871,134.556,43.876z"/>
		<path style="fill:#2B2C2D;" d="M42.249,201.231c-1.104,0-2,0.896-2,2v24.192c0,1.104,0.896,2,2,2s2-0.896,2-2v-24.192
			C44.249,202.127,43.354,201.231,42.249,201.231z"/>
		<path style="fill:#2B2C2D;" d="M226.876,229.424c1.105,0,2-0.896,2-2v-24.192c0-1.104-0.895-2-2-2c-1.104,0-2,0.896-2,2v24.192
			C224.876,228.528,225.772,229.424,226.876,229.424z"/>
		<path style="fill:#2B2C2D;" d="M134.564,218.77c-1.105,0-2,0.896-2,2v24.193c0,1.104,0.895,2,2,2c1.104,0,2-0.896,2-2V220.77
			C136.564,219.665,135.669,218.77,134.564,218.77z"/>
		<path style="fill:#2B2C2D;" d="M134.564,295.812c-1.105,0-2,0.896-2,2v20.695v3.496c0,1.104,0.895,2,2,2c1.104,0,2-0.896,2-2
			v-3.496v-20.695C136.564,296.708,135.669,295.812,134.564,295.812z"/>
	</g>
</g>
</svg>
